<svg width="14" height="16" viewBox="0 0 14 16" fill="none" xmlns="http://www.w3.org/2000/svg">
<path d="M11.4297 8.45648C11.4297 7.1557 12.0273 6.20648 13.1875 5.4682C12.5195 4.51898 11.5352 4.02679 10.2344 3.92133C8.96875 3.81586 7.59766 4.62445 7.10547 4.62445C6.57812 4.62445 5.38281 3.95648 4.43359 3.95648C2.46484 3.99164 0.390625 5.50336 0.390625 8.63226C0.390625 9.54633 0.53125 10.4955 0.882812 11.4799C1.33984 12.7807 2.95703 15.9448 4.64453 15.8745C5.52344 15.8745 6.15625 15.2416 7.31641 15.2416C8.44141 15.2416 9.00391 15.8745 9.98828 15.8745C11.7109 15.8745 13.1875 12.9916 13.6094 11.6909C11.3242 10.601 11.4297 8.52679 11.4297 8.45648ZM9.46094 2.69086C10.4102 1.56586 10.3047 0.511169 10.3047 0.124451C9.46094 0.194763 8.47656 0.722107 7.91406 1.35492C7.28125 2.05804 6.92969 2.93695 7 3.88617C7.91406 3.95648 8.75781 3.49945 9.46094 2.69086Z" fill="white"/>
</svg>
