<svg width="202" height="134" viewBox="0 0 202 134" fill="none" xmlns="http://www.w3.org/2000/svg">
<path d="M202 0H0V134H202V0Z" fill="#120065"/>
<path d="M202 0L0 67L202 134V0Z" fill="#AC002B"/>
<path fill-rule="evenodd" clip-rule="evenodd" d="M202 7.16016V126.84L21.6543 67.0003L202 7.16016Z" fill="white"/>
<path fill-rule="evenodd" clip-rule="evenodd" d="M162.408 82.0291C162.408 82.0291 160.943 80.6712 162.68 78.4492C161.73 77.5234 162.598 75.7951 162.598 75.7951C162.598 75.7951 160.997 75.1162 162.68 72.3078C161.459 71.382 162.001 69.3451 162.001 69.3451C162.001 69.3451 158.04 67.6786 161.784 66.0738C158.718 67.586 155.842 64.0061 155.842 64.0061L151.364 64.1604C150.604 59.9324 144.716 63.6049 149.085 51.4455C147.945 51.2295 146.67 50.8283 145.394 51.9085C144.119 52.9577 140.51 55.2415 138.366 52.9577C136.222 50.674 139.777 47.4027 139.831 47.341C139.886 47.2793 144.58 44.5326 145.258 42.7118C145.204 41.3539 143.712 40.2737 145.041 37.311C146.588 34.5027 156.004 31.8486 160.292 30.9227C162.381 29.8426 163.304 27.8057 163.304 27.8057L163.765 29.7809C163.765 29.7809 173.263 26.5713 173.724 25.0591C174.185 23.5469 173.941 26.4478 173.941 26.4478C177.686 26.0775 182.435 22.405 183.086 24.0715C186.234 23.3926 192.258 20.3373 192.258 20.3373C192.258 20.3373 194.32 20.2756 192.855 22.8371C193.778 24.5036 192.584 25.9541 192.502 25.9541C192.448 25.9541 192.909 27.6206 191.715 28.5464C192.122 29.9969 190.983 31.1388 190.983 31.1388C190.983 31.1388 191.525 32.8979 189.382 33.7928C189.571 35.305 188.188 35.6137 188.188 35.6137C188.188 35.6137 188.405 37.2184 187.455 37.8974C187.455 39.101 186.397 39.7182 186.397 39.7182C186.397 39.7182 187.075 40.1811 186.125 40.9218C185.175 41.6933 175.488 48.452 175.488 48.3903C175.488 48.3285 182.57 49.8407 183.059 50.1494C183.52 50.458 188.866 54.5008 188.866 54.5008L183.466 62.0927C183.466 62.0927 177.442 61.3212 177.17 61.7224C176.899 62.0927 178.446 62.247 178.771 62.8642C179.097 63.4815 179.64 64.9319 180.698 64.7776C181.756 64.6233 178.69 66.9688 176.682 67.2157C176.682 68.0489 179.233 68.1415 179.884 67.4317C180.562 66.7528 178.283 69.4068 178.012 69.7772C177.74 70.1475 181.024 69.2525 181.024 69.2525C181.024 69.2525 180.481 71.7523 177.605 72.5238C178.744 74.6533 178.283 76.0112 178.202 76.0112C178.147 76.0112 176.329 73.8817 174.592 74.2521C175.054 76.3198 176.465 78.2023 176.872 78.5109C177.279 78.8196 173.724 78.727 173.263 77.5851C172.801 76.4432 172.394 80.3318 173.67 81.5354C172.204 81.5971 170.929 80.6095 170.929 80.6095C170.929 80.6095 170.061 82.8933 170.658 84.0351C171.255 85.177 168.595 81.7514 168.595 81.7514L163.521 84.1894L162.408 82.0291Z" fill="#8F3814"/>
<path d="M170.766 84.5289C170.658 84.5289 170.495 84.4981 168.46 81.9366L163.602 84.4363C163.521 84.4981 163.412 84.4363 163.358 84.3437L162.218 82.1526C162.218 82.1526 161.676 81.6279 161.621 80.733C161.567 79.9923 161.839 79.2516 162.381 78.4801C161.73 77.6468 162.11 76.3815 162.327 75.8877C162.137 75.7643 161.893 75.4865 161.784 75.0545C161.594 74.3447 161.784 73.4188 162.408 72.3387C161.486 71.4746 161.676 69.9932 161.757 69.4686C161.269 69.2217 159.993 68.5427 159.966 67.586C159.966 67.2466 160.102 66.9379 160.373 66.6602C157.795 66.7219 155.76 64.253 155.679 64.1604L151.337 64.3765C151.228 64.3456 151.147 64.3147 151.12 64.1913C150.876 62.8951 150.116 62.4013 149.329 61.8767C147.646 60.7965 145.91 59.6855 148.759 51.6307H148.705C147.592 51.4147 146.398 51.353 145.476 52.1245C144.336 53.0812 142.355 54.2231 140.645 54.2231C139.669 54.2231 138.854 53.8836 138.203 53.1738C137.688 52.6183 137.443 51.9702 137.443 51.2604C137.47 49.4704 139.153 47.7113 139.669 47.2175C139.696 47.1867 139.723 47.1558 139.967 47.0015C143.712 44.656 144.797 43.329 145.041 42.6501C145.014 42.3723 144.879 42.0328 144.716 41.6316C144.336 40.6441 143.875 39.4096 144.851 37.2493C146.832 33.6385 160.102 30.7684 160.238 30.7376C162.191 29.7192 163.087 27.744 163.114 27.744C163.141 27.6514 163.223 27.6206 163.331 27.6206C163.412 27.6206 163.494 27.6823 163.494 27.7749L163.901 29.534C167.537 28.2995 173.209 26.0467 173.534 25.0282C173.67 24.627 173.751 24.4419 173.941 24.4419C174.213 24.5344 174.321 24.6888 174.213 26.1701C175.786 25.9541 177.523 25.1825 179.07 24.5344C181.132 23.6395 182.76 23.0222 183.249 23.8246C186.369 23.084 192.177 20.183 192.231 20.1521C192.475 20.1213 193.235 20.1521 193.533 20.8002C193.778 21.3249 193.642 22.0655 193.072 23.0222C193.723 23.9481 193.398 24.9974 193.153 25.522C193.153 25.5529 192.964 25.9232 192.774 26.1084C192.828 26.6947 192.909 27.8983 192.014 28.6699C192.312 30.0895 191.335 31.1696 191.2 31.3239C191.308 31.3548 191.661 33.0522 189.653 33.978C189.707 35.089 188.975 35.6445 188.459 35.8297C188.486 36.3235 188.459 37.5271 187.618 38.1443C187.699 38.9776 187.102 39.5639 186.777 39.8108C186.831 39.9034 186.885 40.0268 186.885 40.1812C186.885 40.5206 186.695 40.8292 186.315 41.1687C185.637 41.7242 178.256 46.9089 176.166 48.2977C177.876 48.6372 182.788 49.6865 183.222 49.9642C183.683 50.2728 188.839 54.1305 189.056 54.3157C189.11 54.3465 189.137 54.4082 189.137 54.47C189.137 54.5317 189.137 54.5934 189.083 54.6551L183.656 62.247C183.439 62.3087 179.613 61.8458 177.984 61.8458C177.74 61.8458 177.577 61.8458 177.496 61.8767C177.605 61.8767 177.767 61.9384 177.876 62.0001C178.31 62.1853 178.799 62.3705 178.988 62.7408L179.151 63.0494C179.45 63.6666 180.047 64.5925 180.671 64.5616C181.078 64.5616 181.159 64.7159 181.186 64.8394C181.214 65.4566 178.717 67.0614 177.089 67.4009C177.523 67.7403 179.396 67.7403 179.857 67.2774C179.884 67.2466 180.074 67.0923 180.101 67.0923C180.345 67.4009 180.345 67.4009 179.206 68.7588C178.934 69.0674 178.69 69.4069 178.5 69.6229C179.368 69.4994 181.051 69.0365 181.051 69.0365C181.105 69.0057 181.187 69.0365 181.241 69.0982C181.295 69.16 181.322 69.2217 181.295 69.3143C181.268 69.4069 180.725 71.814 178.012 72.6782C178.907 74.499 178.663 75.7952 178.5 76.1038C178.473 76.1655 178.364 76.2581 178.283 76.2581C178.229 76.2581 178.039 76.1038 178.012 76.0729C177.577 75.6717 176.275 74.3447 174.918 74.4681C175.434 76.3198 176.682 78.048 177.035 78.3566C177.116 78.4184 177.17 78.5727 177.143 78.6653C177.089 78.8504 176.953 78.943 176.356 78.943C175.596 78.943 173.534 78.727 173.127 77.7394C173.127 77.7703 173.019 78.3566 173.073 79.1282C173.1 79.622 173.236 80.8564 173.86 81.4428C173.914 81.5045 173.941 81.5971 173.914 81.6897C173.887 81.7823 173.806 81.844 173.724 81.844C172.476 81.844 171.499 81.3193 171.092 81.0416C170.902 81.6279 170.468 83.2019 170.902 84.0043C170.929 84.066 171.038 84.3746 170.983 84.4672L170.766 84.5289ZM161.621 66.3824C160.807 66.7528 160.373 67.1848 160.4 67.586C160.4 68.265 161.649 68.9439 162.083 69.1291C162.191 69.16 162.246 69.2834 162.218 69.4069C162.218 69.4377 161.73 71.3203 162.815 72.1227C162.87 72.1535 162.897 72.2152 162.897 72.277C162.897 72.3387 162.897 72.4004 162.87 72.4621C162.273 73.4805 162.029 74.3447 162.191 74.9619C162.327 75.4557 162.707 75.61 162.707 75.61C162.761 75.6408 162.815 75.6717 162.815 75.7643C162.843 75.826 162.843 75.8877 162.815 75.9495C162.815 75.9803 162.029 77.5542 162.843 78.3258C162.87 78.3566 162.897 78.4184 162.897 78.4801C162.897 78.5418 162.87 78.6035 162.843 78.6344C162.273 79.3442 162.001 80.054 162.056 80.7021C162.11 81.4428 162.544 81.8748 162.571 81.8748L163.657 83.9734L168.568 81.628C169.301 82.3995 169.979 83.2019 170.414 83.6957C170.088 82.4612 170.766 80.7021 170.793 80.6095C170.821 80.5478 170.875 80.4861 170.929 80.4861C170.983 80.4552 171.038 80.4861 171.092 80.5169C171.092 80.5169 172.069 81.2576 173.263 81.3811C172.584 80.2701 172.584 78.2949 172.801 77.5851C172.991 76.9987 173.453 77.3999 173.507 77.5542C173.751 78.1715 175.325 78.4801 176.383 78.4801C176.465 78.4801 176.519 78.4801 176.573 78.4801C175.976 77.8011 174.891 76.1038 174.484 74.3447C174.457 74.2829 174.484 74.2212 174.511 74.1595C174.538 74.0978 174.592 74.0669 174.647 74.0669C176.221 73.7274 177.794 75.2705 178.283 75.7334C178.256 75.6717 178.473 74.4373 177.523 72.6473C177.496 72.5856 177.496 72.493 177.523 72.4313C177.55 72.3695 177.605 72.3078 177.659 72.3078C179.748 71.7523 180.535 70.271 180.807 69.592C180.128 69.7772 178.744 70.1167 178.256 70.1167C178.174 70.1167 177.957 70.0241 177.93 69.9315C177.903 69.8389 177.903 69.7155 177.957 69.6229C178.066 69.4686 178.5 68.9439 178.934 68.4193C179.043 68.265 179.178 68.1415 179.287 67.9872C178.066 68.3267 176.573 68.1107 176.573 67.1848C176.573 67.0614 176.655 66.9688 176.763 66.9688C178.364 66.7836 180.671 65.1788 180.834 64.8085L180.644 65.0245C179.694 65.0245 179.151 63.9444 178.826 63.2963L178.69 63.0186C178.554 62.8025 178.12 62.6174 177.767 62.463C177.36 62.2779 177.089 62.1853 177.035 61.9384C177.008 61.8767 177.062 61.6915 177.089 61.6298C177.17 61.5063 177.36 61.4446 178.012 61.4446C179.694 61.4446 183.412 61.9075 183.547 61.9384L188.649 54.6243C187.699 53.9145 183.439 50.7049 183.032 50.4271C182.652 50.1802 176.085 48.7297 175.596 48.6989C175.515 48.6989 175.461 48.6372 175.407 48.5754C175.379 48.5137 175.379 48.4211 175.407 48.3594C175.814 48.1125 185.04 41.6934 186.098 40.8292C186.369 40.6132 186.505 40.3972 186.505 40.2429C186.505 40.0886 186.369 39.996 186.369 39.996C186.315 39.9651 186.261 39.8725 186.261 39.78C186.261 39.6874 186.315 39.6256 186.369 39.5948C186.369 39.5948 187.319 39.0393 187.319 37.99C188.242 37.1876 188.052 35.7371 188.052 35.7371C188.025 35.6137 188.106 35.4902 188.215 35.4902C188.269 35.4902 189.436 35.2125 189.246 33.9163C189.246 33.8237 189.3 33.7003 189.382 33.6694C191.308 32.8361 190.874 31.3548 190.874 31.2931C190.928 31.0462 191.959 29.9969 191.607 28.7007C191.58 28.6081 191.607 28.4847 191.688 28.4538C192.556 27.8057 192.448 26.6639 192.394 26.2318C192.394 26.1701 192.394 25.9541 192.448 25.8923C192.529 25.8306 193.642 24.5962 192.774 23.0531C193.235 22.0038 193.371 21.4174 193.208 21.0471C193.018 20.6459 192.421 20.6459 192.367 20.6459C192.177 20.7385 186.342 23.7012 183.222 24.3801C183.113 24.3801 183.032 24.3493 183.005 24.2567C182.95 24.1332 182.842 23.9481 182.435 23.9481C181.729 23.9481 180.59 24.4419 179.26 25.0282C177.605 25.738 175.759 26.5713 174.05 26.7256C173.995 26.7256 173.941 26.6947 173.887 26.6639C173.833 26.6022 173.833 26.5404 173.833 26.4787C173.86 26.1392 173.887 25.738 173.914 25.4294C172.747 27.0651 164.878 29.75 163.955 30.0586C163.901 30.0895 163.847 30.0586 163.792 30.0278C163.684 29.9352 163.63 29.9043 163.63 29.8426L163.277 28.3921C162.87 29.0711 161.947 30.3672 160.427 31.1388C155.082 32.2806 146.67 34.9039 145.259 37.4345C144.363 39.4096 144.797 40.4589 145.15 41.4156C145.313 41.8477 145.476 42.2489 145.503 42.7118C145.069 43.9154 143.359 45.4276 140.238 47.4027L139.994 47.557C139.017 48.5137 137.932 49.9951 137.905 51.2604C137.905 51.8467 138.095 52.3714 138.529 52.8343C139.099 53.4515 139.831 53.7601 140.7 53.7601C142.843 53.7601 145.041 51.9702 145.286 51.7542C146.29 50.9209 147.619 50.9518 148.813 51.1987L149.112 51.2604C149.166 51.2604 149.22 51.3221 149.247 51.3838C149.275 51.4455 149.275 51.5073 149.247 51.569C146.398 59.4695 147.918 60.4571 149.546 61.5063C150.36 62.031 151.201 62.5865 151.5 63.9444L155.814 63.7901C155.977 63.8827 157.904 66.2281 160.183 66.2281C160.617 66.2281 161.024 66.1355 161.432 65.9812L161.676 65.8578C161.784 65.8269 161.893 65.8578 161.947 65.9812C161.974 66.1047 161.947 66.2281 161.839 66.2899L161.621 66.3824Z" fill="black"/>
<path fill-rule="evenodd" clip-rule="evenodd" d="M123.143 77.4923C123.251 77.4923 130.524 77.3689 133.861 75.1777C135.517 78.1713 137.796 80.2081 137.796 80.2081L138.881 75.8567C138.881 75.8567 141.486 75.9801 141.731 76.6591C141.378 77.4615 141.242 78.5416 141.242 78.5416C141.242 78.5416 143.033 78.6651 143.142 78.9428C143.25 79.2206 142.653 81.5043 142.653 81.5043L150.279 83.5412C150.279 83.5412 150.876 80.1464 151.473 80.5476C152.069 80.9488 154.675 85.146 158.365 85.4237C162.056 85.7015 162.3 81.9055 162.3 81.9055L163.141 82.461C163.141 82.461 164.688 78.6651 164.932 78.6651C165.176 78.6651 165.529 79.2206 167.564 79.2206C168.161 80.023 168.405 81.9364 168.405 81.9364C168.405 81.9364 166.153 84.5287 166.859 86.5347C167.564 88.5716 167.7 88.0161 167.7 88.0161L184.144 92.4909C184.144 92.4909 184.985 93.9723 183.547 94.8056C183.547 94.929 166.994 90.4541 166.994 90.4541C166.994 90.4541 165.448 92.491 164.254 92.0898C163.06 91.6886 163.901 92.8922 163.901 92.8922L181.756 94.5278C181.756 94.5278 183.059 96.4103 182.109 96.9658C180.915 97.1202 162.815 95.6079 162.815 95.6079C162.815 95.6079 161.757 98.2003 160.563 96.0091C159.749 97.4905 158.772 95.6079 158.772 95.6079C158.772 95.6079 157.225 96.9658 156.981 95.4845C155.679 96.5647 154.837 94.8056 154.837 94.8056L147.212 94.2501L146.724 95.0524C146.724 95.0524 148.026 95.4536 146.018 96.4103C143.983 97.367 158.175 96.9658 158.528 97.0893C158.881 97.2127 157.578 98.4472 157.578 98.4472C157.578 98.4472 164.823 99.0027 166.153 97.2436C167.456 95.4845 165.665 99.5582 165.665 99.5582C165.665 99.5582 171.39 99.2805 171.39 99.0336C171.39 98.7558 171.255 101.07 167.347 100.793C169.735 102.552 172.693 103.632 172.693 103.632C172.693 103.632 169.735 104.434 166.262 103.508C166.859 105.268 169.464 106.903 169.464 106.903C169.464 106.903 167.564 108.786 163.277 104.187C164.471 106.625 163.521 107.582 163.385 107.304C163.277 107.027 161.241 103.663 156.493 102.428C159.45 104.589 158.148 105.545 158.148 105.545C158.148 105.545 156.601 102.428 154.105 105.545C153.155 102.706 149.464 101.07 144.933 100.793C143.495 98.9101 142.653 99.4348 139.343 98.3546C137.443 95.9166 134.702 93.2008 134.702 93.2008C134.702 93.2008 134.811 89.5591 138.04 89.9603C138.393 91.1639 138.393 90.7627 138.393 90.7627C138.393 90.7627 141.975 89.2814 143.033 91.2874C144.58 88.1704 146.724 90.8244 147.076 91.9046C148.108 92.0898 153.263 92.2441 153.263 92.2441C153.263 92.2441 152.666 91.0405 153.019 91.1639C153.372 91.2874 156.221 89.9603 156.113 89.5283C156.004 89.1271 155.869 87.7692 156.357 87.8926C156.845 88.0161 152.314 87.2137 149.817 89.374C148.976 88.4173 149.573 85.8558 149.573 85.8558L142.192 84.0967L141.839 86.257C141.839 86.257 139.695 86.6582 139.831 86.1335C139.94 85.578 139.343 88.0161 139.343 88.0161C139.343 88.0161 136.493 87.2137 136.493 87.0594C136.493 86.905 137.335 82.1833 137.335 82.3067C137.335 82.4302 134.947 82.5845 131.609 85.4237C130.632 82.0907 123.143 77.6158 123.143 77.4923Z" fill="#F4C034"/>
<path d="M163.439 107.583H163.304L163.195 107.429C163.168 107.398 161.567 104.435 157.496 102.985C158.256 103.694 158.636 104.312 158.636 104.898C158.636 105.453 158.283 105.731 158.256 105.731L158.066 105.855L157.958 105.639C157.958 105.639 157.361 104.497 156.411 104.373C155.733 104.281 155 104.713 154.213 105.669L153.996 105.947L153.887 105.608C153.019 103.015 149.654 101.287 144.905 101.009C143.82 99.6824 143.196 99.5589 141.785 99.2194C141.134 99.0651 140.319 98.88 139.261 98.5405C137.307 96.0716 134.567 93.3558 134.539 93.3558C134.458 93.1089 134.539 91.4424 135.571 90.4239C136.195 89.8067 137.009 89.5907 138.013 89.7141C138.257 90.2696 138.366 90.5165 138.42 90.6091C139.288 90.1771 141.866 89.4055 142.979 90.8869C143.63 89.7759 144.363 89.5598 144.851 89.6216C146.045 89.7141 146.995 91.1338 147.239 91.8436C147.945 91.8744 151.744 91.967 152.911 92.0287C152.585 91.2881 152.693 91.1338 152.748 91.0412L152.829 90.9177L153.046 90.9486C153.345 91.0103 155.706 89.8993 155.895 89.529C155.841 89.4055 155.706 88.634 155.814 88.1402C152.531 87.955 150.767 88.8192 149.898 89.5907L149.763 89.7141L149.627 89.5598C148.867 88.6957 149.166 86.7206 149.301 86.0416L142.3 84.3751L141.975 86.3194C141.269 86.5663 140.319 86.7514 139.858 86.5663C139.722 87.1526 139.478 88.0785 139.478 88.0785L139.424 88.2945L139.234 88.2328C136.222 87.3687 136.222 87.2761 136.222 87.0601C136.222 86.9675 136.358 86.1342 136.629 84.5912C136.792 83.6036 136.9 83.0172 136.982 82.6469C136.222 82.8629 134.241 83.4184 131.663 85.6096L131.446 85.7947L131.365 85.4861C130.605 82.8012 125.368 79.2521 123.658 78.0794C122.925 77.5856 122.925 77.5856 122.925 77.4313V77.2153H123.142C123.224 77.2153 130.469 77.061 133.753 74.9316L133.915 74.8081L134.024 74.9933C135.354 77.3696 137.063 79.1287 137.687 79.7151L138.718 75.5488H138.881C139.532 75.5796 141.649 75.7339 141.92 76.5055C141.676 77.1844 141.541 77.9251 141.486 78.2646C143.169 78.4189 143.304 78.6966 143.332 78.7584C143.44 78.9744 143.277 79.8385 142.924 81.2581L150.143 83.3258C150.305 82.4926 150.685 80.6718 151.228 80.394L151.337 80.3323L151.608 80.394C151.771 80.4866 151.961 80.7335 152.286 81.1347C153.345 82.4 155.597 85.0541 158.419 85.2392C161.893 85.4861 162.137 82.0605 162.137 81.9371L162.164 81.5667L163.086 82.1531C164.606 78.4497 164.823 78.4497 164.959 78.4497L165.285 78.5732C165.556 78.7275 166.126 79.0053 167.591 79.0053C168.378 79.9311 168.622 81.8445 168.622 81.9062C168.541 82.1222 166.397 84.5912 167.048 86.4737C167.483 87.7082 167.672 87.8933 167.672 87.8933L184.171 92.2756C184.307 92.3991 184.714 93.1089 184.524 93.8804C184.415 94.3433 184.09 94.7445 183.628 94.9914C183.601 95.0223 183.574 95.0532 182.082 94.6828C182.38 95.1457 182.76 95.9481 182.652 96.5345C182.597 96.8123 182.434 97.0283 182.217 97.1517C180.969 97.306 163.901 95.9173 162.842 95.8247C162.924 95.9173 162.381 97.0591 161.621 97.09C161.241 97.1209 160.888 96.874 160.563 96.3802C160.346 96.6579 160.102 96.7814 159.857 96.7814C159.342 96.7814 158.935 96.2259 158.745 95.8864C158.446 96.1024 157.822 96.5036 157.334 96.2876C157.144 96.195 156.981 96.0407 156.9 95.763C156.574 95.979 156.221 96.0407 155.895 95.9481C155.136 95.763 154.729 94.868 154.701 94.8371L147.239 94.4051L147.049 94.868C147.212 94.9606 147.375 95.1149 147.402 95.3618C147.429 95.763 147.049 96.1333 146.154 96.5345C146.534 96.7814 152.748 96.7505 155.733 96.7505C157.985 96.7505 158.528 96.7505 158.663 96.7814L158.772 96.8123L158.853 97.0283C158.88 97.2443 158.663 97.6455 158.148 98.1393C160.427 98.2627 165.095 98.2319 166.044 96.9666C166.316 96.5962 166.533 96.3185 166.777 96.4728C166.913 96.5654 167.103 96.7197 166.071 99.1577C168.351 99.0343 170.793 98.8491 171.282 98.7257L171.309 98.6331L171.661 98.6639V98.88C171.661 98.9417 171.661 98.9725 171.607 99.0343C171.39 99.6824 170.63 100.855 168.161 100.886C170.359 102.336 172.801 103.262 172.828 103.262L173.534 103.509L172.828 103.694C172.72 103.725 170.006 104.435 166.723 103.663C167.51 105.176 169.626 106.503 169.653 106.503L169.898 106.657L169.681 106.873C169.599 106.966 167.808 108.632 163.955 104.898C164.335 106.163 164.063 106.842 163.955 107.027C163.738 107.459 163.602 107.583 163.439 107.583ZM155.407 101.904L156.52 102.182C160.834 103.293 163.059 106.225 163.494 107.058C163.494 106.996 163.548 106.935 163.575 106.811C163.656 106.534 163.765 105.731 163.086 104.281L162.462 102.985L163.412 104.003C166.587 107.398 168.405 107.151 169.056 106.873C168.324 106.379 166.56 105.052 166.071 103.571L165.936 103.17L166.316 103.262C168.677 103.91 170.82 103.725 171.906 103.54C170.875 103.108 168.894 102.182 167.238 100.979L166.587 100.516L167.347 100.577C169.681 100.732 170.603 99.9601 170.983 99.4046C170.305 99.528 168.839 99.6824 165.692 99.8058L165.339 99.8367L165.502 99.4972C165.827 98.7874 166.126 97.985 166.316 97.4603C164.932 99.2812 157.876 98.7874 157.578 98.7565L157.062 98.7257L157.469 98.3553C157.958 97.9233 158.365 97.3986 158.419 97.2752C158.365 97.3986 157.062 97.3986 155.706 97.3986C146.751 97.4295 145.747 97.2135 145.665 96.7505C145.611 96.4728 145.882 96.3493 145.991 96.3185C146.995 95.8555 146.995 95.5778 146.995 95.5778C146.995 95.5161 146.859 95.4235 146.724 95.3926L146.452 95.3L147.076 94.2199L154.864 94.652C155.027 94.7754 155.38 95.5161 155.95 95.6704C156.221 95.7321 156.547 95.6395 156.872 95.3926L157.144 95.1766L157.198 95.5469C157.252 95.9481 157.415 96.0099 157.469 96.0099C157.822 96.1642 158.473 95.7012 158.663 95.5161L158.853 95.3618L158.962 95.5778C159.07 95.8247 159.477 96.4419 159.857 96.4419C160.074 96.5036 160.237 96.2876 160.4 95.979L160.563 95.6704L160.726 95.979C160.997 96.5036 161.323 96.7505 161.594 96.7505C162.082 96.7197 162.517 95.9173 162.652 95.6087C163.005 95.4852 179.395 96.8431 181.865 96.8431C181.973 96.8431 182.055 96.8431 182.109 96.8431C182.163 96.7814 182.244 96.6888 182.272 96.5654C182.38 96.0407 181.837 95.084 181.62 94.7754L163.901 93.2323C163.629 92.9237 163.304 92.3991 163.494 92.0596C163.656 91.7819 164.063 91.8744 164.335 91.967C165.23 92.2756 166.451 90.9486 166.858 90.4239L167.293 88.2328L167.374 88.2637C167.211 88.0476 167.021 87.6156 166.723 86.7515C165.99 84.6529 168.107 82.1222 168.297 81.9062C168.215 81.8754 167.971 80.2088 167.455 79.499C166.044 79.5608 165.42 79.2521 165.122 79.0978C164.877 79.1904 164.063 81.0112 163.385 82.7086L163.304 82.9246L162.517 82.4309C162.354 83.3876 161.594 86.0725 158.419 85.8256C155.434 85.6096 153.128 82.8629 152.015 81.5667C151.744 81.2581 151.527 80.9804 151.418 80.9187C151.201 80.9804 150.794 82.3074 150.523 83.7579L150.495 83.9122H150.523L149.817 86.3503L149.763 86.3194C149.627 87.0909 149.464 88.5105 149.898 89.1895C150.902 88.3871 152.802 87.5538 156.248 87.8007V87.8316L156.438 87.8007C156.655 87.8625 156.628 88.0476 156.628 88.0785L156.601 88.2945H156.33C156.221 88.4488 156.221 89.2204 156.33 89.5907L156.384 89.7141L156.221 89.9919C155.787 90.4857 153.67 91.5658 153.046 91.5041C153.182 91.5658 153.318 91.9362 153.48 92.2448L153.67 92.5842H153.318C153.1 92.5842 148.107 92.4299 147.103 92.2448C146.724 91.4732 145.855 90.2696 144.905 90.1771C144.281 90.1462 143.739 90.5783 143.25 91.5041L143.087 91.8436L142.897 91.5041C141.92 89.6524 138.528 91.0412 138.501 91.072C138.23 91.1955 138.149 91.0103 137.877 90.1153C137.145 90.1462 136.439 90.3622 135.896 90.8869C135.028 91.751 134.919 93.2015 134.919 93.2941C134.919 93.1706 137.66 95.9173 139.505 98.2936C140.455 98.5713 141.269 98.7565 141.893 98.88C143.304 99.1886 144.064 99.3737 145.095 100.732C149.681 100.948 153.1 102.614 154.159 105.207C154.946 104.312 155.706 103.91 156.465 104.003C157.307 104.126 157.904 104.836 158.148 105.237C158.175 105.176 158.202 105.083 158.202 104.96C158.202 104.62 157.958 103.879 156.357 102.707L155.407 101.904ZM167.211 90.4548C173.778 92.1213 183.086 94.5902 183.52 94.6211C183.818 94.4359 184.035 94.1582 184.117 93.8187C184.253 93.2632 183.954 92.6768 183.954 92.6768L167.754 88.3254L167.645 88.3562C167.645 88.3562 167.645 88.3562 167.618 88.3562L167.211 90.4548ZM163.819 92.2756C163.765 92.2756 163.765 92.2756 163.765 92.2756C163.765 92.3374 163.901 92.5842 164.036 92.8003L179.829 94.1582C177.414 93.5409 173.452 92.4917 166.913 90.7017C167.021 90.7634 165.474 92.7694 164.172 92.3374C163.982 92.2756 163.873 92.2756 163.819 92.2756ZM136.71 87.1218C136.955 87.1218 138.094 87.4613 139.18 87.7699C139.315 87.2144 139.424 86.8132 139.505 86.5046L141.025 78.7892L141.052 78.5423C141.052 78.4806 141.188 77.4005 141.541 76.5672C141.432 76.4438 140.184 76.166 139.017 76.1043L137.904 80.61L137.66 80.394C137.633 80.3631 135.435 78.388 133.78 75.5179C130.958 77.2462 125.666 77.6474 123.794 77.7399C123.821 77.7708 123.848 77.7708 123.875 77.8017C125.747 79.067 130.605 82.3691 131.663 85.1775C134.214 83.0481 136.168 82.5234 136.927 82.3074C137.036 82.2766 137.117 82.2457 137.145 82.2457C137.172 82.184 137.226 82.184 137.28 82.184H137.47V82.4309C137.47 82.4926 137.47 82.5234 137.443 82.5543C137.334 83.0789 136.656 86.9675 136.629 87.1835C136.683 87.1218 136.683 87.1218 136.71 87.1218ZM140.021 85.9182H140.075L140.021 86.2268C140.129 86.2577 140.971 86.2268 141.812 86.0725L142.029 83.8505H142.056L142.463 81.721H142.436L142.49 81.4742C142.762 80.4557 143.006 79.2521 142.979 79.0361C142.87 78.9744 142.138 78.8509 141.432 78.7892L140.021 85.9182ZM142.436 83.9739L149.491 85.6404L150.034 83.7579L142.816 81.8445L142.436 83.9739ZM165.257 103.756H164.85C164.823 103.571 164.226 102.923 159.586 101.04C158.962 100.793 158.935 100.793 158.989 100.577L159.26 100.423C159.613 100.516 162.11 100.176 162.951 100.084C163.276 100.053 163.466 100.022 163.494 100.022V100.485C163.439 100.485 163.249 100.516 162.978 100.546C161.865 100.701 160.943 100.793 160.291 100.855C164.389 102.552 165.257 103.231 165.257 103.756ZM156.737 101.38C155.38 100.392 153.833 99.3737 153.073 99.0651C152.748 99.0651 152.531 99.0651 152.449 99.0343L152.314 98.7874L152.503 98.5405C152.639 98.4788 152.856 98.5096 153.128 98.6022C154.159 98.5405 156.248 98.2627 156.492 98.0467L156.764 98.3862C156.52 98.6639 155.109 98.9108 153.969 99.0034C155 99.5589 156.303 100.485 156.981 101.009L156.737 101.38ZM149.356 100.763C148.759 100.763 147.429 99.8675 145.53 98.417C145.367 98.2936 145.204 98.1702 145.095 98.1084C144.987 98.0776 144.933 98.0158 144.878 97.985L144.743 97.8307L144.824 97.6455C144.933 97.5221 144.933 97.4912 145.285 97.7072C145.828 97.8615 147.619 97.9233 149.193 97.8615V98.3245C148.46 98.3553 147.076 98.3862 146.045 98.2936C147.972 99.7441 149.111 100.423 149.356 100.33L149.491 100.763C149.464 100.763 149.437 100.763 149.356 100.763ZM142.138 98.1701C140.129 97.7072 139.261 96.5962 138.501 95.6087C138.339 95.3926 138.176 95.1766 137.986 94.9606L137.497 94.4051L138.176 94.5902C138.881 94.7754 140.184 95.3 141.052 95.6395C141.459 95.7938 141.785 95.9173 141.839 95.9481L141.812 96.4111C141.758 96.4111 141.703 96.3802 140.916 96.0716C140.292 95.8247 139.451 95.4852 138.746 95.2383C138.746 95.2692 138.773 95.2692 138.8 95.3C139.56 96.2876 140.347 97.2752 142.219 97.7072L142.138 98.1701ZM142.626 94.5902C142.517 94.4976 141.893 94.2199 141.351 93.973C138.908 92.8929 137.823 92.3065 137.823 91.7201V91.4115L138.094 91.5041C139.315 91.967 140.726 92.4299 142.029 92.0287L142.138 92.4917C141.025 92.8003 139.912 92.5842 138.854 92.2448C139.614 92.7077 140.862 93.2323 141.513 93.5409C142.735 94.0965 142.924 94.189 142.979 94.3433L142.626 94.5902Z" fill="black"/>
<path fill-rule="evenodd" clip-rule="evenodd" d="M132.423 66.3821C132.423 66.3821 127.43 71.2582 132.423 74.0974C132.667 72.2149 133.02 71.9371 133.02 71.9371C133.02 71.9371 137.172 73.6962 139.695 69.4991C138.637 67.74 136.737 68.4189 136.737 68.4189C136.737 68.4189 132.775 68.4189 132.423 66.3821Z" fill="#F4C034"/>
<path d="M160.699 96.2254L160.536 95.8242C160.699 95.7008 160.889 94.4972 160.97 93.2936C160.889 93.1084 160.59 92.4603 160.4 92.0591L159.451 93.3862C159.451 93.9725 159.315 95.7008 158.854 95.9477L158.664 95.5465C158.826 95.423 159.016 94.3429 159.071 93.2319L159.098 93.201H159.071C159.044 93.0776 158.826 92.3678 158.691 91.9666C158.202 92.306 157.578 92.8307 157.524 93.1393C157.497 93.3245 157.442 93.6022 157.415 93.9108C157.28 94.9601 157.198 95.6082 156.873 95.7316L156.71 95.2996C156.846 95.1761 156.954 94.2812 157.008 93.8182C157.035 93.5096 157.09 93.201 157.117 93.0158C157.144 92.9233 157.171 92.8307 157.225 92.769H157.117C157.171 92.2752 157.117 91.7197 157.035 91.6579C156.71 91.7197 155.027 93.4479 154.973 95.0218L154.566 94.991C154.593 94.2812 154.919 93.5405 155.326 92.8924L153.236 92.5221L153.291 92.0591L155.597 92.4603C156.14 91.7197 156.764 91.1642 157.035 91.1642H157.117L157.307 91.3185C157.47 91.5345 157.524 91.9666 157.524 92.3369C157.931 91.9048 158.528 91.5345 158.664 91.4419L158.881 91.3185L158.962 91.5654C159.152 92.1826 159.261 92.5529 159.342 92.769L160.129 91.6271C159.939 91.5654 159.749 91.4728 159.613 91.3185C159.423 91.1333 159.315 90.9173 159.288 90.7012C158.664 90.7938 158.202 90.6395 157.85 90.2692C157.714 90.1457 157.605 89.9606 157.524 89.8063C157.307 89.8063 156.167 89.8988 156.167 89.8988L156.14 89.4359C156.14 89.4359 156.954 89.3742 157.334 89.3742C157.198 88.9113 157.198 88.4484 157.198 88.2015C156.493 88.1706 156.33 88.2015 156.303 88.2015V88.1706V88.2632L156.031 87.9546C156.059 87.7077 156.059 87.6768 157.687 87.7386C158.148 87.7694 158.528 87.6151 158.826 87.2756C159.451 86.5658 159.423 85.3314 159.423 85.3005H159.83C159.83 85.3622 159.858 86.7819 159.125 87.6151C158.772 88.0163 158.284 88.2323 157.687 88.2015C157.66 88.2015 157.632 88.2015 157.605 88.2015C157.605 88.5409 157.632 89.4359 158.121 89.9297C158.447 90.2692 158.935 90.3618 159.586 90.2075C161.296 88.7878 161.404 87.3065 161.486 86.4115C161.513 86.1646 161.513 85.9486 161.567 85.7943C161.703 85.3314 161.106 85.0845 161.106 85.0845L161.242 84.6524C161.513 84.745 161.92 85.0228 162.001 85.4857C162.191 85.3622 162.87 85.0228 163.358 85.3005C163.63 85.4548 163.792 85.7017 163.874 86.1029C164.118 85.9177 164.634 85.6091 165.095 85.7943C165.366 85.8869 165.583 86.1338 165.719 86.535C165.963 86.4424 166.533 86.2572 166.994 86.6893L166.723 87.0287C166.397 86.7201 165.936 86.9053 165.828 86.967C165.99 88.2941 165.285 90.4544 164.634 91.5654C164.362 91.9974 164.145 92.2443 163.928 92.2752L163.874 91.8123C163.928 91.8123 164.091 91.6888 164.362 91.195C164.959 90.1149 165.665 87.9546 165.393 86.8436C165.312 86.5041 165.176 86.2881 164.986 86.2263C164.634 86.072 164.145 86.4424 163.982 86.5967L163.928 86.535C164.009 88.1398 162.87 90.5469 161.893 91.3802L161.947 91.3493C162.3 92.2135 163.331 92.1209 163.521 92.0591L163.629 92.5221C163.44 92.5838 162.87 92.6146 162.327 92.3678L162.734 93.0467L163.928 92.9233L163.955 93.3862L162.815 93.417L162.951 95.5465L162.544 95.5773L162.408 93.0467L162.056 92.5529L161.296 93.4479C161.296 94.2812 161.133 95.9785 160.699 96.2254ZM160.672 91.6888C160.807 91.9974 161.079 92.5838 161.242 92.8924L161.974 91.9974C161.839 91.874 161.73 91.7197 161.649 91.5036C161.323 91.6579 160.997 91.7197 160.672 91.6888ZM160.455 91.195C160.753 91.2567 161.133 91.2567 161.486 91.0716C162.381 90.6704 163.738 87.8003 163.548 86.2881C163.494 85.9486 163.385 85.7326 163.222 85.64C162.897 85.4548 162.354 85.7326 162.164 85.856L162.028 85.6091C162.028 85.7017 162.028 85.7943 161.974 85.8869C161.947 86.0103 161.92 86.1955 161.92 86.4115C161.839 87.3065 161.703 89.0039 159.776 90.5778C159.749 90.5778 159.722 90.5778 159.722 90.6087C159.722 90.7321 159.776 90.8555 159.885 90.9481C160.02 91.0716 160.21 91.1642 160.455 91.195ZM147.484 94.4046L147.158 94.1577C147.782 93.1084 147.131 92.2752 147.104 92.2134L147.402 91.9048C147.674 92.306 148.108 93.3245 147.484 94.4046ZM132.586 74.4682L132.342 74.3139C130.931 73.5115 130.171 72.493 130.035 71.2277C129.764 68.728 132.206 66.3208 132.315 66.1973L132.586 65.9504L132.667 66.3208C132.939 67.833 135.707 68.1725 136.765 68.1725C136.738 68.1725 138.773 67.4935 139.913 69.3452C137.525 73.6041 133.59 72.3387 133.074 72.1536C133.102 72.2462 132.857 72.7399 132.695 74.1287L132.586 74.4682ZM132.342 66.8146C131.745 67.4626 130.225 69.3452 130.442 71.1969C130.551 72.2153 131.175 73.0794 132.287 73.7584C132.505 72.1844 132.83 71.8141 132.912 71.7524C132.939 71.7524 132.966 71.7524 133.02 71.7832L136.222 68.6354C135.137 68.5428 132.912 68.2342 132.342 66.8146ZM133.481 71.9067C134.73 72.2153 137.606 72.5856 139.506 69.376C138.529 68.049 136.792 68.6354 136.765 68.6354C136.765 68.6354 136.711 68.6354 136.656 68.6354L136.738 68.728L133.481 71.9067Z" fill="black"/>
<path fill-rule="evenodd" clip-rule="evenodd" d="M132.586 66.4444C132.586 66.4444 133.264 65.6728 133.454 64.7779C133.644 63.852 133.183 62.8645 133.997 62.0312C134.811 61.1979 145.367 56.1058 146.235 55.1183C147.104 54.1307 148.705 52.0013 148.922 51.5383C149.112 51.0754 149.736 53.8221 147.918 55.0257C149.872 54.4084 151.147 53.7295 151.934 54.0381C151.147 55.3343 149.003 57.4637 147.999 57.4637C150.36 56.4762 152.477 55.6429 153.074 56.1675C153.671 56.6922 150.197 59.3771 148.786 59.5006C151.147 58.8216 154.268 57.7415 154.675 58.8833C153.399 59.3463 153.806 59.7166 151.201 61.3831C150.876 61.6917 149.193 61.7535 149.193 61.7535C151.201 61.5374 153.942 60.6116 154.213 62.2781C152.612 62.957 152.015 63.8829 150.686 64.2532C149.356 64.6236 146.262 65.3334 144.39 66.1358C142.518 66.969 139.777 69.4071 139.777 69.4071C139.777 69.4071 133.834 69.654 133.834 69.5614C133.78 69.5614 132.64 66.5061 132.586 66.4444Z" fill="white"/>
<path d="M134.133 69.8696C133.726 69.8696 133.59 69.8696 133.59 69.6228C133.536 69.4376 132.505 66.7218 132.423 66.5675C132.342 66.4749 132.369 66.3515 132.45 66.2897C132.45 66.2897 133.074 65.5491 133.264 64.7158C133.319 64.438 133.319 64.1294 133.319 63.8208C133.292 63.2036 133.264 62.4938 133.889 61.8766C134.268 61.4754 136.276 60.4261 139.533 58.6978C142.409 57.1856 145.693 55.4574 146.127 54.9636C146.995 53.976 148.596 51.8466 148.759 51.4454C148.786 51.3837 148.922 51.2603 148.976 51.2603C149.22 51.2603 149.275 51.5997 149.302 51.6923C149.465 52.3713 149.41 53.5749 148.759 54.5007C148.976 54.439 149.166 54.3464 149.329 54.2847C150.523 53.8526 151.391 53.5749 151.988 53.8217C152.042 53.8526 152.097 53.9143 152.124 53.9761C152.151 54.0378 152.124 54.1304 152.097 54.1921C151.744 54.7784 151.038 55.6117 150.279 56.3215C151.608 55.8586 152.748 55.6117 153.182 56.0129C153.236 56.0746 153.345 56.3524 153.318 56.445C153.236 57.0005 152.287 57.8954 151.228 58.6053C153.074 58.1423 154.566 58.0497 154.837 58.8521C154.865 58.9139 154.865 58.9756 154.837 59.0373C154.81 59.099 154.783 59.1299 154.702 59.1608C154.132 59.3768 153.915 59.562 153.562 59.9014C153.236 60.21 152.829 60.5804 151.988 61.1667C152.205 61.1359 152.395 61.1359 152.585 61.1359C152.992 61.1359 154.186 61.1359 154.376 62.3086C154.376 62.4321 154.349 62.5246 154.24 62.5555C153.508 62.8641 152.992 63.2345 152.504 63.5739C151.934 63.9751 151.418 64.3455 150.686 64.5306L149.519 64.8392C147.972 65.2404 145.855 65.796 144.444 66.4132C142.626 67.2156 139.913 69.6228 139.886 69.6536C139.75 69.7153 135.435 69.8696 134.133 69.8696ZM133.943 69.4067C134.784 69.4067 139.75 69.2524 139.75 69.2524C139.75 69.1907 142.409 66.8452 144.309 66.012C145.747 65.3639 147.891 64.8084 149.437 64.4072L150.604 64.0986C151.283 63.9134 151.744 63.5739 152.314 63.1727C152.775 62.8641 153.264 62.4938 153.942 62.1852C153.833 61.8766 153.535 61.5679 152.585 61.5679C152.124 61.5679 151.608 61.6297 151.066 61.7223C150.577 61.9383 149.247 62.0309 149.166 62.0309C149.003 62.0309 148.949 61.9383 148.949 61.8148C148.949 61.6914 149.03 61.5679 149.139 61.5679C149.546 61.5371 149.98 61.4445 150.414 61.3828L150.984 61.2902C152.368 60.3952 152.884 59.9014 153.291 59.5311C153.616 59.2225 153.833 59.0065 154.295 58.8213C153.698 58.3892 151.418 58.9756 149.546 59.5311C149.247 59.6545 149.003 59.7471 148.786 59.7471C148.678 59.778 148.569 59.6854 148.569 59.562C148.542 59.4385 148.623 59.3151 148.705 59.2842L149.41 59.0682C151.011 58.3892 152.938 56.7227 152.911 56.3215C152.857 56.2907 152.721 56.2289 152.45 56.2289C151.663 56.2289 150.251 56.7536 149.085 57.2165C148.65 57.5251 148.243 57.6794 147.945 57.6794C147.836 57.6794 147.755 57.5868 147.755 57.4942C147.728 57.3708 147.782 57.2782 147.891 57.2474L148.976 56.8153C149.899 56.1981 150.984 55.0562 151.554 54.2229C151.066 54.2229 150.333 54.439 149.437 54.7476C148.976 54.9019 148.488 55.0871 147.945 55.2722C147.836 55.3031 147.728 55.2414 147.701 55.1488C147.674 55.0562 147.701 54.9328 147.782 54.871C148.515 54.3773 148.786 53.6057 148.895 53.0502C149.03 52.3404 148.895 51.7849 148.84 51.6923C148.868 52.1552 147.212 54.3155 146.371 55.3031C145.91 55.8277 143.44 57.1548 139.668 59.1299C137.118 60.4569 134.486 61.8457 134.133 62.2469C133.671 62.7098 133.699 63.2345 133.726 63.8517C133.726 64.1912 133.753 64.5306 133.671 64.8701C133.509 65.6416 133.047 66.2897 132.83 66.5366C133.074 67.0613 133.726 68.7895 133.943 69.4067Z" fill="black"/>
<path d="M135.598 65.9193L135.191 65.8884C135.191 65.8267 135.272 64.2528 135.924 63.6664C136.141 63.4812 136.602 63.2035 137.199 62.8949C138.284 62.3085 139.75 61.4753 140.157 60.7655C140.32 60.4877 140.428 60.3334 140.591 60.4568C140.754 60.5803 140.7 60.7037 140.537 61.1049C140.32 61.6296 139.641 63.2035 139.804 63.6356L139.424 63.7899C139.288 63.3578 139.506 62.5863 139.858 61.7222C139.153 62.3394 138.203 62.864 137.389 63.3269C137.226 63.4195 137.09 63.4813 136.955 63.5738C137.525 63.9133 138.203 64.5923 137.932 65.6107L137.552 65.4872C137.823 64.4071 136.602 63.8825 136.548 63.8516L136.575 63.7899C136.412 63.8824 136.303 63.975 136.222 64.0368C135.761 64.4071 135.625 65.5181 135.598 65.9193Z" fill="black"/>
<path d="M137.226 65.9505C136.52 65.9505 135.95 65.3024 135.95 64.5C135.95 63.6976 136.52 63.0496 137.226 63.0496C137.931 63.0496 138.501 63.6976 138.501 64.5C138.501 65.3024 137.931 65.9505 137.226 65.9505ZM137.226 63.4199C136.71 63.4199 136.303 63.8828 136.303 64.4692C136.303 65.0555 136.71 65.5185 137.226 65.5185C137.741 65.5185 138.148 65.0555 138.148 64.4692C138.148 63.9137 137.741 63.4199 137.226 63.4199Z" fill="black"/>
<path fill-rule="evenodd" clip-rule="evenodd" d="M183.628 61.7841L195.188 64.3147C195.188 64.3147 196.463 62.6482 195.785 61.7224C197.522 61.2594 197.06 58.6979 197.06 58.6979C197.06 58.6979 199.068 57.7104 197.386 55.4266C198.526 54.1305 197.115 53.1429 197.115 53.1429C197.115 53.1429 197.576 50.8592 196.11 50.6431C196.518 48.8223 193.56 48.2051 193.56 48.2051C193.56 48.2051 187.481 50.0876 183.194 50.2419C184.605 51.8467 182.651 52.8343 182.651 52.8343C182.651 52.8343 183.791 53.7601 183.465 54.5008C183.14 55.2723 183.655 56.1056 182.19 56.6302C184.116 57.6178 181.973 59.2843 181.973 59.2843C181.973 59.2843 184.144 60.9508 183.628 61.7841Z" fill="white"/>
<path d="M170.766 80.9796C168.839 78.6958 169.545 75.1468 169.572 74.9925L169.979 75.0851C169.979 75.1159 169.301 78.5724 171.065 80.6401L170.766 80.9796ZM167.591 79.776C167.537 79.6525 167.51 79.4982 167.618 78.0478L168.053 77.8317L168.025 78.0786C167.971 78.9736 167.944 79.4674 167.971 79.5908L167.591 79.776ZM164.823 78.9119C163.304 77.3379 164.335 75.0542 164.498 74.7147C163.874 73.326 165.149 71.4126 165.203 71.32L165.285 71.3817C164.986 69.9621 165.963 67.8944 166.18 67.524C165.99 67.2154 165.773 66.8451 165.556 66.4747C165.176 65.8267 164.796 65.1477 164.416 64.6848C163.656 63.6972 160.699 63.3269 160.292 63.3269V63.2343C160.102 63.6972 159.559 63.975 159.505 64.0058L155.841 64.2527L155.814 63.7898L159.423 63.5738C159.505 63.5121 159.912 63.2652 159.966 62.9565C159.993 62.7714 159.912 62.5862 159.695 62.3702L159.966 62.0307C160.237 62.3085 160.373 62.5862 160.373 62.8948C160.861 62.9257 163.846 63.2652 164.742 64.407C165.095 64.9008 165.502 65.5798 165.909 66.2279C166.397 67.092 166.94 67.9561 167.238 68.1413C167.401 68.2338 167.51 68.2647 167.591 68.2338L168.08 68.2647C168.08 68.2956 167.998 68.5425 167.754 68.6659C167.564 68.7585 167.32 68.7276 167.048 68.5425C166.886 68.419 166.696 68.203 166.479 67.9252C165.963 68.9745 165.176 71.2274 166.126 71.9681L165.909 72.3384C165.719 72.1841 165.556 71.9989 165.475 71.7829C165.149 72.3384 164.308 74.0666 165.23 74.9308L164.959 75.2702C164.905 75.2085 164.878 75.1776 164.823 75.1159C164.552 75.7023 164.009 77.3688 165.149 78.5724L164.823 78.9119ZM172.937 77.7391C171.2 76.7207 170.712 73.9741 170.685 73.8506L171.092 73.758C171.092 73.7889 171.553 76.4121 173.127 77.3071L172.937 77.7391ZM163.494 76.7824L162.517 76.0418L162.734 75.6714L163.711 76.4121L163.494 76.7824ZM174.457 74.2827C174.429 73.8815 173.534 72.9865 172.937 72.4618L173.181 72.0915C173.453 72.3075 174.809 73.4803 174.864 74.2209L174.457 74.2827ZM163.602 73.1099C163.032 73.1099 162.49 72.5236 162.435 72.431L162.707 72.0915C162.842 72.2458 163.331 72.7087 163.656 72.6162L163.711 73.0791C163.684 73.1099 163.629 73.1099 163.602 73.1099ZM177.36 72.9248C175.868 72.9248 174.022 71.536 173.941 71.4743L174.158 71.1039C174.185 71.1348 176.329 72.7087 177.686 72.431L177.767 72.8939C177.631 72.9248 177.496 72.9248 177.36 72.9248ZM176.41 70.3016C174.619 70.3016 173.317 69.6535 173.235 69.5917L173.398 69.1597C173.425 69.1597 175.569 70.2707 178.093 69.5917L178.174 70.0547C177.55 70.2398 176.953 70.3016 176.41 70.3016ZM162.245 69.8078C162.137 69.8078 162.028 69.7769 161.947 69.746L162.137 69.3448C162.462 69.53 163.765 68.6042 163.982 68.419L164.281 68.7585C164.253 68.7276 163.005 69.8078 162.245 69.8078ZM175.379 67.7092C173.507 67.7092 172.177 66.4439 172.123 66.3822L172.394 66.0427C172.421 66.0735 174.294 67.8635 176.627 67.0611L176.736 67.4932C176.248 67.6475 175.786 67.7092 175.379 67.7092ZM195.351 64.4688L183.276 61.969L183.466 61.6604C183.493 61.6295 183.52 61.5369 183.52 61.4135C183.439 60.8271 182.462 59.9321 182 59.5309L181.946 59.5927C181.702 59.3766 179.015 58.636 176.573 58.0496L176.655 57.5867C177.713 57.8336 180.861 58.6051 181.919 59.068C182.19 58.852 182.896 58.173 182.842 57.5867C182.814 57.2781 182.597 57.0312 182.163 56.8151V56.9077C182.163 56.9077 178.663 56.7534 178.554 56.7534V56.2905C178.608 56.2905 181.322 56.4139 182 56.4448L182.163 56.3831C182.923 56.1053 183.059 55.7659 183.113 55.3647C182.57 54.3771 178.771 54.2845 176.329 54.4697L176.302 54.0068C176.899 53.9759 181.756 53.6364 183.167 54.7783C183.194 54.6548 183.222 54.5005 183.303 54.3462C183.493 53.8833 182.896 53.2352 182.597 52.9883L182.516 53.0809C182.136 52.7723 177.659 52.4328 173.643 52.2477L173.67 51.7847C176.003 51.8773 181.132 52.1551 182.516 52.618L182.597 52.5871C182.597 52.5871 183.411 52.1551 183.52 51.507C183.574 51.1675 183.411 50.7663 183.086 50.396L182.76 50.0256H183.221C187.428 49.8713 193.479 47.9888 193.533 47.9888C193.696 47.9888 195.514 48.39 196.138 49.501C196.301 49.8096 196.382 50.1182 196.355 50.4577C196.681 50.5503 196.925 50.7355 197.088 51.0441C197.468 51.6922 197.414 52.618 197.359 53.0192C197.359 53.0809 197.359 53.1118 197.332 53.1426C197.386 53.0809 197.956 53.5438 198.038 54.2536C198.092 54.6548 197.956 55.056 197.658 55.4264C198.146 56.167 198.336 56.8769 198.201 57.4941C198.038 58.2039 197.522 58.636 197.278 58.7903C197.414 59.747 197.305 61.3209 196.111 61.8455C196.491 62.8948 195.378 64.3762 195.351 64.4688ZM183.9 61.6295L195.216 64.0984C195.351 63.7589 196.084 62.4936 195.623 61.8764L195.46 61.6295C194.944 61.1049 193.56 60.5802 193.18 60.5802C192.719 60.5802 182.869 59.2532 182.462 59.2223V59.1915C182.435 59.2223 182.38 59.284 182.353 59.3149C182.814 59.7161 183.791 60.6111 183.9 61.3826C183.9 61.4443 183.9 61.5369 183.9 61.6295ZM182.787 58.7903C185.799 59.1915 192.828 60.1173 193.18 60.1173C193.642 60.1173 195.324 60.7037 195.867 61.4443C197.034 61.0431 196.952 59.4384 196.871 58.8829L183.004 58.5125V58.4199C182.95 58.5742 182.869 58.6668 182.787 58.7903ZM183.846 58.0805L197.007 58.4199C197.169 58.3273 197.685 57.9879 197.821 57.3706C197.929 56.9077 197.766 56.3831 197.414 55.7967C195.568 57.1238 186.695 57.8644 183.846 58.0805ZM182.679 56.6608C183.004 56.9077 183.194 57.2163 183.221 57.5867C183.221 57.6175 183.221 57.6484 183.221 57.6793C188.106 57.3398 195.758 56.4757 197.169 55.4572L197.115 55.3955L197.251 55.2412C197.522 54.9326 197.658 54.5931 197.631 54.2845C197.576 53.729 197.034 53.3278 197.034 53.3278C197.034 53.2969 197.007 53.2969 197.007 53.2661C196.437 53.2661 188.73 54.1611 183.601 54.8092C183.574 54.9326 183.547 55.0869 183.547 55.2412C183.493 55.7041 183.439 56.2596 182.679 56.6608ZM183.086 52.8957C183.384 53.2044 183.818 53.7599 183.737 54.3154C193.452 53.1118 196.192 52.9266 197.007 52.9266C197.007 52.4637 197.034 51.7539 196.762 51.291C196.627 51.0441 196.41 50.8898 196.111 50.8589L195.894 50.828C194.402 50.9515 187.645 52.0625 183.086 52.8957ZM183.629 50.4268C183.873 50.828 183.954 51.1984 183.9 51.5996C183.846 51.8773 183.737 52.1242 183.574 52.3402C192.041 50.828 194.917 50.4886 195.948 50.4577C195.975 50.18 195.948 49.9331 195.813 49.717C195.27 48.7603 193.56 48.4209 193.56 48.4209C193.56 48.4209 187.862 50.1799 183.629 50.4268ZM175.623 62.3085L175.515 61.8764C176.573 61.5369 177.197 61.5061 177.387 61.7221L177.089 62.0307C176.98 61.969 176.248 62.1233 175.623 62.3085ZM168.46 61.3209C167.184 61.3209 166.533 60.7345 166.479 60.6728L166.587 60.5185C165.068 60.9197 163.928 60.2716 163.901 60.2408L163.928 60.179C163.304 60.4876 162.68 60.6419 162.055 60.5802C160.156 60.4259 159.043 58.5742 159.016 58.5125L159.043 58.4817C158.284 58.4817 157.524 58.2965 156.845 57.9879C156.004 57.5558 155.38 56.9386 155.244 56.3214C155.109 55.6733 155.461 55.3955 155.706 55.2412C155.977 55.0252 156.167 54.9017 156.058 54.2536C155.868 52.5871 152.911 52.0316 151.472 51.7847C151.038 51.6922 150.821 51.6613 150.685 51.5996C150.333 51.4453 149.709 50.5811 149.247 49.9022C149.383 50.5194 149.437 51.1367 149.356 51.723L148.949 51.6613C149.329 48.3283 145.285 43.2361 145.258 43.1744L145.557 42.8658C145.692 43.0201 147.999 45.9519 148.976 48.8838L149.057 48.822C149.573 49.6553 150.468 51.0132 150.821 51.1675C150.903 51.1984 151.201 51.2601 151.527 51.3218C153.046 51.5996 156.194 52.1859 156.438 54.1611C156.601 55.0869 156.194 55.3647 155.923 55.6115C155.706 55.7967 155.57 55.8584 155.651 56.1979C155.76 56.6608 156.303 57.1855 157.035 57.5558C158.582 58.3273 160.536 58.1422 162.245 57.1238L162.435 57.5249C161.513 58.0805 160.509 58.4199 159.505 58.4817C159.857 58.9446 160.78 60.0247 162.11 60.1482C163.358 60.2716 164.688 59.5001 165.99 57.8644L166.289 58.173C165.637 58.9754 164.986 59.5927 164.335 59.9939C165.122 60.3333 167.754 61.0123 170.033 56.6917L170.386 56.9386C169.246 59.0989 167.971 60.0864 166.886 60.4876C167.347 60.7963 168.921 61.5061 171.662 59.8087L171.852 60.2099C170.44 61.0431 169.301 61.3209 168.46 61.3209ZM171.526 51.723L171.2 51.4453C171.797 50.4577 172.638 50.1491 173.317 49.8713C173.778 49.6862 174.185 49.5319 174.375 49.2232C174.728 48.822 174.864 48.5134 174.809 48.2665C174.782 48.0814 174.619 47.9579 174.511 47.8653C174.457 47.8345 174.402 47.8036 174.402 47.8036L174.429 47.711L174.402 47.6493L174.348 47.8653C173.941 47.7419 173.588 48.0197 173.398 48.2048L173.425 48.4826C173.29 49.1924 172.259 50.1491 170.332 51.2601L170.142 50.8589C172.34 49.5627 172.856 48.7912 172.991 48.4826H172.964C172.937 48.4826 172.231 48.1431 171.553 48.8529L171.417 48.9764L171.444 49.0381C171.363 49.0998 169.654 50.5811 168.161 51.291L167.998 50.8589C169.355 50.1799 171.01 48.7912 171.173 48.6677C170.902 48.2665 170.44 48.2665 170.278 48.2665H170.251C169.382 49.0689 167.157 51.0441 166.424 50.8898L166.506 50.4268C166.859 50.5194 168.622 49.1307 170.088 47.8036C170.088 47.6185 170.061 47.3407 169.925 47.1864C169.789 47.063 169.572 47.0012 169.274 47.0938H169.246C168.839 47.4024 167.808 48.1122 165.04 49.9331L164.823 49.5319C166.316 48.5443 168.487 47.0938 169.029 46.6926C169.111 45.9519 169.002 45.4273 168.758 45.2113C168.378 44.8718 167.7 45.1495 167.673 45.1495L167.7 45.2113L162.707 48.7295L162.49 48.3283L167.401 44.8718C167.428 44.6866 167.483 44.162 167.266 43.946C167.048 43.7299 166.641 43.8225 166.343 43.946L166.289 43.9768C165.773 44.378 164.281 45.3656 159.83 48.174L159.64 47.7728C161.947 46.3223 165.393 44.1311 166.099 43.6065C166.126 43.1436 166.044 42.8041 165.882 42.5881C165.637 42.2794 165.23 42.2177 165.095 42.2177C165.095 42.2177 165.095 42.2177 165.095 42.2486C163.684 43.4522 158.121 46.6309 157.904 46.7543L157.714 46.3531C157.768 46.3223 163.467 43.0818 164.796 41.9708C164.959 41.477 164.959 41.0141 164.742 40.7055C164.389 40.2117 163.521 40.1809 163.222 40.1809C163.141 40.4895 163.005 40.7672 162.815 41.0759C161.404 41.5388 158.039 43.9151 156.601 44.9335C155.923 45.4273 155.923 45.4273 155.841 45.4273L155.76 44.9952C155.814 44.9644 156.031 44.8101 156.384 44.5632C157.849 43.5448 161.269 41.1376 162.598 40.7364C162.924 40.15 163.032 39.4093 162.761 38.9464C162.544 38.5761 162.11 38.4218 161.567 38.5452L161.54 38.4218C161.16 39.1316 160.536 39.718 160.129 39.9031C159.179 40.3043 152.965 43.946 152.911 43.9768L152.721 43.5756C152.965 43.4213 159.016 39.8723 159.993 39.4711C160.536 39.255 161.621 37.928 161.486 37.0947C161.377 36.4775 160.59 36.3232 159.912 36.3232V36.2306C157.442 37.4342 152.205 40.4895 150.957 41.3845C149.464 42.4955 147.673 41.4462 147.592 41.3845L147.782 40.9833C147.809 40.9833 149.464 41.94 150.74 40.9833C152.205 39.9031 158.989 35.9837 160.699 35.3665C162.354 34.7493 163.304 31.1385 163.656 29.6263L164.064 29.7497C163.819 30.8607 163.385 32.4038 162.761 33.7L172.313 30.5213C172.286 30.5213 173.778 29.0399 173.86 26.4167H174.267C174.239 27.5277 173.968 28.4536 173.643 29.1634C175.298 28.9165 183.004 27.6512 183.004 24.1638H183.411C183.411 25.1514 182.896 25.9846 182.109 26.6636C185.284 25.676 192.095 23.3923 192.828 22.4973L193.126 22.8059C192.149 24.0404 183.357 26.8179 181.81 27.2808C182.272 27.8055 182.489 28.3301 182.435 28.8548L192.475 25.676L192.583 26.1081L182.299 29.3794C182.299 29.4103 182.272 29.4411 182.272 29.472C182.462 29.5337 182.842 29.7497 183.004 30.2435C183.113 30.5521 183.14 30.9225 183.032 31.3237L191.688 28.3301L191.796 28.7622L182.842 31.8792C182.814 31.9409 182.814 31.9718 182.787 32.0335C183.004 32.1569 183.466 32.5273 183.52 33.0519C183.547 33.1753 183.52 33.3297 183.493 33.4531L190.928 30.9225L191.037 31.3545L183.194 34.0395C183.167 34.0703 183.14 34.1012 183.113 34.132C183.276 34.1938 183.873 34.4715 184.008 35.0887C184.036 35.1505 184.036 35.2431 184.036 35.3048C186.206 34.5641 189.3 33.484 189.49 33.484L189.517 33.9469C189.273 33.9777 186.152 35.0579 183.954 35.8294C183.873 36.0454 183.737 36.2306 183.574 36.4466L183.737 36.3849C184.063 36.5084 184.524 36.6935 184.633 37.1256L188.16 35.5208L188.323 35.9529L184.66 37.6194L184.633 37.5268C184.551 37.8354 184.28 38.2057 183.791 38.6378C182.082 39.5328 178.256 41.2302 177.387 41.6314L177.062 42.2794C177.224 42.3412 177.442 42.4646 177.55 42.6806C177.631 42.8349 177.659 42.9893 177.659 43.2053C177.93 43.0818 181.349 41.5696 182.95 40.5821C183.466 40.2117 183.791 39.7797 183.846 39.4093C183.9 39.0699 183.737 38.8538 183.737 38.8538L184.036 38.5452C184.036 38.5452 184.226 38.823 184.253 39.1933C187.156 37.7428 187.292 37.7428 187.346 37.7428L187.373 38.2057C187.183 38.2675 185.365 39.1624 184.253 39.7179L184.198 39.5945C184.09 40.0574 183.791 40.4586 183.276 40.8598C183.384 40.9833 183.52 41.1993 183.52 41.477C183.52 41.8165 183.33 42.156 182.923 42.4955C182.679 42.6498 182.272 42.8658 181.783 43.1744C181.946 43.3287 182.082 43.5756 182.028 43.946L181.62 43.8534C181.648 43.5756 181.485 43.483 181.458 43.4522L181.512 43.2979C180.047 44.162 178.066 45.3347 177.496 45.6742C177.496 45.6742 177.496 45.7051 177.469 45.7051C177.387 45.7668 177.333 45.7976 177.333 45.7976L174.836 47.6802C174.972 47.8036 175.108 47.9888 175.162 48.2357C175.244 48.6369 175.054 49.0998 174.647 49.5936C174.402 49.9948 173.914 50.1799 173.425 50.396C172.801 50.5811 172.069 50.8589 171.526 51.723ZM170.875 47.8962C171.065 47.9271 171.282 48.0197 171.444 48.174C171.472 48.2048 171.526 48.2665 171.553 48.3283C172.15 47.8653 172.72 47.9579 172.991 48.0505C173.208 47.8036 173.697 47.279 174.348 47.4333L177.17 45.3347C177.17 45.3347 177.17 45.3347 177.197 45.3347C177.197 45.0261 177.089 44.8718 176.953 44.7792V44.8101C176.682 44.8409 172.367 46.6309 170.875 47.8962ZM169.599 46.6618C169.871 46.6618 170.088 46.7543 170.251 46.9395C170.44 47.1247 170.495 47.4024 170.522 47.6185C171.824 46.4457 175.813 44.6866 176.736 44.378L176.763 44.3472C177.306 43.3905 177.279 42.9893 177.197 42.8658C177.089 42.6498 176.736 42.6498 176.736 42.6498H176.492L169.518 46.1062C169.518 46.2914 169.518 46.4766 169.518 46.6926C169.518 46.6618 169.572 46.6618 169.599 46.6618ZM168.27 44.6558C168.514 44.6558 168.812 44.7175 169.029 44.9335C169.219 45.0878 169.328 45.3039 169.409 45.6125L176.627 42.0943L176.953 41.3227C176.953 41.3227 176.953 41.3227 176.98 41.2919C176.899 41.1067 176.682 40.6129 175.732 40.366H175.678C175.433 40.6129 174.999 40.9833 174.429 41.1684C173.588 41.4462 168.541 43.7917 167.781 44.162C167.835 44.3472 167.835 44.5632 167.835 44.7175C167.971 44.6866 168.134 44.6558 168.27 44.6558ZM177.197 44.4089C177.414 44.594 177.55 44.7792 177.604 45.0261V45.057C178.771 44.378 181.81 42.5572 182.733 42.0326C182.977 41.8165 183.113 41.6005 183.113 41.4153C183.113 41.1993 182.923 41.0759 182.923 41.0759L182.95 41.045C181.186 42.0943 177.794 43.5756 177.767 43.5756L177.631 43.1744C177.604 43.5139 177.469 43.9151 177.197 44.4089ZM166.94 43.4522C167.184 43.4522 167.401 43.5448 167.564 43.6991C167.591 43.6991 167.591 43.7299 167.591 43.7299C168.161 43.4522 173.425 41.0141 174.321 40.7055C174.945 40.4895 175.406 40.0266 175.596 39.7797C175.542 38.9156 174.755 38.2366 174.484 38.0514C174.457 38.2366 174.348 38.5761 174.131 38.7612C173.86 38.9773 168.27 41.1376 165.854 42.0326C165.963 42.0943 166.044 42.1869 166.126 42.2794C166.37 42.5572 166.479 42.9584 166.479 43.4522C166.669 43.483 166.804 43.4522 166.94 43.4522ZM165.23 41.8474H165.258C168.568 40.5821 173.615 38.6378 173.914 38.4218C174.05 38.2983 174.158 37.8971 174.185 37.712C174.185 37.6811 174.239 37.6502 174.348 37.6194C174.348 37.3416 174.267 36.7553 173.561 36.1689L173.453 36.0763C173.29 36.2923 172.991 36.5701 172.584 36.817C171.906 37.2182 165.854 39.1933 163.874 39.8414C164.253 39.9031 164.661 40.0574 164.932 40.366C165.176 40.6438 165.393 41.1067 165.23 41.8474ZM176.085 39.9957C176.926 40.2735 177.252 40.7672 177.36 41.1067C178.527 40.5512 182.028 38.9773 183.601 38.1749C184.226 37.6194 184.28 37.3108 184.253 37.2182C184.226 37.0022 183.846 36.8787 183.629 36.7553L183.384 36.6627L183.411 36.601C181.729 37.7737 176.98 39.6562 176.085 39.9957ZM174.891 37.8045C175.244 38.0823 175.868 38.7304 176.003 39.5636C177.17 39.0699 181.648 37.3108 183.167 36.2615C183.384 36.0146 183.52 35.7986 183.601 35.5825L183.547 35.4282C183.574 35.4282 183.601 35.3974 183.656 35.3974C183.683 35.3048 183.683 35.2122 183.656 35.1505C183.574 34.7184 183.004 34.5332 183.004 34.5332L183.086 34.1629C182.977 34.2555 182.869 34.3789 182.76 34.4715C181.159 35.5517 176.356 37.2799 174.891 37.8045ZM161.92 38.1132C162.462 38.1132 162.87 38.3292 163.114 38.7612C163.249 38.9773 163.304 39.255 163.304 39.5328C166.289 38.5761 171.797 36.7553 172.394 36.3849C173.1 35.9529 173.371 35.4282 173.371 35.4282C173.371 35.4282 173.453 35.3974 173.561 35.3356C173.561 34.6258 173.046 34.0086 172.856 33.7308L172.747 33.5457L161.811 37.7428C161.784 37.8663 161.757 37.9589 161.703 38.0823C161.784 38.1132 161.838 38.1132 161.92 38.1132ZM173.914 35.922C174.538 36.5084 174.701 37.0947 174.728 37.4651C176.356 36.817 180.996 35.0887 182.516 34.1012C182.814 33.8543 183.167 33.4531 183.14 33.0828C183.113 32.7124 182.706 32.4347 182.57 32.3729C179.965 33.5457 175.271 35.2122 173.968 35.6751C173.941 35.7677 173.941 35.8294 173.914 35.922ZM160.59 35.9837C161.513 36.138 161.811 36.6318 161.866 37.0639C161.893 37.1256 161.893 37.2182 161.893 37.2799L172.638 33.2062C172.666 33.021 172.937 32.0643 172.72 31.5397C172.638 31.3237 172.476 31.2002 172.231 31.1694L172.259 31.0459L162.571 34.2864L162.544 34.1629C162.083 34.9962 161.513 35.6443 160.834 35.8911C160.753 35.922 160.672 35.9529 160.59 35.9837ZM173.1 33.3914C173.371 33.7308 173.914 34.4098 173.968 35.2431C175.569 34.6567 180.019 33.0519 182.407 32.0335C182.679 31.4471 182.787 30.8607 182.652 30.4595C182.489 30.0275 182.109 29.9349 182.109 29.9349L182.136 29.7806C180.454 30.8916 173.507 32.805 173.208 32.8976L173.127 32.7124C173.046 33.1136 172.91 33.4222 172.883 33.5148H173.1H172.91L173.1 33.3914ZM172.611 30.8299C172.828 30.9533 172.991 31.1076 173.073 31.3545C173.208 31.6631 173.208 32.0335 173.181 32.3729C174.104 32.1261 180.481 30.3361 181.865 29.3794C182.326 28.5461 181.865 27.8981 181.376 27.466L181.268 27.3425C178.473 29.1016 173.832 29.688 173.371 29.7497C173.1 30.2744 172.774 30.6447 172.611 30.8299ZM183.683 41.477L183.52 41.0759L186.342 39.5636L186.505 39.9648L183.683 41.477Z" fill="black"/>
</svg>
