<svg width="202" height="134" viewBox="0 0 202 134" fill="none" xmlns="http://www.w3.org/2000/svg">
<path d="M202 0H0V134H202V0Z" fill="#CB1D23"/>
<path d="M19.4292 42.6305L23.2282 30.8806L13.2693 23.5811L25.6162 23.5539L29.4695 11.8312L33.2956 23.5811L45.6696 23.6082L35.6836 30.8806L39.4555 42.6577L29.4423 35.4123L19.4292 42.6305Z" fill="#F7DE29"/>
<path d="M53.8918 48.9801L58.0436 50.6626L60.9472 47.2434L60.6487 51.7209L64.8005 53.4033L60.4587 54.5159L60.1331 58.9933L57.7451 55.1943L53.3762 56.2526L56.2527 52.8063L53.8918 48.9801Z" fill="#F7DE29"/>
<path d="M76.4418 26.4032L72.0186 25.6164L69.902 29.5782L69.2779 25.155L64.8547 24.341L68.898 22.3872L68.2739 17.9097L71.3945 21.1389L75.4377 19.1851L73.3483 23.174L76.4418 26.4032Z" fill="#F7DE29"/>
<path d="M67.0526 46.5382L68.4365 42.2507L64.8003 39.6185L69.3049 39.5914L70.6888 35.3311L72.0999 39.5914L76.6044 39.6185L72.9682 42.2507L74.325 46.5382L70.6888 43.906L67.0526 46.5382Z" fill="#F7DE29"/>
<path d="M54.1094 7.48947L58.1798 9.36186L61.2461 6.10559L60.7034 10.5558L64.7738 12.4554L60.3778 13.3237L59.8079 17.8012L57.637 13.8664L53.2139 14.7076L56.2802 11.4242L54.1094 7.48947Z" fill="#F7DE29"/>
</svg>
