<svg width="202" height="134" viewBox="0 0 202 134" fill="none" xmlns="http://www.w3.org/2000/svg">
<path d="M202 0H0V134H202V0Z" fill="white"/>
<path d="M82.3138 44.4651C82.3138 46.0118 82.5038 46.2018 82.6123 46.5002C82.7208 46.7987 82.8294 52.1174 82.0424 53.5827C81.2284 55.0481 79.6545 55.8622 79.0304 55.9978C78.4062 56.1335 76.4253 54.7496 74.5801 54.1526C72.7348 53.5827 72.8434 53.6641 72.0564 53.6641C71.2695 53.6641 69.5328 54.3154 69.0443 54.7224C68.7187 54.6682 68.6644 54.5325 68.4745 54.7224C68.2845 54.9124 67.4976 55.6993 67.3076 56.1878C67.1177 56.6762 66.6292 58.5215 66.0594 58.7114C65.4895 58.9014 63.9156 60.4753 62.8573 60.5567C61.8262 60.6381 62.0975 60.5024 61.392 60.4481C60.6865 60.3939 60.605 59.6883 59.9266 59.2813C59.2483 58.9014 59.0583 58.6029 59.0583 58.6029C59.0583 58.6029 58.8683 57.8159 58.5699 57.8159C58.2714 57.8159 58 59.1727 58 59.5526C58 59.9325 58.7869 61.3979 59.1668 61.6964C59.5467 61.9949 59.5467 63.7316 59.3568 64.22C59.1668 64.7085 59.7367 65.1969 59.8452 65.6854C59.9266 66.1738 59.2754 66.5537 59.5467 66.6623C59.8452 66.7437 60.2251 67.3407 60.2251 67.9105C60.2251 68.4804 61.6905 68.6975 61.9618 69.2673C62.2603 69.8372 62.3417 70.8141 62.4503 71.4111C62.5317 71.9809 62.8845 71.7367 62.9387 73.1478C63.4001 73.3648 64.1056 73.8262 64.6754 74.1246C65.2724 74.4231 65.1639 75.1015 65.9237 75.3729C66.7106 75.6714 66.7106 75.3729 67.0905 75.4543C67.4704 75.5629 66.9006 75.6443 67.579 75.8342C68.2574 76.0242 68.5559 75.7257 69.1257 76.0242C69.6956 76.3227 69.9941 77.0011 70.374 77.191C70.7539 77.381 72.4092 77.8694 72.5177 77.978C72.6263 78.0594 73.6846 78.4664 73.8745 78.4664C74.0645 78.4664 74.6615 78.0865 74.6615 78.0865C74.6615 78.0865 75.3399 78.2764 75.9097 78.0865C76.4796 77.8965 76.8866 77.2996 77.2665 77.2996C77.6464 77.2996 77.755 77.4895 78.1349 77.4895C78.5148 77.4895 79.1118 77.2996 79.1118 77.2996C79.1118 77.2996 79.9801 77.1096 80.6585 77.4895C81.3369 77.8694 82.8837 79.7146 82.8837 80.5016C82.8837 81.2885 82.8022 81.6684 82.8022 81.6684C82.8022 81.6684 83.5892 81.587 83.8606 81.777C84.1591 81.9669 84.1319 81.6142 86.2757 81.9669C86.14 81.4242 84.0505 79.9317 85.9772 77.788C87.9038 75.6443 88.0395 76.5397 88.5008 76.1327C88.9621 75.7528 90.726 74.6131 93.738 75.6443C96.6416 75.1558 94.525 74.7759 96.1531 74.6674C96.4516 74.5588 96.9944 74.6945 97.6185 74.8573C97.8084 74.5045 98.2155 74.1518 98.8667 74.2875C98.9753 73.9347 99.7894 73.4734 100.603 73.4191C100.739 72.7678 102.801 71.9266 103.995 71.8724C104.484 71.4382 105.027 69.4844 107.686 70.407C107.794 69.7829 108.229 68.7517 108.934 68.5618C109.07 67.2593 108.581 64.5999 109.911 63.7044C111.214 62.5105 112.462 62.7818 114.66 62.8361C116.152 63.1617 116.885 64.3014 117.373 64.3828C117.862 64.4914 118.052 64.4914 118.622 64.0843C119.192 63.7044 118.513 62.9175 119.002 62.9175C119.49 62.9175 119.3 63.026 120.06 62.9175C120.82 62.809 120.738 62.5647 121.227 62.4291C121.987 62.809 122.882 62.5376 123.262 62.809C123.642 63.1075 123.696 63.0803 124.537 63.1889C124.836 63.6773 125.596 63.6773 125.596 63.6773C125.596 63.6773 125.026 63.4874 125.216 63.1889C125.406 62.8904 125.216 62.022 124.836 61.6421C124.456 61.2622 124.266 61.1537 123.967 60.7738C123.669 60.3939 124.076 60.3939 123.588 59.9054C123.099 59.417 122.041 58.9285 121.742 58.3587C121.444 57.7888 121.552 57.3818 121.064 56.8933C120.575 56.4049 118.649 54.7496 118.54 53.0129C118.432 51.2762 118.649 49.5937 119.789 49.051C119.734 48.0199 119.978 47.8842 121.037 47.3143C122.095 46.7445 122.204 47.1244 122.882 47.1244C123.56 47.1244 123.94 47.2329 124.619 46.7445C125.297 46.256 124.727 45.1977 126.464 43.651C128.201 42.1042 128.879 41.3173 129.476 41.2359C130.046 41.1273 132.163 39.662 133.058 39.7705C133.682 39.0107 134.306 38.1152 135.093 37.5454C135.88 36.9755 136.749 36.9755 137.128 36.4871C137.508 35.9986 137.427 35.1303 138.567 34.3433C139.733 33.5564 140.71 33.0951 141.172 32.6881C141.66 32.3082 142.718 32.5795 143.098 32.1996C143.478 31.8197 143.478 30.3544 143.885 30.0559C144.265 29.7574 142.637 30.7343 141.742 31.1142C140.873 31.4941 139.598 32.1725 138.539 32.0911C137.481 31.9825 138.051 32.6609 137.481 32.878C136.911 33.068 135.934 32.9865 135.555 33.3665C135.175 33.7464 134.496 34.7232 133.899 35.1032C133.302 35.4831 133.031 35.4016 132.434 35.673C131.864 35.9715 131.376 36.2429 130.887 36.4599C130.399 36.6499 128.96 36.5685 128.96 36.5685C128.96 36.5685 127.712 38.2238 127.115 38.7936C126.545 39.3635 125.867 39.2821 125.27 39.5806C124.7 39.8791 119.734 43.0811 116.342 43.5424C112.95 44.0309 114.497 43.2439 113.439 43.5424C112.38 43.8409 110.834 45.8761 109.558 45.9575C108.31 46.0661 107.903 45.9575 107.632 45.9575C107.333 45.9575 105.786 46.9344 104.81 46.7445C103.371 47.1786 102.313 47.0701 101.906 47.043C101.499 46.9887 100.739 47.5314 99.6808 47.043C98.8667 46.7716 98.8667 47.3686 97.2657 46.853C95.6647 46.3374 94.5521 47.043 93.7652 46.6631C92.9782 46.2832 93.0868 45.9847 92.4898 45.9847C91.9199 45.9847 91.9199 46.3646 91.2415 46.3646C90.5631 46.3646 90.4546 45.9847 89.8847 45.9847C89.3149 45.9847 88.6365 46.3646 87.741 46.2832C86.8727 46.1746 86.5741 45.7947 86.0043 45.7947C85.5158 45.8219 82.3138 44.4651 82.3138 44.4651Z" fill="#DD7D21"/>
<path d="M92.2461 103.703C93.9285 102.482 95.421 102.075 97.7004 101.695C99.9798 101.288 102.422 100.609 103.697 100.284C104.973 99.9581 99.3828 101.912 97.9718 102.292C96.5607 102.699 92.2461 103.703 92.2461 103.703Z" fill="#2C6752"/>
<path d="M101.471 100.148C101.01 97.2447 102.15 94.2326 104.782 93.0115C105.379 95.1009 103.479 98.6557 101.471 100.148Z" fill="#2C6752"/>
<path d="M105.894 98.6288C104.483 96.2408 106.871 93.1473 108.608 91.6277C109.422 93.0659 107.984 97.3805 105.894 98.6288Z" fill="#2C6752"/>
<path d="M110.021 96.7829C108.528 94.7206 110.292 91.1386 112.191 89.7004C112.924 91.7085 112.164 95.3447 110.021 96.7829Z" fill="#2C6752"/>
<path d="M114.145 94.2053C112.788 92.2787 113.738 89.2394 115.692 87.2856C117.103 88.8867 115.882 92.3872 114.145 94.2053Z" fill="#2C6752"/>
<path d="M117.428 91.6005C116.288 89.7824 117.699 85.4135 119.518 84.1924C120.332 85.7934 119.707 90.3794 117.428 91.6005Z" fill="#2C6752"/>
<path d="M120.06 90.9218C119.734 88.2896 124.293 85.3861 126.192 85.4675C125.975 87.6112 124.021 89.9721 120.06 90.9218Z" fill="#2C6752"/>
<path d="M117.482 93.8793C119.626 91.6541 123.805 91.6541 125.297 92.1426C124.89 93.3908 119.978 96.2401 117.482 93.8793Z" fill="#2C6752"/>
<path d="M114.524 96.1044C117.564 95.2904 119.517 94.6119 121.336 96.5115C120.06 98.1125 115.149 97.6512 114.524 96.1044Z" fill="#2C6752"/>
<path d="M110.21 98.0587C113.113 96.512 116.614 98.7914 117.156 100.148C113.927 101.478 110.155 98.3844 110.21 98.0587Z" fill="#2C6752"/>
<path d="M106.247 100.284C108.879 99.2797 111.891 100.609 113.112 102.102C111.701 102.753 107.984 103.513 106.247 100.284Z" fill="#2C6752"/>
<path d="M102.611 101.424C105.651 101.098 108.554 103.377 109.178 104.68C105.298 105.06 103.832 103.92 102.611 101.424Z" fill="#2C6752"/>
<path d="M101.635 103.703C99.9528 102.482 98.4603 102.075 96.1809 101.695C93.9014 101.288 91.4592 100.609 90.1838 100.284C88.9084 99.9581 94.4984 101.912 95.9095 102.292C97.3206 102.699 101.635 103.703 101.635 103.703Z" fill="#2C6752"/>
<path d="M92.4085 100.148C92.8698 97.2447 91.7301 94.2326 89.0979 93.0115C88.5009 95.1009 90.4004 98.6557 92.4085 100.148Z" fill="#2C6752"/>
<path d="M87.9853 98.6288C89.3964 96.2408 87.0084 93.1473 85.2717 91.6277C84.4576 93.0659 85.8958 97.3805 87.9853 98.6288Z" fill="#2C6752"/>
<path d="M83.861 96.7829C85.3535 94.7206 83.5896 91.1386 81.7173 89.7004C80.9575 91.7085 81.7173 95.3447 83.861 96.7829Z" fill="#2C6752"/>
<path d="M79.7366 94.2053C81.0934 92.2787 80.1436 89.2394 78.1898 87.2856C76.7788 88.8867 77.9999 92.3872 79.7366 94.2053Z" fill="#2C6752"/>
<path d="M76.4523 91.6005C77.592 89.7824 76.1809 85.4135 74.3628 84.1924C73.5487 85.7934 74.1729 90.3794 76.4523 91.6005Z" fill="#2C6752"/>
<path d="M73.8197 90.9218C74.1454 88.2896 69.5865 85.3861 67.687 85.4675C67.9041 87.6112 69.8579 89.9721 73.8197 90.9218Z" fill="#2C6752"/>
<path d="M76.3982 93.8793C74.2544 91.6541 70.0755 91.6541 68.583 92.1426C68.99 93.3908 73.9017 96.2401 76.3982 93.8793Z" fill="#2C6752"/>
<path d="M79.3556 96.1044C76.3163 95.2904 74.3625 94.6119 72.5444 96.5115C73.8198 98.1125 78.7314 97.6512 79.3556 96.1044Z" fill="#2C6752"/>
<path d="M83.6704 98.0587C80.7669 96.512 77.2664 98.7914 76.7236 100.148C79.9528 101.478 83.7247 98.3844 83.6704 98.0587Z" fill="#2C6752"/>
<path d="M87.633 100.284C85.0008 99.2797 81.9616 100.609 80.7676 102.102C82.1786 102.753 85.8963 103.513 87.633 100.284Z" fill="#2C6752"/>
<path d="M91.2686 101.424C88.2293 101.098 85.3258 103.377 84.7017 104.68C88.5821 105.06 90.0474 103.92 91.2686 101.424Z" fill="#2C6752"/>
</svg>
