<svg width="202" height="134" viewBox="0 0 202 134" fill="none" xmlns="http://www.w3.org/2000/svg">
<path d="M202 119.125H0V134H202V119.125Z" fill="#16007E"/>
<path d="M202 104.219H0V119.094H202V104.219Z" fill="white"/>
<path d="M202 89.3435H0V104.219H202V89.3435Z" fill="#16007E"/>
<path d="M202 74.4376H0V89.3436H202V74.4376Z" fill="white"/>
<path d="M202 59.5626H0V74.4378H202V59.5626Z" fill="#16007E"/>
<path d="M202 44.6562H0V59.5622H202V44.6562Z" fill="white"/>
<path d="M202 29.7812H0V44.6564H202V29.7812Z" fill="#16007E"/>
<path d="M202 14.875H0V29.7811H202V14.875Z" fill="white"/>
<path d="M202 0H0V14.8751H202V0Z" fill="#16007E"/>
<path d="M74.4376 0H0V74.4376H74.4376V0Z" fill="#16007E"/>
<path d="M74.4376 29.7812H0V44.6564H74.4376V29.7812Z" fill="white"/>
<path d="M44.6561 0H29.75V74.4376H44.6561V0Z" fill="white"/>
</svg>
