<svg width="202" height="134" viewBox="0 0 202 134" fill="none" xmlns="http://www.w3.org/2000/svg">
<path d="M196.545 5.18274H5.15552V112.641H196.545V5.18274Z" fill="#C4314C"/>
<path d="M202 0H0V134H202V0Z" fill="#C4314C"/>
<path d="M193 9H9V125H193V9Z" fill="#2E4BC4"/>
<path d="M101.181 38C101.181 38 83 51.4051 83 67.2254C83 83.0456 101.181 96.8307 101.181 96.8307C101.181 96.8307 119.254 84.1854 119.254 67.2254C119.254 50.2654 101.181 38 101.181 38Z" fill="#C4314C"/>
<path d="M116.513 72.4627C116.92 70.7803 117.137 69.0165 117.137 67.2255C117.137 52.0565 101.181 40.7679 101.181 40.7679C101.181 40.7679 84.981 52.4093 84.981 67.2255C84.981 68.9893 85.2252 70.726 85.6322 72.4085L116.513 72.4627Z" fill="#78ACE8"/>
<path d="M101.045 93.9274C101.045 93.9274 113.555 84.9454 116.513 72.4086H85.6321C88.5899 84.7012 101.045 93.9274 101.045 93.9274Z" fill="#203B74"/>
<path d="M117.056 68.9894C114.315 71.106 98.9018 70.102 98.9018 70.102L98.0334 72.4628H116.486C116.567 72.1371 116.622 71.8116 116.703 71.4859L117.056 68.9894Z" fill="#E4DCDC"/>
<path d="M100.231 83.9138C99.987 82.15 92.7959 80.2505 88.9697 80.4133C90.1637 82.4485 91.5205 84.2937 92.8773 85.949C94.804 83.6967 100.313 84.5108 100.231 83.9138Z" fill="#FAF22A"/>
<path d="M114.804 77.3472C113.881 77.3743 112.226 77.5371 111.086 78.1884C109.431 79.111 105.767 80.115 104.112 79.6266C102.484 79.111 99.906 80.712 100.204 81.0648C100.72 81.6346 104.492 80.9834 104.492 84.6196C104.492 87.6588 100.123 86.302 98.3864 87.5774C97.3553 88.3372 96.6226 89.1784 96.2156 89.694C98.902 92.3805 100.992 93.9544 100.992 93.9544C100.992 93.9544 105.984 90.3724 110.408 84.5924L112.497 81.6075C113.365 80.2507 114.152 78.8396 114.804 77.3472Z" fill="#FAF22A"/>
<path d="M96.0524 68.7993H95.374V76.5059H96.0524V68.7993Z" fill="black"/>
<path d="M97.5175 77.9711C97.5175 77.9711 97.2461 78.0254 96.812 78.0797V77.4827H96.3779V78.1339C95.9165 78.1882 95.3738 78.2154 94.8039 78.2154C94.2069 78.2154 93.5828 78.1611 93.0672 78.1068V77.4827H92.5788V78.0525C92.1717 77.9982 91.9004 77.944 91.9004 77.944C91.9004 77.944 91.7646 78.7309 94.7496 78.7309C97.7617 78.758 97.5175 77.9711 97.5175 77.9711Z" fill="#734911"/>
<path d="M100.177 53.9558C100.177 53.9558 97.6802 52.3819 94.2882 53.1417C90.8962 53.9015 90.1365 56.2081 90.1365 56.2081L91.2761 55.6382L91.3033 56.1538L92.3345 55.4483L92.3615 55.9367L93.2298 55.0412L93.3657 55.6111L94.1525 54.8513L94.2069 55.2583L95.5093 54.3628V54.9327L96.5405 54.4171L96.459 54.9598L98.3857 54.5799C98.3857 54.5799 93.7997 56.2352 93.2298 60.1699L94.0982 59.0302L94.1797 59.5729L94.7225 58.3789L94.8581 58.8403L95.3465 57.7277L95.4822 58.3789L96.2421 57.185L96.2962 57.8905L97.1646 56.588V57.2121L98.1144 56.0995L98.0873 56.9136C98.0873 56.9136 98.9828 56.0995 99.2813 56.0995L98.1958 57.6191L98.5486 57.7548C98.5486 57.7548 97.7888 58.4061 97.7345 58.5418C97.6802 58.6775 98.2501 58.5418 98.2501 58.5418C98.2501 58.5418 97.5717 59.3016 97.5445 59.5187C97.5174 59.7357 97.9786 59.5187 97.9786 59.5187C97.9786 59.5187 97.3546 60.387 97.2732 60.6855C97.1918 61.0111 97.5989 60.7398 97.5989 60.7398C97.5989 60.7398 97.2189 61.7438 97.1918 62.0423C97.1646 62.3136 97.6259 61.988 97.6259 61.988L97.8973 63.7247L98.3586 61.6353L98.657 62.1237V60.6312L98.9285 60.8755L98.9013 59.8986L99.2541 60.2785L99.0641 59.0845L99.4441 59.5458L99.3898 58.5418L99.7697 58.9488V57.6191L100.122 57.9719L100.177 57.0493L100.584 57.2664C100.584 57.2664 100.638 56.1538 101.126 56.1809C101.588 56.208 102.185 56.7508 101.941 56.995L102.348 56.8593L102.266 57.9448L102.646 57.7005L102.592 58.4875L102.917 58.3247L102.809 59.3287L103.189 59.0845L103.216 60.3056L103.65 59.9528L103.623 61.4182L104.057 61.0383V62.2322L104.464 61.9066L104.898 63.0735L104.817 61.3368L105.143 61.6081L104.546 60.387L104.98 60.3327L104.518 59.5187L104.953 59.5458L104.301 58.7317L104.736 58.6503L103.759 57.8905L104.301 57.6734L103.297 56.9679L103.677 56.8051L102.972 56.0181L103.704 56.3437L103.949 55.8282L104.817 56.588V55.8282L105.577 56.9679L105.658 56.2623L106.228 57.1578L106.337 56.7508L106.744 57.6463L106.961 56.995L107.368 57.9448L107.476 57.2935L107.856 58.3247L108.209 57.9176L108.372 59.0031L108.725 58.596L109.05 59.5458L109.457 59.193L109.81 60.2785C109.81 60.2785 110.787 54.5256 102.483 54.4171L100.177 53.9558Z" fill="#3E926F"/>
<path d="M96.3779 48.8546L96.8392 49.4787L96.5951 49.6686L97.3819 50.13L97.2191 50.4828L98.006 50.8084L97.7076 51.0526L98.4131 51.4868L97.9519 51.6496L98.7931 52.0838L98.6844 52.4908L99.4171 52.6808L99.0915 52.9792L99.9327 53.7119L100.91 54.4446L101.588 54.2004L101.317 52.8164C101.317 52.7893 98.5217 48.6918 96.3779 48.8546Z" fill="#3E926F"/>
<path d="M98.9292 44.8655L99.2548 45.6795L98.8206 45.7881L99.8246 46.8735L99.0377 46.9007L100.015 47.7147L99.5533 47.8775L100.422 48.8273L99.9604 49.0715L100.883 50.0485L100.259 50.2927L101.29 51.2967L100.693 51.3238L101.317 52.1651L100.747 52.3549C100.747 52.3549 101.426 53.7118 101.399 54.2817L102.538 54.3359C102.538 54.3359 102.701 50.6725 102.565 50.1841L102.267 50.4012L102.348 49.0715L101.914 49.3701L101.833 47.7961L101.399 48.3117L101.29 46.7649L100.964 47.3077L100.639 45.7881L100.286 46.2494L99.9604 45.2725L99.6889 45.6524L98.9292 44.8655Z" fill="#3E926F"/>
<path d="M101.886 54.0916C102.212 51.8665 104.356 48.6645 108.372 48.5288L107.449 49.0444L107.992 49.2886L106.934 49.6956L107.449 50.0484L106.201 50.1569L106.852 50.6182L105.93 50.7539L105.197 50.9167L105.713 51.4595L104.654 51.5951L105.333 51.975C105.333 51.975 103.65 52.5991 103.542 52.7891C103.542 52.7891 109.159 51.2424 110.543 54.1188L109.458 53.6032L109.539 54.1459L108.779 53.5489L108.888 53.9831L108.101 53.5489L108.209 54.0916L107.395 53.5761L107.558 54.0645L106.5 53.5218L106.69 54.0374L105.767 53.7117L105.848 54.2545L104.953 54.2002L105.034 54.8243L102.212 54.77L101.886 54.0916Z" fill="#3E926F"/>
<path d="M101.018 55.9912L101.615 55.9369C101.344 61.9611 101.588 70.6174 102.348 73.8195C103.624 79.2467 107.395 81.3633 108.291 81.8788C108.807 82.1773 108.617 83.3985 107.585 83.317C106.581 83.2356 103.027 80.4135 101.805 75.3391C100.15 68.5551 100.964 56.6967 101.018 55.9912Z" fill="#734911"/>
<path d="M93.1761 65.2444H92.4706C92.4163 64.9187 92.2806 64.7017 92.0635 64.566C91.9549 64.4846 91.8192 64.4575 91.6835 64.4575C91.4122 64.4575 91.1951 64.5932 91.0051 64.8917C90.8423 65.163 90.7338 65.6243 90.7338 66.1942C90.7338 66.764 90.8423 67.1982 91.0323 67.4425C91.2222 67.6867 91.4393 67.7952 91.6835 67.7952C91.9278 67.7952 92.1178 67.7138 92.2534 67.5239C92.4163 67.3339 92.4978 67.0897 92.5249 66.7641H91.7379V65.9771H93.149V68.5279H92.6877L92.6062 67.9309C92.4705 68.148 92.3348 68.3108 92.2263 68.4193C92.0363 68.5821 91.8192 68.6635 91.5479 68.6635C91.0866 68.6635 90.7339 68.4465 90.4354 68.0123C90.1369 67.5781 89.9741 66.9811 89.9741 66.2213C89.9741 65.4615 90.1369 64.8374 90.4354 64.3761C90.7339 63.9148 91.1409 63.6705 91.6294 63.6705C92.0635 63.6705 92.4163 63.8334 92.6606 64.1319C92.9862 64.4032 93.149 64.7831 93.1761 65.2444Z" fill="#C4314C"/>
<path d="M96.4866 66.6827V63.7792H97.2193V66.6827C97.2193 67.0084 97.2463 67.2525 97.3006 67.3882C97.382 67.6596 97.572 67.7952 97.8705 67.7952C98.169 67.7952 98.3319 67.6596 98.4404 67.3882C98.4947 67.2254 98.5218 67.0084 98.5218 66.6827V63.7792H99.2545V66.6827C99.2545 67.1712 99.2002 67.5782 99.0917 67.8496C98.8746 68.3652 98.4947 68.6094 97.8977 68.6094C97.3007 68.6094 96.9208 68.3652 96.7037 67.8496C96.5409 67.5782 96.4866 67.1712 96.4866 66.6827Z" fill="#C4314C"/>
<path d="M103.624 68.5009L103.868 67.524H105.116L105.333 68.5009H106.093L104.899 63.7521H104.085L102.891 68.5009H103.624Z" fill="#C4314C"/>
<path d="M110.57 67.4697L111.167 63.7521H112.198V68.4737H111.547V65.2717C111.547 65.1903 111.547 65.0546 111.547 64.8918C111.547 64.729 111.547 64.5933 111.547 64.5119L110.896 68.4737H110.217L109.593 64.5119C109.593 64.5933 109.593 64.729 109.593 64.8918C109.593 65.0546 109.593 65.1903 109.593 65.2717V68.4737H108.942V63.7521H109.973L110.57 67.4697Z" fill="#C4314C"/>
<path d="M94.6955 76.5061C97.1106 76.5061 99.1457 76.0719 99.1457 76.0719C99.1457 76.0719 99.4714 77.7543 94.6955 77.7543C89.9196 77.7543 90.3265 76.3161 90.3265 76.3161C90.3265 76.3161 92.2533 76.5061 94.6955 76.5061Z" fill="#734911"/>
<path d="M92.6607 69.2335C92.6607 69.2335 96.4054 70.7532 97.8979 76.0718C97.8979 76.0718 94.4516 75.312 92.4979 76.1532H91.4124C91.4124 76.1532 93.2848 73.2225 92.6607 69.2335Z" fill="white"/>
<path d="M101.968 53.9832C102.321 53.9832 102.646 54.3088 102.646 54.6887C102.646 55.0686 102.348 55.3943 101.968 55.3943C101.615 55.3943 101.317 55.0686 101.317 54.6887C101.317 54.2817 101.615 53.9832 101.968 53.9832Z" fill="#734911"/>
<path d="M100.91 53.7659C101.263 53.7659 101.534 54.0644 101.534 54.4443C101.534 54.8242 101.263 55.1227 100.91 55.1227C100.557 55.1227 100.286 54.8242 100.286 54.4443C100.286 54.0644 100.557 53.7659 100.91 53.7659Z" fill="#734911"/>
<path d="M100.91 54.9872C101.235 54.9872 101.507 55.2586 101.507 55.6113C101.507 55.9641 101.235 56.2355 100.91 56.2355C100.584 56.2355 100.34 55.9641 100.34 55.6113C100.34 55.2586 100.584 54.9872 100.91 54.9872Z" fill="#734911"/>
<path d="M101.696 54.6344C102.049 54.6344 102.321 54.9329 102.321 55.3128C102.321 55.6927 102.049 55.9912 101.696 55.9912C101.344 55.9912 101.072 55.6927 101.072 55.3128C101.072 54.9329 101.371 54.6344 101.696 54.6344Z" fill="#734911"/>
<path d="M104.899 66.7099H104.058L104.492 64.8375L104.899 66.7099Z" fill="#5593CE"/>
</svg>
