<svg width="202" height="134" viewBox="0 0 202 134" fill="none" xmlns="http://www.w3.org/2000/svg">
<path d="M202 44.6562H0V89.3435H202V44.6562Z" fill="white"/>
<path d="M202 89.3435H0V134H202V89.3435Z" fill="#1E2788"/>
<path d="M202 0H0V44.6564H202V0Z" fill="#CB0028"/>
<path d="M77.5822 44.0084C84.8275 41.0765 92.8326 39.5026 100.675 39.4717C108.517 39.4409 116.495 40.8606 124.419 44.0701L130.307 30.5836L126.183 22.4054C126.183 22.4054 118.802 25.8619 118.747 25.8619C118.693 25.8619 113.537 19.4427 113.537 19.4427L106.943 23.9794L100.756 18.5786L94.9219 23.8868L88.1109 19.4118L83.145 26.1088L75.7098 22.498L71.7207 30.6145L77.5822 44.0084Z" fill="white"/>
<path d="M124.5 44.3167L124.364 44.255C116.902 41.1998 109.005 39.6566 100.865 39.6566C92.8595 39.6875 84.9087 41.2306 77.6363 44.1625L71.5579 30.6452L75.5469 22.3434L83.1993 25.8616L87.9751 19.1956L95.0034 23.6396L100.648 18.3623L107.052 23.763L113.456 19.2264C115.654 21.7571 118.666 25.4913 118.856 25.6764C118.91 25.5838 124.12 23.1458 126.128 22.22L130.47 30.4908L124.5 44.3167ZM75.6283 22.6521L71.8563 30.6761L77.7449 43.9155C84.8274 40.8602 92.8326 39.2863 100.675 39.2863C108.978 39.2863 116.875 40.8294 124.31 43.8229L130.117 30.4908L125.993 22.4977C118.802 26.0468 118.747 26.0468 118.72 26.0468C118.612 26.0468 118.585 26.0468 113.402 19.5351L107.025 24.1026L100.648 18.7018L95.0305 24.01L88.0294 19.5659L83.2806 26.232L75.6283 22.6521Z" fill="#CB0028"/>
<path d="M115.273 40.274L118.638 26.7258L125.857 23.3928L129.656 30.6453L124.201 43.3292C121.081 41.9096 119.398 41.3233 115.273 40.274Z" fill="#3A7AA1"/>
<path d="M124.228 43.4217L124.201 43.3909C121.108 42.0022 119.48 41.385 115.273 40.3048L118.611 26.6949L125.857 23.3311L129.71 30.6143L124.228 43.4217ZM125.829 23.4236L118.665 26.7566L115.328 40.2739C119.48 41.2923 121.108 41.8787 124.174 43.2675L129.601 30.6143L125.829 23.4236Z" fill="#4C73D5"/>
<path d="M96.3057 38.7926L95.166 24.7816L100.892 19.5968L106.889 24.7507L105.83 38.7926C102.52 38.6074 100.159 38.6383 96.3057 38.7926Z" fill="#3A7AA1"/>
<path d="M105.857 38.8852H105.83C102.52 38.6691 100.186 38.7 96.3056 38.8852L95.1116 24.8124L100.864 19.5968L106.916 24.7507L105.857 38.8852ZM100.864 19.6586L95.1931 24.8433L96.3327 38.8235C100.105 38.5457 102.493 38.6074 105.776 38.7926L106.834 24.7816L100.864 19.6586Z" fill="#4C73D5"/>
<path d="M77.8803 43.3292L72.5344 30.4909L76.0894 23.3928L83.4975 27.0653L86.618 40.3357C83.2531 41.1072 81.4622 41.7553 77.8803 43.3292Z" fill="#3A7AA1"/>
<path d="M77.8536 43.3909L72.4807 30.4908L76.0355 23.3618L83.4979 27.0035L86.6456 40.3048C83.1722 41.1689 81.327 41.8478 77.8536 43.3909V43.3909ZM76.0898 23.4544L72.562 30.5217L77.8807 43.2983C81.327 41.7861 83.1723 41.1072 86.5914 40.3048L83.4436 27.0961L76.0898 23.4544Z" fill="#4C73D5"/>
<path d="M76.7412 36.8792C78.3694 37.0643 79.5362 36.9718 80.9472 36.4163C82.6025 35.5213 83.1452 34.5028 83.6337 33.6696C84.0407 35.3052 83.878 36.8175 82.0056 38.0519C80.296 39.0703 77.8538 38.7926 76.7412 36.8792Z" fill="white"/>
<path d="M79.9154 38.669C78.5586 38.669 77.3918 38.0209 76.7134 36.9099C77.229 36.9099 77.6903 36.9099 78.0973 36.9099C79.1014 36.9099 79.9425 36.7556 80.9466 36.3544C82.4933 35.5212 83.0361 34.5953 83.5245 33.7621V33.7929C83.0361 34.7187 82.4391 35.6446 80.9466 36.4161C79.5355 36.9716 78.3687 37.0642 76.7134 36.879C77.7717 38.4838 80.2139 39.0085 81.9506 37.9901C83.4973 36.9717 83.8229 35.768 83.7415 34.6879C83.9043 35.768 83.6059 37.0025 81.9778 38.0827C81.3808 38.4839 80.6481 38.669 79.9154 38.669Z" fill="white"/>
<path d="M102.439 26.9729L102.113 27.0655V27.7135L101.706 27.8061L101.435 28.3925L101.597 28.5776C101.597 28.6085 101.462 29.0097 101.462 29.0097L101.57 29.164L101.679 29.5343L101.95 29.5652L102.032 29.9973L102.439 30.059L102.846 30.3677L102.873 30.5528H103.307L103.605 30.6763L104.664 30.5528L104.799 30.3059V29.9664L105.369 29.9356L105.424 29.3801H105.722L105.695 28.7628L105.939 28.7937L105.885 28.516L105.722 28.269L105.695 27.8987L105.261 27.4049L105.152 26.7568L104.881 26.6026L104.854 26.1705L105.179 25.6767L105.152 25.4607H104.854L104.637 25.6767L104.338 25.7076V25.8618L104.419 26.1397H104.067L104.04 25.6767L103.551 25.3989L103.09 25.7384L103.063 26.1397L102.846 26.2014L102.629 25.831L102.249 25.6767H102.032V25.9544L102.439 26.5408V26.9729Z" fill="#FBFC2B"/>
<path d="M103.632 30.7996L102.818 30.6762L102.791 30.3984L102.438 30.1515L102.059 30.0898L101.896 29.5652L101.706 29.596L101.462 28.7627L101.624 28.5468L101.38 28.4542L101.624 27.7443L102.086 27.5901L102.004 27.0345L102.411 26.8185L102.384 26.5716L102.004 26.047L101.977 25.6766V25.5532L102.303 25.584L102.71 25.7692L102.981 26.1704L103.036 25.7692C103.036 25.7074 103.036 25.7075 103.524 25.3372L104.094 25.6149L104.175 26.1704L104.338 26.0778L104.257 25.9235C104.257 25.6458 104.284 25.6149 104.636 25.584L104.799 25.3988L105.152 25.368H105.234L105.288 25.6766L104.935 26.263L104.962 26.6333C104.962 26.5716 105.179 26.6951 105.179 26.6951L105.342 27.4357L105.749 27.8678L106.02 28.8245L105.668 28.9479L105.803 29.4417L105.396 29.5652L105.451 29.9973L104.799 30.1206L104.881 30.3676L104.718 30.6762L103.632 30.7996ZM103.334 30.491L103.632 30.5835L104.664 30.4602L104.745 30.275V29.9973L105.424 29.8738L105.396 29.4417L105.776 29.3491L105.64 28.8553L105.993 28.7627L105.695 28.4233L105.64 27.9912L105.234 27.5592L105.098 26.8493C104.799 26.7568 104.799 26.7568 104.799 26.6642L104.772 26.2322L105.125 25.6458L104.881 25.6149L104.718 25.8001C104.664 25.8309 104.419 25.8617 104.392 25.8617C104.528 26.1704 104.528 26.1704 104.528 26.2013L104.094 26.3247L103.985 25.7692L103.578 25.6149C103.578 25.6458 103.307 25.8927 103.226 25.9235C103.253 25.9544 103.226 26.263 103.226 26.263V26.3555L102.954 26.4481L102.628 26.047L102.276 25.9235L102.194 26.1087L102.574 26.6333L102.547 27.0654L102.14 27.2505L102.221 27.806L101.733 28.0221L101.516 28.5468C101.706 28.6702 101.706 28.701 101.624 28.9788C101.543 28.9788 101.543 29.0097 101.679 29.1948L101.787 29.596L101.977 29.5652L102.14 30.0898H102.466L102.927 30.4602L102.954 30.707L103.334 30.491Z" fill="#C2A21F"/>
<path d="M101.652 28.5156L102.113 28.4847L102.195 28.9785L102.357 29.1329L102.384 29.997L102.547 30.0587L102.574 29.7192L102.927 29.6884L103.009 30.3673L102.927 30.4599L102.954 30.5833L103.389 30.5525L103.497 30.3673H103.741L103.85 30.5525L103.904 30.3056L104.121 30.1822L104.311 30.5216L104.637 30.4907L104.447 30.2748L104.365 29.8118L104.799 29.5649L104.962 29.9044H105.125L104.935 29.5032V28.7317L105.261 28.207L105.749 28.1761V27.9602L105.261 27.4664L105.152 26.8183L104.881 26.6639L104.827 26.7565L104.528 26.7874L104.827 27.2503V27.5589L104.935 27.6515V28.5156L104.582 28.5773V29.0402L104.365 29.2563L104.257 29.7192L104.067 29.997H103.687L103.497 29.7501L103.443 29.4414L103.307 29.3798L103.226 29.0094L102.981 28.8551L102.954 28.6391L102.71 28.5465L102.683 28.3305L102.574 28.2379L102.547 27.7132L102.764 27.6515L102.656 27.4972L102.601 27.3429V27.1886L102.791 27.0035L102.466 26.9417L102.167 27.096V27.7441L101.787 27.8676L101.516 28.3922L101.652 28.5156Z" fill="#C2A21F"/>
<path d="M102.9 30.6759L102.846 30.4906V29.6883L102.601 29.8117L102.656 30.0586L102.629 30.2129L102.357 30.0895L102.276 29.1328L102.032 28.5155L101.625 28.639L101.435 28.4538L101.706 27.8057L102.086 27.6514C102.032 27.6206 102.059 27.1885 102.059 27.1267C102.167 27.0033 102.384 26.9107 102.411 26.8799C102.52 26.849 102.791 26.9108 102.791 26.9108L102.656 27.497L102.52 27.3737L102.656 27.0959C102.601 27.1268 102.52 27.0959 102.493 27.0959C102.547 27.1268 102.384 27.1884 102.276 27.2193C102.303 27.281 102.276 27.4354 102.276 27.7749L101.842 27.9908L101.597 28.4538L102.113 28.3921L102.303 28.9475L102.493 29.9969V29.7191L102.954 29.5957L103.117 30.398L103.036 30.4906L103.47 30.4289L103.443 30.6759H102.9ZM104.338 30.645C104.04 30.2438 104.04 30.2437 104.04 30.2129L103.904 30.3054V30.3672L103.85 30.2129C104.067 30.1203 104.094 30.1203 104.121 30.1203C104.23 30.2129 104.392 30.4906 104.392 30.4906L104.609 30.398H104.365L104.257 29.8734L104.284 29.8425C104.257 29.8425 104.257 29.8425 104.23 29.8425L104.121 30.0586L103.687 30.1203C103.361 29.8425 103.361 29.8426 103.361 29.7809L103.334 29.4722C103.198 29.5339 103.198 29.5031 103.117 29.071L102.873 28.9475L102.846 28.6698L102.629 28.6081L102.574 28.3613C102.439 28.3613 102.439 28.3612 102.439 27.7131V27.6205L102.737 27.5588L102.927 27.744L102.601 27.8057C102.656 27.8674 102.656 28.176 102.656 28.2069L103.036 28.5772L103.063 28.855L103.253 28.9167C103.307 28.9785 103.361 29.2871 103.388 29.318C103.551 29.4105 103.578 29.75 103.578 29.75L103.741 29.9043L104.04 29.8734C104.175 29.5957 104.175 29.5957 104.23 29.5957C104.175 29.5957 104.257 29.2254 104.257 29.2254L104.501 28.9475V28.5464C104.501 28.4538 104.501 28.4538 104.908 28.3921L104.718 27.2502L104.447 26.849L104.799 26.6329L105.179 26.6947L105.342 27.4354L105.803 27.8983V28.176L105.261 28.3304L104.989 28.7933L105.017 29.5031C105.017 29.5031 105.179 29.7808 105.179 29.8117L104.935 29.9969L104.691 29.5957L104.392 29.9043L104.691 30.3672L104.338 30.645ZM104.664 28.6698C104.691 28.7315 104.691 29.071 104.691 29.071L104.447 29.3796C104.365 29.7191 104.338 29.8117 104.311 29.8425L104.772 29.5031L104.881 29.6574C104.881 29.6574 104.881 29.6265 104.854 29.6265V28.7933L104.962 28.639C104.854 28.639 104.718 28.6389 104.664 28.6698ZM104.854 26.7564L104.555 26.8799L104.908 27.1885L105.017 28.4538L105.207 28.1452L105.749 28.0526L105.234 27.5588L105.071 26.849L104.854 26.7564Z" fill="#C2A21F"/>
<path d="M103.47 29.4107L103.714 29.2564V28.9477L103.497 28.886L103.415 28.7935L103.66 28.8552L103.985 28.8244L104.094 28.7626C104.039 28.886 104.012 28.886 104.012 28.886L103.85 28.9786V29.2873L104.392 29.3798C104.392 29.3798 104.392 29.5033 104.365 29.5033C104.338 29.5033 103.795 29.3798 103.795 29.3798L103.442 29.6267L103.47 29.4107Z" fill="#613F21"/>
<path d="M103.307 29.6886L103.415 29.38L103.659 29.1948L103.578 28.8862L103.714 28.9171V28.8862L103.931 28.7936V28.8553L103.795 29.0096L103.822 29.2565C104.365 29.2873 104.365 29.2873 104.365 29.3491C104.284 29.5034 104.256 29.5034 103.741 29.38L103.307 29.6886Z" fill="#C2A21F"/>
<path d="M104.827 27.5902L104.501 27.868L104.284 28.2691L104.175 28.3L103.877 27.8371H103.524C103.524 27.8371 103.334 28.3617 103.334 28.3926L103.198 28.3618L102.846 27.8988L102.737 27.6828C102.764 27.6828 103.66 27.6828 103.66 27.6828V27.189C103.66 27.189 103.524 27.1273 103.443 27.0964C103.497 27.0656 103.931 27.0656 103.931 27.0656L103.741 27.2198V27.6519H104.528L104.827 27.5902Z" fill="#C2A21F"/>
<path d="M103.361 28.485L103.198 28.4542L102.737 27.9295L102.683 27.6208L103.687 27.5592L103.578 27.2196L103.687 27.1579C103.632 27.1579 103.605 27.1888 103.578 27.1888C103.469 26.9728 103.659 26.9728 103.958 26.9728H104.284L103.822 27.3122L103.877 27.6517L104.826 27.4666L104.365 28.2998L104.148 28.3307L103.849 27.8678L103.605 27.9295C103.632 27.9603 103.497 28.3615 103.497 28.3924L103.361 28.485ZM103.741 27.6826L102.737 27.7752L103.28 28.2689C103.307 28.2072 103.361 28.053 103.442 27.7752L103.741 27.7134V27.6826Z" fill="#C2A21F"/>
<path d="M103.199 27.806H103.28C103.307 27.806 103.335 27.837 103.335 27.8678V27.9604C103.335 27.9913 103.307 28.0221 103.28 28.0221H103.199C103.172 28.0221 103.145 27.9913 103.145 27.9604V27.8678C103.145 27.837 103.172 27.806 103.199 27.806Z" fill="#613F21"/>
<path d="M104.203 27.7753H104.284C104.311 27.7753 104.338 27.8061 104.338 27.837V27.9295C104.338 27.9604 104.311 27.9912 104.284 27.9912H104.203C104.175 27.9912 104.148 27.9604 104.148 27.9295V27.837C104.121 27.8061 104.175 27.7753 104.203 27.7753Z" fill="#613F21"/>
<path d="M102.764 27.096L102.656 27.0342L102.683 26.9109C102.981 26.7874 103.225 26.6639 103.632 26.633C104.039 26.5713 104.365 26.6639 104.691 26.7256C104.311 26.8799 104.039 26.8182 103.66 26.8491C103.28 26.8491 103.062 26.9726 102.764 27.096Z" fill="#C2A21F"/>
<path d="M102.846 26.2322H102.574L102.194 25.7692L102.411 25.8001L102.656 25.9235L102.846 26.2322Z" fill="#C2A21F"/>
<path d="M103.036 26.3553H102.574L101.923 25.6146L102.71 25.8307L103.036 26.3553Z" fill="#C2A21F"/>
<path d="M104.474 26.047L105.098 25.5223L104.908 25.4915L104.664 25.7384L104.393 25.8001L104.474 26.047Z" fill="#C2A21F"/>
<path d="M104.121 26.1701L103.171 26.201V26.0775L103.524 26.0467L103.551 25.8923H103.659L103.741 26.0158L104.093 26.1084L104.121 26.1701Z" fill="#C2A21F"/>
<path d="M103.062 26.3244V26.0775L103.524 25.9232L103.307 26.0775H103.632L103.578 25.9232L104.093 25.9849L104.202 26.1701L104.121 26.2626L103.062 26.3244Z" fill="#C2A21F"/>
<path d="M104.067 25.7385L103.741 25.7693L103.714 25.5533L104.067 25.7385Z" fill="#C2A21F"/>
<path d="M103.497 25.5533V25.7693L103.171 25.8311L103.497 25.5533Z" fill="#C2A21F"/>
<path d="M101.679 29.3183L101.842 28.8245L101.679 28.5159L101.543 29.0097L101.679 29.3183Z" fill="#C2A21F"/>
<path d="M102.004 29.5649L102.194 29.0094L101.814 29.4414L102.004 29.5649Z" fill="#C2A21F"/>
<path d="M102.058 29.7194L101.76 29.5652L102.113 28.9479L101.895 29.5343L102.004 29.5652L101.923 29.5035L102.14 28.9171L102.058 29.7194Z" fill="#C2A21F"/>
<path d="M97.1201 27.1578L96.7944 27.2504V27.8984L96.3874 27.991L96.116 28.5774L96.2788 28.7626C96.2788 28.7934 96.1431 29.1947 96.1431 29.1947L96.2518 29.3489L96.3603 29.7193L96.6316 29.7502L96.713 30.1823L97.1471 30.2439L97.5271 30.5526L97.5543 30.7377H97.9884L98.287 30.8612L99.3452 30.7377L99.481 30.4908V30.1514L100.051 30.1205L100.105 29.5959H100.403L100.376 28.9786L100.621 29.0095L100.566 28.7318L100.403 28.4848L100.376 28.1145L99.9422 27.6207L99.8337 26.9726L99.5623 26.8184L99.5351 26.3863L99.8607 25.8925L99.8337 25.7073H99.5351L99.3182 25.9234L99.0195 25.9542V26.1085L99.101 26.3863H98.7482L98.7211 25.9234L98.2327 25.6456L97.7714 25.9851L97.7442 26.3863L97.5271 26.448L97.31 26.0776L96.9302 25.9234H96.713V26.2011L97.1201 26.8184V27.1578Z" fill="#FBFC2B"/>
<path d="M98.3139 31.0155L97.4999 30.892L97.4727 30.6143L97.1201 30.3674L96.7402 30.3056L96.5774 29.7811L96.3874 29.8427L96.1431 29.0403C96.1702 28.9477 96.2246 28.7934 96.2246 28.7626L96.0618 28.5466L96.3331 27.9602L96.7943 27.8059L96.6858 27.2504L97.0929 27.0344L97.0658 26.7875L96.6858 26.2628L96.6587 25.8925V25.769L96.9843 25.7999L97.3914 25.9851L97.6627 26.4172L97.717 26.016C97.717 25.9542 97.717 25.9542 98.2054 25.5839L98.7754 25.8308L98.8567 26.3863L99.0195 26.2937L98.9382 26.1394C98.9382 25.8308 98.9382 25.8308 99.3181 25.7999L99.4809 25.6148L99.8337 25.5839H99.915L99.9694 25.8616L99.6166 26.448L99.6437 26.8184C99.6437 26.7567 99.8607 26.8801 99.8607 26.8801L100.024 27.6207L100.431 28.0528L100.702 29.0095L100.349 29.133L100.485 29.6267L100.078 29.7502L100.132 30.1823L99.4538 30.3056L99.5351 30.5217L99.3723 30.8303L98.3139 31.0155ZM98.0155 30.6761L98.3139 30.7994L99.3451 30.6761L99.4266 30.46V30.1823L100.105 30.0588L100.078 29.6267L100.485 29.5341L100.349 29.0403L100.702 28.9477L100.403 28.6083L100.349 28.1762L99.9422 27.7442L99.8065 27.0344C99.508 26.9418 99.5079 26.9418 99.5079 26.8492L99.4809 26.4172L99.8337 25.8308L99.5894 25.7999L99.4266 25.9851C99.3723 26.0159 99.1281 26.0469 99.101 26.0469C99.2638 26.3555 99.2638 26.3554 99.2638 26.3863L98.8295 26.5098L98.721 25.9542L98.3139 25.7999C98.3139 25.8308 98.0427 26.0777 97.9613 26.1085C97.9885 26.1394 97.9613 26.448 97.9613 26.448V26.5406L97.6899 26.6331L97.3642 26.2011L97.0115 26.0777L96.9301 26.2628L97.3099 26.7875L97.2829 27.2195L96.8758 27.4047L96.9571 27.9602L96.4687 28.1762L96.2517 28.7009C96.4417 28.8243 96.4416 28.8552 96.3331 29.1638C96.2517 29.1329 96.2788 29.1329 96.3874 29.349L96.4959 29.7502L96.6858 29.7193L96.8487 30.244H97.2014L97.6627 30.6143L97.6899 30.8612L98.0155 30.6761Z" fill="#C2A21F"/>
<path d="M96.3332 28.7318L96.7945 28.7009L96.876 29.1638L97.0388 29.3182L97.0659 30.1823L97.2288 30.244L97.2559 29.9046L97.6087 29.8737L97.69 30.5834L97.6087 30.6452L97.6357 30.7687H98.07L98.1784 30.5834L98.4227 30.5526L98.5041 30.7687L98.5855 30.4909L98.8027 30.3983L98.9925 30.7378L99.3183 30.6761L99.1283 30.4601L99.0468 30.028L99.4811 29.7502L99.6439 30.0897H99.8067L99.6167 29.7193V28.917L99.9423 28.4232L100.431 28.3615V28.1455L99.9423 27.6517L99.8339 27.0036L99.5624 26.8492L99.5081 26.9418L99.2096 26.9727L99.5081 27.4356V27.7751L99.6167 27.8368L99.5896 28.7009L99.2639 28.7626V29.2256L99.0468 29.4725L98.9112 29.9046L98.7212 30.1823H98.3684L98.1513 29.9663L98.1243 29.6267L97.9885 29.5651L97.9072 29.2256L97.6629 29.0713L97.6357 28.8552L97.3916 28.7318L97.3644 28.5158L97.2559 28.4232L97.2288 27.8985L97.4459 27.8677L97.3372 27.6826L97.2831 27.5282V27.3739L97.4729 27.1888L97.1473 27.1579L96.8488 27.2813L96.8216 27.9294L96.4689 28.0529L96.1704 28.5775L96.3332 28.7318Z" fill="#C2A21F"/>
<path d="M97.5815 30.8921L97.5272 30.707L97.5544 29.9047L97.3101 30.028L97.3644 30.275L97.3372 30.4292L97.0659 30.3058L96.9845 29.3491L96.7403 28.7319L96.3332 28.8553L96.1704 28.6701L96.4419 28.0221L96.8216 27.8678C96.7674 27.8369 96.7945 27.374 96.7945 27.3431C96.903 27.2197 97.1201 27.1271 97.1473 27.0963C97.2558 27.0654 97.5272 27.1271 97.5272 27.1271L97.3916 27.7134L97.2559 27.5901L97.3916 27.3122C97.3373 27.3431 97.2287 27.3122 97.2016 27.3122C97.2559 27.3431 97.093 27.4048 96.9845 27.4357C97.0116 27.4974 96.9845 27.6517 96.9845 27.9912L96.5504 28.2072L96.3061 28.6701L96.8216 28.6084L97.0116 29.1639L97.2016 30.2132V29.9355L97.6629 29.812L97.8257 30.6144L97.7443 30.707L98.2056 30.6453L98.1784 30.8921H97.5815ZM99.0197 30.8305C98.7212 30.4293 98.7212 30.4292 98.7212 30.3984L98.5855 30.4909V30.5527L98.5312 30.3984C98.7483 30.3058 98.7755 30.3058 98.8027 30.3058L99.074 30.6762L99.2911 30.5835H99.0468L98.9383 30.0898L99.4268 29.7194L99.5352 29.8738C99.5352 29.8738 99.5352 29.8429 99.5081 29.8429L99.4811 29.0096L99.5896 28.8553C99.481 28.917 99.3725 28.917 99.3183 28.9479C99.3454 29.0096 99.3453 29.3491 99.3453 29.3491L99.1011 29.6577C98.9926 30.1515 98.9926 30.1515 98.9112 30.1515L98.8027 30.3676L98.3684 30.4292C98.0428 30.1515 98.0428 30.1515 98.0428 30.0898L98.0156 29.7812C97.88 29.812 97.8801 29.812 97.7987 29.38L97.5544 29.2565L97.5272 28.9788L97.3101 28.9479L97.2559 28.701C97.1202 28.701 97.1203 28.701 97.1203 28.053V27.9604L97.4187 27.8986L97.6087 28.0838L97.2831 28.1455C97.3373 28.2073 97.3372 28.5159 97.3372 28.5467L97.7443 28.9171L97.7715 29.1948L97.9615 29.2565C98.0157 29.3182 98.07 29.6268 98.0971 29.6577C98.2599 29.7503 98.2871 30.0898 98.2871 30.0898C98.2871 30.059 98.4499 30.2441 98.4499 30.2441L98.7484 30.2132C98.884 29.9354 98.8841 29.9355 98.9383 29.9355C98.8841 29.9355 98.9655 29.5651 98.9655 29.5651L99.2096 29.2874V28.8862C99.2096 28.7936 99.2368 28.7936 99.6167 28.7319L99.4268 27.5901L99.1555 27.1579L99.5081 26.9419L99.888 27.0037L100.051 27.7443L100.512 28.2072V28.485L99.9695 28.6701L99.6981 29.1331L99.7252 29.8429C99.7252 29.8429 99.888 30.1206 99.888 30.1515L99.6439 30.3367L99.3996 29.9663L99.1011 30.275L99.3996 30.7379L99.0197 30.8305ZM99.5081 26.9419L99.2096 27.0654L99.5624 27.374L99.6709 28.6393L99.8609 28.3307L100.404 28.2381L99.888 27.7443L99.7252 27.0037L99.5081 26.9419Z" fill="#C2A21F"/>
<path d="M98.1511 29.5958L98.3954 29.4414V29.1329L98.1782 29.0711L98.0969 28.9785L98.3411 29.0402L98.6667 29.0094L98.7753 28.9476C98.7211 29.0711 98.6938 29.0711 98.6938 29.0711L98.531 29.1637V29.4723L99.0738 29.5649C99.0738 29.5649 99.0738 29.6884 99.0466 29.6884C99.0195 29.6884 98.4769 29.5649 98.4769 29.5649L98.1241 29.8117L98.1511 29.5958Z" fill="#613F21"/>
<path d="M97.9883 29.8735L98.0969 29.5649L98.3411 29.3797L98.2597 29.102L98.3954 29.1329V29.102L98.6125 29.0094V29.0711L98.4497 29.2255L98.4769 29.4723C99.0196 29.5032 99.0195 29.5032 99.0195 29.5649C98.9381 29.7192 98.9381 29.7501 98.3954 29.5958L97.9883 29.8735Z" fill="#C2A21F"/>
<path d="M99.5078 27.7752L99.1822 28.0529L98.9652 28.4541L98.8566 28.4849L98.5581 28.022H98.2053C98.2053 28.022 98.0154 28.5466 98.0154 28.5775L97.8797 28.5467L97.5269 28.0837L97.4185 27.8678C97.4456 27.8678 98.341 27.8678 98.341 27.8678V27.374C98.341 27.374 98.2054 27.3122 98.124 27.2814C98.1783 27.2505 98.6124 27.2505 98.6124 27.2505L98.4225 27.4048V27.8369H99.2094L99.5078 27.7752Z" fill="#C2A21F"/>
<path d="M98.0424 28.6699L97.8796 28.6391L97.4183 28.0835L97.364 27.775L98.368 27.7441L98.2867 27.4046L98.368 27.3429C98.3409 27.3429 98.2867 27.3738 98.2595 27.3738C98.151 27.1577 98.341 27.1577 98.6395 27.1577H98.9651L98.5037 27.4971L98.558 27.8367L99.5077 27.6515L99.0464 28.4847L98.8293 28.5156L98.5308 28.0527L98.2867 28.1144C98.3138 28.1453 98.178 28.5465 98.1509 28.5773L98.0424 28.6699ZM98.4224 27.8676L97.4183 27.9601L97.9611 28.4539C97.9882 28.3922 98.0425 28.2379 98.1239 27.9601L98.4224 27.8984V27.8676Z" fill="#C2A21F"/>
<path d="M97.8795 28.022H97.961C97.9881 28.022 98.0152 28.0528 98.0152 28.0837V28.1762C98.0152 28.2071 97.9881 28.238 97.961 28.238H97.8795C97.8524 28.238 97.8252 28.2071 97.8252 28.1762V28.0837C97.8252 28.0528 97.8524 28.022 97.8795 28.022Z" fill="#613F21"/>
<path d="M98.8841 27.9602H98.9655C98.9927 27.9602 99.0197 27.991 99.0197 28.0219V28.1145C99.0197 28.1453 98.9927 28.1762 98.9655 28.1762H98.8841C98.8569 28.1762 98.8297 28.1453 98.8297 28.1145V28.0219C98.8026 27.991 98.8298 27.9602 98.8841 27.9602Z" fill="#613F21"/>
<path d="M97.4726 27.2812L97.3369 27.2194L97.3912 27.0652C97.6897 26.9417 97.9339 26.8183 98.3138 26.7874C98.7208 26.7257 99.0193 26.7874 99.3721 26.88C98.9922 27.0343 98.7208 26.9726 98.3409 27.0035C97.961 27.0652 97.7439 27.1578 97.4726 27.2812Z" fill="#C2A21F"/>
<path d="M97.5272 26.4171H97.2559L96.876 25.985L97.0931 26.0159L97.3372 26.1393L97.5272 26.4171Z" fill="#C2A21F"/>
<path d="M97.7167 26.5407H97.2555L96.6042 25.8309L97.364 26.0161L97.7167 26.5407Z" fill="#C2A21F"/>
<path d="M99.1555 26.2629L99.7795 25.7383L99.5624 25.7074L99.3453 25.9234L99.074 25.9851L99.1555 26.2629Z" fill="#C2A21F"/>
<path d="M98.8022 26.3554L97.8252 26.3863L97.8524 26.2628L98.2051 26.232L98.2323 26.0776H98.3408L98.4223 26.232L98.7751 26.2937L98.8022 26.3554Z" fill="#C2A21F"/>
<path d="M97.7173 26.5097L97.7444 26.2628L98.2057 26.1394L98.0157 26.2628H98.3142L98.26 26.1394L98.7756 26.1702L98.8841 26.3554L98.8028 26.4788L97.7173 26.5097Z" fill="#C2A21F"/>
<path d="M98.7485 25.9544H98.4229L98.3958 25.7384L98.7485 25.9544Z" fill="#C2A21F"/>
<path d="M98.178 25.7692L98.1508 25.9543L97.8252 26.0161L98.178 25.7692Z" fill="#C2A21F"/>
<path d="M96.3603 29.5032L96.5231 29.0402L96.3603 28.7008L96.2246 29.1946L96.3603 29.5032Z" fill="#C2A21F"/>
<path d="M96.6856 29.7503L96.8755 29.1948L96.4956 29.6577L96.6856 29.7503Z" fill="#C2A21F"/>
<path d="M96.7396 29.9045L96.4412 29.7501L96.7938 29.1637L96.5768 29.7192L96.6853 29.7501L96.5768 29.7192L96.8209 29.1329L96.7396 29.9045Z" fill="#C2A21F"/>
<path d="M105.912 38.7926L106.971 24.7199L113.51 20.4302L118.558 26.6641L115.193 40.2123C111.936 39.4716 110.064 39.163 105.912 38.7926Z" fill="#1E2788"/>
<path d="M115.246 40.3049H115.192C111.936 39.5642 110.063 39.2248 105.885 38.8544L106.916 24.7507L113.483 20.4302L118.584 26.6641L115.246 40.3049ZM113.483 20.4919L106.997 24.7816L105.939 38.7926C110.036 39.1012 111.936 39.4099 115.165 40.1814L118.53 26.695L113.483 20.4919Z" fill="#160080"/>
<path d="M99.888 32.4045L99.5624 32.4971L99.5895 33.1761L99.1824 33.2686L98.9111 33.855L99.0739 34.0402C99.0739 34.071 98.9383 34.4722 98.9383 34.4722L99.0468 34.6265L99.1554 34.9969L99.4267 35.0277L99.481 35.4598L99.9151 35.5215L100.295 35.8301L100.322 36.0152H100.756L101.055 36.1387L102.113 35.9844L102.249 35.7375V35.3981L102.819 35.3672L102.873 34.8117H103.171L103.144 34.1944L103.389 34.2253L103.334 33.9476L103.171 33.7006L103.144 33.3303L102.71 32.8365L102.602 32.1885L102.33 32.0341L102.303 31.6021L102.629 31.1083L102.602 30.8922H102.303L102.086 31.1083L101.788 31.1392V31.2935L101.869 31.5712H101.516L101.489 31.1392L101.001 30.8615L100.539 31.2009L100.512 31.6021L100.295 31.6638L100.078 31.2935L99.698 31.1392H99.481V31.4169L99.888 32.0033V32.4045Z" fill="#FBFC2B"/>
<path d="M101.082 36.2622L100.268 36.1387L100.241 35.861L99.8879 35.614L99.5079 35.5523L99.3723 35.0277L99.1823 35.0894L98.8839 34.1944L98.8567 33.7932L99.1281 33.2068L99.5894 33.0526L99.5079 32.4971L99.915 32.3119L99.8879 32.065L99.5079 31.5404L99.4809 31.17V31.0466L99.7794 31.0774L100.213 31.2626L100.485 31.6947L100.539 31.2935C100.539 31.2317 100.539 31.2318 101.028 30.8615L101.597 31.1392L101.679 31.6947L101.842 31.6021L101.76 31.4478C101.76 31.1701 101.76 31.17 102.14 31.1083L102.303 30.9231L102.656 30.8922H102.737L102.791 31.17L102.466 31.7564L102.493 32.1267C102.493 32.065 102.71 32.1885 102.71 32.1885L102.873 32.9291L103.28 33.3612L103.551 34.3179L103.199 34.4413L103.334 34.9351L102.927 35.0586L102.981 35.4907L102.33 35.614L102.411 35.861L102.249 36.1696L101.082 36.2622ZM100.783 35.9227L101.082 36.0461L102.113 35.9227L102.195 35.7375V35.4598L102.873 35.3363L102.819 34.9043L103.226 34.8117L103.09 34.3179L103.443 34.2253L103.144 33.8858L103.09 33.4538L102.683 33.0217L102.547 32.3119C102.249 32.2194 102.249 32.2193 102.249 32.1267L102.222 31.6947L102.574 31.1083L102.33 31.0774L102.167 31.2626C102.113 31.2934 101.869 31.3244 101.842 31.3244C102.005 31.633 102.005 31.6329 102.005 31.6638L101.57 31.7873L101.462 31.2318L101.055 31.0466C101.055 31.0775 100.783 31.3243 100.702 31.386C100.729 31.4169 100.702 31.7256 100.702 31.7256V31.8181L100.431 31.9107L100.105 31.4786L99.7522 31.3551L99.6707 31.5404L100.051 32.065L100.024 32.4971L99.6166 32.6823L99.6979 33.2377L99.2095 33.4538L98.9923 33.9784C99.1823 34.1018 99.1824 34.1327 99.101 34.4105C99.0196 34.4413 99.0196 34.4414 99.1553 34.6265L99.2638 35.0277L99.4538 34.9969L99.6166 35.5215H99.9422L100.403 35.8918L100.431 36.1387L100.783 35.9227Z" fill="#C2A21F"/>
<path d="M99.101 33.978L99.5623 33.9472L99.6438 34.4101L99.8066 34.5643L99.8338 35.4284L99.9694 35.4902L100.024 35.1507L100.376 35.1198L100.458 35.8297L100.349 35.9222L100.404 36.0148H100.838L100.919 35.8297L101.163 35.7988L101.272 36.0148L101.353 35.7371L101.57 35.6445L101.76 35.9839L102.086 35.9222L101.869 35.7371L101.787 35.2742L102.249 34.9964L102.412 35.3359H102.574L102.384 34.9655V34.1631L102.71 33.6693L103.171 33.6076V33.3916L102.71 32.9287L102.602 32.2497L102.33 32.0955L102.249 32.188L101.95 32.2189L102.249 32.7126V33.0213L102.384 33.083L102.357 33.9472L102.032 34.0088L102.005 34.5026L101.815 34.7187L101.679 35.1507L101.489 35.4284L101.136 35.4593L100.919 35.2124L100.892 34.873L100.729 34.8421L100.648 34.4718L100.404 34.3175V34.1014L100.159 33.978L100.132 33.762L99.9966 33.7002V33.1447L100.214 33.1138L100.078 32.9287L100.051 32.7744V32.62L100.214 32.4349L99.9151 32.4041L99.5895 32.5584V33.1756L99.2367 33.299L98.9382 33.8237L99.101 33.978Z" fill="#C2A21F"/>
<path d="M100.322 36.1384L100.268 35.9533V35.1508L100.023 35.2743L100.078 35.5212L100.051 35.6755L99.7793 35.552L99.6978 34.5954L99.4537 33.9781L99.0466 34.1016L98.8838 33.9164L99.1552 33.2683L99.535 33.114C99.4808 33.0831 99.5079 32.6511 99.5079 32.5894C99.6164 32.4659 99.8335 32.3424 99.8606 32.3424C99.9692 32.3116 100.241 32.3733 100.241 32.3733L100.105 32.9597L99.9693 32.8362L100.105 32.5585C100.051 32.5894 99.9421 32.5585 99.9421 32.5585C99.9964 32.5894 99.8335 32.6511 99.725 32.682C99.725 32.7437 99.725 32.9288 99.725 33.2374L99.2909 33.4535L99.0466 33.9164L99.5622 33.8547L99.7522 34.4102L99.9421 35.4595V35.1817L100.403 35.0583L100.593 35.8607L100.512 35.9533L100.946 35.8915L100.919 36.1075L100.322 36.1384ZM101.76 36.0767C101.462 35.6755 101.462 35.6755 101.462 35.6446L101.353 36.0458L101.055 35.7989L100.919 35.8298L101.136 35.7063L101.163 35.8298L101.326 35.9841L101.353 35.9224L101.299 35.6755C101.543 35.5829 101.543 35.5829 101.57 35.5829C101.679 35.6755 101.842 35.9533 101.842 35.9533L102.059 35.8607H101.815L101.706 35.336L102.194 34.9657L102.303 35.1199C102.303 35.1199 102.303 35.0891 102.276 35.0891V34.2558L102.357 34.1016C102.276 34.1633 102.14 34.1633 102.086 34.1941C102.113 34.2559 102.113 34.5954 102.113 34.5954L101.869 34.904C101.76 35.3978 101.76 35.3978 101.679 35.3978C101.706 35.3978 101.57 35.6137 101.57 35.6137L101.136 35.6755C100.81 35.3978 100.811 35.3977 100.811 35.336L100.783 35.0274C100.648 35.0891 100.648 35.0583 100.566 34.6262L100.322 34.5028L100.295 34.1016L100.078 34.0707L100.023 33.8238C99.8878 33.793 99.8878 33.793 99.8878 33.1449V33.0523L100.186 32.9906L100.376 33.1758L100.051 33.2374C100.105 33.2992 100.105 33.6077 100.105 33.6695C100.213 33.7312 100.241 33.7313 100.268 33.9473L100.512 34.009L100.539 34.2867L100.729 34.3484C100.783 34.4101 100.838 34.7188 100.865 34.7496C101.027 34.8422 101.055 35.1817 101.055 35.1817C101.055 35.1509 101.245 35.336 101.245 35.336L101.543 35.3052C101.679 35.0274 101.679 35.0274 101.733 35.0274C101.679 35.0274 101.76 34.657 101.76 34.657L102.004 34.3793V33.9781C102.004 33.8855 102.004 33.8855 102.411 33.8238L102.221 32.682L101.95 32.2807L102.303 32.0647L102.683 32.1264L102.846 32.8671L103.307 33.33V33.6078L102.764 33.7621L102.493 34.225L102.52 34.9348C102.52 34.9348 102.683 35.2126 102.71 35.2434L102.466 35.4286L102.221 35.0274L101.923 35.336L102.221 35.7989L101.76 36.0767ZM102.276 32.1882L101.977 32.3116L102.33 32.6202L102.439 33.8855L102.629 33.6078L103.171 33.5152L102.656 33.0214L102.52 32.3116L102.276 32.1882Z" fill="#C2A21F"/>
<path d="M100.892 34.8424L101.136 34.6881V34.3795L100.919 34.3178L100.838 34.2252L101.082 34.2869L101.407 34.256L101.516 34.1943C101.462 34.3178 101.435 34.3178 101.435 34.3178L101.272 34.4104V34.719L101.815 34.8116C101.815 34.8116 101.814 34.935 101.787 34.935C101.76 34.935 101.217 34.8116 101.217 34.8116L100.865 35.0585L100.892 34.8424Z" fill="#613F21"/>
<path d="M100.756 35.12L100.865 34.8115L101.109 34.6263L101.027 34.3177L101.163 34.3485V34.3177L101.38 34.2251V34.2868L101.245 34.4411L101.272 34.688C101.814 34.7189 101.814 34.7189 101.814 34.7806C101.733 34.9349 101.733 34.9349 101.19 34.8115L100.756 35.12Z" fill="#C2A21F"/>
<path d="M102.276 33.0217L101.95 33.2994L101.733 33.7006L101.624 33.7315L101.326 33.2686H100.973C100.973 33.2686 100.783 33.7932 100.783 33.8241L100.648 33.7932L100.268 33.3303L100.159 33.1142C100.186 33.1142 101.082 33.1142 101.082 33.1142V32.6204C101.082 32.6204 100.946 32.5587 100.865 32.5279C100.919 32.497 101.353 32.4971 101.353 32.4971L101.163 32.6513V33.0834H101.95L102.276 33.0217Z" fill="#C2A21F"/>
<path d="M100.783 33.9166L100.621 33.8857L100.159 33.3302L100.105 33.0216L101.109 32.9599L101.001 32.6204L101.109 32.5587C101.082 32.5896 101.028 32.5896 101.001 32.5896C100.919 32.3736 101.082 32.3735 101.38 32.3735H101.706L101.245 32.713L101.299 33.0525L102.249 32.8673L101.787 33.7314L101.57 33.7623L101.272 33.2993L101.028 33.3611C101.055 33.392 100.919 33.7932 100.919 33.824L100.783 33.9166ZM101.19 33.1451L100.186 33.2376L100.729 33.7314C100.756 33.6697 100.81 33.5154 100.892 33.2376L101.19 33.176V33.1451Z" fill="#C2A21F"/>
<path d="M100.647 33.2687H100.729C100.756 33.2687 100.783 33.2995 100.783 33.3304V33.4229C100.783 33.4538 100.756 33.4846 100.729 33.4846H100.647C100.62 33.4846 100.593 33.4538 100.593 33.4229V33.3304C100.566 33.2995 100.593 33.2687 100.647 33.2687Z" fill="#613F21"/>
<path d="M101.625 33.2069H101.706C101.733 33.2069 101.76 33.2378 101.76 33.2687V33.3613C101.76 33.3921 101.733 33.423 101.706 33.423H101.625C101.598 33.423 101.57 33.3921 101.57 33.3613V33.2687C101.57 33.2378 101.598 33.2069 101.625 33.2069Z" fill="#613F21"/>
<path d="M100.186 32.5585L100.078 32.4968L100.105 32.3733C100.403 32.219 100.647 32.1264 101.054 32.0956C101.462 32.0338 101.787 32.1264 102.113 32.1881C101.733 32.3424 101.462 32.2807 101.082 32.3116C100.729 32.3116 100.512 32.4041 100.186 32.5585Z" fill="#C2A21F"/>
<path d="M100.295 31.6946H99.9966L99.6167 31.2317L99.8338 31.2625L100.105 31.386L100.295 31.6946Z" fill="#C2A21F"/>
<path d="M100.485 31.7871H99.9963L99.3721 31.0773L100.132 31.2933L100.485 31.7871Z" fill="#C2A21F"/>
<path d="M101.923 31.5095L102.548 30.9848L102.33 30.954L102.113 31.1699L101.842 31.2317L101.923 31.5095Z" fill="#C2A21F"/>
<path d="M101.57 31.6017L100.593 31.6326L100.62 31.54L100.946 31.4782L101 31.324H101.109L101.19 31.4782L101.516 31.54L101.57 31.6017Z" fill="#C2A21F"/>
<path d="M100.485 31.7561L100.512 31.5092L100.946 31.3857L100.756 31.5401L101.055 31.5092L101.028 31.3857L101.543 31.4475L101.652 31.6018L101.57 31.7253L100.485 31.7561Z" fill="#C2A21F"/>
<path d="M101.516 31.2007H101.163L101.136 31.0155L101.516 31.2007Z" fill="#C2A21F"/>
<path d="M100.946 31.0155L100.919 31.2007L100.593 31.2624L100.946 31.0155Z" fill="#C2A21F"/>
<path d="M99.101 34.7497L99.2638 34.2868L99.1281 33.9474L98.9653 34.4411L99.101 34.7497Z" fill="#C2A21F"/>
<path d="M99.4534 34.9965L99.6434 34.4409L99.2634 34.9039L99.4534 34.9965Z" fill="#C2A21F"/>
<path d="M99.4807 35.1507L99.2092 34.9964L99.562 34.41L99.3179 34.9964H99.4535L99.3449 34.9655L99.562 34.3792L99.4807 35.1507Z" fill="#C2A21F"/>
<path d="M107.513 36.293L107.187 36.7251L107.214 37.0954H107.893C108.11 37.0337 108.164 36.9411 108.218 36.8485C108.272 36.7251 108.245 36.6633 108.245 36.4781L107.513 36.293Z" fill="#CB0028"/>
<path d="M107.188 37.1262L107.16 36.725L107.486 36.2621L108.273 36.4164L108.219 36.8176L108.246 36.8485C108.192 36.941 108.137 37.0645 107.893 37.1262H107.188Z" fill="#D30028"/>
<path d="M109.141 37.3113L108.842 37.589L108.815 37.9285L109.412 37.9902C109.629 37.9594 109.657 37.8977 109.711 37.8051C109.792 37.6816 109.765 37.6815 109.792 37.5272L109.141 37.3113Z" fill="#CB0028"/>
<path d="M109.412 38.021L108.788 37.9594V37.5581L109.114 37.2495L109.82 37.4347L109.711 37.7742L109.738 37.8051C109.711 37.9285 109.657 37.9902 109.412 38.021Z" fill="#D30028"/>
<path d="M111.828 36.447L111.502 36.8173V37.0951L112.153 37.126C112.37 37.0643 112.343 37.0643 112.397 36.9408C112.452 36.8174 112.452 36.7865 112.452 36.6322L111.828 36.447Z" fill="#CB0028"/>
<path d="M112.18 37.1568L111.529 37.126L111.475 36.7865L111.8 36.3853L112.506 36.5704L112.424 36.9408L112.451 36.9716C112.397 37.0951 112.37 37.0951 112.18 37.1568Z" fill="#D30028"/>
<path d="M113.7 37.0953L113.347 37.4348V37.7743L114.025 37.836C114.242 37.7743 114.27 37.7126 114.324 37.62C114.378 37.4966 114.351 37.4966 114.378 37.3114L113.7 37.0953Z" fill="#CB0028"/>
<path d="M114.026 37.9286L113.347 37.8669L113.32 37.4657L113.7 37.0953L114.406 37.3422L114.379 37.7126C114.297 37.7743 114.243 37.8668 114.026 37.9286Z" fill="#D30028"/>
<path d="M109.141 27.8984L110.444 28.8551C110.688 28.6391 111.176 28.7626 111.394 28.8243C111.746 28.9169 111.991 29.1638 112.316 29.2255C112.886 29.3798 113.565 29.5032 114.08 29.4415C114.596 29.3797 115.03 29.0711 115.41 28.8551V28.7008H115.165C114.758 28.8551 114.189 28.886 113.754 28.8243C113.32 28.7626 113.185 28.5465 112.533 28.3305L112.479 28.1761C113.266 28.207 113.429 28.207 113.781 28.0219C114.107 27.9293 114.243 27.7133 114.433 27.559V27.4046H114.189C113.89 27.6515 113.673 27.6824 113.212 27.6207C112.778 27.5589 112.398 27.2812 112.099 27.2812C111.801 27.2812 111.801 27.1269 111.502 27.0961C111.041 27.0343 110.525 27.1269 110.091 27.2503C109.494 27.4355 109.413 27.5898 109.141 27.8984Z" fill="#CB0028"/>
<path d="M113.727 29.5032C113.293 29.5032 112.804 29.4106 112.289 29.2871C112.126 29.2563 111.963 29.1637 111.827 29.0711C111.692 29.0094 111.556 28.9168 111.393 28.855C110.959 28.7316 110.633 28.7316 110.498 28.8859L109.168 27.9292C109.466 27.4972 109.602 27.3737 110.064 27.2194C110.579 27.0959 111.068 27.0343 111.502 27.0651C111.665 27.0651 111.746 27.1268 111.8 27.1577C111.882 27.1886 111.936 27.2503 112.072 27.2503C112.234 27.2503 112.397 27.312 112.56 27.4045C112.75 27.4663 112.967 27.5589 113.184 27.5898C113.618 27.6207 113.808 27.6206 114.134 27.3738H114.161L114.405 27.4045V27.4354V27.4045V27.4663H114.378L114.297 27.7441C114.161 27.8675 114.025 28.0218 113.754 28.0835C113.51 28.2069 113.347 28.2379 112.994 28.2379H112.777L112.994 28.1453C113.347 28.1453 113.51 28.1144 113.754 27.9909C113.998 27.9292 114.107 27.7749 114.243 27.6515L114.378 27.4663C113.781 27.6824 113.646 27.7132 113.184 27.6824C112.967 27.6515 112.75 27.5589 112.533 27.4971C112.37 27.4354 112.207 27.3738 112.072 27.3738C111.909 27.3738 111.827 27.312 111.746 27.2812C111.692 27.2503 111.61 27.1886 111.475 27.1886C111.04 27.1269 110.552 27.1886 110.064 27.3429C109.602 27.4972 109.494 27.6207 109.304 27.8675L110.498 28.8859C110.579 28.7316 110.959 28.7007 111.42 28.855C111.583 28.9168 111.746 28.9785 111.882 29.0711C112.044 29.1637 112.18 29.2254 112.343 29.2562C112.994 29.4414 113.618 29.534 114.08 29.4723C114.514 29.4106 114.894 29.1945 115.219 28.9785L115.165 28.8242C114.649 29.0403 114.134 28.9785 113.727 28.9476C113.483 28.9168 113.347 28.8242 113.157 28.7317C112.994 28.6391 112.804 28.5465 112.506 28.4539L112.641 28.3921C112.913 28.5156 113.049 28.5773 113.184 28.6699C113.347 28.7625 113.51 28.8551 113.727 28.8859C114.107 28.9477 114.622 28.9785 115.138 28.7933H115.409L115.247 29.1329C114.921 29.3489 114.514 29.5648 114.08 29.6266C113.944 29.5031 113.835 29.5032 113.727 29.5032Z" fill="#BA0019"/>
<path d="M109.385 27.6824C109.521 27.7133 109.657 27.7441 109.738 27.8058C109.847 27.8675 109.819 27.8676 109.928 27.9602C109.901 27.8367 109.928 27.8367 109.847 27.775C109.765 27.6824 109.657 27.5898 109.575 27.5281L109.385 27.6824Z" fill="#82373B"/>
<path d="M110.471 28.7319C110.471 28.6085 110.417 28.485 110.362 28.3924C110.335 28.2689 110.281 28.1763 110.199 28.0837C110.308 28.1146 110.362 28.1763 110.444 28.2689C110.525 28.3923 110.525 28.4849 110.525 28.6701L110.471 28.7319Z" fill="#82373B"/>
<path d="M110.715 27.1886C110.742 27.2812 110.796 27.3429 110.851 27.528C110.905 27.7132 110.905 27.9292 110.905 27.9292C110.878 27.8058 110.932 27.6515 110.905 27.528C110.878 27.4046 110.823 27.2812 110.796 27.1577L110.715 27.1886Z" fill="#82373B"/>
<path d="M111.746 27.2505L111.801 27.9603L111.855 27.3122L111.746 27.2505Z" fill="#82373B"/>
<path d="M111.502 28.7009C111.529 28.5775 111.529 28.4849 111.502 28.3615C111.502 28.2381 111.448 28.1454 111.42 28.022C111.529 28.1146 111.556 28.2381 111.61 28.3615C111.61 28.5158 111.583 28.6083 111.502 28.7009Z" fill="#82373B"/>
<path d="M112.588 28.3923C112.588 28.3923 112.615 28.6392 112.588 28.7935C112.533 28.9787 112.506 28.9787 112.425 29.0713C112.533 28.9787 112.642 28.9479 112.696 28.8244C112.696 28.6701 112.588 28.4232 112.588 28.3923Z" fill="#82373B"/>
<path d="M112.778 28.1763C112.696 28.1763 112.696 27.837 112.642 27.6826C112.669 27.6518 112.696 27.6826 112.751 27.7443C112.751 27.7752 112.751 28.022 112.778 28.1763Z" fill="#82373B"/>
<path d="M113.51 28.022L113.537 27.7443H113.618V27.9911C113.618 27.9911 113.51 28.0529 113.51 28.022Z" fill="#82373B"/>
<path d="M113.456 28.8243C113.51 28.9169 113.591 29.0095 113.591 29.1021C113.591 29.1947 113.564 29.2564 113.51 29.3798H113.646C113.7 29.2564 113.727 29.1638 113.727 29.0712C113.727 28.9786 113.673 28.8861 113.591 28.8243H113.456Z" fill="#82373B"/>
<path d="M113.645 29.4726H113.482L113.537 29.1332L113.401 28.8553C113.428 28.8553 113.455 28.8553 113.482 28.8553H113.428L113.618 29.1023C113.618 29.1949 113.591 29.2566 113.564 29.38L113.618 29.4109L113.591 29.38C113.645 29.2874 113.672 29.1949 113.645 29.1023L113.564 28.8862C113.7 28.948 113.727 29.0097 113.727 29.1023C113.754 29.2257 113.727 29.3183 113.645 29.4726Z" fill="#83353B"/>
<path d="M114.324 28.8861L114.351 29.2873L114.46 29.2256L114.432 28.8861H114.324Z" fill="#82373B"/>
<path d="M109.059 27.9602C108.761 28.0528 108.652 28.2379 108.517 28.3922L107.703 27.9293C107.567 28.0528 107.513 28.2379 107.567 28.4231C107.621 28.6083 107.893 28.886 108.083 29.0403C108.028 29.2872 107.974 29.4723 107.893 29.7192C107.811 29.9661 107.621 30.2747 107.621 30.3982C107.594 30.5216 107.567 30.7686 107.73 30.8303C107.893 30.892 108.381 30.7994 108.544 30.7994C108.517 30.892 108.462 31.0772 108.489 31.1389C108.517 31.2007 108.544 31.2315 108.679 31.2315C108.652 31.3241 108.571 31.4475 108.598 31.5093C108.707 31.6018 108.815 31.5709 108.924 31.5709C108.869 31.6635 108.761 31.7561 108.679 31.8487C108.517 32.0338 108.327 32.219 108.245 32.3425C108.11 32.5585 108.11 32.7745 108.354 32.7437C108.245 32.8671 108.164 32.9906 108.191 33.0832C108.218 33.2067 108.273 33.2992 108.462 33.2066C108.354 33.4843 108.435 33.7313 108.462 34.0399C108.354 34.2559 108.408 34.472 108.381 34.7189C108.191 34.8423 108.164 34.9966 108.055 35.2435C107.947 35.5212 107.73 35.583 107.621 36.1693L108.381 36.3853C108.408 36.2619 108.517 36.2002 108.544 36.0768C108.571 35.9533 108.571 35.799 108.571 35.6756C108.707 35.4287 109.032 34.9348 109.114 34.6571C109.277 34.5645 109.385 34.5028 109.521 34.5028C109.656 34.5028 109.711 34.5954 109.846 34.6571C109.792 34.8731 109.629 35.12 109.629 35.4595V36.3545C109.602 36.5705 109.385 36.5705 109.277 37.2186L109.955 37.4346C110.063 37.2186 110.253 37.1877 110.308 37.0952L110.362 36.1693C110.443 35.7373 110.986 35.3669 110.986 34.904C111.176 34.904 111.257 34.9349 111.312 34.8731C111.42 34.8423 111.447 34.7497 111.529 34.688C111.556 34.8423 111.664 34.8422 111.746 34.8422C111.827 34.8422 111.99 34.7188 112.071 34.6571C112.126 34.7188 112.153 34.8114 112.234 34.8422C112.343 34.8731 112.614 34.8114 112.723 34.7805L112.18 35.7989C112.153 35.8915 112.18 35.9533 112.153 36.0768C112.099 36.1694 112.017 36.231 111.99 36.3236L112.614 36.5088L112.723 36.2001C112.859 36.1384 112.967 36.1076 113.048 36.015C113.103 35.9224 113.103 35.7372 113.157 35.6138C113.374 35.4286 113.7 35.0583 113.944 34.7497C114.107 34.7805 114.324 34.9348 114.405 35.1509C114.432 35.3978 114.432 35.8298 114.351 36.1385L113.944 36.8791L113.89 37.0026L114.541 37.2494L114.948 36.8791L114.975 36.3853C115.192 35.9841 115.464 35.7373 115.735 35.4904L115.762 34.9348C115.708 34.8731 115.653 34.904 115.626 34.8114C115.599 34.688 115.626 34.4102 115.626 34.2868C115.653 34.225 115.762 34.1633 115.735 34.1016C115.626 33.9781 115.653 33.6078 115.681 33.3301C115.681 33.0214 116.061 32.6511 116.115 32.4351L116.142 32.0956C116.088 32.003 116.033 31.9722 116.033 31.9105C116.033 31.8487 116.115 31.7252 116.142 31.6635L116.223 31.5093V30.676C116.196 30.5834 116.142 30.4599 116.061 30.4291C116.006 30.4291 115.898 30.4908 115.843 30.5834L115.463 30.892C115.273 30.9537 115.138 30.9846 114.812 30.892H114.351C114.107 30.9846 113.971 30.9846 113.727 30.8612H113.455C113.374 30.9229 113.238 31.0155 113.157 31.0155C113.076 31.0463 112.94 31.0463 112.831 31.0155C112.099 31.0772 112.289 31.1389 112.071 31.1697C111.909 31.1389 111.963 31.0463 111.312 31.0463L111.067 30.9538C110.742 30.7069 110.498 30.3365 110.281 29.8736C110.959 29.6576 111.23 29.4416 111.447 28.9169L110.498 28.9477L109.059 27.9602Z" fill="#FBFC2B"/>
<path d="M109.874 37.4655L109.168 37.2494C109.195 36.7556 109.304 36.6013 109.385 36.4779L109.467 35.4286C109.467 35.2126 109.548 35.0274 109.602 34.8731L109.385 34.5337C109.277 34.5337 109.168 34.5954 109.005 34.688C108.924 34.9349 108.625 35.4595 108.49 35.7064C108.49 35.7681 108.517 35.9533 108.49 36.0768L108.273 36.4162L107.513 36.2002C107.567 35.7372 107.676 35.5829 107.784 35.4286L108.001 35.0274C108.056 34.8731 108.11 34.7497 108.246 34.6571C108.164 34.8731 108.11 34.9349 108.056 35.0583C107.947 35.336 107.893 35.3978 107.839 35.4595C107.73 35.583 107.622 35.7681 107.54 36.1385L108.246 36.2927L108.354 36.015C108.381 35.9224 108.381 35.7681 108.381 35.6447C108.544 35.3669 108.843 34.8731 108.924 34.5954C109.223 34.3794 109.44 34.3794 109.63 34.5028C109.738 34.7188 109.684 34.7806 109.657 34.8731C109.603 35.0274 109.521 35.2127 109.521 35.3978V36.2927C109.331 36.6322 109.222 36.7865 109.168 37.1877L109.792 37.3112C109.874 37.1878 109.955 37.126 110.037 37.0643L110.172 36.1076C110.227 35.8915 110.362 35.7064 110.498 35.5212C110.661 35.3052 110.796 35.0891 110.824 34.8422H111.014L111.068 34.7806L111.203 34.8422L110.878 34.8731C110.878 35.0892 110.715 35.3361 110.552 35.5521C110.416 35.7373 110.308 35.8916 110.254 36.0768L110.199 36.9717C110.064 37.2494 109.955 37.3112 109.874 37.4655ZM114.433 37.3112L113.754 37.0643L114.188 36.1385C114.243 35.9224 114.27 35.6138 114.243 35.1818C114.161 34.9966 113.971 34.8423 113.808 34.8114C113.619 35.0892 113.266 35.4904 113.049 35.6756L112.94 36.0459C112.886 36.1385 112.777 36.1693 112.669 36.231L112.533 36.5397L111.855 36.3853L112.018 36.1076L111.963 36.2619L112.506 36.4779L112.56 36.2002C112.75 36.1076 112.832 36.0767 112.886 35.9841L112.994 35.583C113.212 35.3978 113.564 34.9966 113.781 34.7189C113.998 34.7497 114.243 34.904 114.324 35.1509C114.351 35.6138 114.324 35.9533 114.27 36.1694L113.863 36.91L114.433 37.2186L114.813 36.8791V36.4162C115.002 36.0459 115.247 35.799 115.491 35.583C115.627 35.0892 115.627 34.9966 115.627 34.9657C115.464 34.7188 115.464 34.3793 115.491 34.2868C115.491 34.009 115.518 33.6387 115.572 33.3301C115.572 33.114 115.735 32.8672 115.871 32.682C115.925 32.5894 116.007 32.4968 116.007 32.4351L116.034 32.1264C115.925 31.8487 115.979 31.7561 116.061 31.6635L116.142 30.7068L115.817 30.6451L115.437 30.9538C115.247 31.0155 115.084 31.0464 114.758 30.9538H114.297C114.08 31.0155 113.917 31.0463 113.673 30.9229H113.402C113.293 30.9846 113.184 31.0772 113.103 31.0772L112.777 31.0155V31.0772C112.289 31.108 112.208 31.1698 112.153 31.2006H111.882C111.8 31.1698 111.719 31.108 111.258 31.108L110.986 31.0155C110.688 30.7994 110.417 30.4291 110.172 29.9045C110.878 29.6267 111.122 29.3798 111.339 28.886L110.417 29.0095L109.06 27.991C108.87 28.0836 108.761 28.2071 108.653 28.3305L108.598 28.2997C108.734 28.1145 108.843 27.9602 109.087 27.8984L110.471 28.9169L111.393 28.8551C111.231 29.4415 110.932 29.6885 110.254 29.9045C110.525 30.3366 110.769 30.676 111.041 30.892L111.285 30.9846C111.746 30.9846 111.855 31.0463 111.936 31.0772C112.18 31.0154 112.262 30.9846 112.777 30.9538H113.076C113.157 30.9229 113.239 30.8612 113.32 30.8303L113.673 30.7994C113.944 30.9229 114.053 30.892 114.27 30.8303H114.758C115.057 30.9229 115.22 30.892 115.382 30.8303L115.735 30.5217C115.762 30.4908 115.871 30.3674 115.979 30.3674C116.115 30.3983 116.169 30.5834 116.196 30.6451V31.4784L116.007 31.9105L116.088 32.4351C116.061 32.5276 116.007 32.6202 115.925 32.7128C115.79 32.898 115.654 33.114 115.654 33.2992C115.627 33.5152 115.572 33.9165 115.681 34.0399C115.545 34.3794 115.545 34.6571 115.572 34.7497C115.708 34.8731 115.735 34.904 115.708 35.3978C115.328 35.799 115.084 36.015 114.921 36.3545V36.8483L114.433 37.3112ZM112.045 36.0768H112.018L112.045 35.7989L112.587 34.7806C112.533 34.8731 112.343 34.904 112.208 34.904L111.936 34.7497C111.692 34.9657 111.502 35.0891 111.393 34.7497L111.638 34.8114C111.665 34.8114 111.746 34.7806 111.936 34.6263L112.153 34.7806C112.343 34.7806 112.533 34.7497 112.615 34.7189L112.045 36.0768ZM108.3 34.6571C108.3 34.3176 108.3 34.1633 108.354 34.009C108.3 33.6695 108.246 33.4227 108.354 33.1758C108.164 33.2684 108.11 33.2066 108.083 33.0523C108.083 32.9597 108.11 32.8672 108.191 32.7746C108.191 32.898 108.164 32.9906 108.164 33.0523L108.246 33.0214L108.408 33.2066C108.327 33.4226 108.354 33.6387 108.381 33.8855C108.327 34.1942 108.327 34.3485 108.327 34.5028C108.354 34.5645 108.327 34.6262 108.3 34.6571ZM108.164 32.6202C108.083 32.5276 108.11 32.4043 108.191 32.3117C108.246 32.2191 108.381 32.0647 108.517 31.9413L108.87 31.5402C108.734 31.6327 108.653 31.6327 108.544 31.5402L108.626 31.2932L108.653 31.3549L108.87 31.5402L108.734 31.8487C108.436 32.1882 108.3 32.3117 108.246 32.4043C108.164 32.466 108.137 32.5585 108.164 32.6202ZM108.626 31.2623L108.408 31.1389C108.381 31.0772 108.409 30.9537 108.463 30.7994C108.436 30.7994 108.327 30.8303 108.246 30.8303C108.11 30.8612 107.974 30.8612 107.866 30.8612C107.513 30.7686 107.54 30.4908 107.567 30.3674C107.567 30.3057 107.622 30.1822 107.703 30.0279C107.757 29.9044 107.811 29.781 107.866 29.6884C107.947 29.4724 108.001 29.2872 108.056 29.0403C107.893 28.9477 107.622 28.6392 107.54 28.454C107.486 28.2688 107.513 28.0527 107.676 27.8984L108.219 28.2071L107.676 27.991C107.594 28.1145 107.567 28.2688 107.622 28.4231C107.676 28.6083 107.92 28.8861 108.11 29.0095C108.083 29.3181 108.029 29.5032 107.92 29.7501C107.893 29.8736 107.812 29.997 107.757 30.1205C107.703 30.2439 107.649 30.3673 107.622 30.3982C107.594 30.5834 107.594 30.7378 107.703 30.7686C107.947 30.7995 108.083 30.7686 108.191 30.7686C108.3 30.7686 108.409 30.7377 108.463 30.7377L108.626 31.2623Z" fill="#E8D629"/>
<path d="M108.707 29.2872L108.978 29.4107C109.005 29.4415 109.087 29.5033 109.114 29.5033C109.168 29.5033 109.195 29.4724 109.222 29.4107L109.467 29.2563C109.331 29.2255 109.277 29.1329 109.114 29.1329C108.978 29.1638 108.87 29.2563 108.707 29.2872Z" fill="#624E0F"/>
<path d="M109.114 29.565L108.68 29.3181C108.68 29.3181 108.707 29.3181 108.707 29.2872V29.2563H108.734C108.951 29.102 109.033 29.0712 109.114 29.0712L109.358 29.1946L109.114 29.1637L108.788 29.2563L109.114 29.4724V29.4107V29.4724L109.168 29.3798L109.412 29.2255L109.494 29.2872L109.114 29.565Z" fill="#624E0F"/>
<path d="M109.222 32.8978C109.222 32.9287 109.195 32.9596 109.168 32.9287C109.141 32.5584 109.087 32.3114 108.978 32.0337C109.06 32.2497 109.168 32.5892 109.222 32.8978Z" fill="#C2A21F"/>
<path d="M110.796 32.9596C110.851 32.9905 110.932 32.9905 110.932 32.9288C110.959 32.8362 110.878 32.7745 110.851 32.6819C110.769 32.4659 110.715 32.2498 110.661 32.1572C110.633 32.1264 110.579 32.1264 110.579 32.1881C110.661 32.3424 110.769 32.8671 110.796 32.9596Z" fill="#C2A21F"/>
<path d="M111.665 32.8362C111.665 32.8671 111.529 32.8054 111.529 32.7745C111.529 32.682 111.339 31.9721 111.393 31.9412C111.42 31.9104 111.529 32.1882 111.583 32.2807C111.556 32.3733 111.637 32.6202 111.665 32.8362Z" fill="#C2A21F"/>
<path d="M111.529 34.2867C111.529 34.3485 111.638 34.2867 111.665 34.2558C111.773 34.0398 111.936 33.8238 111.963 33.7313C111.99 33.6387 112.126 33.0832 112.072 33.0832C112.072 33.0523 111.936 33.3609 111.8 33.6695C111.665 33.9781 111.529 34.2559 111.529 34.2867Z" fill="#C2A21F"/>
<path d="M111.556 34.3795L111.502 34.3486C111.474 34.2869 111.474 34.256 111.773 33.6697L111.936 33.2994C111.963 33.2994 111.963 33.2685 111.99 33.2994L111.854 33.7315C111.61 34.1944 111.583 34.3178 111.583 34.3178L111.556 34.2869V34.3486L111.827 33.9783C111.936 33.7623 112.017 33.4845 112.044 33.2994C112.126 33.3611 112.017 33.7932 112.017 33.7932L111.556 34.3795Z" fill="#C2A21F"/>
<path d="M112.398 33.9783C112.343 34.0091 112.479 33.4845 112.506 33.3919C112.533 33.2376 112.561 32.9907 112.615 32.6512C112.669 33.145 112.615 33.6388 112.398 33.9783Z" fill="#C2A21F"/>
<path d="M112.425 34.0708L112.371 34.0092C112.344 33.9783 112.344 33.9474 112.425 33.577L112.561 32.6512C112.723 33.145 112.642 33.6388 112.425 34.0092V34.0708Z" fill="#C2A21F"/>
<path d="M112.94 32.4045C112.913 32.4354 112.533 31.7256 112.588 31.7256C112.588 31.6947 112.913 32.1576 112.94 32.2502C112.94 32.3119 112.967 32.3737 112.94 32.4045Z" fill="#C2A21F"/>
<path d="M113.808 32.9289C113.781 32.898 113.781 32.682 113.727 32.4351C113.672 32.1882 113.564 31.9414 113.591 31.8796C113.618 31.8488 113.672 31.8488 113.727 31.9105C113.754 32.034 113.808 32.5585 113.862 32.898C113.862 32.9289 113.835 32.9598 113.808 32.9289Z" fill="#C2A21F"/>
<path d="M114.406 32.3119C114.379 32.2811 114.487 32.5587 114.569 32.8982C114.65 33.2377 114.704 33.8241 114.704 33.7624C114.759 33.7315 114.759 33.6698 114.84 33.6389C114.921 33.6081 115.247 33.6389 115.22 33.6389C115.03 33.4229 114.84 33.2686 114.704 33.0526C114.596 32.8365 114.487 32.5279 114.406 32.3119Z" fill="#C2A21F"/>
<path d="M114.731 33.8241H114.677L114.623 33.5464C114.595 33.3612 114.568 33.1143 114.514 32.9291C114.46 32.744 114.406 32.5897 114.378 32.4971C114.378 32.4971 114.378 32.4971 114.406 32.4971C114.406 32.4663 114.378 32.4354 114.378 32.4045C114.433 32.4971 114.487 32.5588 114.514 32.6205C114.595 32.7439 114.65 32.8983 114.731 33.0526C114.84 33.2378 114.975 33.3612 115.138 33.5464L114.731 33.8241Z" fill="#C2A21F"/>
<path d="M117.526 31.2622C119.371 31.6943 121.081 32.2189 122.791 32.8362C124.5 33.4534 126.128 34.2249 127.784 35.0273L125.016 41.3847C123.469 40.7058 121.949 40.1812 120.403 39.6257C118.883 39.0702 117.39 38.5764 115.844 38.0209L117.526 31.2622Z" fill="white"/>
<path d="M125.043 41.4774H125.016C123.686 40.9219 122.383 40.428 121.081 39.9651L120.403 39.7183C119.344 39.3479 118.313 38.9776 117.282 38.6072L115.844 38.1134L117.499 31.2931C119.426 31.6943 121.135 32.2189 122.818 32.8362C124.663 33.5151 126.373 34.3175 127.811 35.0273L125.043 41.4774ZM117.526 31.324L115.898 38.0517L117.309 38.4838C118.34 38.8542 119.399 39.1936 120.43 39.5948L121.108 39.8417C122.411 40.3046 123.686 40.7984 125.016 41.3539L127.756 35.0273C126.345 34.3792 124.636 33.5768 122.791 32.8978C121.108 32.2806 119.399 31.756 117.526 31.324Z" fill="white"/>
<path d="M117.146 32.7748C117.146 32.7748 119.724 33.4228 122.221 34.3486C124.717 35.2745 127.159 36.4473 127.159 36.4473C127.132 36.4473 125.585 40.0889 125.585 40.0889C124.066 39.41 122.492 38.7618 120.918 38.2063C119.344 37.62 117.797 37.0953 116.196 36.6632L117.146 32.7748Z" fill="#CB0028"/>
<path d="M125.613 40.1196L125.585 40.0887C124.147 39.4406 122.573 38.7925 120.918 38.2061C119.425 37.6506 117.852 37.0951 116.196 36.663L117.119 32.7437C117.255 32.7128 119.778 33.3918 122.248 34.2868C123.876 34.8731 126.698 36.1076 127.159 36.3853C126.942 36.3544 124.663 35.2743 122.221 34.3793C119.751 33.4844 117.173 32.8054 117.146 32.8054L116.251 36.6322C117.879 37.0026 119.453 37.5889 120.945 38.1135C122.573 38.6999 124.12 39.348 125.558 39.9961C126.915 36.7865 127.078 36.4162 127.132 36.3853C127.159 36.4162 127.186 36.4162 127.186 36.4471C127.132 36.5705 126.02 39.132 125.613 40.0887V40.1196Z" fill="#D30028"/>
<path d="M117.39 34.5645C117.635 34.4102 117.825 34.3485 117.96 34.1016H118.883V34.4719C119.1 34.5953 119.236 34.7188 119.453 34.8422C119.67 34.9657 119.995 35.0583 120.213 35.1817L122.194 35.3669C122.465 35.4286 122.845 35.552 123.062 35.7063C123.279 35.8606 123.442 36.0458 123.55 36.2927C123.957 36.447 124.364 36.5396 124.771 36.6322C125.178 36.6939 125.721 36.7247 126.101 36.7556C126.291 36.8482 126.291 36.9408 126.21 37.0642C126.21 37.0642 125.993 37.4038 125.368 37.4038C124.771 37.4038 124.066 37.0334 123.767 37.0642C123.767 37.2803 124.093 37.7123 124.446 37.8667V38.8542L124.283 39.0394L124.12 38.9159C124.256 38.669 124.202 38.3913 124.147 38.1753C124.012 37.9593 123.985 37.8666 123.74 37.8358C123.442 37.774 123.225 37.6815 122.845 37.3729L122.709 37.4038C122.628 37.5581 122.546 37.6815 122.356 37.7741L121.976 37.7432C121.976 37.7432 121.081 37.5272 121.081 37.4963C121.081 37.4963 121.081 37.342 121.081 37.3112C121.108 37.3112 121.379 37.3112 121.407 37.3112C121.597 37.3729 122.004 37.3729 122.004 37.3729V37.0025L122.601 36.9716C122.492 36.5087 122.438 36.2001 121.895 36.1075L120.158 36.1693L120.186 36.4471C119.751 36.3853 118.964 36.3853 118.557 36.5087C118.313 36.5396 117.987 36.663 117.825 36.663L117.635 36.6013C117.526 36.5705 117.526 36.5087 117.58 36.4162C118.34 36.3544 118.449 36.2928 118.666 36.1693C118.666 36.0767 118.584 35.9224 118.557 35.9224C118.096 35.8915 117.716 35.9224 117.58 35.9224C117.391 35.8606 117.119 35.7372 117.119 35.7372L117.092 35.5212C117.092 35.5212 117.391 35.6137 117.418 35.6137C117.743 35.6755 118.286 35.6447 118.422 35.5829V35.3052C118.422 35.1818 118.34 35.0583 118.313 35.0583C118.286 35.0583 117.798 34.9966 117.608 34.9966C117.336 34.8731 117.39 34.7188 117.39 34.5645Z" fill="black"/>
<path d="M124.31 39.1011L124.093 38.9468C124.229 38.6691 124.174 38.3913 124.12 38.1753C123.985 37.9592 123.957 37.8975 123.767 37.8975C123.496 37.8358 123.279 37.7432 122.953 37.4963C123.36 37.6815 123.55 37.7432 123.795 37.805C124.039 37.805 124.093 37.8975 124.175 38.0827C124.283 38.453 124.337 38.7307 124.202 38.9776L124.337 39.0702L124.31 39.0394L124.473 38.885V37.9283C124.147 37.8049 123.795 37.342 123.795 37.126C124.039 37.0643 124.229 37.126 124.473 37.2186C124.771 37.3112 125.097 37.4037 125.423 37.4037C126.02 37.4037 126.237 37.0951 126.237 37.0642C125.748 36.8173 125.233 36.7865 124.826 36.7248C124.392 36.6631 124.012 36.5704 123.605 36.3853C123.442 36.1075 123.306 35.9223 123.089 35.7989C122.872 35.6446 122.492 35.5212 122.221 35.4904L120.24 35.3052C120.104 35.2435 119.969 35.1817 119.833 35.1199C119.697 35.0582 119.561 34.9965 119.453 34.9348C119.344 34.8731 119.236 34.8113 119.154 34.7496C119.073 34.6879 118.992 34.6262 118.856 34.5645L118.829 34.1324L117.96 34.1941C117.879 34.3793 117.743 34.4719 117.581 34.5645C117.445 34.8113 117.445 34.9039 117.662 34.9657C117.689 34.9348 118.313 35.0274 118.367 35.0582C118.395 35.0891 118.503 35.2126 118.503 35.3669V35.6446C118.286 35.8298 117.743 35.7989 117.445 35.7372L117.255 35.6446L117.309 35.5829C118.042 35.7681 118.313 35.6447 118.449 35.5829L118.422 35.336C118.286 35.12 117.825 35.0582 117.662 35.0582C117.363 34.9965 117.363 34.8114 117.391 34.6879V34.657L117.581 34.5028C117.743 34.4102 117.852 34.3484 117.96 34.1632L118.91 34.1324L118.964 34.5645C119.046 34.5953 119.154 34.6571 119.236 34.7188C119.317 34.7805 119.426 34.8423 119.534 34.904C119.643 34.9657 119.779 35.0274 119.914 35.0891C120.05 35.1509 120.186 35.2126 120.321 35.2743L122.275 35.4595C122.519 35.5212 122.926 35.6446 123.171 35.7989C123.388 35.9532 123.55 36.1384 123.686 36.4162C124.066 36.5396 124.473 36.6631 124.88 36.7248C125.287 36.7865 125.83 36.8174 126.21 36.8483H126.237L126.4 37.0334C126.318 37.2495 126.101 37.6198 125.477 37.6198C125.124 37.6198 124.799 37.4963 124.5 37.4037C124.283 37.342 124.093 37.2803 123.957 37.2803C123.957 37.4037 124.256 37.8358 124.609 37.9901L124.636 39.0394L124.31 39.1011ZM122.411 37.8358L122.004 37.805C121.081 37.5581 121.081 37.558 121.081 37.5271C121.135 37.3111 121.162 37.3112 121.461 37.3112C121.651 37.3729 122.031 37.3729 122.058 37.3729L122.004 37.0334L122.411 36.9716L122.058 37.0642L122.112 37.4037C122.058 37.4655 121.651 37.4654 121.461 37.3729C121.298 37.3729 121.19 37.3729 121.162 37.3729C121.217 37.4654 122.031 37.6815 122.031 37.6815L122.411 37.7124C122.573 37.6198 122.655 37.5272 122.709 37.3729C122.764 37.4037 122.791 37.4037 122.845 37.4345C122.682 37.6197 122.601 37.7432 122.411 37.8358ZM122.601 36.91C122.438 36.5088 122.384 36.2619 121.895 36.1693L120.158 36.231L120.213 36.447C119.996 36.4779 119.724 36.447 119.48 36.447C119.1 36.447 118.774 36.4778 118.557 36.5704C118.449 36.5704 118.313 36.6321 118.177 36.663C118.042 36.6939 117.906 36.7248 117.825 36.7248L117.526 36.5704C117.58 36.5704 117.608 36.5396 117.662 36.5087L117.825 36.663V36.6013C117.906 36.6013 118.015 36.5705 118.15 36.5396C118.286 36.5088 118.422 36.4779 118.53 36.447C118.802 36.3545 119.236 36.3236 119.48 36.3236C119.724 36.3236 119.996 36.3545 120.186 36.3545L120.104 36.1384L121.868 36.0458C122.438 36.1384 122.492 36.447 122.601 36.8791V36.91ZM117.933 36.447C118.367 36.2927 118.476 36.231 118.639 36.1384L118.177 35.9533H117.906H117.553C117.472 35.9224 117.065 35.7989 117.065 35.7063L117.146 35.6137C117.255 35.7063 117.445 35.799 117.608 35.8607H117.933H118.205H118.585C118.639 35.8915 118.747 36.0767 118.747 36.1693C118.53 36.3236 118.395 36.3853 117.933 36.447Z" fill="black"/>
<path d="M121.163 36.8792C121.434 36.9718 121.624 37.0027 122.004 37.0336L122.601 37.0027C122.492 36.5397 122.438 36.2311 121.895 36.1385L120.159 36.2002L120.186 36.478C120.729 36.6631 120.973 36.7866 121.163 36.8792Z" fill="white"/>
<path d="M122.004 37.0953C121.624 37.0644 121.407 37.0336 121.136 36.941C120.837 36.7867 120.593 36.694 120.159 36.5089L120.104 36.2002L121.868 36.1077C122.438 36.2003 122.492 36.5089 122.601 36.941H122.574C122.411 36.5398 122.357 36.2928 121.868 36.2002L120.132 36.262L120.186 36.478C120.566 36.6014 120.837 36.7249 121 36.8175C121.38 36.9718 121.597 37.0027 121.95 37.0336L122.384 37.0027L122.004 37.0953Z" fill="black"/>
<path d="M86.7267 40.274L83.5789 27.0037L88.3548 20.3993L95.0575 24.7508L96.1971 38.8235C92.778 39.1013 90.58 39.4716 86.7267 40.274Z" fill="#1E2788"/>
<path d="M86.6995 40.3357V40.3049L83.5518 27.0345L88.3547 20.3993L95.1115 24.7508L96.2784 38.8544C92.7778 39.1939 90.5257 39.595 86.7538 40.3357H86.6995ZM88.3547 20.4302L83.6331 27.0037L86.7808 40.2123C90.5255 39.4408 92.7779 39.0705 96.2242 38.7618L95.0574 24.7508L88.3547 20.4302Z" fill="#160080"/>
<path d="M75.4924 29.195L76.6321 30.2134L76.4151 32.0034L77.9076 31.2935L79.0744 32.312L79.2372 30.6764L80.4584 30.1517L79.4543 29.0715L79.6713 27.4359L78.206 28.0222C78.206 27.9914 77.1477 27.0038 77.1477 27.0346C77.1477 27.0655 76.9036 28.5777 76.9036 28.5777L75.4924 29.195Z" fill="#FBFC2B"/>
<path d="M79.1286 32.4044L77.8803 31.3243L76.442 32.034L76.5778 30.1824L75.438 29.2257L76.8763 28.4542C77.0662 26.9728 77.0934 26.9419 77.0934 26.9419C77.1748 26.9419 78.2331 27.8986 78.2331 27.9295C78.2602 27.8986 79.6442 27.3431 79.6442 27.3431L79.4814 29.0404L80.4854 30.0898L79.2642 30.7379L79.1286 32.4044ZM77.8803 31.2317L79.02 32.1884L79.1828 30.6453L80.4311 30.0589L79.3999 29.0713L79.617 27.4048C78.2602 28.0529 78.233 28.053 78.2059 28.053C78.1245 27.9912 77.2018 27.0962 77.1204 27.0654C77.1747 27.0962 76.9576 28.5775 76.9576 28.5775L75.5195 29.2874L76.6863 30.1824L76.4963 32.0032L77.8803 31.2317Z" fill="#F4C627"/>
<path d="M75.5195 29.1948L80.4311 30.0898L79.21 30.6453L78.016 29.6886C78.016 29.6886 79.0743 32.2193 79.0472 32.2193C79.0472 32.2193 77.9346 31.2933 77.8803 31.2625L77.9888 29.7194C77.9888 29.7194 76.4151 31.9723 76.4151 31.9414L76.632 30.1824L75.5195 29.1948Z" fill="#F4C427"/>
<path d="M76.9036 28.5775L78.0432 29.6577L77.1477 27.0037L76.9036 28.5775Z" fill="#F4C627"/>
<path d="M78.2065 28.0531C78.2336 28.0531 78.0437 29.6887 78.0437 29.6887C78.1522 29.5035 79.6718 27.4667 79.6718 27.4667C79.6447 27.4358 78.2336 28.0531 78.2065 28.0531Z" fill="#F4C627"/>
<path d="M122.357 26.9418L122.655 28.5466L121.461 29.7502L122.981 30.2749L123.279 31.9105L124.338 30.7687L125.586 31.2316L125.45 29.6576L126.563 28.5774C126.563 28.5774 125.097 27.9911 125.124 27.9911C125.124 27.9911 124.907 26.4789 124.88 26.4789C124.853 26.4789 123.795 27.4973 123.795 27.4973L122.357 26.9418Z" fill="#FBFC2B"/>
<path d="M123.279 32.003L122.954 30.3056L121.461 29.8118L122.628 28.5157L122.33 26.9417L123.849 27.4046C124.88 26.4171 124.88 26.3862 124.907 26.3862C124.962 26.4171 125.233 27.9293 125.179 27.991C125.26 27.991 126.617 28.5157 126.617 28.5157L125.532 29.6884L125.667 31.2006L124.365 30.7994L123.279 32.003ZM122.357 26.9726L122.709 28.5157L121.516 29.7501L123.035 30.1822L123.361 31.7561L124.365 30.676L125.64 31.1389L125.45 29.6266L126.563 28.5157C125.125 27.991 125.125 27.9911 125.097 27.9602C125.097 27.8676 124.907 26.5405 124.853 26.4479C124.853 26.5096 123.849 27.4664 123.849 27.4664L122.357 26.9726Z" fill="#F4C627"/>
<path d="M122.384 26.9728L125.613 31.2008L124.365 30.7688L124.012 29.1948L123.361 31.8797C123.361 31.8489 123.035 30.3675 123.035 30.3058L124.012 29.1948L121.516 29.7812L122.71 28.6084L122.384 26.9728Z" fill="#F4C627"/>
<path d="M123.794 27.4664L124.039 29.102L124.907 26.4171L123.794 27.4664Z" fill="#F4C627"/>
<path d="M125.097 27.9911C125.097 28.022 124.039 29.1021 124.039 29.1021C124.229 29.0404 126.563 28.5775 126.536 28.5775C126.563 28.5466 125.125 28.022 125.097 27.9911Z" fill="#F4C627"/>
<path d="M83.606 27.0347C85.3155 26.1089 87.2151 25.3991 89.2231 25.0596C91.1498 24.751 93.1037 24.7201 95.0846 24.7201C95.0846 24.7201 95.3287 28.1766 95.3287 28.2074C93.782 28.2074 92.6151 28.1766 89.8472 28.5778C87.1065 29.0098 85.9668 29.3802 84.3115 30.1208L83.606 27.0347Z" fill="#CB0028"/>
<path d="M84.3116 30.2132L83.5789 27.0345C85.4784 25.9543 87.3508 25.3062 89.2503 24.9976C90.987 24.7199 92.6967 24.6582 94.7319 24.6582H95.1388C95.1931 24.6891 95.4373 28.1764 95.4373 28.2072L94.976 28.2689C93.5921 28.2689 92.4252 28.2999 89.9287 28.6393C87.188 29.0714 86.0484 29.4417 84.3931 30.1824L84.3116 30.2132ZM95.0575 24.7508L94.7047 24.7817C92.6695 24.7817 90.9599 24.8434 89.2232 25.1211C87.3508 25.3989 85.4784 26.0778 83.606 27.0654L84.3387 30.0589C85.9669 29.3491 87.1065 28.9788 89.8473 28.5468C92.3438 28.1764 93.5377 28.1764 94.9217 28.1764H95.3559C95.3017 28.1764 95.0575 24.7508 95.0575 24.7508Z" fill="#D30028"/>
<path d="M85.0714 33.176C85.0443 33.176 85.9396 36.8485 85.9396 36.8485C87.5678 36.3856 89.2231 36.0152 90.9055 35.7683C92.5608 35.4906 94.3518 35.3362 95.9528 35.2436L95.6815 31.6637C93.9719 31.5403 92.0453 31.5403 90.3086 31.8181C88.5177 32.0341 86.8081 32.497 85.0714 33.176Z" fill="#CB0028"/>
<path d="M85.9126 36.8789L85.8854 36.8481C84.9899 33.1756 85.0171 33.1756 85.0442 33.1447C86.8623 32.4349 88.5447 31.972 90.2814 31.7251C91.8553 31.4782 93.8905 31.4473 95.6815 31.5708L96.0071 35.1816C94.4332 35.3359 92.6422 35.4902 90.9327 35.7679C89.2231 36.0457 87.5406 36.4161 85.9667 36.8481L85.9126 36.8789ZM93.5378 31.6016C92.3438 31.6016 91.2583 31.6634 90.2814 31.8177C88.5719 32.0646 86.8894 32.5275 85.0984 33.2064C85.1255 33.2681 85.6411 35.3667 85.9667 36.7554C87.5135 36.3234 89.1959 35.9531 90.9055 35.6754C92.6151 35.3976 94.406 35.2433 95.9528 35.1507L95.6271 31.6325C94.9759 31.6325 94.2433 31.6016 93.5378 31.6016Z" fill="#D30028"/>
<path d="M77.2566 44.4709H124.772V79.1283C123.55 92.6147 112.153 102.706 101.733 102.645C90.4717 103.2 78.0434 92.7382 77.1479 79.0357L77.2566 44.4709Z" fill="white"/>
<path d="M100.865 102.861C90.3088 102.861 77.9077 93.0779 76.9851 79.0359L77.0938 44.5021L124.771 44.3169L124.934 79.1594C123.686 93.1396 111.773 102.861 101.842 102.861C101.462 102.83 101.163 102.861 100.865 102.861ZM124.582 44.4712L77.2294 44.6564L77.3107 79.005C78.2333 93.2013 91.0686 102.954 101.706 102.429C111.583 102.429 123.333 92.8618 124.582 79.0976V44.4712V44.4712Z" fill="#CB0028"/>
<path d="M78.2331 45.7054H123.767V78.9122C122.6 91.8431 111.692 101.503 101.706 101.441C90.9326 101.966 78.9928 91.9358 78.1516 78.7888L78.2331 45.7054Z" fill="#CB0028"/>
<path d="M100.864 101.627C90.7425 101.627 78.8569 92.2447 77.9614 78.7892L78.0701 45.6749L123.767 45.4897L123.93 78.8818C122.736 92.2756 111.312 101.596 101.814 101.596C101.434 101.627 101.163 101.627 100.864 101.627ZM123.604 45.7058L78.2329 45.891L78.2872 78.7892C79.1827 92.399 91.5024 101.719 101.678 101.256C111.149 101.256 122.41 92.0595 123.604 78.9126V45.7058Z" fill="#CB0028"/>
<path d="M96.4688 45.86H87.4055V56.9392H96.4688V45.86Z" fill="white"/>
<path d="M114.623 79.1282V90.084L119.724 90.1148C122.194 85.9177 123.279 81.8131 123.496 79.1591C123.469 79.1282 114.65 79.1282 114.623 79.1282Z" fill="white"/>
<path d="M119.751 90.1457L114.623 90.1148L114.569 79.1282L118.829 79.0973H123.496C123.442 80.3935 122.845 84.8993 119.751 90.1457ZM114.623 79.1899L114.677 90.084L119.724 90.0531C122.791 84.8376 123.361 80.3626 123.469 79.1282L118.856 79.1899H114.623Z" fill="white"/>
<path d="M105.559 90.2078V100.732C109.494 99.8365 112.696 97.6145 114.541 96.1023L114.514 90.2078H105.559Z" fill="white"/>
<path d="M105.532 100.762V90.1768L114.541 90.115L114.595 96.0404C112.587 97.7069 109.412 99.8363 105.586 100.731L105.532 100.762ZM114.487 90.1768L105.586 90.2385L105.64 100.639C109.412 99.7746 112.56 97.6452 114.541 96.0404L114.487 90.1768Z" fill="white"/>
<path d="M87.459 90.2078L87.4861 96.0714C90.5796 98.5403 94.0803 100.053 96.4411 100.608L96.414 90.2078H87.459Z" fill="white"/>
<path d="M96.4959 100.67H96.4418C94.1624 100.145 90.6345 98.6636 87.4596 96.133L87.4326 90.2076L96.4146 90.1768L96.4959 100.67ZM96.3603 90.2076L87.4596 90.2384L87.5139 96.0712C90.6074 98.5401 94.108 99.9906 96.3874 100.546L96.3603 90.2076Z" fill="white"/>
<path d="M78.3962 79.1282C78.6947 83.4179 80.3771 87.2447 82.0595 89.9297L87.3511 90.0531V79.0973L78.3962 79.1282Z" fill="white"/>
<path d="M87.4053 90.1152H87.351L82.0594 89.9918C80.784 88.0166 78.6674 84.0047 78.3418 79.1286L87.351 79.0669L87.4053 90.1152ZM87.3238 79.1286L78.3961 79.1903C78.776 83.9738 80.8655 87.9858 82.1137 89.9301L87.3238 90.0226V79.1286Z" fill="white"/>
<path d="M87.4053 56.9391H78.3418V68.0183H87.4053V56.9391Z" fill="white"/>
<path d="M105.532 56.9391H96.4685V68.0183H105.532V56.9391Z" fill="white"/>
<path d="M114.568 45.8291H105.505V56.9084H114.568V45.8291Z" fill="white"/>
<path d="M123.632 56.9391H114.569V68.0183H123.632V56.9391Z" fill="white"/>
<path d="M96.4688 68.0182H87.4055V79.0974H96.4688V68.0182Z" fill="white"/>
<path d="M114.568 68.0182H105.505V79.0974H114.568V68.0182Z" fill="white"/>
<path d="M105.532 79.0669H96.4685V90.1461H105.532V79.0669Z" fill="white"/>
<path d="M109.955 32.7747C109.928 32.8056 109.847 32.2809 109.82 32.1884C109.792 32.0341 109.738 31.7871 109.657 31.4785C109.874 31.8797 110.009 32.3735 109.955 32.7747Z" fill="#C2A21F"/>
<path d="M109.955 32.8363C109.901 32.8363 109.901 32.7746 109.82 32.4043L109.603 31.5093C109.928 31.8796 110.037 32.3733 109.982 32.8054L109.955 32.8363Z" fill="#C2A21F"/>
</svg>
