<svg width="240" height="240" viewBox="0 0 240 240" fill="none" xmlns="http://www.w3.org/2000/svg">
<g clip-path="url(#clip0_4925_38281)">
<path d="M139.91 102.656C139.91 108.285 135.503 112.432 130.095 112.432C124.687 112.432 120.28 108.285 120.28 102.656C120.28 96.9875 124.687 92.8795 130.095 92.8795C135.503 92.8795 139.91 96.9875 139.91 102.656ZM135.613 102.656C135.613 99.1384 133.059 96.7318 130.095 96.7318C127.13 96.7318 124.576 99.1384 124.576 102.656C124.576 106.138 127.13 108.58 130.095 108.58C133.059 108.58 135.613 106.134 135.613 102.656Z" fill="#EA4335"/>
<path d="M161.083 102.656C161.083 108.285 156.676 112.432 151.268 112.432C145.86 112.432 141.453 108.285 141.453 102.656C141.453 96.9919 145.86 92.8795 151.268 92.8795C156.676 92.8795 161.083 96.9875 161.083 102.656ZM156.787 102.656C156.787 99.1384 154.232 96.7318 151.268 96.7318C148.304 96.7318 145.75 99.1384 145.75 102.656C145.75 106.138 148.304 108.58 151.268 108.58C154.232 108.58 156.787 106.134 156.787 102.656Z" fill="#FBBC05"/>
<path d="M181.374 93.4701V111.022C181.374 118.242 177.113 121.19 172.076 121.19C167.334 121.19 164.48 118.021 163.403 115.429L167.144 113.874C167.81 115.465 169.442 117.342 172.071 117.342C175.296 117.342 177.294 115.355 177.294 111.612V110.206H177.144C176.182 111.392 174.33 112.428 171.992 112.428C167.1 112.428 162.618 108.17 162.618 102.691C162.618 97.1726 167.1 92.8795 171.992 92.8795C174.325 92.8795 176.178 93.9153 177.144 95.0657H177.294V93.4745H181.374V93.4701ZM177.598 102.691C177.598 99.2486 175.3 96.7318 172.375 96.7318C169.411 96.7318 166.928 99.2486 166.928 102.691C166.928 106.098 169.411 108.58 172.375 108.58C175.3 108.58 177.598 106.098 177.598 102.691Z" fill="#4285F4"/>
<path d="M188.101 83.1824V111.833H183.911V83.1824H188.101Z" fill="#34A853"/>
<path d="M204.431 105.873L207.766 108.095C206.69 109.686 204.096 112.428 199.614 112.428C194.056 112.428 189.905 108.135 189.905 102.651C189.905 96.8376 194.091 92.875 199.133 92.875C204.211 92.875 206.694 96.9125 207.506 99.0944L207.951 100.205L194.872 105.618C195.874 107.579 197.431 108.58 199.614 108.58C201.802 108.58 203.32 107.504 204.431 105.873ZM194.166 102.356L202.909 98.7285C202.428 97.5076 200.982 96.6569 199.279 96.6569C197.095 96.6569 194.056 98.5831 194.166 102.356Z" fill="#EA4335"/>
<path d="M104.418 100.113V95.9649H118.405C118.542 96.6877 118.613 97.5428 118.613 98.4685C118.613 101.58 117.761 105.428 115.018 108.17C112.349 110.947 108.939 112.428 104.422 112.428C96.0497 112.428 89.0095 105.613 89.0095 97.2475C89.0095 88.8816 96.0497 82.0673 104.422 82.0673C109.054 82.0673 112.353 83.8833 114.832 86.2502L111.903 89.1769C110.126 87.5108 107.717 86.2149 104.418 86.2149C98.3038 86.2149 93.5221 91.1384 93.5221 97.2475C93.5221 103.357 98.3038 108.28 104.418 108.28C108.383 108.28 110.642 106.689 112.089 105.243C113.262 104.071 114.034 102.396 114.338 100.108L104.418 100.113Z" fill="#4285F4"/>
<path d="M100.489 127.836L96.1816 139.742H104.97L100.628 127.836H100.489ZM92.4646 150.051H88.7129L98.648 123.67H102.504L112.439 150.051H108.687L106.152 142.9H95.0353L92.4646 150.051Z" fill="#747474"/>
<path d="M114.149 132.001H117.415V134.5H117.554C118.057 133.624 118.848 132.895 119.916 132.313C121.002 131.715 122.113 131.411 123.251 131.411C125.474 131.411 127.176 132.053 128.357 133.32C129.556 134.57 130.164 136.366 130.164 138.7V150.051H126.759V138.943C126.69 135.984 125.205 134.5 122.313 134.5C120.967 134.5 119.829 135.056 118.909 136.166C118.005 137.26 117.554 138.553 117.554 140.054V150.051H114.149V132.001Z" fill="#747474"/>
<path d="M136.447 144.532C136.447 145.417 136.812 146.155 137.558 146.753C138.297 147.335 139.174 147.621 140.199 147.621C141.605 147.621 142.873 147.101 143.985 146.059C145.114 145.001 145.687 143.751 145.687 142.31C144.619 141.477 143.134 141.061 141.241 141.061C139.869 141.061 138.722 141.399 137.802 142.067C136.898 142.718 136.447 143.543 136.447 144.532ZM140.824 131.411C143.325 131.411 145.288 132.088 146.729 133.424C148.188 134.769 148.918 136.609 148.918 138.943V150.051H145.687V147.552H145.548C144.133 149.617 142.257 150.641 139.921 150.641C137.923 150.641 136.256 150.051 134.918 148.871C133.598 147.691 132.938 146.224 132.938 144.462C132.938 142.588 133.642 141.113 135.057 140.019C136.464 138.909 138.357 138.353 140.72 138.353C142.734 138.353 144.385 138.718 145.687 139.429V138.666C145.687 137.485 145.21 136.496 144.263 135.68C143.334 134.847 142.248 134.431 140.998 134.431C139.096 134.431 137.602 135.229 136.516 136.826L133.529 134.951C135.17 132.591 137.602 131.411 140.824 131.411Z" fill="#747474"/>
<path d="M156.02 123.67V150.051H152.616V123.67H156.02Z" fill="#747474"/>
<path d="M176.034 132.001L164.709 158H161.235L165.438 148.906L157.97 132.001H161.652L167.036 144.983H167.106L172.351 132.001H176.034Z" fill="#747474"/>
<path d="M185.358 150.329C183.899 150.329 182.684 149.877 181.711 148.975C180.738 148.072 180.234 146.814 180.217 145.191V135.09H177.021V132.001H180.217V126.482H183.587V132.001H188.033V135.09H183.587V144.081C183.587 145.287 183.813 146.111 184.282 146.545C184.768 146.962 185.298 147.17 185.879 147.17C186.157 147.17 186.418 147.153 186.678 147.101C186.93 147.031 187.173 146.953 187.408 146.858L188.45 149.877C187.564 150.173 186.539 150.329 185.358 150.329Z" fill="#747474"/>
<path d="M195.458 125.788C195.458 126.438 195.215 127.003 194.729 127.488C194.26 127.957 193.704 128.183 193.061 128.183C192.384 128.183 191.819 127.957 191.359 127.488C190.89 127.003 190.664 126.438 190.664 125.788C190.664 125.119 190.89 124.555 191.359 124.087C191.819 123.627 192.384 123.393 193.061 123.393C193.704 123.393 194.26 123.627 194.729 124.087C195.215 124.555 195.458 125.119 195.458 125.788ZM194.763 132.001V150.051H191.359V132.001H194.763Z" fill="#747474"/>
<path d="M206.199 150.641C203.507 150.641 201.283 149.73 199.529 147.899C197.792 146.051 196.924 143.76 196.924 141.026C196.924 138.249 197.792 135.958 199.529 134.153C201.283 132.331 203.507 131.411 206.199 131.411C208.049 131.411 209.655 131.88 211.027 132.799C212.391 133.728 213.424 135.004 214.119 136.618L211.027 137.902C210.072 135.637 208.396 134.5 205.99 134.5C204.436 134.5 203.09 135.125 201.961 136.375C200.849 137.624 200.293 139.178 200.293 141.026C200.293 142.883 200.849 144.428 201.961 145.677C203.09 146.927 204.436 147.552 205.99 147.552C208.465 147.552 210.202 146.424 211.201 144.15L214.223 145.434C213.572 147.057 212.538 148.333 211.132 149.253C209.716 150.173 208.075 150.641 206.199 150.641Z" fill="#747474"/>
<path d="M231 145.053C231 146.632 230.305 147.96 228.916 149.044C227.544 150.103 225.824 150.641 223.74 150.641C221.933 150.641 220.335 150.164 218.946 149.218C217.574 148.272 216.592 147.022 215.993 145.469L219.015 144.185C219.476 145.278 220.127 146.12 220.961 146.719C221.812 147.326 222.741 147.621 223.74 147.621C224.825 147.621 225.729 147.396 226.449 146.927C227.188 146.467 227.561 145.912 227.561 145.261C227.561 144.107 226.667 143.265 224.886 142.727L221.794 141.963C218.269 141.061 216.514 139.36 216.514 136.861C216.514 135.221 217.183 133.901 218.529 132.904C219.866 131.914 221.586 131.411 223.67 131.411C225.268 131.411 226.71 131.793 228.013 132.556C229.307 133.32 230.21 134.344 230.722 135.611L227.7 136.861C227.353 136.097 226.779 135.507 225.998 135.09C225.234 134.656 224.374 134.431 223.427 134.431C222.541 134.431 221.742 134.656 221.03 135.09C220.335 135.533 219.988 136.08 219.988 136.722C219.988 137.746 220.961 138.483 222.906 138.943L225.616 139.638C229.202 140.523 231 142.328 231 145.053Z" fill="#747474"/>
<path d="M56.6295 90.8951V146.808C56.6295 153.069 60.948 156.55 65.5314 156.55C69.7705 156.55 74.4334 153.585 74.4334 146.808V91.3187C74.4334 85.5872 70.1944 82 65.5314 82C60.8685 82 56.6295 85.9578 56.6295 90.8951Z" fill="#F8AB00"/>
<path d="M33.3147 119.275V146.808C33.3147 153.069 37.6332 156.55 42.2167 156.55C46.4558 156.55 51.1187 153.585 51.1187 146.808V119.698C51.1187 113.967 46.8797 110.38 42.2167 110.38C37.5538 110.38 33.3147 114.338 33.3147 119.275Z" fill="#E37300"/>
<path d="M27.804 147.655C27.804 152.566 23.8166 156.55 18.902 156.55C13.9873 156.55 10 152.566 10 147.655C10 142.744 13.9873 138.76 18.902 138.76C23.8166 138.76 27.804 142.744 27.804 147.655Z" fill="#E37300"/>
</g>
<defs>
<clipPath id="clip0_4925_38281">
<rect width="221" height="76" fill="white" transform="translate(10 82)"/>
</clipPath>
</defs>
</svg>
