<svg width="240" height="240" viewBox="0 0 240 240" fill="none" xmlns="http://www.w3.org/2000/svg">
<path fill-rule="evenodd" clip-rule="evenodd" d="M96.6426 206.992H140.86V157.135H96.6426V206.992ZM118.751 185.285C125.254 185.285 130.526 180.009 130.526 173.499C130.526 166.991 125.254 161.714 118.751 161.714C112.249 161.714 106.977 166.991 106.977 173.499C106.977 180.009 112.249 185.285 118.751 185.285Z" fill="#AFBEE7"/>
<path d="M88.3831 203.482H149.187V207H88.3831V203.482Z" fill="#AFBEE7"/>
<path fill-rule="evenodd" clip-rule="evenodd" d="M26.4977 170.734H209.104C211.262 170.734 213.01 168.984 213.01 166.825V36.9088C213.01 34.7496 211.262 33 209.104 33H26.4977C24.3406 33 22.5923 34.7496 22.5923 36.9088V166.825C22.5923 168.984 24.3406 170.734 26.4977 170.734ZM207.554 154.966C208.106 154.966 208.554 154.502 208.554 153.93V38.8907C208.554 38.3189 208.106 37.8554 207.554 37.8554H28.0491C27.4968 37.8554 27.0491 38.3189 27.0491 38.8907V153.93C27.0491 154.502 27.4968 154.966 28.0491 154.966H207.554Z" fill="#D3DFFF"/>
<path opacity="0.1" d="M208.554 153.93C208.554 154.502 208.106 154.966 207.554 154.966H28.0491C27.4968 154.966 27.0491 154.502 27.0491 153.93V38.8907C27.0491 38.3189 27.4968 37.8553 28.0491 37.8553H207.554C208.106 37.8553 208.554 38.3189 208.554 38.8907V153.93Z" fill="white"/>
<path d="M193.69 110.855H152.166V109.039H193.69V110.855Z" fill="#4285F4"/>
<path d="M187.923 115.369H152.166V113.552H187.923V115.369Z" fill="#4285F4"/>
<path d="M174.72 119.883H152.167V118.066H174.72V119.883Z" fill="#4285F4"/>
<path d="M188.689 128.284H152.167V126.468H188.689V128.284Z" fill="#D3DFFF"/>
<path d="M183.615 132.798H152.166V130.981H183.615V132.798Z" fill="#D3DFFF"/>
<path d="M62.4128 132.239H44.7878V104.585H62.4128V132.239Z" fill="#D3DFFF"/>
<path d="M86.6991 113.676H66.8867V104.541H86.6991V113.676Z" fill="#4285F4"/>
<path d="M86.6991 132.277H66.8867V118.127H86.6991V132.277Z" fill="#D3DFFF"/>
<path d="M100.832 100.801C99.5145 100.801 98.4412 101.875 98.4412 103.194V129.639C98.4412 130.958 99.5145 132.031 100.832 132.031H137.519C138.838 132.031 139.91 130.958 139.91 129.639V103.194C139.91 101.875 138.838 100.801 137.519 100.801H100.832ZM137.519 132.475H100.832C99.2701 132.475 97.9988 131.203 97.9988 129.639V103.194C97.9988 101.63 99.2701 100.358 100.832 100.358H137.519C139.081 100.358 140.353 101.63 140.353 103.194V129.639C140.353 131.203 139.081 132.475 137.519 132.475Z" fill="#86A7FF"/>
<path d="M102.42 127L102 126.727L104.651 119.858L107.927 124.304L111.828 113.387L117.061 119.755L122.816 112.297L128.442 116.751L135.66 107L136 107.421L128.52 117.525L122.886 113.065L117.07 120.602L111.982 114.407L108.064 125.37L104.772 120.903L102.42 127Z" fill="#4285F4"/>
<path d="M125.271 128.558H121.058V126.338H125.271V128.558Z" fill="#86A7FF"/>
<path d="M135.36 127.67H128.042V127.227H135.36V127.67Z" fill="#4285F4"/>
<path d="M135.714 62.6876C134.226 57.1395 130.027 52.7054 124.624 50.8912L119.176 67.1416L135.714 62.6876Z" fill="#D3DFFF"/>
<path d="M119.176 67.1416L111.596 82.5148C113.881 83.6453 116.454 84.2844 119.176 84.2844C128.634 84.2844 136.301 76.6101 136.301 67.1416C136.301 65.6007 136.095 64.109 135.714 62.6876L119.176 67.1416Z" fill="#4285F4"/>
<path d="M124.624 50.8913C122.912 50.3155 121.081 50 119.176 50C109.718 50 102.05 57.6743 102.05 67.1416C102.05 73.8848 105.941 79.7144 111.596 82.5148L119.176 67.1416L124.624 50.8913Z" fill="#1F3C88"/>
<path d="M77.8044 88.9962H53.6821V87.1796H77.8044V88.9962Z" fill="#D3DFFF"/>
<path d="M45.0098 82.7585H86.4766V51.1376H45.0098V82.7585ZM86.9206 83.2029H44.5664V50.6931H86.9206V83.2029Z" fill="#86A7FF"/>
<path d="M82.8255 60.0441C81.4967 59.7615 80.1813 60.6774 79.3408 61.8067C78.9422 62.3427 78.6133 62.929 78.29 63.5201C77.9313 64.1768 77.578 64.837 77.1451 65.4386C76.3213 66.582 75.0424 67.5378 73.7036 67.322C71.5311 66.9714 70.343 63.8133 68.1462 63.8543C67.1208 63.8731 66.2416 64.6248 65.5418 65.4234C64.8431 66.222 64.2042 67.1297 63.2951 67.634C62.0229 68.3388 60.4529 68.1101 59.1341 67.5097C57.8154 66.9104 56.6588 65.9758 55.4052 65.2346C53.3052 63.9939 50.918 63.3371 48.5168 63.2703V79.2602H82.9694V64.2307V60.084C82.9218 60.0699 82.8753 60.0547 82.8255 60.0441Z" fill="#D3DFFF"/>
<path d="M59.0372 67.5097C60.344 68.1101 61.8996 68.3388 63.1603 67.634C64.0611 67.1297 64.6942 66.2221 65.3865 65.4234C66.0799 64.6248 66.9511 63.8731 67.9671 63.8543C70.1439 63.8133 71.3212 66.9714 73.4738 67.3221C74.8003 67.5378 76.0676 66.5821 76.8839 65.4387C77.3129 64.8371 77.6629 64.1768 78.0184 63.5201C76.6963 63.5858 75.3742 63.655 74.2276 63.0018C73.0887 62.3521 72.3404 61.0844 71.2049 60.4276C69.1652 59.2491 66.6702 60.3737 64.6382 61.5675C63.4236 62.2817 62.0689 63.0475 60.7236 62.6957C59.2017 62.2981 58.3099 60.6411 57.0425 59.6525C54.616 57.7609 50.9712 58.6791 48.8971 61.0046L48.8932 61.0093C48.645 61.2872 48.5168 61.6449 48.5168 62.0108V63.2703C50.8961 63.3372 53.2615 63.9939 55.3423 65.2346C56.5846 65.9758 57.7306 66.9104 59.0372 67.5097Z" fill="#4285F4"/>
<path d="M151.99 84.5094H193.392V51.1704H151.99V84.5094ZM193.9 85.0181H151.482V50.6618H193.9V85.0181Z" fill="#86A7FF"/>
<path d="M158.5 79.9195H162.933V64.9736H158.5V79.9195Z" fill="#4285F4"/>
<path d="M158.5 57.4268V64.9736H162.933V57.4268H158.5Z" fill="#D3DFFF"/>
<path d="M166.483 57.4258V68.6349H170.918V57.4258H166.483Z" fill="#D3DFFF"/>
<path d="M166.483 79.9187H170.918V68.6348H166.483V79.9187Z" fill="#4285F4"/>
<path d="M174.465 79.919H178.9V62.3651H174.465V79.919Z" fill="#4285F4"/>
<path d="M174.465 57.4257V62.3651H178.9V57.4257H174.465Z" fill="#D3DFFF"/>
<path d="M182.45 68.9125V79.9184H186.884V68.9125H182.45Z" fill="#4285F4"/>
<path d="M186.884 57.4257H182.45V68.9125H186.884V57.4257Z" fill="#D3DFFF"/>
<path d="M30.4631 206.992L22.1616 198.344L22.1794 191.963L12.0959 192.263L12.9282 206.992H30.4631Z" fill="#747474"/>
<path d="M22.2462 167.988L10.8105 169.515L11.2617 177.5L22.2204 177.233L22.2462 167.988Z" fill="#E28B6D"/>
<path d="M22.2202 177.233L11.2615 177.5L12.0956 192.263L22.1791 191.963L22.2202 177.233Z" fill="#F9B384"/>
<path d="M46.3884 165.36L35.3761 164.935L33.9302 173.371L44.4795 174.913L46.3884 165.36Z" fill="#E28B6D"/>
<path d="M48.845 198.429L42.0683 186.981L42.9445 182.596C39.9563 181.91 35.3427 180.856 32.7464 180.276L30.4631 193.595L48.845 198.429Z" fill="#747474"/>
<path d="M44.4796 174.913L33.9302 173.371L32.7463 180.276C35.3426 180.856 39.9563 181.91 42.9445 182.596L44.4796 174.913Z" fill="#F9B384"/>
<path d="M53.7581 166.633C53.7581 166.633 49.1838 172.397 40.7112 170.53C32.2437 168.668 33.7685 173.583 29.0214 174.601C24.2793 175.617 11.0647 167.31 6.65822 175.108C6.65822 175.108 4.03556 145.576 5.22997 126.884C5.55531 121.838 6.15504 117.58 7.16645 114.908L27.4406 114.629L31.9031 114.567C31.9031 114.567 31.9185 114.664 31.954 114.858C32.0302 115.259 32.1827 116.078 32.4368 117.249C34.0937 124.945 39.9082 147.774 53.7581 166.633Z" fill="#F8AB00"/>
<path d="M32.4365 117.249C27.903 120.245 18.4495 125.393 5.22974 126.884C5.55508 121.838 6.15481 117.58 7.16622 114.908L27.4404 114.629L31.9537 114.858C32.03 115.259 32.1824 116.078 32.4365 117.249Z" fill="#E37300"/>
<path d="M44.7253 84.5522C44.7253 84.5522 45.352 78.5069 45.9158 78.6089C46.4794 78.7109 46.4177 80.1885 46.4177 80.1885C46.4177 80.1885 47.7356 76.817 48.3479 76.8205C48.9602 76.824 48.3348 78.1984 48.3348 78.1984C48.3348 78.1984 49.0156 76.8205 49.524 76.926C50.0323 77.0328 49.6149 78.202 49.6149 78.202C49.6149 78.202 50.1464 77.0726 50.6614 77.2732C51.1766 77.4737 50.853 78.399 50.853 78.399C50.853 78.399 51.1346 77.6672 51.6146 78.155C52.0945 78.6429 49.631 85.7214 49.631 85.7214L46.1591 86.7136L44.7253 84.5522Z" fill="#F9B384"/>
<path d="M49.648 85.7414C49.648 85.7414 46.6188 98.211 38.9798 101.853C37.1907 102.713 35.1475 103.085 32.8349 102.698L31.4677 100.261L22.5022 84.2966L25.633 83.1978C25.633 83.1978 32.6672 85.8223 36.4791 91.673C36.4791 91.673 40.0369 91.3376 44.7789 84.2145L49.648 85.7414Z" fill="#4285F4"/>
<path d="M38.9796 101.853C37.1905 102.713 35.1473 103.085 32.8347 102.698L31.4675 100.261L31.8183 94.3034C31.8183 94.3034 37.0025 97.2493 38.9796 101.853Z" fill="#1F3C88"/>
<path d="M7.42207 125.911C7.42207 125.911 6.73659 131.78 6.13663 131.682C5.53668 131.581 5.60931 130.104 5.60931 130.104C5.60931 130.104 4.19008 133.482 3.53787 133.482C2.88566 133.48 3.55825 132.103 3.55825 132.103C3.55825 132.103 2.82673 133.484 2.28581 133.381C1.74479 133.276 2.1949 132.105 2.1949 132.105C2.1949 132.105 1.62353 133.238 1.07582 133.04C0.528111 132.841 0.877007 131.914 0.877007 131.914C0.877007 131.914 0.573688 132.648 0.0647594 132.161C-0.444052 131.676 2.21247 124.583 2.21247 124.583L5.91497 123.575L7.42207 125.911Z" fill="#F9B384"/>
<path d="M19.5777 83.3233C4.54194 85.1457 0.115769 106.005 1.83118 125.592L7.422 125.932C7.422 125.932 8.35375 106.768 16.0623 97.6105L22.5002 84.2978L19.5777 83.3233Z" fill="#4285F4"/>
<path d="M22.5004 84.2978L32.9196 91.3364C32.9196 91.3364 35.7996 104.818 35.6303 116.774C35.6303 116.774 15.4696 124.236 5.47388 116.435L13.3517 90.8275L22.5004 84.2978Z" fill="#4285F4"/>
<path d="M28.4811 72.1097C29.4464 68.7382 26.0582 64.7955 19.5779 68.1448C19.5779 68.1448 13.14 69.2471 14.2836 80.4396L21.0603 80.694L28.4811 72.1097Z" fill="#1F3C88"/>
<path d="M20.9328 67.9125C21.8186 64.3509 17.9531 63.781 17.3089 65.9646C17.2229 66.2566 15.3393 65.2164 14.8124 66.9145C14.2085 68.8612 16.3072 70.157 18.6779 69.6692L20.9328 67.9125Z" fill="#1F3C88"/>
<path d="M25.6328 76.4969V83.1978L22.7104 87.3082L19.5796 83.3244L19.7472 76.3702L25.6328 76.4969Z" fill="#F9B384"/>
<path d="M25.6327 78.7872V83.0852C23.5388 82.1752 22.6392 79.4228 22.6392 79.4228L25.6327 78.7872Z" fill="#1F3C88"/>
<path d="M28.481 72.1097C28.481 72.1097 30.5625 83.111 22.6411 79.4228L20.0393 76.4335L21.6582 70.3917L25.8213 69.3749L28.481 72.1097Z" fill="#F9B384"/>
<path d="M28.481 72.1097C28.481 72.1097 26.8204 69.5227 24.7451 70.774C22.6697 72.0241 22.7756 76.4124 20.6155 75.31C18.4555 74.2077 19.7049 70.8162 19.7049 70.8162L22.8815 68.3992L26.4392 68.8026L28.481 72.1097Z" fill="#1F3C88"/>
<path d="M21.3669 74.9606C21.8406 75.7816 21.6416 76.7842 20.9225 77.2005C20.2033 77.6157 19.2363 77.2873 18.7626 76.4652C18.289 75.6443 18.4879 74.6417 19.2071 74.2265C19.9262 73.8102 20.8932 74.1386 21.3669 74.9606Z" fill="#F9B384"/>
<path d="M23.7708 90.912C23.7708 91.4737 23.3157 91.9299 22.7542 91.9299C22.1928 91.9299 21.7378 91.4737 21.7378 90.912C21.7378 90.3502 22.1928 89.894 22.7542 89.894C23.3157 89.894 23.7708 90.3502 23.7708 90.912Z" fill="#1F3C88"/>
<path d="M8.26448 118.137L7.76562 118.039C7.77289 118.002 8.51285 114.227 9.75658 110.003C11.4344 104.306 13.1829 100.546 14.9536 98.8266L15.3075 99.1925C11.2189 103.161 8.29353 117.988 8.26448 118.137Z" fill="#1F3C88"/>
<path d="M6.38002 106.123C5.44639 105.423 3.26037 105.496 3.23834 105.496L3.21948 104.988C3.31661 104.985 5.60889 104.908 6.68509 105.716L6.38002 106.123Z" fill="#1F3C88"/>
<path d="M226.902 191.476L226.733 201.142L224.53 206.992H236.474L235.797 191.222L226.902 191.476Z" fill="#747474"/>
<path d="M209.326 192.493V200.506L199.924 206.992H218.856L217.712 191.603L209.326 192.493Z" fill="#747474"/>
<path d="M225.207 113.891L225.155 114.084L223.469 120.744L219.789 135.259C219.275 137.574 218.889 140.071 218.605 142.687C216.811 159.205 219.128 180.319 220.333 189.425C220.648 191.816 218.787 193.933 216.378 193.933H209.684C208.144 193.933 206.742 193.043 206.075 191.653C197.542 173.766 198.931 147.051 200.643 140.513C203.351 130.171 205.216 114.741 205.216 114.741L210.904 114.497L225.207 113.891Z" fill="#4285F4"/>
<path d="M238.019 189.263C237.963 191.562 236.089 193.398 233.792 193.398H228.058C225.938 193.398 224.144 191.827 223.868 189.721C222.778 181.377 220.115 160.356 218.605 142.687C217.817 133.417 217.349 125.074 217.594 119.965C217.679 118.027 217.871 116.557 218.193 115.677L225.155 114.084L232.245 112.466C232.245 112.466 234.004 114.344 235.621 124.341C237.304 134.771 238.823 154.047 238.019 189.263Z" fill="#4285F4"/>
<path d="M217.443 156.808C217.128 150.293 217.328 144.738 218.054 139.825C218.288 138.244 219.119 136.813 220.399 135.797L225.162 132.006L225.478 132.405L220.715 136.196C219.538 137.131 218.771 138.447 218.557 139.9C217.837 144.779 217.637 150.302 217.949 156.784L217.443 156.808Z" fill="#1F3C88"/>
<path d="M203.598 158.913L203.533 158.409C206.726 158.013 209.462 157.957 211.897 158.24L211.837 158.744C209.443 158.467 206.747 158.523 203.598 158.913Z" fill="#1F3C88"/>
<path d="M226.469 157.726L226.406 157.222C229.598 156.825 232.334 156.77 234.769 157.053L234.71 157.556C232.316 157.28 229.62 157.335 226.469 157.726Z" fill="#1F3C88"/>
<path d="M212.434 187.889C208.088 187.889 204.867 187.114 204.818 187.102L204.94 186.607C205.013 186.626 212.41 188.402 219.887 186.507L220.013 187.001C217.373 187.67 214.744 187.889 212.434 187.889Z" fill="#1F3C88"/>
<path d="M230.341 187.918C229.654 187.918 229.003 187.897 228.412 187.867C225.602 187.719 223.46 187.306 223.439 187.301L223.536 186.802C223.62 186.818 231.983 188.412 237.549 186.351L237.725 186.829C235.419 187.682 232.67 187.918 230.341 187.918Z" fill="#1F3C88"/>
<path d="M235.622 124.34C232.383 122.61 227.916 121.481 223.469 120.743C221.472 120.408 219.474 120.158 217.594 119.965C211.642 119.36 206.87 119.36 206.87 119.36L210.906 114.496L225.209 113.89L225.157 114.084L232.247 112.466C232.247 112.466 234.006 114.344 235.622 124.34Z" fill="#1F3C88"/>
<path d="M216.436 75.6013V85.4255H210.556V75.6013H216.436Z" fill="#E28B6D"/>
<path d="M213.31 79.6868C213.31 79.6868 212.714 81.8288 210.555 83.2939V79.0051L213.31 79.6868Z" fill="#1F3C88"/>
<path d="M207.521 70.5889L207.108 74.724C207.108 74.724 205.184 77.3084 206.384 77.3084C207.676 77.3084 207.47 77.8254 207.47 77.8254C207.47 77.8254 206.746 83.2009 213.305 79.6862L214.698 71.6227L207.521 70.5889Z" fill="#E28B6D"/>
<path d="M207.523 70.5884C207.523 70.5884 209.305 70.3558 209.769 72.2425C210.233 74.1291 210.854 75.2921 212.428 73.974L214.158 71.1312L211.188 69.8906L207.523 70.5884Z" fill="#1F3C88"/>
<path d="M207.522 70.5886C207.522 69.2448 209.114 66.0398 214.131 66.8929C218.927 67.7081 219.682 74.4395 217.204 77.515C217.204 77.515 215.937 79.5049 214.235 75.8608L211.316 71.9325L210.698 70.692L207.522 70.5886Z" fill="#1F3C88"/>
<path d="M214.499 75.6151C214.024 76.4371 213.061 76.7679 212.343 76.3541C211.627 75.94 211.432 74.9381 211.904 74.116C212.38 73.294 213.345 72.9633 214.061 73.3772C214.776 73.7911 214.973 74.7931 214.499 75.6151Z" fill="#E28B6D"/>
<path d="M225.632 83.2809C236.898 86.9268 245.793 102.19 235.372 102.444C224.954 102.698 218.602 93.032 218.602 93.032L225.632 83.2809Z" fill="#E37300"/>
<path d="M175.778 94.9225C175.778 94.9225 170.213 92.4945 170.025 93.0361C169.837 93.5775 171.152 94.2503 171.152 94.2503C171.152 94.2503 167.571 93.7402 167.273 94.2756C166.974 94.8112 168.477 94.9423 168.477 94.9423C168.477 94.9423 166.944 94.8574 166.786 95.3527C166.63 95.8481 167.851 96.0596 167.851 96.0596C167.851 96.0596 166.607 95.9667 166.528 96.5144C166.449 97.062 167.414 97.2353 167.414 97.2353C167.414 97.2353 166.637 97.1205 166.826 97.7789C167.014 98.4373 174.383 99.7731 174.383 99.7731L176.954 97.2354L175.778 94.9225Z" fill="#E28B6D"/>
<path d="M231.42 117.319L206.266 120.067C204.147 120.295 202.312 118.602 202.378 116.465L202.693 106.076L202.84 101.288L202.845 101.171C202.845 101.171 202.663 101.39 202.296 101.731L202.285 101.741C202.047 101.96 201.732 102.23 201.34 102.525C198.001 105.048 189.096 109.383 174.382 99.7724L175.78 94.9241L191.663 95.5753C191.663 95.5753 198.784 89.8161 205.108 85.8632C209.239 83.2785 214.022 81.849 218.891 81.9761C221.091 82.0321 223.456 82.3831 225.636 83.2785C230.997 85.4967 233.655 105.297 234.529 113.452C234.738 115.382 233.346 117.111 231.42 117.319Z" fill="#F8AB00"/>
<path d="M189.908 100.255C189.449 97.0961 191.42 95.4474 191.502 95.3787L191.825 95.7727C191.82 95.7766 191.359 96.1617 190.956 96.8959C190.42 97.8753 190.235 98.9809 190.412 100.182L189.908 100.255Z" fill="#E37300"/>
<path d="M205.091 99.3913C205.091 99.3913 204.933 103.492 202.691 106.076L202.839 101.289C203.677 100.607 204.639 99.8084 205.091 99.3913Z" fill="#E37300"/>
<path d="M197.642 104.856L197.543 104.357C201.221 103.621 206.176 97.451 206.224 97.3887L206.622 97.706C206.609 97.7219 205.336 99.3124 203.614 100.974C201.281 103.224 199.272 104.53 197.642 104.856Z" fill="#E37300"/>
</svg>
