<svg width="240" height="240" viewBox="0 0 240 240" fill="none" xmlns="http://www.w3.org/2000/svg">
<g clip-path="url(#clip0_4925_38211)">
<path d="M120 22C64.8015 22 22 62.4495 22 117.06C22 145.627 33.711 170.323 52.772 187.375C54.3645 188.796 55.3445 190.805 55.3935 192.961L55.9325 210.405C55.9717 211.689 56.3257 212.943 56.9631 214.057C57.6006 215.172 58.5021 216.113 59.5884 216.798C60.6748 217.483 61.9127 217.89 63.1933 217.984C64.4739 218.078 65.7581 217.857 66.933 217.339L86.386 208.764C88.0275 208.029 89.8895 207.906 91.629 208.372C100.572 210.822 110.078 212.144 120 212.144C175.199 212.144 218 171.695 218 117.085C218 62.474 175.199 22 120 22Z" fill="url(#paint0_radial_4925_38211)"/>
<path d="M61.151 144.867L89.9385 99.1995C91.0215 97.4801 92.4491 96.0039 94.1313 94.8641C95.8136 93.7243 97.7138 92.9457 99.7122 92.5773C101.71 92.209 103.763 92.2589 105.742 92.724C107.72 93.1891 109.58 94.0592 111.205 95.2795L134.112 112.454C135.135 113.22 136.379 113.631 137.656 113.627C138.934 113.623 140.175 113.202 141.193 112.429L172.112 88.9585C176.228 85.8225 181.618 90.7715 178.874 95.157L150.062 140.8C148.979 142.52 147.551 143.996 145.869 145.136C144.187 146.276 142.286 147.054 140.288 147.423C138.29 147.791 136.237 147.741 134.259 147.276C132.28 146.811 130.42 145.941 128.796 144.72L105.888 127.546C104.865 126.78 103.621 126.369 102.344 126.373C101.066 126.377 99.8249 126.798 98.8075 127.57L67.8885 151.042C63.7725 154.178 58.3825 149.253 61.151 144.867Z" fill="white"/>
</g>
<defs>
<radialGradient id="paint0_radial_4925_38211" cx="0" cy="0" r="1" gradientUnits="userSpaceOnUse" gradientTransform="translate(54.83 218) scale(215.6 215.6)">
<stop stop-color="#0099FF"/>
<stop offset="0.6" stop-color="#A033FF"/>
<stop offset="0.9" stop-color="#FF5280"/>
<stop offset="1" stop-color="#FF7061"/>
</radialGradient>
<clipPath id="clip0_4925_38211">
<rect width="196" height="196" fill="white" transform="translate(22 22)"/>
</clipPath>
</defs>
</svg>
