<?xml version="1.0" encoding="utf-8"?>
<!-- Generator: Adobe Illustrator 17.1.0, SVG Export Plug-In . SVG Version: 6.00 Build 0)  -->
<!DOCTYPE svg PUBLIC "-//W3C//DTD SVG 1.1//EN" "http://www.w3.org/Graphics/SVG/1.1/DTD/svg11.dtd">
<svg version="1.1" id="Layer_1" xmlns="http://www.w3.org/2000/svg" xmlns:xlink="http://www.w3.org/1999/xlink" x="0px" y="0px"
	 viewBox="0 0 60 40" enable-background="new 0 0 60 40" xml:space="preserve">
<g>
	<path fill="#F3F4F4" d="M60,35c0,2.75-2.25,5-5,5H5c-2.75,0-5-2.25-5-5V5c0-2.75,2.25-5,5-5h50c2.75,0,5,2.25,5,5V35z"/>
	<g>
		<path fill="#FFFFFF" d="M30,0"/>
		<g>
			<path fill="#5565AF" d="M17,30H9V15c0-2.762,3.238-5,6-5h6v15C21,27.762,19.762,30,17,30z"/>
			<path fill="#EA564B" d="M31,30h-8V15c0-2.762,3.238-5,6-5h6v15C35,27.762,33.762,30,31,30z"/>
			<path fill="#99CD76" d="M45,30h-8V15c0-2.762,3.238-5,6-5h6v15C49,27.762,47.762,30,45,30z"/>
		</g>
		<path opacity="0.08" fill="#FFFFFF" enable-background="new    " d="M58.531,1.469C59.437,2.375,60,3.625,60,5v15v15
			c0,1.375-0.562,2.625-1.469,3.531C57.624,39.437,56.375,40,55,40H30H5c-1.375,0-2.625-0.562-3.531-1.469L58.531,1.469z"/>
		<g>
			<path fill="#F8F8F9" d="M55,1c2.206,0,4,1.794,4,4v30c0,2.206-1.794,4-4,4H5c-2.206,0-4-1.794-4-4V5c0-2.206,1.794-4,4-4H55
				 M55,0H5C2.25,0,0,2.25,0,5v30c0,2.75,2.25,5,5,5h50c2.75,0,5-2.25,5-5V5C60,2.25,57.75,0,55,0L55,0z"/>
		</g>
	</g>
</g>
</svg>
