<svg width="202" height="134" viewBox="0 0 202 134" fill="none" xmlns="http://www.w3.org/2000/svg">
<path d="M202 0H101V134H202V0Z" fill="#BD0034"/>
<path d="M101 0H0V134H101V0Z" fill="white"/>
<path d="M23.3647 20.9368C23.3647 21.1267 23.1478 21.2895 22.8765 21.2895C22.6051 21.2895 22.415 21.1267 22.415 20.9368C22.415 20.7468 22.6322 20.584 22.8765 20.584C23.1478 20.6111 23.3647 20.7468 23.3647 20.9368Z" fill="#EFECEC"/>
<path d="M8.41235 19.2816V27.9651H17.096C17.096 29.4033 18.5341 30.8686 19.9994 30.8686V39.5521H28.6831V30.8686C30.1213 30.8686 31.5594 29.4305 31.5594 27.9651H40.2431V19.2816H31.5594C31.5594 17.8434 30.1213 16.4052 28.6831 16.4052V7.72168H19.9994V16.4052C18.5612 16.4052 17.096 17.8434 17.096 19.2816H8.41235Z" fill="#D30038"/>
<path d="M8.71118 19.58V27.6665H17.3945C17.3945 29.1047 18.8326 30.57 20.2979 30.57V39.2536H28.3847V30.57C29.8229 30.57 31.261 29.1318 31.261 27.6665H39.9443V19.58H31.261C31.261 18.1418 29.8229 16.6764 28.3847 16.6764V7.99292H20.2979V16.6764C18.8597 16.6764 17.3945 18.1147 17.3945 19.58H8.71118Z" fill="#BD0034"/>
<path d="M8.98218 19.8784V27.395H17.6655C17.6655 28.8332 19.1039 30.2986 20.5693 30.2986V38.9821H28.0856V30.2986C29.5238 30.2986 30.9622 28.8604 30.9622 27.395H39.6456V19.8784H30.9622C30.9622 18.4402 29.5238 16.9748 28.0856 16.9748V8.29138H20.5693V16.9748C19.1311 16.9748 17.6655 18.4131 17.6655 19.8784H8.98218Z" fill="#91857C"/>
<path d="M9.28101 20.15V27.0968H17.9644C17.9644 28.535 19.4028 30.0004 20.8681 30.0004V38.6838H27.8147V30.0004C29.2529 30.0004 30.6913 28.5621 30.6913 27.0968H39.3747V20.15H30.6913C30.6913 18.7118 29.2529 17.2464 27.8147 17.2464V8.56299H20.8681V17.2464C19.4299 17.2464 17.9644 18.6847 17.9644 20.15H9.28101Z" fill="#CACACA"/>
<path d="M20.9219 16.5408C21.4375 17.0564 21.0302 18.2775 19.999 19.3087C18.995 20.3127 17.7467 20.7469 17.2311 20.2313C16.7155 19.7157 17.1499 18.4946 18.154 17.4635C19.1851 16.4595 20.4063 16.0523 20.9219 16.5408Z" fill="#CECECE"/>
<path d="M20.2982 17.165C20.8138 17.6806 20.6781 18.6304 19.9997 19.3088C19.3213 19.9872 18.3718 20.1228 17.8562 19.6072C17.3406 19.0916 17.4763 18.1419 18.1547 17.4635C18.8331 16.7851 19.8097 16.6494 20.2982 17.165Z" fill="#91857C"/>
<path d="M17.7471 18.7117L17.964 18.4946L18.7782 18.9017L18.3711 18.0875L18.5609 17.8705L19.3752 19.5257L17.7471 18.7117Z" fill="#CECECE"/>
<path d="M18.9688 17.4635L19.186 17.2736L20.407 18.4946L20.1901 18.7118L18.9688 17.4635Z" fill="#CECECE"/>
<path d="M31.3967 20.2311C30.8811 20.7467 29.66 20.3397 28.6288 19.3085C27.5976 18.2773 27.1907 17.0562 27.7063 16.5406C28.2218 16.025 29.4427 16.4321 30.4738 17.4633C31.505 18.4944 31.9123 19.7155 31.3967 20.2311Z" fill="#CECECE"/>
<path d="M30.7723 19.6072C30.2567 20.1228 29.3072 19.9872 28.6288 19.3088C27.9504 18.6304 27.8147 17.6806 28.3303 17.165C28.8459 16.6494 29.7954 16.7851 30.4738 17.4635C31.1522 18.1419 31.2879 19.1188 30.7723 19.6072Z" fill="#91857C"/>
<path d="M29.2527 17.0563L29.4425 17.2734L29.0357 18.0875L29.8496 17.6804L30.0669 17.8704L28.4385 18.7116L29.2527 17.0563Z" fill="#CECECE"/>
<path d="M30.4742 18.2776L30.6915 18.4946L29.443 19.7158L29.2532 19.5258L30.4742 18.2776Z" fill="#CECECE"/>
<path d="M27.7063 30.7058C27.1907 30.1902 27.5976 28.9691 28.6288 27.9379C29.6328 26.9068 30.8811 26.4997 31.3967 27.0153C31.9123 27.5309 31.4779 28.752 30.4738 29.7832C29.4698 30.8143 28.2218 31.2214 27.7063 30.7058Z" fill="#CECECE"/>
<path d="M28.3303 30.1088C27.8147 29.5932 27.9504 28.6435 28.6288 27.9651C29.3072 27.2867 30.2567 27.151 30.7723 27.6666C31.2879 28.1822 31.1522 29.132 30.4738 29.8104C29.7954 30.4616 28.8459 30.5973 28.3303 30.1088Z" fill="#91857C"/>
<path d="M30.8813 28.5621L30.6915 28.7791L29.8501 28.3721L30.2844 29.1861L30.0674 29.3761L29.2532 27.7479L30.8813 28.5621Z" fill="#CECECE"/>
<path d="M28.3988 28.4266L28.1892 28.639L29.4254 29.8589L29.635 29.6464L28.3988 28.4266Z" fill="#CECECE"/>
<path d="M17.2311 27.0425C17.7467 26.527 18.9679 26.934 19.999 27.9652C21.003 28.9692 21.4375 30.2174 20.9219 30.733C20.4063 31.2486 19.1851 30.8415 18.154 29.8104C17.1499 28.7792 16.7155 27.531 17.2311 27.0425Z" fill="#CECECE"/>
<path d="M17.8562 27.6395C18.3718 27.1239 19.3213 27.2596 19.9997 27.938C20.6781 28.6164 20.8138 29.5662 20.2982 30.0817C19.7826 30.5973 18.8331 30.4616 18.1547 29.7832C17.4763 29.1048 17.3406 28.1551 17.8562 27.6395Z" fill="#91857C"/>
<path d="M19.3755 30.1902L19.1857 30.0003L19.5925 29.1862L18.7786 29.5933L18.5613 29.3762L20.1897 28.5621L19.3755 30.1902Z" fill="#CECECE"/>
<path d="M18.1545 28.9692L17.9644 28.7792L19.1857 27.531L19.3755 27.7481L18.1545 28.9692Z" fill="#CECECE"/>
<path d="M24.3144 29.756C20.9495 29.756 18.1816 27.0152 18.1816 23.6232C18.1816 20.2312 20.9224 17.4905 24.3144 17.4905C25.9425 17.4905 27.4892 18.1418 28.6561 19.2815C29.8229 20.4483 30.4468 21.9679 30.4468 23.6232C30.4468 25.2514 29.8229 26.7981 28.6561 27.965C27.4892 29.1318 25.9425 29.756 24.3144 29.756ZM24.3144 17.599C21.0038 17.599 18.29 20.3126 18.29 23.6232C18.29 26.9338 21.0038 29.6474 24.3144 29.6474C25.9154 29.6474 27.4349 29.0233 28.5746 27.8836C29.7143 26.7439 30.3385 25.2242 30.3385 23.6232C30.3385 22.0222 29.7143 20.5026 28.5746 19.3629C27.4349 18.2232 25.9154 17.599 24.3144 17.599Z" fill="#91857C"/>
<path d="M24.3146 28.3179C21.7367 28.3179 19.647 26.2284 19.647 23.6505C19.647 21.0726 21.7367 18.9832 24.3146 18.9832C26.8925 18.9832 28.9819 21.0726 28.9819 23.6505C28.9819 26.2284 26.8925 28.3179 24.3146 28.3179ZM24.3146 19.0646C21.791 19.0646 19.7285 21.1269 19.7285 23.6505C19.7285 26.1742 21.791 28.2365 24.3146 28.2365C26.8382 28.2365 28.9004 26.1742 28.9004 23.6505C28.9004 21.1269 26.8382 19.0646 24.3146 19.0646Z" fill="#91857C"/>
<path d="M22.3063 28.5347C22.3063 28.6432 22.2522 28.7246 22.1708 28.7789C22.0894 28.8332 21.9538 28.8332 21.8724 28.7789C21.791 28.7246 21.7366 28.6432 21.7366 28.5347C21.7366 28.4261 21.791 28.3447 21.8724 28.2905C21.9538 28.2362 22.0623 28.2362 22.1708 28.2905C22.2251 28.3447 22.3063 28.4533 22.3063 28.5347Z" fill="black"/>
<path d="M26.9194 28.5347C26.9194 28.6432 26.865 28.7246 26.7835 28.7789C26.7021 28.8332 26.5936 28.8332 26.4851 28.7789C26.3765 28.7246 26.3496 28.6432 26.3496 28.5347C26.3496 28.4261 26.4037 28.3447 26.4851 28.2905C26.5665 28.2362 26.675 28.2362 26.7835 28.2905C26.865 28.3447 26.9194 28.4533 26.9194 28.5347Z" fill="black"/>
<path d="M24.1239 28.5349V28.8334H23.7439C23.364 28.8334 23.364 29.1319 23.7439 29.1319H24.1239V29.4304C24.1239 29.756 24.4495 29.7831 24.4766 29.4575L24.5038 29.1319H24.8837C25.2636 29.1319 25.2636 28.8334 24.8837 28.8334H24.5038V28.5349C24.5038 28.2364 24.1239 28.2364 24.1239 28.5349Z" fill="black"/>
<path d="M27.6248 24.5188C27.7334 24.4916 27.8961 24.5188 27.8961 24.5188C27.8961 24.5188 27.9232 24.6002 27.8689 24.6273C27.9232 24.6545 28.0859 24.6545 28.0859 24.6545C28.0859 24.6545 28.0047 24.7088 27.9776 24.7359C28.0319 24.7359 28.1131 24.8173 28.1131 24.8173C28.1131 24.8173 27.9775 24.8444 27.8961 24.8173C27.9232 24.8987 27.9233 24.953 27.9233 24.953C27.9233 24.953 27.6791 24.8987 27.5977 24.7359L27.6248 24.5188Z" fill="#91857C"/>
<path d="M27.2178 24.3833C27.1636 24.519 26.7292 24.2477 26.7292 24.2477C26.7292 24.2477 26.9193 24.5462 27.1907 24.5733L27.2178 24.3833Z" fill="#91857C"/>
<path d="M21.9532 27.0966H26.8921L27.272 26.771L26.648 26.4453L25.6711 26.1196L25.264 25.9026L24.5584 25.9298L23.9344 26.2554L23.1202 26.3639L22.9032 26.581L22.306 26.6352L21.3291 26.6081L22.9304 26.8524L21.6276 26.798L21.9532 27.0966Z" fill="#91857C"/>
<path d="M26.8921 27.1239H21.9532L21.6007 26.8254L22.9575 26.8525L21.3291 26.6354L22.9304 26.554L23.093 26.3369L23.9344 26.2284L24.5313 25.9028L25.264 25.8485L25.6711 26.0656L27.272 26.744L26.8921 27.1239ZM21.6276 26.8254L21.9803 27.0696H26.8921L27.272 26.7711L25.264 25.9299L24.5584 25.9842L23.9615 26.3098L23.1202 26.4183L22.9304 26.6354L22.306 26.6897L21.3291 26.6626L22.9575 26.8797L21.6276 26.8254Z" fill="black"/>
<path d="M24.6128 25.6586C23.9887 25.3329 23.7987 26.147 23.5544 26.337C23.9072 26.3912 24.1785 26.0656 24.5041 25.9028C24.7484 26.5269 25.101 26.1198 25.101 26.1198C25.101 26.1198 25.4812 26.7169 25.9967 26.4455C26.1324 26.5541 26.2952 26.4455 26.2952 26.4455C26.2952 26.4455 26.485 26.4726 26.5122 26.3912C26.5936 26.4184 26.7291 26.3098 26.7291 26.3098C26.7291 26.3098 26.9465 26.3099 26.9736 26.2013C27.2992 26.2556 27.7063 25.55 27.7063 25.55L27.8418 25.3058L28.0319 25.2786C28.0319 25.2786 28.059 25.1702 27.9505 25.1702C27.9505 25.0887 27.896 25.0616 27.7875 25.0616C27.8146 25.0073 27.7332 24.9802 27.7332 24.9802C27.5432 25.0345 27.5433 25.4686 27.5433 25.4686C27.5433 25.4686 27.2448 25.7129 27.1362 25.7671C27.1362 25.5229 26.7021 25.1702 26.7835 25.0073C26.8649 24.8445 27.1361 25.2515 27.3804 25.1972C27.6246 25.1158 27.7332 24.8174 27.7603 24.5732C27.6789 24.4103 27.5162 24.139 27.5162 24.139H27.3535L27.2177 23.8134C27.2177 23.8134 26.9464 24.0033 26.9464 24.1661C26.9464 24.329 27.2449 24.4646 27.2449 24.4646C27.2449 24.4646 27.0821 24.5731 26.9193 24.5188C26.9193 24.6816 27.1092 24.6546 27.1906 24.6546C27.2177 24.7631 27.3535 24.8445 27.3535 24.8445C27.3535 24.8445 27.4348 25.0345 27.2449 25.0073C27.0549 24.9802 26.8379 24.546 26.5665 24.763C26.2951 24.9801 26.702 25.36 26.702 25.36C26.702 25.36 26.458 25.4958 26.2952 25.8214C25.6439 25.2787 25.2912 25.5229 24.6128 25.6586Z" fill="#91857C"/>
<path d="M25.7252 26.554C25.3725 26.554 25.1283 26.2013 25.074 26.147C25.074 26.2013 24.6399 26.3912 24.4499 25.9299C24.3957 25.9842 24.3143 26.0656 24.2058 26.1198C24.0158 26.2555 23.826 26.3912 23.6089 26.3912C23.6089 26.3912 23.6089 26.3913 23.6089 26.3641C23.8531 26.3098 24.0158 26.2013 24.1786 26.0656C24.26 26.0113 24.3685 25.9299 24.4499 25.8756C24.6942 26.3641 25.0468 26.0927 25.0468 26.0927C25.1011 26.0927 25.5084 26.6626 25.9425 26.4184H26.241L26.4851 26.3641C26.6751 26.2556 26.8651 26.2556 26.8922 26.1742C27.245 26.1742 27.625 25.5229 27.625 25.5229L27.7604 25.2786H27.7064L27.6793 25.0344C27.5436 25.0073 27.4891 25.3329 27.4891 25.4414C27.4891 25.4686 27.1634 25.6857 27.0549 25.7671C27.0277 25.6314 26.9193 25.4957 26.8379 25.36C26.7294 25.1972 26.621 25.0616 26.6753 24.9802L26.9466 25.0344C27.028 25.0887 27.1365 25.1701 27.245 25.1701C27.5164 25.0887 27.6521 24.7902 27.6521 24.546C27.5978 24.4103 27.4891 24.2204 27.4348 24.139C27.5434 24.2204 27.6522 24.4103 27.7064 24.5188C27.7064 24.7902 27.5707 25.1158 27.3265 25.1972C27.1365 25.1972 27.028 25.143 26.9466 25.0616C26.7023 25.0616 26.7837 25.1973 26.8922 25.3329C27.0008 25.4686 27.082 25.6043 27.082 25.74C27.1634 25.6586 27.462 25.4414 27.462 25.4414C27.462 25.4143 27.4622 24.9801 27.6521 24.953L27.8419 25.143L27.6521 25.5772C27.625 25.6043 27.245 26.2284 26.9466 26.2284C26.8923 26.3369 26.6752 26.337 26.6481 26.337L26.2953 26.4726L25.9154 26.4184V26.4455C25.9154 26.5269 25.8066 26.554 25.7252 26.554ZM23.636 26.3098C23.636 26.2284 23.6901 26.147 23.7444 26.0656C23.9343 25.7671 24.2059 25.4415 24.6129 25.6586L24.9385 25.5772C25.4541 25.4415 25.8068 25.4143 26.2682 25.7942C26.3767 25.4686 26.5938 25.3329 26.6209 25.3329C26.5938 25.3329 26.3765 25.1159 26.3765 24.9259L26.6481 24.6816C26.7838 24.6816 26.8923 24.7631 26.9737 24.8445C27.0551 24.8988 27.1093 24.953 27.1907 24.9802C27.2992 24.8716 27.1635 24.7902 27.1364 24.6816L27.3265 24.8445L27.1907 25.0344C27.1093 25.0344 27.028 24.953 26.9466 24.8988C26.838 24.8174 26.7566 24.7359 26.6481 24.7359L26.4308 24.953C26.4308 25.143 26.6481 25.36 26.6481 25.36C26.6481 25.4143 26.4038 25.5229 26.241 25.8485C25.7525 25.4958 25.427 25.5229 24.9385 25.6314L24.5857 25.7128C24.1244 25.4957 23.9343 25.8214 23.7715 26.0927C23.7444 26.1742 23.6903 26.2555 23.636 26.3098ZM27.0549 24.5188L27.2178 24.4374C27.1636 24.4103 26.9194 24.2746 26.9194 24.1118C26.9194 23.9218 27.1907 23.7319 27.2178 23.7319L27.2722 23.8404L27.2178 23.759C27.1636 23.8133 26.9737 23.9761 26.9737 24.1118C26.9737 24.2203 27.1908 24.356 27.2722 24.3832C27.2722 24.3832 27.2721 24.4103 27.245 24.4103V24.4374C27.1907 24.4917 27.1363 24.5188 27.0549 24.5188Z" fill="black"/>
<path d="M23.7172 24.7903C23.9614 25.0345 23.7987 25.4416 23.8801 25.4958C23.9887 25.5773 24.1243 25.4687 24.1243 25.4687C24.3956 25.5501 24.857 25.3873 24.857 25.3873C25.0741 25.4958 24.9926 25.333 25.1011 25.333C25.2097 25.6315 25.5897 25.5772 25.5897 25.5772C25.5897 25.5772 25.2368 25.2244 25.0468 25.1159C24.884 25.2244 24.3958 25.2245 24.3144 25.2245C24.233 25.1973 24.2872 25.0888 24.2329 25.0345C24.3957 24.8717 24.26 24.4375 24.1786 24.2747C23.8258 24.0305 23.3644 24.4647 23.7172 24.7903Z" fill="#91857C"/>
<path d="M25.5628 25.6041C25.4271 25.6041 25.2099 25.5769 25.1285 25.3598C24.8843 25.4141 24.586 25.5227 24.3146 25.5227L23.9619 25.5769L23.8261 25.3327C23.8261 25.1699 23.8259 24.98 23.6902 24.8443C23.5546 24.7357 23.5277 24.5729 23.5819 24.4643C23.6633 24.2473 23.9889 24.1387 24.2332 24.3015C24.3417 24.4915 24.4774 24.9257 24.2875 25.0885C24.6131 25.2513 24.9385 25.2242 25.047 25.1427C25.2913 25.2513 25.6171 25.577 25.6443 25.6041H25.5628ZM25.1557 25.3327C25.2642 25.5498 25.4814 25.5769 25.59 25.5769V25.6041L25.6443 25.5769C25.59 25.5769 25.2913 25.2513 25.1014 25.1699C24.9928 25.2513 24.6401 25.2784 24.4773 25.2784L24.2875 25.0342C24.4503 24.8714 24.3146 24.4644 24.2332 24.3015C24.0432 24.193 23.7445 24.2472 23.6631 24.4372C23.6088 24.5457 23.6632 24.6814 23.7717 24.79C23.9345 24.9528 23.9347 25.1699 23.9347 25.3056L24.0159 25.5227L24.1788 25.4412C24.613 25.4412 24.9116 25.3598 24.9387 25.3598L25.1557 25.3327Z" fill="black"/>
<path d="M22.0349 24.0846C21.7092 24.1661 21.1667 23.6776 20.8954 23.8676C20.624 24.0575 20.7597 24.5188 20.9225 24.763C21.0853 24.9801 20.6783 25.0887 20.5697 25.2244C20.4612 25.3601 20.5966 25.4958 20.5966 25.4958L20.7052 25.5772L20.6781 25.74L20.7324 25.957C20.7324 25.957 20.7867 26.0114 20.8139 25.9299C20.8681 25.9842 20.8137 26.147 20.9493 26.147C20.8951 26.0385 20.9765 25.7671 20.9765 25.7671C20.9765 25.7671 21.2207 25.7943 21.275 25.6857C21.3292 25.5772 21.221 25.36 21.221 25.36H21.275C21.1936 25.3058 21.1666 25.143 21.1666 25.143C21.1666 25.143 21.4923 25.0344 21.4923 24.7902C21.4923 24.546 20.9767 24.3018 21.1666 24.1661C21.3837 24.0305 21.7364 24.5189 22.062 24.3018C22.3605 24.0576 22.1707 24.3018 22.1707 24.3018C22.1707 24.3018 22.3605 24.0032 22.0349 24.0846Z" fill="#91857C"/>
<path d="M21.0311 26.1742H20.9767L20.7054 25.74V25.6858V25.74H20.7326L20.9496 26.0928C20.9496 25.9842 21.0039 25.7942 21.0039 25.7942C21.1939 25.7671 21.2752 25.74 21.3024 25.7128C21.3566 25.6314 21.2755 25.4687 21.2484 25.4144L21.2212 25.1702C21.2212 25.1702 21.5197 25.0616 21.5197 24.8445C21.5197 24.736 21.4109 24.6274 21.3024 24.5188C21.1938 24.4103 21.1397 24.3289 21.1397 24.2746C21.194 24.2475 21.2481 24.2204 21.2752 24.2204C21.1667 24.3289 21.2481 24.4104 21.3295 24.4918C21.4381 24.6003 21.5468 24.7089 21.5468 24.8445C21.5468 25.1159 21.2212 25.1973 21.2212 25.2244C21.2755 25.4144 21.3838 25.6315 21.3295 25.74C21.2752 25.8214 21.1396 25.8486 21.0582 25.8486C21.0311 25.9028 20.9768 26.1199 21.0039 26.1742H21.0311ZM20.6511 25.5229L20.5968 25.4958C20.5425 25.4415 20.4614 25.3058 20.5428 25.1702C20.8142 24.9802 20.9224 24.926 20.9496 24.8445C20.8139 24.6003 20.7597 24.4104 20.7326 24.2476C20.7055 24.0576 20.7599 23.8948 20.8956 23.7862C21.1941 23.7319 21.3568 23.8133 21.5197 23.8676C21.6825 23.949 21.8451 24.0033 21.9808 24.0033L22.2524 24.0304L22.1981 24.1662L21.9808 24.0576C21.8451 24.0576 21.6825 23.9761 21.5197 23.9219C21.3568 23.8676 21.1939 23.7862 21.0854 23.7862C20.814 23.9219 20.8141 24.1118 20.8141 24.2204C20.8412 24.3832 20.8953 24.546 20.9767 24.6817C21.0039 24.9259 20.8955 24.9802 20.7869 25.0344C20.5427 25.2515 20.6511 25.3872 20.6511 25.3872V25.5229Z" fill="black"/>
<path d="M23.6901 20.6654C23.256 20.4754 22.3879 20.4754 21.8994 20.2312C21.6823 20.2312 21.5738 20.4211 21.5738 20.4754C21.3567 20.4754 21.1939 20.8282 21.221 20.8824C20.814 20.7196 20.6239 21.3709 20.7596 21.5066C20.4068 21.5066 20.4611 21.9679 20.434 22.0764C20.3254 22.3478 20.461 22.4292 20.6781 22.3478C20.7052 22.4563 20.6512 22.5377 20.5698 22.5649C21.1668 23.2432 21.5193 22.1307 22.0349 22.1578C22.6862 21.9679 22.9578 21.6422 22.9578 21.6422L23.229 21.6694L23.6901 20.6654Z" fill="#91857C"/>
<path d="M20.9489 22.8091C20.8132 22.8091 20.6778 22.7277 20.5421 22.5649L20.3791 22.3478C20.352 22.2935 20.352 22.185 20.4063 22.0764C20.4334 21.8051 20.4606 21.5066 20.7591 21.4794C20.6777 21.4523 20.6777 21.2895 20.7319 21.1267C20.8133 20.9367 20.9219 20.8282 21.0847 20.8554C21.1661 20.8554 21.1934 20.7468 21.2477 20.6654C21.3019 20.584 21.3833 20.4754 21.519 20.4754C21.519 20.4211 21.6275 20.2312 21.8446 20.2312C22.1159 20.3669 22.4958 20.4211 22.8486 20.4754C23.1471 20.5297 23.4457 20.584 23.6357 20.6382L23.1742 21.6694L22.9029 21.6422C22.9029 21.6422 22.6585 21.9679 21.9801 22.1578C21.763 22.1578 21.6003 22.3206 21.4375 22.4834C21.3289 22.6463 21.166 22.8091 20.9489 22.8091ZM20.4606 22.3206L20.7048 22.3478L20.5693 22.592C20.922 22.8634 21.1933 22.7277 21.4646 22.4564C21.6275 22.2936 21.8173 22.1307 22.0344 22.1307C22.6857 21.9408 22.9301 21.6152 22.9301 21.6152L23.2014 21.6422L23.6357 20.6654C23.4728 20.6111 23.1743 20.5839 22.8758 20.5297C22.4959 20.4754 22.1159 20.394 21.8446 20.2854C21.6546 20.3126 21.5733 20.4482 21.5733 20.5297C21.4105 20.5568 21.3288 20.6654 21.3017 20.7196L21.3288 20.774L21.1934 20.9638C20.9491 20.9367 20.8405 21.0453 20.7591 21.181C20.7048 21.3167 20.7048 21.4795 20.7319 21.5338C20.4606 21.588 20.4334 21.8594 20.4063 22.0222L20.4606 22.3206Z" fill="black"/>
<path d="M24.857 20.177C24.857 20.5298 24.5857 20.8011 24.233 20.8011C23.8802 20.8011 23.6089 20.5298 23.6089 20.177C23.6089 19.8243 23.8802 19.5529 24.233 19.5529C24.5857 19.5257 24.857 19.8243 24.857 20.177Z" fill="#91857C"/>
<path d="M24.2328 20.8282C23.88 20.8282 23.5815 20.5298 23.5815 20.177C23.5815 19.4443 24.884 19.4443 24.884 20.177C24.884 20.5298 24.6127 20.8282 24.2328 20.8282ZM24.2328 19.5529C23.9071 19.5529 23.6359 19.8242 23.6359 20.1499C23.6359 20.8282 24.8569 20.8282 24.8569 20.1499C24.8569 19.8242 24.5855 19.5529 24.2328 19.5529Z" fill="black"/>
<path d="M23.1202 25.143C22.7403 25.0616 22.089 24.6546 22.0076 24.139C22.3603 22.7008 24.2599 23.4606 24.4227 22.3752C24.3684 21.6696 24.5043 20.964 24.9113 20.3671C25.1012 20.1228 25.3184 20.0686 25.3184 20.0686C25.3184 20.0686 25.3726 20.2314 25.2912 20.3128C25.6169 20.2857 26.0239 20.4485 26.3224 20.4756C26.4038 20.6384 26.4035 20.7199 26.3764 20.8284C26.3493 20.9369 26.2409 20.9098 26.2409 20.9098C26.1595 20.9912 26.0781 21.0455 25.861 21.0184C25.6982 21.1269 25.3724 21.154 25.3724 21.154C25.3724 21.154 26.051 21.8596 25.9425 22.1038C26.0782 22.1581 26.2953 22.4837 26.2953 22.4837C26.2953 22.4837 26.7565 22.2395 26.9193 22.0224C27.1907 22.0224 27.6248 22.2937 27.8419 22.348C28.1132 22.5651 28.3848 22.7822 28.3848 22.7822C28.3848 22.7822 28.059 22.9993 27.9233 22.7008C27.7605 22.7008 27.3806 22.3209 26.8922 22.4294C26.8922 22.8636 26.3764 23.1892 26.3764 23.1892C26.3764 23.1892 26.8377 23.1349 27.082 23.2706C27.3533 23.4877 27.7332 23.7862 27.7332 23.7862L28.086 24.3832C28.086 24.3832 27.7606 24.4375 27.6521 24.0304C27.5435 24.3561 27.5433 23.8405 27.0548 23.5692C26.9191 23.5963 26.8377 23.5962 26.7292 23.5148C26.4036 23.5962 25.9967 23.8133 25.5354 23.759C25.2097 23.8676 24.9656 24.139 24.6128 24.3018C24.2601 24.4646 24.1786 24.3832 24.1786 24.3832H23.9073C23.8801 24.546 23.88 24.7903 23.7443 24.8446C23.8529 24.9531 23.6901 25.3872 23.5002 25.4686C23.5816 25.74 23.7985 25.8214 24.0428 25.9842C24.0428 25.9842 24.2599 25.8757 24.3955 26.0114C24.5312 26.1471 24.6668 26.4998 24.6668 26.4998C24.6668 26.4998 24.3686 26.5269 24.2872 26.4726C24.2058 26.4455 24.1785 26.337 24.0699 26.3642C23.4187 25.7672 23.0658 26.0113 22.9844 25.8756C22.9844 25.7128 23.2016 25.3601 23.1202 25.143Z" fill="#91857C"/>
<path d="M24.5314 26.4998L24.3144 26.4726C23.6631 25.9571 23.3645 25.9571 23.2017 25.93C23.1474 25.9028 23.1202 25.8757 23.0931 25.8486C23.3916 25.9028 23.6901 25.9299 24.1243 26.3098L24.5314 26.4998L24.694 26.4456C24.6669 26.4456 24.5584 26.2284 24.477 26.0656C24.6398 26.2556 24.7212 26.4456 24.7212 26.4456L24.5314 26.4998ZM24.3955 26.0114L24.0699 25.9842C23.7714 25.8214 23.5816 25.7128 23.5002 25.4686C23.6087 25.3872 23.7172 25.1973 23.7443 25.0344C23.7443 25.0344 23.7443 25.0345 23.7443 25.0074C23.7172 25.2516 23.6087 25.4415 23.5273 25.4686C23.6087 25.6586 23.7717 25.7671 23.9616 25.8756L24.2329 25.9028C24.2872 25.9299 24.3413 25.9571 24.3955 26.0114ZM23.0659 25.7942C23.0116 25.7128 23.0388 25.6314 23.0659 25.55C23.093 25.4144 23.1474 25.2516 23.1202 25.143C22.7132 25.0887 22.089 24.6546 22.0076 24.139C22.1975 23.3521 22.8488 23.2163 23.4187 23.0807C23.9071 22.9721 24.3413 22.8636 24.4227 22.3752C24.3684 21.5882 24.5314 20.9098 24.9113 20.3671C25.1012 20.1228 25.3452 20.0686 25.3452 20.0686C25.3724 20.0957 25.3996 20.15 25.3996 20.2314L25.3724 20.0958V20.1228C25.3724 20.1228 25.1284 20.1771 24.9656 20.3942C24.6129 20.9369 24.4499 21.6154 24.5042 22.3752C24.4228 22.8908 23.9615 22.9993 23.473 23.135C22.9303 23.2707 22.3062 23.4063 22.1162 24.1662C22.1705 24.6546 22.7947 25.0616 23.2017 25.143C23.256 25.2787 23.2017 25.4415 23.1746 25.6044C23.0932 25.6586 23.0388 25.74 23.0659 25.7942ZM24.2872 24.4104H24.0971L24.2057 24.356C24.3686 24.3832 24.4501 24.356 24.64 24.2746C24.8028 24.2204 24.9111 24.1118 25.0468 24.0304C25.2096 23.9219 25.3726 23.8134 25.5625 23.732C26.0238 23.732 26.2951 23.6506 26.5122 23.5692L26.7564 23.4878L27.1091 23.5692C27.2991 23.6777 27.4077 23.8133 27.4891 23.9219C27.3534 23.8133 27.2448 23.7048 27.082 23.5962L26.7564 23.5148V23.542L26.5122 23.6234C26.268 23.7048 25.9965 23.7862 25.698 23.7862C25.3724 23.8405 25.2096 23.949 25.0468 24.0576C24.9111 24.1661 24.7757 24.2476 24.6128 24.329C24.5043 24.3561 24.3686 24.4104 24.2872 24.4104ZM28.032 24.3832C27.9235 24.3832 27.8146 24.3561 27.7332 24.2204C27.896 24.3561 28.0046 24.3832 28.086 24.3832L27.7604 23.8405C27.7604 23.8405 27.3805 23.542 27.1363 23.3249C27.0006 23.2435 26.8109 23.2164 26.6752 23.2164C26.6481 23.2164 26.648 23.2164 26.6209 23.2164C26.8651 23.1892 27.0549 23.2164 27.1635 23.2978C27.4348 23.5149 27.8147 23.8134 27.8147 23.8134L28.1675 24.4104C28.0861 24.3832 28.0591 24.3832 28.032 24.3832ZM26.5937 23.0807C26.6751 22.945 26.8922 22.7008 26.8922 22.4294C27.3535 22.3751 27.5704 22.4837 27.7332 22.5922L27.9505 22.7008V22.6736L28.1675 22.8094L27.8419 22.348C27.7605 22.348 27.6247 22.2666 27.4619 22.2124C27.272 22.131 27.055 22.0495 26.9193 22.0495C26.7837 22.2666 26.3224 22.5108 26.3224 22.5108C26.2953 22.5108 26.0782 22.1852 25.9425 22.131C26.0239 21.9139 25.5623 21.3711 25.3724 21.1812C25.3995 21.1269 25.6982 21.0998 25.861 20.9912C26.1052 21.0184 26.1595 20.9369 26.2409 20.8826C26.3766 20.7198 26.4038 20.6656 26.3224 20.4756C26.241 20.5028 26.0782 20.4485 25.9425 20.4214C25.7525 20.3942 25.5895 20.34 25.4267 20.34C25.6438 20.3128 25.8068 20.3399 25.9696 20.3942C26.1053 20.4214 26.2407 20.4485 26.3764 20.4756C26.485 20.6656 26.485 20.747 26.4579 20.8556C26.2408 21.0184 26.1593 21.0726 26.0236 21.0726C25.7794 21.1812 25.4539 21.2083 25.4539 21.2083C25.5353 21.2354 26.1593 21.8867 26.0508 22.131C26.1865 22.1581 26.3764 22.4565 26.4036 22.4837C26.4036 22.4565 26.838 22.2395 26.9737 22.0224C27.1365 22.0224 27.3535 22.1038 27.5434 22.1852C27.6791 22.2395 27.8148 22.3208 27.9233 22.3208L28.4659 22.755C28.4388 22.8364 28.0862 22.945 27.9777 22.7008C27.9234 22.7279 27.8418 22.6737 27.7332 22.6194C27.5704 22.538 27.3805 22.4294 27.1363 22.4294C27.0006 22.7008 26.7565 22.945 26.5937 23.0807Z" fill="black"/>
<path d="M21.5461 22.5106C21.5733 22.4563 21.8174 22.5648 21.8174 22.5648L22.2517 22.8362L23.1471 23.406L23.4727 23.8674L22.9029 23.6774L22.1159 22.999L21.6816 22.7276C21.6816 22.7276 21.4919 22.5377 21.5461 22.5106Z" fill="#91857C"/>
<path d="M23.5273 23.9217L22.8761 23.7046L21.6547 22.7277C21.5733 22.6463 21.465 22.5106 21.5193 22.4564C21.6549 22.4292 21.8177 22.4835 21.8177 22.5106L23.1745 23.379L23.5273 23.9217ZM21.5736 22.4835L22.9032 23.6504L23.3915 23.8132L23.1202 23.4061L21.5736 22.4835Z" fill="black"/>
<path d="M26.8646 23.9762C26.5661 23.8947 25.7791 24.8174 25.7791 24.8174L26.3491 25.4414C26.3491 25.4414 26.3761 24.3832 26.8646 23.9762Z" fill="#91857C"/>
<path d="M26.3768 25.5228L25.7527 24.8444C25.7798 24.7901 26.4583 23.9489 26.811 23.9489C26.811 23.9489 26.7839 23.9489 26.7839 23.976C26.4311 24.0846 25.7798 24.8444 25.7798 24.8444L26.3228 25.3871C26.3228 25.1971 26.3771 24.5459 26.6755 24.1388C26.4042 24.6273 26.3768 25.4413 26.3768 25.4413V25.5228V25.5228Z" fill="black"/>
<path d="M23.0654 21.3982C22.9026 21.6152 22.8755 22.0494 23.0926 22.2394C23.1197 22.5107 23.3369 23.0263 23.5268 23.0806C23.7168 23.1348 24.5037 23.3248 24.8022 23.2705C24.7479 23.759 25.1278 24.1661 25.4806 24.4103C25.4806 24.4646 25.4806 24.5188 25.5077 24.5731C25.562 24.6274 25.7247 24.6273 25.7518 24.6002C25.8333 24.7087 26.2405 24.763 26.2676 24.7087C26.2947 24.6545 25.6706 24.2203 25.5349 24.0846C25.4263 23.8675 25.182 23.3791 25.1278 22.9992C24.8293 22.6464 24.3139 22.6464 24.3139 22.6464V21.9409L24.3407 21.1268L24.0694 20.9911C24.0694 20.9911 24.1238 20.964 24.1509 20.9369C24.2323 20.964 24.3408 20.8283 24.3679 20.8012C24.4222 20.8283 24.5037 20.8283 24.5037 20.8012C24.5037 20.774 24.5309 20.6384 24.558 20.557C24.7751 20.367 24.5309 19.96 24.2052 19.96C23.8796 19.96 23.7982 20.3398 23.8253 20.367C23.8524 20.5027 23.8524 20.557 23.8253 20.5841C23.7982 20.6113 23.6895 20.6926 23.6895 20.6926C23.6895 20.6926 23.4998 20.6112 23.2827 20.6926C23.0656 20.774 22.8213 20.8826 22.7941 21.0454C22.6856 21.0454 22.5228 21.1811 22.4957 21.2896C22.4143 21.2625 22.3057 21.3439 22.1157 21.6424C21.7901 21.7781 21.7629 22.5107 21.7629 22.5107C21.7629 22.5107 21.6543 22.6464 21.6543 22.7278C21.6543 22.8092 21.6815 22.8635 21.7358 22.8635C21.7358 22.9178 21.7901 22.9449 21.8173 22.9449C21.8173 22.9992 21.8988 23.0263 21.9259 22.9992C21.9259 23.0263 22.0614 23.0263 22.0614 22.9992C22.0885 22.972 22.0614 22.8093 22.0614 22.8093C22.0885 22.8093 22.1972 22.8907 22.2244 22.8635C22.2515 22.8364 22.2244 22.7821 22.1972 22.755C22.1701 22.7278 22.0885 22.7007 22.0614 22.5921C22.0343 22.4836 22.1157 22.3208 22.1157 22.3208C22.1157 22.3208 22.4686 22.0223 22.5228 21.7781C22.8485 21.7238 22.984 21.4796 23.0654 21.3982Z" fill="#91857C"/>
<path d="M26.1868 24.7358C26.0782 24.7358 25.8068 24.6815 25.7525 24.6001C25.8882 24.6544 26.0782 24.7087 26.1868 24.7087V24.7358L26.2683 24.6815C26.2411 24.6544 25.9968 24.4645 25.834 24.3288C25.6983 24.2203 25.5898 24.1388 25.5355 24.0845C25.5084 24.0031 25.2099 23.4333 25.1284 22.972C24.8571 22.6464 24.3417 22.6463 24.3146 22.6463V21.9137L24.3414 21.0996L24.0701 20.9911V20.9639L24.5315 20.4755C24.6129 20.4212 24.6401 20.3126 24.5859 20.2041C24.5316 20.0684 24.3958 19.9056 24.1788 19.9056C24.0702 19.9056 23.9889 19.9327 23.9346 20.0141C23.8261 20.1227 23.7988 20.2855 23.7988 20.2855L23.6362 20.6111L23.2291 20.584V20.6111C23.0391 20.6925 22.7676 20.8011 22.7676 20.9368C22.6591 20.964 22.4963 21.0996 22.4692 21.181C22.3335 21.2082 22.2249 21.3167 22.0892 21.5609C21.7636 21.6966 21.7365 22.4021 21.7365 22.4293L21.7093 22.5378V22.4293H21.6821C21.6821 22.4021 21.7093 21.6966 22.0621 21.5338C22.1978 21.2896 22.3335 21.181 22.442 21.181C22.4692 21.0725 22.6591 20.9368 22.7676 20.9368C22.7676 20.8011 23.012 20.6926 23.2291 20.584L23.6362 20.6111V20.584L23.7716 20.2855C23.7716 20.2584 23.7989 20.0956 23.8803 19.987C23.9617 19.8785 24.0431 19.8513 24.1788 19.8513C24.3958 19.8513 24.5587 20.0142 24.613 20.177C24.6673 20.3127 24.6401 20.4212 24.5315 20.5026L24.4229 20.774C24.3415 20.774 24.233 20.9097 24.1516 20.9097L24.3414 21.0725L24.3146 22.6192C24.3417 22.5921 24.8299 22.6192 25.1284 22.972C25.2099 23.4333 25.4813 24.0032 25.5355 24.0574C25.5898 24.1117 25.6983 24.1931 25.834 24.2745C26.241 24.573 26.2954 24.6544 26.2683 24.6815L26.1868 24.7358ZM24.613 23.2433C24.1788 23.2433 23.6903 23.1348 23.5004 23.0805C23.3104 23.0262 23.0932 22.4836 23.0661 22.2122C22.8761 22.0765 22.8492 21.7509 22.9578 21.5067C22.8764 21.6152 22.7678 21.7237 22.605 21.7237C22.5507 21.9679 22.1979 22.2393 22.1707 22.2393C22.1707 22.2393 22.0893 22.375 22.1164 22.4835L22.2522 22.8092L22.0077 22.9991L21.7365 22.8092L21.9266 22.9449L22.0892 22.7277C22.035 22.4021 22.1164 22.2393 22.1164 22.2393C22.1164 22.2122 22.4692 21.9408 22.5235 21.6966C22.7949 21.6695 22.9303 21.5338 22.9846 21.4252C22.9846 21.4252 22.9849 21.4524 22.9578 21.4524C22.9849 21.4253 22.9846 21.3981 23.0118 21.3709C22.9846 21.4252 22.9849 21.4524 22.9578 21.4795C22.9035 21.6966 22.9033 22.0494 23.0933 22.1851C23.1204 22.4835 23.3647 22.972 23.5004 23.0263C23.6903 23.0805 24.2874 23.2162 24.6402 23.2162V23.2433C24.6673 23.2433 24.6402 23.2433 24.613 23.2433Z" fill="black"/>
<path d="M22.4414 20.3399C22.5228 20.1228 22.8213 20.1499 22.8213 20.1499C22.8213 20.1499 22.9297 19.8514 23.3368 20.0413C23.4996 19.9328 23.8797 20.0956 23.8797 20.0956C23.8797 20.0956 24.0425 19.8785 24.2325 19.9057C24.5852 19.9599 24.6667 20.2856 24.6396 20.3399C24.4496 20.3941 24.0967 20.177 23.8254 20.2313C23.6625 20.3127 23.4182 20.4212 23.3368 20.5297C23.0925 20.584 22.8213 20.3399 22.4414 20.3399Z" fill="#91857C"/>
<path d="M23.3103 20.584C23.2017 20.584 23.0932 20.5298 22.9847 20.5026C22.849 20.4484 22.6863 20.3669 22.4692 20.3669C22.4692 20.3669 22.4692 20.367 22.4692 20.3398C22.6863 20.3127 22.849 20.3669 22.9847 20.4483C23.0932 20.5026 23.2017 20.5297 23.3103 20.5297V20.584L23.3374 20.5297C23.3917 20.4483 23.5545 20.3669 23.6902 20.3127L23.9347 20.2313C24.0432 20.2313 24.1789 20.2584 24.2875 20.2855C24.396 20.3126 24.4773 20.3398 24.5588 20.3398C24.5045 20.0685 24.4231 19.9599 24.2331 19.9327C24.0161 19.9599 23.9075 20.0956 23.9075 20.0956C23.8804 20.0956 23.6632 20.0141 23.5004 20.0141H23.0933C22.9034 20.0141 22.8492 20.177 22.8492 20.177C22.7406 20.2042 22.5506 20.2041 22.4692 20.3398C22.5235 20.1499 22.7406 20.1499 22.7949 20.1499C22.7949 20.1499 22.9847 19.8785 23.3374 20.0413C23.6631 19.987 23.8804 20.0685 23.8804 20.0956C23.8804 20.0685 24.016 19.9056 24.1788 19.9056C24.423 19.9328 24.5316 20.0413 24.5859 20.1499L24.6402 20.3941C24.4503 20.4212 24.3688 20.394 24.2603 20.3669C24.1518 20.3398 24.0161 20.3127 23.9075 20.3127L23.6631 20.3941C23.5274 20.4483 23.3917 20.5297 23.3103 20.6111V20.584Z" fill="black"/>
<path d="M23.2017 20.6926C23.2831 20.6383 23.5271 20.5298 23.6628 20.6655C23.8256 20.8283 24.0699 20.9911 24.0699 20.9911L24.3412 21.0997L24.477 21.1811L24.3955 22.4565C24.1513 22.1851 23.9071 22.158 23.7171 21.8323C23.6086 21.6967 23.6901 21.3711 23.5273 21.1811C23.3374 20.964 23.1746 20.8283 23.2017 20.6926Z" fill="#91857C"/>
<path d="M24.4231 22.5107L24.3959 22.4835C24.2873 22.375 24.1788 22.3207 24.0974 22.2393C23.9618 22.1308 23.826 22.0494 23.7175 21.8594C23.6632 21.8052 23.6632 21.6966 23.6632 21.5881C23.636 21.4524 23.6362 21.2896 23.5277 21.181C23.2835 20.8825 23.1749 20.774 23.2021 20.6655C23.2563 20.6383 23.3649 20.5569 23.5277 20.5569C23.582 20.584 23.636 20.6383 23.6632 20.6655C23.4189 20.6112 23.3106 20.6654 23.2292 20.7197C23.2292 20.774 23.3105 20.8826 23.419 21.0182C23.6633 21.2896 23.6632 21.4524 23.6903 21.5881C23.6903 21.6966 23.7175 21.778 23.7447 21.8323C23.8532 22.0222 23.9889 22.1037 24.1246 22.2122C24.206 22.2665 24.2873 22.3207 24.3959 22.4293L24.4231 22.0222L24.4502 22.4835L24.4231 22.5107Z" fill="black"/>
<path d="M23.8804 21.0724C23.8804 21.0724 24.0159 21.0452 24.0702 21.0724C24.1244 21.0995 24.1788 21.0995 24.1788 21.1538C24.2331 21.1809 24.2603 21.208 24.2603 21.2352C24.3146 21.2352 24.3415 21.3437 24.3415 21.3437L24.2875 21.4251C24.2875 21.4251 24.2332 21.3708 24.2332 21.3166C24.206 21.2894 24.1245 21.2894 24.0973 21.2352C24.0431 21.2352 23.9887 21.208 23.9887 21.1538C23.9344 21.1266 23.8804 21.0724 23.8804 21.0724Z" fill="#91857C"/>
<path d="M25.101 20.2314C25.0196 20.1228 24.8569 20.2042 24.8569 20.2042L24.4769 20.8826L24.3143 21.0183L24.2871 21.5339L24.4226 22.0224L24.3683 22.4022C24.3683 22.4022 24.5584 22.2123 24.5856 22.1038C24.6127 21.9952 24.5041 21.6696 24.5041 21.6696C24.5041 21.6696 24.3956 21.4797 24.5312 21.0997C24.6941 20.7741 25.0196 20.4756 25.101 20.2314Z" fill="#91857C"/>
<path d="M24.3683 22.4837L24.4226 22.0225L24.2871 21.534L24.3143 20.9913L24.5041 20.8556L24.9112 20.1772L25.1825 20.2043C25.1553 20.34 25.0741 20.4485 24.9655 20.6113C24.857 20.7742 24.7213 20.9641 24.6399 21.1541C24.5042 21.5069 24.6127 21.6969 24.6127 21.6969C24.6127 21.724 24.721 22.0225 24.6939 22.131C24.6667 22.2396 24.4769 22.4295 24.4769 22.4295L24.3683 22.4837ZM25.0738 20.2315L24.5041 20.9099L24.3143 21.5611L24.4498 22.0495L24.3954 22.3752C24.4497 22.321 24.5584 22.2124 24.5584 22.1581C24.5855 22.0767 24.5041 21.8325 24.4769 21.7511C24.4769 21.7511 24.3684 21.534 24.5041 21.1813C24.5855 20.9642 24.7212 20.8013 24.8297 20.6385C24.9654 20.4486 25.0467 20.3129 25.0738 20.2315Z" fill="black"/>
<path d="M26.0783 20.8285C26.0783 20.8285 25.4814 21.6968 24.4774 22.0225C24.206 22.0768 24.3147 21.3712 24.3147 21.3712L24.2332 21.3983C24.2332 21.3983 24.0703 22.1039 24.4502 22.1039C25.4542 21.9139 26.2141 20.8557 26.2141 20.8557L26.0783 20.8285Z" fill="#91857C"/>
<path d="M24.4231 22.1038L24.2333 22.0224C24.0976 21.8325 24.179 21.3982 24.179 21.3711C24.2061 21.3982 24.2062 21.4255 24.2333 21.4526C24.2062 21.5883 24.1791 21.8596 24.2876 21.9953L24.4231 22.1038V22.0495C25.1015 21.9138 25.6715 21.3711 25.9429 21.0726C25.7258 21.4254 25.1286 21.9681 24.4231 22.1038ZM24.4774 22.0224C24.4503 21.9953 24.4231 21.9682 24.3959 21.941C25.4542 21.6697 26.0512 20.8013 26.0784 20.8013C26.1055 20.8013 26.1055 20.8556 26.0512 20.937C25.7798 21.2084 25.2372 21.8053 24.4774 22.0224Z" fill="black"/>
<path d="M26.4854 25.8485C26.4854 25.8485 26.4041 25.9299 26.2684 25.8485C26.2141 25.7128 26.024 25.6857 26.024 25.6857C26.024 25.6857 25.9155 25.36 25.7527 25.4685C25.7255 25.3057 25.5357 25.3871 25.5357 25.3871C25.5357 25.3871 25.5358 25.143 25.3187 25.1701C25.4001 24.8987 25.0199 24.9259 25.0199 24.9259C25.0199 24.9259 25.02 24.6273 24.4502 24.6816C25.6442 24.1389 26.594 25.5229 26.594 25.5229L26.4854 25.8485Z" fill="#91857C"/>
<path d="M26.2676 25.8755C26.2134 25.7399 26.0503 25.7127 26.0503 25.7127C26.0232 25.6856 25.9691 25.5228 25.8605 25.4685H25.8334L25.5349 25.3599H25.5077L25.3179 25.1429C25.2365 24.8987 25.0463 24.9258 25.0463 24.9258C24.8564 24.6816 24.6936 24.6544 24.4766 24.6816C25.6705 24.0846 26.6204 25.4685 26.6476 25.4957C26.6747 25.5228 25.9418 24.5731 25.0463 24.5731C24.8835 24.5731 24.6937 24.6001 24.5037 24.6816C24.7208 24.6001 24.8838 24.6545 24.9923 24.7359C25.0737 24.8716 25.2634 24.8715 25.3448 24.9801L25.7519 25.3329C26.0232 25.4414 26.1047 25.6314 26.1047 25.6585C26.1047 25.6585 26.2677 25.6585 26.3491 25.8213L26.5661 25.8485L26.2676 25.8755Z" fill="black"/>
<path d="M27.0547 25.9569C27.0547 25.9569 27.3262 26.2555 27.489 26.2826C27.6247 26.2826 27.652 25.9841 27.652 25.9841C27.652 25.9841 27.706 26.1198 27.7603 26.0926C27.7603 26.2012 27.8418 26.2012 27.8418 26.2012C27.8418 26.2012 27.5976 26.771 26.8921 26.2283L27.0547 25.9569Z" fill="#91857C"/>
<path d="M27.4347 26.4724C27.2719 26.4724 27.0821 26.391 26.865 26.2281C27.1363 26.391 27.3534 26.4453 27.5434 26.4181C27.7333 26.3638 27.8147 26.1739 27.8147 26.1739L27.652 25.9839C27.652 26.0653 27.6247 26.2825 27.4891 26.2825C27.3262 26.2825 27.0819 25.9839 27.0548 25.9568L27.082 25.9297C27.1634 26.0111 27.4348 26.1739 27.4891 26.2281C27.5976 26.2281 27.6249 26.011 27.6249 25.9568L27.6792 25.9839L27.652 25.9568H27.6792C27.6792 25.9568 27.6792 25.9568 27.6792 25.9839L27.8962 26.1739C27.8962 26.1739 27.8148 26.391 27.5706 26.4453C27.5163 26.4724 27.4619 26.4724 27.4347 26.4724Z" fill="black"/>
<path d="M24.8836 26.0927L24.775 26.4997C24.775 26.4997 24.6392 26.6082 24.6935 26.6354C24.7206 26.6625 24.9379 26.6083 24.9379 26.6083C24.9379 26.6083 25.2362 26.5811 25.3447 26.4726C25.399 26.6083 25.562 26.6354 25.562 26.6354C25.562 26.6354 25.562 26.5812 25.562 26.5269C25.6163 26.5269 25.6975 26.5269 25.6975 26.5269C25.6975 26.5269 25.752 26.4184 25.6435 26.3641C25.6435 26.2827 25.6977 26.2012 25.5348 26.2284C25.4263 26.3369 25.1548 26.4726 25.0734 26.4455C24.992 26.3912 25.3449 26.2555 25.2364 26.0656L24.8836 26.0927Z" fill="#91857C"/>
<path d="M24.6938 26.6354L24.884 26.0656H24.9383L24.8297 26.4726C25.0196 26.5268 25.2637 26.4997 25.3451 26.4183L25.5352 26.554L25.6167 26.3369L25.6979 26.4997C25.6436 26.5269 25.5895 26.554 25.5624 26.5811H25.5895H25.5352C25.4267 26.5811 25.3722 26.5269 25.3451 26.4455C25.2908 26.554 24.9926 26.5811 24.9655 26.5811L24.6938 26.6354Z" fill="black"/>
<path d="M18.6702 25.1429L19.0773 25.0343L19.023 24.8444C19.023 24.8173 18.9958 24.763 18.9687 24.763C18.9415 24.7358 18.9146 24.7358 18.8332 24.763V24.7359L19.186 24.6545V24.6815C19.1588 24.6815 19.1316 24.7087 19.1045 24.7087C19.0774 24.7358 19.0773 24.7358 19.0773 24.763C19.0773 24.7901 19.0773 24.8173 19.0773 24.8444L19.1316 25.0343L19.4573 24.9529C19.5115 24.9529 19.5388 24.9258 19.5659 24.9258C19.5931 24.9258 19.5927 24.8987 19.5927 24.8987C19.5927 24.8715 19.5927 24.8444 19.5927 24.8173V24.7901H19.6199L19.7286 25.2243H19.7014V25.1971C19.7014 25.1429 19.6742 25.1157 19.6471 25.1157C19.6199 25.1157 19.593 25.1157 19.5388 25.1157L18.8875 25.2785C18.8332 25.2785 18.806 25.3057 18.7789 25.3057L18.7517 25.3329C18.7517 25.36 18.7517 25.3871 18.7517 25.4143V25.4414H18.7245L18.5347 24.6815L18.7517 24.6273V24.6545C18.6974 24.6816 18.6702 24.7087 18.6702 24.7359C18.6431 24.763 18.6431 24.7901 18.6431 24.8173C18.6431 24.8444 18.6431 24.8987 18.6431 24.9258L18.6702 25.1429ZM18.3989 23.3248C18.3989 23.1891 18.453 23.0806 18.5616 22.9721C18.6701 22.8906 18.8059 22.8363 18.9687 22.8363C19.1315 22.8363 19.2401 22.8906 19.3486 22.9991C19.43 23.1077 19.4844 23.2163 19.4844 23.3791C19.4844 23.5148 19.43 23.6504 19.3215 23.7319C19.2129 23.8133 19.0772 23.8675 18.9143 23.8675C18.7515 23.8675 18.6161 23.7861 18.5076 23.6775C18.4533 23.5961 18.3989 23.4604 18.3989 23.3248ZM18.4533 23.3519C18.4533 23.4333 18.4805 23.5148 18.5347 23.569C18.6161 23.6505 18.7515 23.6776 18.9143 23.7047C19.0772 23.7047 19.2129 23.6776 19.3215 23.6233C19.4029 23.569 19.4301 23.4876 19.4301 23.4062C19.4301 23.2976 19.4029 23.2162 19.3215 23.1619C19.24 23.1077 19.1315 23.0535 18.9687 23.0535C18.7787 23.0535 18.643 23.0806 18.5616 23.1349C18.5073 23.1891 18.4804 23.2434 18.4533 23.3519ZM19.9727 21.4524L19.8644 21.6967L19.2943 21.8595C19.2943 21.8866 19.2671 21.9137 19.2671 21.9137C19.2671 21.9137 19.2671 21.9137 19.2671 21.9409C19.2671 21.9409 19.2671 21.9408 19.2671 21.968L19.5388 22.0765C19.593 22.1037 19.6471 22.1037 19.6742 22.1037C19.7014 22.1037 19.7286 22.0766 19.7286 22.0223L19.7557 21.9951H19.7829L19.6199 22.4021H19.5927V22.3751C19.6199 22.3479 19.5927 22.2936 19.5927 22.2665C19.5927 22.2665 19.5387 22.2394 19.4844 22.2123L18.8604 21.968C18.8061 21.9408 18.7517 21.9409 18.7245 21.9409C18.6974 21.9409 18.6702 21.968 18.6702 22.0223L18.6431 22.0494H18.6159L18.7517 21.6967C18.7788 21.5881 18.8332 21.5338 18.8604 21.4795C18.8875 21.4253 18.9416 21.3981 18.9958 21.3981C19.0501 21.371 19.1045 21.371 19.1588 21.3981C19.2131 21.4253 19.2672 21.4524 19.2943 21.5067C19.3214 21.561 19.3215 21.6423 19.3215 21.7237L19.6742 21.6153C19.7556 21.5881 19.8101 21.561 19.8372 21.5339C19.8643 21.5067 19.8912 21.4796 19.9184 21.4253L19.9727 21.4524ZM19.2131 21.9409C19.2403 21.9137 19.24 21.9137 19.24 21.9137C19.2671 21.8323 19.2943 21.7509 19.2671 21.6967C19.24 21.6424 19.2131 21.5881 19.1316 21.5609C19.0774 21.5338 19.0229 21.5338 18.9687 21.5609C18.9144 21.5881 18.8875 21.6153 18.8604 21.6967C18.8604 21.7238 18.8332 21.7509 18.8332 21.8051L19.2131 21.9409ZM21.4381 18.4946L21.6279 18.7659H21.6011C21.5468 18.7117 21.4652 18.6845 21.411 18.6574C21.3296 18.6302 21.2483 18.6574 21.1668 18.7117C21.0583 18.7931 21.0039 18.8745 21.0039 19.0101C21.0039 19.1187 21.0311 19.2273 21.0854 19.3087C21.1396 19.3901 21.2209 19.4444 21.2752 19.4987C21.3566 19.5529 21.4382 19.5801 21.4925 19.5801C21.5739 19.5801 21.628 19.5529 21.6823 19.5257C21.7094 19.4986 21.7366 19.4715 21.7638 19.4443C21.7909 19.4172 21.8181 19.3901 21.8181 19.3629L21.6551 19.1187C21.628 19.0644 21.6011 19.0373 21.6011 19.0373C21.574 19.0373 21.5739 19.0102 21.5468 19.0373C21.5196 19.0373 21.4924 19.0645 21.4653 19.0645L21.4381 19.0373L21.7638 18.8203L21.7909 18.8473H21.7638C21.7366 18.8745 21.7094 18.9016 21.7094 18.9287C21.7094 18.9559 21.7366 18.983 21.7638 19.0373L21.9267 19.3087C21.8996 19.363 21.8724 19.4172 21.8181 19.4715C21.7638 19.5258 21.7365 19.5529 21.6551 19.6071C21.4923 19.7157 21.3297 19.7428 21.1668 19.6885C21.0583 19.6614 20.9498 19.58 20.8956 19.4715C20.8413 19.3901 20.8141 19.3087 20.8141 19.2273C20.8141 19.1187 20.8141 19.0102 20.8684 18.9287C20.9227 18.8473 20.9768 18.7931 21.0582 18.7389C21.0853 18.7117 21.1125 18.7117 21.1397 18.6845C21.1668 18.6845 21.2209 18.6574 21.2752 18.6574C21.3023 18.6574 21.3295 18.6574 21.3295 18.6303C21.3295 18.6303 21.3295 18.6303 21.3295 18.6031C21.4109 18.576 21.411 18.5488 21.4381 18.4946ZM23.1206 18.6303L22.7406 18.7389L22.7134 18.9287C22.7134 18.983 22.7134 19.0101 22.7134 19.0101C22.7134 19.0373 22.7406 19.0373 22.7406 19.0373C22.7677 19.0373 22.795 19.0373 22.8493 19.0373V19.0645L22.5236 19.1459V19.1187C22.5779 19.0916 22.578 19.0916 22.6051 19.0645C22.6323 19.0373 22.632 18.9831 22.6591 18.9017L22.7949 17.979H22.8221L23.3918 18.7117C23.4461 18.766 23.4734 18.8203 23.5005 18.8203C23.5276 18.8203 23.5549 18.8474 23.6091 18.8203V18.8473L23.202 18.9559V18.9287C23.2292 18.9287 23.2564 18.9016 23.2835 18.8745C23.2835 18.8745 23.3107 18.8474 23.2835 18.8203C23.2835 18.7931 23.2563 18.766 23.2292 18.7117L23.1206 18.6303ZM23.0934 18.576L22.8221 18.2233L22.7678 18.6845L23.0934 18.576ZM24.9116 18.576L24.8301 18.8745L24.0159 18.8473V18.8203H24.0702C24.1245 18.8203 24.1517 18.8202 24.1517 18.7931C24.1517 18.766 24.1789 18.7388 24.1789 18.6845L24.2061 18.0061C24.2061 17.9519 24.206 17.8976 24.1789 17.8705C24.1518 17.8434 24.1245 17.8433 24.0974 17.8433H24.0431V17.8162L24.5045 17.8433V17.8705C24.4502 17.8705 24.3959 17.8705 24.3959 17.8705C24.3687 17.8705 24.3687 17.8976 24.3415 17.8976C24.3415 17.9247 24.3147 17.9519 24.3147 18.0061L24.2875 18.6574C24.2875 18.7116 24.2875 18.7389 24.2875 18.7389C24.2875 18.7389 24.2876 18.7659 24.3147 18.7659C24.3418 18.7659 24.3687 18.7659 24.423 18.7659H24.5045C24.5859 18.7659 24.64 18.7659 24.6672 18.7659C24.6943 18.7659 24.7215 18.7388 24.7486 18.7117C24.8572 18.6846 24.8845 18.6302 24.9116 18.576ZM26.2956 18.9287L26.1326 19.173L25.3727 18.9287V18.9017H25.3999C25.4541 18.9017 25.4814 18.9017 25.5085 18.9017C25.5357 18.9017 25.5357 18.8474 25.5628 18.7931L25.7798 18.1419C25.807 18.0876 25.807 18.0333 25.807 18.0333C25.807 18.0062 25.7798 17.979 25.7255 17.979H25.6983V17.9519L26.1326 18.0875V18.1147C26.0783 18.0876 26.0511 18.0875 26.0239 18.0875C25.9968 18.0875 25.97 18.0876 25.97 18.1147C25.9428 18.1147 25.9428 18.169 25.9156 18.2233L25.6983 18.8473C25.6983 18.8745 25.6715 18.9016 25.6715 18.9287C25.6715 18.9287 25.6712 18.9559 25.6983 18.9559C25.6983 18.9559 25.7527 18.983 25.807 19.0101L25.8885 19.0373C25.9699 19.0644 26.024 19.0645 26.0511 19.0645C26.0782 19.0645 26.1055 19.0644 26.1598 19.0373C26.214 19.0373 26.2684 18.983 26.2956 18.9287ZM27.4079 19.5257L27.0823 19.2815L26.9196 19.3901C26.8925 19.4172 26.8653 19.4443 26.8382 19.4443C26.8382 19.4443 26.8382 19.4715 26.8382 19.4987C26.8382 19.5258 26.8653 19.5529 26.8925 19.5801L26.8653 19.6071L26.594 19.4173L26.6212 19.3901C26.6483 19.4172 26.6752 19.4173 26.7023 19.4173C26.7295 19.4173 26.7839 19.39 26.8653 19.3358L27.6524 18.8473L27.6795 18.8745L27.4622 19.7971C27.4351 19.8785 27.4351 19.9057 27.4351 19.9599C27.4351 19.9871 27.4623 20.0142 27.4894 20.0413L27.4622 20.0685L27.1366 19.8243L27.1638 19.7971C27.1909 19.8243 27.2181 19.8243 27.2453 19.8243C27.2724 19.8243 27.2725 19.8243 27.2996 19.7971C27.2996 19.77 27.3268 19.7428 27.3268 19.6885L27.4079 19.5257ZM27.4351 19.4715L27.5437 19.0373L27.1638 19.2815L27.4351 19.4715ZM28.6564 19.6885L28.819 19.9057L28.5749 20.8825L29.0635 20.5298C29.1178 20.5026 29.1446 20.4755 29.1446 20.4484C29.1446 20.4212 29.1446 20.3941 29.1175 20.3669L29.0903 20.3399L29.1175 20.3127L29.3348 20.6112H29.3076L29.2805 20.5841C29.2533 20.5569 29.2261 20.5298 29.199 20.5298C29.1718 20.5298 29.1446 20.5569 29.0903 20.5841L28.3851 21.0997L28.3579 21.0725L28.6292 20.0142L28.1135 20.3941C28.0592 20.4212 28.0323 20.4484 28.0323 20.4755C28.0323 20.5026 28.032 20.5298 28.0591 20.5569L28.0863 20.5841L28.0591 20.6112L27.8422 20.3127L27.8693 20.2855L27.8965 20.3127C27.9236 20.3398 27.9509 20.3669 27.978 20.3669C28.0051 20.3669 28.032 20.3398 28.0863 20.3127L28.6835 19.8785C28.6835 19.8242 28.6835 19.7971 28.6835 19.77C28.6835 19.7428 28.6835 19.7157 28.6835 19.6885C28.6835 19.77 28.6564 19.7428 28.6564 19.6885ZM29.986 22.1037L29.7687 22.1851V22.1579C29.7959 22.1308 29.8231 22.1308 29.8502 22.1037C29.8773 22.0765 29.8774 22.0494 29.9045 22.0223C29.9045 21.9951 29.9045 21.968 29.8774 21.9137L29.823 21.7781L29.0635 22.0494C29.0092 22.0765 28.9548 22.0765 28.9548 22.1037C28.9277 22.1308 28.9277 22.158 28.9548 22.1851V22.2123H28.9277L28.7919 21.8051H28.819L28.8462 21.8323C28.8733 21.8594 28.8734 21.8866 28.9005 21.9137C28.9277 21.9137 28.9549 21.9137 29.0092 21.8866L29.7687 21.6153L29.7147 21.5067C29.7147 21.4524 29.6875 21.4253 29.6604 21.4253C29.6333 21.3982 29.606 21.3981 29.5789 21.371C29.5518 21.371 29.4974 21.371 29.4703 21.371V21.3439L29.7147 21.2625L29.986 22.1037ZM29.1446 23.9489L29.1175 23.6775L29.5789 23.2977C29.5789 23.2705 29.5789 23.2433 29.5789 23.2433C29.5789 23.2433 29.5789 23.2434 29.5789 23.2163C29.5789 23.2163 29.5789 23.2162 29.5789 23.1891L29.2805 23.2163C29.2262 23.2163 29.1718 23.2162 29.1718 23.2433C29.1447 23.2705 29.1446 23.2976 29.1446 23.3248V23.3791H29.1175L29.0903 22.9449H29.1175V22.9721C29.1175 23.0263 29.1447 23.0535 29.1718 23.0535C29.1989 23.0535 29.2262 23.0806 29.2805 23.0535L29.9589 23.0263C30.0131 23.0263 30.0675 23.0263 30.0675 22.9991C30.0946 22.972 30.0943 22.9449 30.0943 22.9177V22.8635H30.1215L30.1487 23.2433C30.1487 23.3519 30.1487 23.4334 30.1487 23.4876C30.1487 23.5419 30.0946 23.5962 30.0675 23.6233C30.0404 23.6504 29.986 23.6775 29.9317 23.6775C29.8774 23.6775 29.7959 23.6776 29.7687 23.6233C29.7144 23.5962 29.6875 23.5147 29.6604 23.4333L29.3619 23.6505C29.3077 23.7047 29.2533 23.759 29.2261 23.7861C29.199 23.8132 29.199 23.8675 29.199 23.9217L29.1446 23.9489ZM29.6604 23.1891C29.6604 23.2162 29.6604 23.2162 29.6604 23.1891C29.6604 23.2162 29.6604 23.2162 29.6604 23.2433C29.6604 23.3519 29.6876 23.4062 29.7419 23.4605C29.7962 23.5148 29.8503 23.5419 29.9045 23.5147C29.9588 23.5147 30.0132 23.4876 30.0675 23.4333C30.0946 23.379 30.1215 23.3248 30.1215 23.2705C30.1215 23.2434 30.1215 23.1891 30.0943 23.1619L29.6604 23.1891ZM29.9317 25.3329L29.8502 25.6856H29.823V25.6585C29.823 25.6585 29.823 25.6314 29.823 25.6042C29.823 25.5771 29.7959 25.55 29.7959 25.5228C29.7687 25.4957 29.7419 25.4685 29.7147 25.4143L29.3891 25.0615L29.1446 25.0072C29.0904 25.0072 29.0363 24.9801 29.0092 25.0072C28.982 25.0344 28.9548 25.0615 28.9548 25.0887V25.1157H28.9277L29.0363 24.6815H29.0635V24.7087C29.0635 24.763 29.0632 24.7901 29.0903 24.8173C29.0903 24.8444 29.1447 24.8444 29.199 24.8715L29.4431 24.9258L29.9317 24.763C29.986 24.7358 30.0403 24.7358 30.0403 24.7087C30.0675 24.7087 30.0672 24.6816 30.0943 24.6545C30.0943 24.6545 30.0944 24.6273 30.1215 24.6273H30.1487L30.0403 25.0615H30.0132V25.0343C30.0132 25.0072 30.0132 24.9801 30.0132 24.9529C30.0132 24.9258 29.986 24.9258 29.9589 24.9258C29.9589 24.9258 29.9045 24.9258 29.8502 24.9529L29.4703 25.0887L29.7147 25.3599C29.7419 25.4142 29.7959 25.4142 29.7959 25.4414C29.7959 25.4414 29.8231 25.4414 29.8502 25.4414C29.8502 25.4414 29.8774 25.4414 29.8774 25.4143C29.8774 25.4143 29.9045 25.3871 29.9045 25.3599L29.9317 25.3329Z" fill="black"/>
</svg>
