<svg width="24" height="18" viewBox="0 0 24 18" fill="none" xmlns="http://www.w3.org/2000/svg">
<rect width="24" height="18" rx="2" fill="#2199D6"/>
<path d="M15.7006 6.51337C15.7006 6.56684 15.7006 6.62032 15.6471 6.6738C15.2193 8.81283 13.8289 9.50802 12.0108 9.50802H11.1017C10.8877 9.50802 10.6739 9.66845 10.6739 9.88235L10.1926 12.877L10.0856 13.7326C10.0856 13.893 10.1926 14 10.2995 14H11.9573C12.1712 14 12.3316 13.8396 12.3316 13.6791V13.5722L12.6525 11.6471V11.5401C12.7059 11.3262 12.8664 11.2193 13.0268 11.2193H13.2942C14.8984 11.2193 16.1284 10.5775 16.4492 8.70588C16.6097 7.90374 16.5027 7.26203 16.1284 6.83422C16.0214 6.72727 15.861 6.62032 15.7006 6.51337Z" fill="white"/>
<path d="M15.2728 6.35299C15.2193 6.35299 15.1658 6.29952 15.0589 6.29952C15.0054 6.29952 14.8984 6.24604 14.8449 6.24604C14.5776 6.19257 14.3102 6.19257 14.0428 6.19257H11.5829C11.5294 6.19257 11.476 6.19257 11.4225 6.24604C11.3155 6.29952 11.2086 6.40647 11.2086 6.51342L10.6738 9.82893V9.93588C10.7273 9.72198 10.8877 9.56155 11.1016 9.56155H12.0107C13.8289 9.56155 15.2193 8.81289 15.6471 6.72733C15.6471 6.67385 15.6471 6.62037 15.7006 6.5669C15.5936 6.51342 15.4867 6.45995 15.3797 6.40647C15.3262 6.35299 15.2728 6.35299 15.2728 6.35299Z" fill="#252C5E"/>
<path d="M11.2086 6.51337C11.2086 6.40642 11.3155 6.29946 11.4225 6.24599C11.4759 6.24599 11.5294 6.19251 11.5829 6.19251H14.0428C14.3102 6.19251 14.631 6.19251 14.8449 6.24599C14.8984 6.24599 15.0053 6.24599 15.0588 6.29947C15.1123 6.29947 15.1658 6.35294 15.2727 6.35294C15.3262 6.35294 15.3262 6.35294 15.3797 6.40642C15.4866 6.45989 15.5936 6.51337 15.7005 6.56685C15.8075 5.76471 15.7005 5.22995 15.2727 4.74866C14.7914 4.2139 13.9358 4 12.8663 4H9.71123C9.49732 4 9.28342 4.16043 9.28342 4.37433L8 12.6096C8 12.7701 8.10695 12.9305 8.26738 12.9305H10.1925L10.6738 9.82888L11.2086 6.51337Z" fill="#263577"/>
</svg>
