<svg width="202" height="134" viewBox="0 0 202 134" fill="none" xmlns="http://www.w3.org/2000/svg">
<path d="M202 0H0V134H202V0Z" fill="#D80031"/>
<path d="M0 93.8802H202H0ZM0 40.1506H202H0Z" fill="#292C2F"/>
<path d="M0 107.243H202V80.4866H0V107.243ZM0 53.5137H202V26.757H0V53.5137Z" fill="white"/>
<path d="M0 0V134L101.868 67.1234L0 0Z" fill="#2F3C85"/>
<path fill-rule="evenodd" clip-rule="evenodd" d="M34.0286 44.6871L27.9502 65.8272L37.258 69.2836L34.0286 44.6871Z" fill="white"/>
<path fill-rule="evenodd" clip-rule="evenodd" d="M34.0285 44.6871L39.9171 65.8272L30.6094 69.2836L34.0285 44.6871Z" fill="white"/>
<path fill-rule="evenodd" clip-rule="evenodd" d="M52.6435 60.2106H33.0786V71.1972L52.6435 60.2106Z" fill="white"/>
<path fill-rule="evenodd" clip-rule="evenodd" d="M52.6434 60.2106L36.6875 73.1415L30.989 64.3151L52.6434 60.2106Z" fill="white"/>
<path fill-rule="evenodd" clip-rule="evenodd" d="M15.1963 60.2106L31.1791 73.1415L36.8779 64.3151L15.1963 60.2106Z" fill="white"/>
<path fill-rule="evenodd" clip-rule="evenodd" d="M15.1963 60.2106H34.9782V71.1972L15.1963 60.2106Z" fill="white"/>
<path fill-rule="evenodd" clip-rule="evenodd" d="M45.4254 85.0229L39.347 63.8828L30.0396 67.3393L45.4254 85.0229Z" fill="white"/>
<path fill-rule="evenodd" clip-rule="evenodd" d="M45.426 85.0231L29.6602 71.8452L35.3586 63.0189L45.426 85.0231Z" fill="white"/>
<path fill-rule="evenodd" clip-rule="evenodd" d="M22.4414 85.0231L38.2075 71.8452L32.5091 63.0189L22.4414 85.0231Z" fill="white"/>
<path fill-rule="evenodd" clip-rule="evenodd" d="M22.4414 85.0229L28.5198 63.8828L37.8276 67.3393L22.4414 85.0229Z" fill="white"/>
</svg>
