<svg width="22" height="22" viewBox="0 0 22 22" fill="none" xmlns="http://www.w3.org/2000/svg">
<path fill-rule="evenodd" clip-rule="evenodd" d="M11 22C17.0751 22 22 17.0751 22 11C22 4.92487 17.0751 0 11 0C4.92487 0 0 4.92487 0 11C0 17.0751 4.92487 22 11 22ZM16.3128 10.0767C16.3611 10.4617 16.6886 10.7429 17.0668 10.7429C17.0982 10.7429 17.1303 10.7409 17.1625 10.7369C17.5793 10.6846 17.8746 10.3044 17.8223 9.88757C17.4442 6.86683 15.1851 4.42506 12.2011 3.8119C11.0283 3.5713 9.80724 3.63045 8.66987 3.98329C8.26835 4.10802 8.04425 4.53409 8.16897 4.93562C8.29329 5.33675 8.71895 5.56166 9.12087 5.43653C10.0136 5.15972 10.9728 5.11305 11.8949 5.30255C14.24 5.78455 16.0155 7.70289 16.3128 10.0767ZM4.70678 13.3994C4.3817 13.3994 4.08116 13.1898 3.98018 12.8631C3.62976 11.7285 3.57182 10.5111 3.81201 9.34149C4.02283 8.31553 4.44446 7.37125 5.06525 6.536C5.3159 6.19844 5.79265 6.12843 6.1298 6.37909C6.46695 6.62974 6.53695 7.10651 6.2863 7.44367C5.79949 8.09907 5.46838 8.84058 5.30262 9.64807C5.11353 10.5674 5.15899 11.5238 5.43378 12.4141C5.55809 12.8153 5.33279 13.2413 4.93127 13.3652C4.85684 13.3882 4.78121 13.3994 4.70678 13.3994ZM11.2381 17.1461C11.3089 17.5094 11.6275 17.7612 11.984 17.7612C12.0323 17.7612 12.0814 17.7564 12.1305 17.7468C14.2068 17.3416 15.9807 16.0473 16.9982 14.1962C17.2005 13.828 17.0662 13.3653 16.6976 13.163C16.3295 12.961 15.8672 13.0954 15.6649 13.4635C14.8651 14.9179 13.471 15.935 11.8392 16.2537C11.4268 16.3342 11.1576 16.7337 11.2381 17.1461ZM10.9183 9.8699C11.4047 9.96968 11.7177 10.4452 11.6179 10.9313C11.5181 11.4177 11.0426 11.7307 10.5566 11.6309C10.0702 11.5307 9.75674 11.056 9.85692 10.5696C9.9567 10.0831 10.4318 9.77012 10.9183 9.8699ZM7.39937 20.2643C6.85542 20.2643 6.41488 19.8233 6.41488 19.2797V11.1839C6.39235 10.7188 6.42212 10.2968 6.5046 9.89446C6.73875 8.75464 7.40259 7.77455 8.3742 7.13403C9.34581 6.49392 10.5085 6.27062 11.6483 6.50438C12.7881 6.73813 13.7686 7.40239 14.4087 8.37403C15.0492 9.34567 15.2729 10.5084 15.0387 11.6482C14.5555 14.0011 12.2474 15.5219 9.89498 15.0387C9.36231 14.9293 9.01953 14.4087 9.12856 13.876C9.23799 13.3433 9.7586 13.0009 10.2913 13.1099C11.5807 13.3755 12.8452 12.541 13.11 11.2519C13.2383 10.6271 13.1156 9.98981 12.7648 9.45752C12.4139 8.92523 11.8768 8.56152 11.252 8.43317C10.6272 8.30483 9.99033 8.42754 9.45806 8.77838C8.92538 9.12921 8.56168 9.66633 8.43334 10.2908C8.38345 10.5346 8.36655 10.8021 8.38265 11.1083L8.38385 11.1594V19.2797C8.38385 19.8233 7.94331 20.2643 7.39937 20.2643Z" fill="#2752FF"/>
</svg>
