<svg fill="none" height="18" viewBox="0 0 24 18" width="24" xmlns="http://www.w3.org/2000/svg" xmlns:xlink="http://www.w3.org/1999/xlink"><linearGradient id="a" gradientUnits="userSpaceOnUse" x1="2.96384" x2="2.17125" y1="9.73427" y2="8.76346"><stop offset="0" stop-color="#ce5dcb"/><stop offset=".2095" stop-color="#c558cc"/><stop offset=".5525" stop-color="#ac4acf"/><stop offset=".9845" stop-color="#8534d4"/><stop offset="1" stop-color="#8333d4"/></linearGradient><linearGradient id="b" gradientUnits="userSpaceOnUse" x1="3.19968" x2="5.16431" y1="8.52739" y2="8.52739"><stop offset=".0237" stop-color="#ff5667"/><stop offset=".6592" stop-color="#fc8b82"/><stop offset="1" stop-color="#fba28e"/></linearGradient><linearGradient id="c" gradientUnits="userSpaceOnUse" x1=".99993" x2="3.70383" y1="7.84042" y2="7.84042"><stop offset="0" stop-color="#00b874"/><stop offset=".5126" stop-color="#29d3a2"/><stop offset=".6817" stop-color="#53dfb6"/><stop offset="1" stop-color="#9ff4d9"/></linearGradient><linearGradient id="d" gradientUnits="userSpaceOnUse" x1="2.84221" x2="5.54608" y1="9.63288" y2="9.63288"><stop offset="0" stop-color="#fcd77e"/><stop offset=".5241" stop-color="#fea500"/><stop offset="1" stop-color="#ff5b00"/></linearGradient><rect fill="#f7f7f7" height="18" rx="3" width="24"/><path d="m1.38184 9.68096c.50882.49504 1.33366.49504 1.84249 0l.04877-.04745c.25427-.2474-.25456-1.54529 0-1.79269z" fill="url(#a)"/><path d="m3.32188 7.79298-.04877.04745c-.25427.2474.25427 1.54529 0 1.79269l1.89126-1.84014c-.25455-.2474-.58776-.3711-.92125-.3711-.33348-.00028-.66697.1237-.92124.3711z" fill="url(#b)"/><path d="m1.38162 7.88814c-.508827.49508-.508827 1.29762 0 1.7927l1.94059-1.88815c.50883-.49507.50883-1.29761 0-1.79269z" fill="url(#c)"/><path d="m3.22391 9.68062c-.50883.49508-.50883 1.29758 0 1.79268l1.94059-1.88813c.50883-.49507.50883-1.29761 0-1.79269z" fill="url(#d)"/><g fill="#382757"><path d="m12.714 8.7464c-.0392-.13056-.0975-.25535-.1739-.37028-.1305-.19665-.3118-.36067-.5249-.47423-.3363-.17855-.738-.22052-1.1076-.11574-.3732.10587-.6813.34724-.868.67994-.18545.33105-.2283.7123-.12033 1.07435l.00113.00357c.02481.08064.06455.18377.0654.18541.1238.28198.3312.49728.6337.65798.2137.1138.4541.1739.6955.1739.1386 0 .2771-.0195.4115-.0581.2845-.0809.5325-.2406.72-.4649l.0118-.0143c.048-.0587.0911-.12151.1286-.18706.0668-.11602.0239-.26331-.0953-.32831-.0369-.02003-.0787-.03072-.1209-.03072-.09 0-.1728.04717-.2165.12342-.0612.10642-.1424.19913-.2411.27483-.0084.00658-.0166.01372-.0208.01865-.0908.06583-.1934.11519-.3045.14699-.243.0694-.508.0417-.7315-.07677-.1474-.07817-.2706-.19419-.3583-.33627l2.0486-.58449c.1305-.0373.2055-.17088.1674-.29787zm-1.3951-.53786c.1584 0 .3171.03977.4592.11492.1401.07433.2602.18267.347.31296.0048.0074.0099.01508.0147.02276l-1.7836.50906c-.0045-.16374.0361-.32666.1178-.47231.123-.21915.3262-.3785.5726-.44899.0896-.02551.1812-.0384.2723-.0384z"/><path d="m15.3433 10.1033h-1.3554l1.5158-2.1663c.0287-.04087.0316-.09353.0079-.13742-.0237-.04388-.0702-.07104-.1212-.07104h-1.9271c-.128 0-.232.10121-.232.22573 0 .12453.104.22574.232.22574h1.2914l-1.5152 2.16629c-.0288.0411-.0316.0938-.0079.1374.0237.0439.0702.0707.1212.0707h1.9902c.128 0 .232-.1012.232-.2257.0003-.124-.1037-.2254-.2317-.2254z"/><path d="m18.3461 10.1032h-1.3551l1.5155-2.16623c.0287-.04087.0315-.09353.0079-.13742-.0237-.04361-.0702-.07076-.1213-.07076h-1.9267c-.128 0-.232.10121-.232.22573s.104.22573.232.22573h1.2914l-1.5153 2.16625c-.0284.0412-.0315.0938-.0078.1374.0239.0439.0701.0708.1212.0708h1.9902c.128 0 .232-.1012.232-.2257 0-.1243-.104-.2258-.232-.2258z"/><path d="m19.6843 6.50635c-.128 0-.232.10121-.232.22573v3.60482c0 .1246.104.2258.232.2258.1279 0 .232-.1015.232-.2258v-3.60482c0-.12452-.1041-.22573-.232-.22573z"/><path d="m23.4902 8.74665c-.0389-.13056-.0976-.25508-.1737-.37028-.1305-.19666-.312-.36068-.5249-.47423-.3366-.17856-.7377-.22052-1.1076-.11575-.3732.10587-.6813.34724-.8676.67994-.1858.33078-.2284.71231-.1207 1.07435l.0011.00384c.0248.08037.0646.1835.0654.18542.1238.28196.3313.49696.6337.65796.2137.1139.4542.1739.6955.1739.1384 0 .2771-.0194.4116-.0581.2844-.0809.5325-.2406.7196-.4646l.0122-.0151c.0479-.059.091-.12181.1282-.18654.0668-.11603.024-.26331-.0953-.32832-.0369-.02002-.0786-.03072-.1209-.03072-.0899 0-.1728.04718-.2165.12343-.0612.10669-.1423.19913-.2407.27483-.0088.00658-.0167.01371-.0212.01865-.0907.06583-.1933.11517-.3047.14697-.2427.0694-.508.0417-.7315-.07676-.1475-.07817-.2709-.19419-.3583-.33626l2.0488-.58504c.1305-.0373.2055-.17088.1675-.29759zm-1.3949-.53814c.1585 0 .3172.03977.4592.11492.1401.07433.26.18267.3471.31295.0048.00741.0098.01509.0146.02277l-1.7836.50906c-.0045-.16402.0361-.32666.1179-.47231.1229-.21915.3261-.3785.5725-.44899.0894-.02551.181-.0384.2723-.0384z"/><path d="m9.14208 9.29963c-.06878-.09792-.16829-.17965-.29514-.24274-.20776-.10285-.47698-.15003-.7352-.18925l-.04087-.00603c-.18126-.02743-.36873-.05596-.4891-.1152-.09105-.04498-.12347-.09545-.12347-.19392 0-.19062.2134-.33434.49614-.33434.33772 0 .52603.09599.73745.22134.03919.02331.08429.03566.12996.03566.08795 0 .16773-.04334.21368-.1163.03467-.0554.04538-.12068.0296-.18404-.01579-.06309-.05582-.11657-.11276-.15031-.11699-.06966-.24497-.14207-.4065-.19857-.18183-.06336-.37521-.09436-.59114-.09436-.26048 0-.50432.07708-.68615.21696-.19986.15359-.31008.36808-.31008.60396 0 .28251.13756.49974.39776.62783.19112.09408.41833.12836.63793.16155l.0406.00603c.56323.08585.72617.1632.72617.3445 0 .22463-.23116.3716-.58889.3747h-.01297c-.38394 0-.59931-.14348-.71489-.22056-.01917-.01261-.03552-.02386-.05187-.03373-.03975-.02414-.08542-.03676-.13221-.03676-.08683 0-.16632.04279-.21227.11438-.07301.11387-.03721.26417.07978.33517.00648.0038.01635.0104.02734.0178l.00677.0044c.13728.0914.45864.3058.99735.3058h.0172c.31065-.0027.57733-.0839.77184-.2353.20156-.1572.31262-.37932.31262-.62563-.00028-.14948-.04031-.28141-.11868-.39304z"/></g></svg>