<svg width="202" height="134" viewBox="0 0 202 134" fill="none" xmlns="http://www.w3.org/2000/svg">
<path d="M202 0H0V134H202V0Z" fill="white"/>
<path d="M202 89H0V134H202V89Z" fill="#EA0020"/>
<path d="M202 45H0V89H202V45Z" fill="#3555E2"/>
<path d="M42.7983 25.7384C42.3971 25.9236 41.9649 26.1087 41.5637 26.2939L42.8291 46.5698C43.1686 52.094 45.5142 57.3404 49.4644 61.2598C52.1494 63.9447 55.4514 65.889 59.0314 66.9691C62.6113 65.889 65.9134 63.9447 68.5983 61.2598C72.5486 57.3095 74.8941 52.094 75.2336 46.5698L76.4988 26.2939C76.0976 26.1087 75.6965 25.8927 75.2645 25.7384L73.9682 46.4772C73.6595 51.6927 71.4068 56.6305 67.7034 60.3648C65.2653 62.8337 62.2718 64.6237 59.0314 65.6421C55.7909 64.5928 52.7974 62.8028 50.3593 60.3648C46.6251 56.6305 44.403 51.6927 44.0944 46.4772L42.7983 25.7384Z" fill="#EA0020"/>
<path d="M75.2956 25.7384C70.2343 23.4855 64.6792 22.3127 59.0316 22.3127C53.3839 22.3127 47.8597 23.4855 42.7676 25.7384L44.0946 46.4772C44.4341 51.6927 46.6562 56.6305 50.3595 60.3648C52.7976 62.8337 55.7911 64.6237 59.0316 65.6421C62.272 64.5928 65.2656 62.8028 67.7036 60.3648C71.4378 56.6305 73.6598 51.6927 73.9684 46.4772" fill="#3555E2"/>
<path d="M60.0189 32.034L60.7596 31.0465L59.525 31.1699L59.0622 30.059L58.5683 31.1699L57.334 31.0465L58.0746 32.034L57.334 33.0216L58.5683 32.8982L59.0622 34.0092L59.525 32.8982L60.7596 33.0216" fill="#F8E72A"/>
<path d="M55.4505 25.9235L56.1605 24.936L54.9568 25.0594L54.4632 23.9484L53.9693 25.0594L52.7656 24.936L53.4756 25.9235L52.7656 26.8802L53.9693 26.7568L54.4632 27.8677L54.9568 26.7568L56.1605 26.8802" fill="#F8E72A"/>
<path d="M64.6173 25.9235L65.3579 24.936L64.1236 25.0594L63.6297 23.9484L63.136 25.0594L61.9324 24.936L62.673 25.9235L61.9324 26.8802L63.136 26.7568L63.6297 27.8677L64.1236 26.7568L65.3579 26.8802" fill="#F8E72A"/>
<path d="M72.1786 49.5326L65.636 40.7988L63.0126 44.2861L59.0934 36.4165L55.143 44.2861L52.5199 40.7988L45.9773 49.5326C45.9773 50.7053 46.4402 51.8163 47.2734 52.6187C48.1067 53.452 49.2177 53.9148 50.3596 53.9148C51.1311 53.9148 51.9027 53.6988 52.5508 53.3285C52.8903 53.1433 53.2296 52.989 53.6 52.8965C54.711 52.5878 55.9146 52.773 56.933 53.3285C57.612 53.7297 58.3525 53.9148 59.1241 53.9148C59.8956 53.9148 60.6364 53.7297 61.3153 53.3285C62.3337 52.7421 63.5065 52.5878 64.6484 52.8965C65.0187 52.989 65.389 53.1433 65.6976 53.3285C66.3457 53.6988 67.1173 53.9148 67.8888 53.9148C69.0615 53.9148 70.1725 53.452 70.9749 52.6187C71.7156 51.7855 72.1786 50.6745 72.1786 49.5326Z" fill="white"/>
<path d="M47.4885 54.2542C47.7971 54.8405 48.1366 55.4269 48.4761 56.0133C49.402 56.4454 50.4511 56.5379 51.4387 56.2602C51.809 56.1676 52.1486 56.0133 52.4881 55.8281C53.1361 55.4578 53.9076 55.2418 54.6791 55.2418C55.4506 55.2418 56.1914 55.4269 56.8703 55.8281C57.8887 56.4145 59.0615 56.5688 60.1725 56.2602C60.5428 56.1676 60.9133 56.0133 61.2219 55.8281C61.87 55.4578 62.6414 55.2418 63.4129 55.2418C64.1844 55.2418 64.9252 55.4269 65.6041 55.8281C66.6226 56.4145 67.7953 56.5688 68.9372 56.2602C69.1841 56.1984 69.4001 56.1059 69.647 56.0133C70.0173 55.4578 70.3259 54.8714 70.6346 54.2542C70.4185 54.3468 70.2024 54.4394 69.9864 54.5628C69.6469 54.748 69.3076 54.9022 68.9372 54.9948C67.8262 55.3034 66.6226 55.1492 65.6041 54.5628C64.9252 54.1616 64.1844 53.9764 63.4129 53.9764C62.6414 53.9764 61.87 54.1925 61.2219 54.5628C60.8824 54.748 60.5428 54.9022 60.1725 54.9948C59.0615 55.3034 57.8579 55.1492 56.8703 54.5628C56.1914 54.1616 55.4506 53.9764 54.6791 53.9764C53.9076 53.9764 53.167 54.1925 52.4881 54.5628C52.1486 54.748 51.809 54.9022 51.4387 54.9948C50.3277 55.3034 49.1241 55.1492 48.1365 54.5628C47.9205 54.4394 47.7046 54.3468 47.4885 54.2542Z" fill="white"/>
<path d="M68.4749 57.618C67.9811 58.2661 67.4257 58.8833 66.8085 59.5005C64.6173 61.7225 61.9323 63.3582 59.0313 64.3458C56.1304 63.3582 53.4454 61.6917 51.2542 59.5005C50.6678 58.9141 50.1124 58.297 49.6187 57.618C50.2359 57.7106 50.853 57.6797 51.4394 57.5254C51.8097 57.4329 52.1493 57.2785 52.4887 57.0933C53.1368 56.723 53.9082 56.507 54.6798 56.507C55.4513 56.507 56.192 56.6921 56.871 57.0933C57.8894 57.6797 59.0622 57.834 60.1732 57.5254C60.5435 57.4329 60.9139 57.2785 61.2226 57.0933C61.8706 56.723 62.6421 56.507 63.4136 56.507C64.1851 56.507 64.9259 56.6921 65.6048 57.0933C66.4689 57.5871 67.4873 57.7723 68.4749 57.618Z" fill="white"/>
</svg>
