<svg width="204" height="134" viewBox="0 0 204 134" fill="none" xmlns="http://www.w3.org/2000/svg">
<path d="M204 0H0V134H204V0Z" fill="white"/>
<path d="M204 45H0V134H204V45Z" fill="#2534A4"/>
<path d="M204 89H0V134H204V89Z" fill="#BC0030"/>
<path d="M32.7807 31.4786C30.0958 31.6946 30.8365 34.9659 30.497 36.8176C29.5403 49.6251 28.2131 62.8645 32.1325 75.3325C35.2187 85.3933 42.5945 93.7259 51.5443 99.0649C53.7354 100.299 55.8958 101.812 58.3338 102.491C60.8953 101.781 63.1173 100.176 65.4319 98.8798C74.2274 93.5408 81.4491 85.2699 84.5044 75.3325C88.4855 62.6485 87.0657 49.193 86.109 36.1695C85.9547 34.3795 86.2325 31.2625 83.5784 31.4786H32.7807V31.4786Z" fill="white"/>
<path d="M58.3034 33.4845V100.484C27.3185 85.4859 30.7134 60.6116 32.7502 33.4845H58.3034ZM58.3034 33.4845V100.484C89.2882 85.4859 85.8935 60.6116 83.8567 33.4845H58.3034Z" fill="#BC0030"/>
<path d="M61.9447 51.8778C65.216 51.8778 68.5181 52.4642 71.7277 53.1123C70.771 49.9953 70.771 48.1127 71.7277 44.9957C68.5181 45.6438 65.216 46.2302 61.9447 46.2302H54.6922C51.4209 46.2302 48.1188 45.6438 44.9092 44.9957C45.8659 48.1127 45.8659 49.9953 44.9092 53.1123C48.1188 52.4642 51.4209 51.8778 54.6922 51.8778H61.9447Z" fill="white"/>
<path d="M64.7534 64.0683C68.0247 64.0683 71.3268 64.6546 74.5364 65.3027C73.5797 62.1857 73.5797 60.3032 74.5364 57.1862C71.3268 57.8342 68.0247 58.4207 64.7534 58.4207H51.8843C48.613 58.4207 45.3107 57.8342 42.1011 57.1862C43.0578 60.3032 43.0578 62.1857 42.1011 65.3027C45.3107 64.6546 48.613 64.0683 51.8843 64.0683H64.7534Z" fill="white"/>
<path d="M54.2292 36.0459C54.8773 39.2246 55.4636 42.5268 55.4636 45.7981V87.3066H61.1422V45.7981C61.1422 42.5577 61.7284 39.2555 62.3765 36.0459C59.2595 37.0026 57.3462 37.0026 54.2292 36.0459Z" fill="white"/>
<path d="M45.4649 77.2152C41.7924 77.2152 38.8296 80.1779 38.8296 83.8195C38.8296 84.0972 38.8605 84.375 38.8914 84.6219C40.1876 86.5045 41.669 88.3252 43.3972 90.0843C44.0453 90.3004 44.7242 90.4547 45.4649 90.4547C49.1374 90.4547 52.1308 87.492 52.1308 83.8195C52.1 80.1779 49.1374 77.2152 45.4649 77.2152Z" fill="#2534A4"/>
<path d="M58.3034 73.2958C53.6433 73.2958 49.8474 77.0918 49.8474 81.721C49.8474 86.381 53.6433 90.1462 58.3034 90.1462C62.9635 90.1462 66.7596 86.381 66.7596 81.721C66.7596 77.0918 62.9943 73.2958 58.3034 73.2958Z" fill="#2534A4"/>
<path d="M71.1725 77.2152C67.5 77.2152 64.5063 80.1779 64.5063 83.8195C64.5063 87.492 67.4691 90.4547 71.1725 90.4547C71.8823 90.4547 72.5921 90.3004 73.2402 90.0843C74.9684 88.3252 76.4807 86.5045 77.746 84.6219C77.7769 84.3442 77.8385 84.0972 77.8385 83.8195C77.8385 80.1779 74.845 77.2152 71.1725 77.2152Z" fill="#2534A4"/>
<path d="M39.9409 86.1033C44.0146 91.5349 49.8473 96.4109 58.3342 100.515C66.821 96.4109 72.6539 91.5349 76.7276 86.1033H39.9409Z" fill="#2534A4"/>
</svg>
