<svg width="202" height="134" viewBox="0 0 202 134" fill="none" xmlns="http://www.w3.org/2000/svg">
<path d="M202 0H0V134H202V0Z" fill="#D10E2F"/>
<path d="M88.3818 0H0V58.9121H88.3818V0Z" fill="#1C2666"/>
<path d="M50.0663 29.4695L44.1777 51.5582L38.2892 29.4695L44.1777 7.38086M44.1777 35.358L66.2664 29.4695L44.1777 23.581L22.0891 29.4695" fill="white"/>
<path d="M49.2788 32.4005L33.1328 48.6006L39.0756 26.5119L55.2215 10.3118M41.2194 34.5713L63.308 40.5141L47.135 24.3683L25.0464 18.4255" fill="white"/>
<path d="M47.135 34.5713L25.0464 40.5141L41.2194 24.3683L63.308 18.4255M39.0756 32.4005L55.2215 48.6006L49.2788 26.5119L33.1328 10.3118" fill="white"/>
<path d="M44.1771 16.9329C51.0968 16.9329 56.6868 22.55 56.6868 29.4426C56.6868 36.3622 51.0696 41.9522 44.1771 41.9522C37.2574 41.9522 31.6675 36.3351 31.6675 29.4426C31.6675 22.55 37.2574 16.9329 44.1771 16.9329Z" fill="#1C2666"/>
<path d="M44.1772 18.4254C50.2828 18.4254 55.2215 23.3641 55.2215 29.4697C55.2215 35.5753 50.2828 40.514 44.1772 40.514C38.0716 40.514 33.1328 35.5753 33.1328 29.4697C33.1328 23.3641 38.0716 18.4254 44.1772 18.4254Z" fill="white"/>
</svg>
