<svg width="202" height="134" viewBox="0 0 202 134" fill="none" xmlns="http://www.w3.org/2000/svg">
<path d="M202 0H0V134H202V0Z" fill="white"/>
<path fill-rule="evenodd" clip-rule="evenodd" d="M116.685 48.2674C116.983 44.5023 111.828 43.6999 116.224 40.5521C115.681 39.904 112.425 39.5027 111.692 40.1817C111.529 40.3977 110.552 36.5709 111.176 35.9537C111.8 35.3673 113.076 37.3733 113.076 37.3733C113.076 37.3733 113.917 35.1821 110.959 30.9541C111.285 19.8749 102.086 18.4553 98.5852 23.8252C96.9028 24.4733 96.8215 26.1398 96.8215 26.1398C96.8215 26.1398 93.375 26.8495 92.9409 30.2443C96.7399 27.9606 95.7088 31.5714 98.9923 31.9108C100.295 33.5465 95.5461 38.0831 94.9491 39.0707C99.8064 40.7372 91.9098 43.237 91.8284 44.7492C93.1038 44.2863 94.1079 44.6257 94.1079 44.6257C94.2978 46.0453 93.7821 47.681 92.9409 48.2365H116.685V48.2674Z" fill="#F6D628"/>
<path d="M116.848 48.4524H92.1537C93.3477 47.9277 93.9989 46.5389 93.8361 44.749C93.402 44.749 92.3165 44.6873 91.7738 44.965C91.6924 44.8416 91.6653 44.7181 91.6653 44.5947C91.9366 42.959 99.2362 40.8604 94.7045 39.2248C94.2432 39.0704 99.5619 33.9783 98.9649 32.1884C96.0884 31.6946 95.22 27.8987 92.615 30.7688C92.615 27.4049 96.3597 25.8927 96.6854 25.9853C96.5768 25.9236 96.7668 24.3496 98.4493 23.6707C102.275 16.912 112.723 22.6522 111.068 31.0156C114.134 35.5214 113.238 37.1262 113.048 37.8052C110.308 33.4846 111.095 38.8236 111.719 40.0581C112.153 39.1322 116.196 39.9346 116.522 40.521C111.854 43.6688 117.39 44.5638 116.848 48.4524ZM93.3477 48.0512H116.495C116.549 44.6255 111.882 43.5145 115.871 40.5827C114.758 39.842 112.804 39.8729 111.8 40.3358C110.28 39.626 110.308 33.0216 112.967 36.941C113.048 36.1695 112.967 34.1635 110.796 31.1082C112.37 22.8991 102.384 17.5601 98.7206 23.9175C97.0653 24.6274 96.9568 26.1087 96.9568 26.1705C96.794 26.3556 93.8361 27.0037 93.1577 29.7812C94.0532 28.6702 96.3055 29.7194 96.3869 30.3367C96.414 30.6453 98.7206 31.5711 99.3176 32.0032C99.399 34.7499 96.4412 37.3423 95.0844 39.0088C99.2905 40.6136 93.7004 42.7739 92.0994 44.4095C92.9949 44.1935 94.0533 44.4095 94.0533 44.4403C94.3246 45.8908 93.9718 47.3105 93.3477 48.0512Z" fill="black"/>
<path fill-rule="evenodd" clip-rule="evenodd" d="M115.355 85.8257C115.355 85.8257 115.572 88.8501 114.46 90.1155C120.348 91.0722 124.283 97.8307 120.674 100.084C120.674 100.084 121.216 102.553 119.154 102.954C119.208 105.299 117.77 105.299 117.77 105.299C117.77 105.299 117.227 107.243 115.572 107.151C115.084 109.959 112.506 109.898 112.506 109.898C112.506 109.898 111.013 114.002 108.815 112.397C107.431 115.885 103.741 115.73 102.33 112.397C101.57 112.336 99.8604 113.539 98.8293 110.052C96.5498 110.515 95.6542 107.182 95.6542 107.182C95.6542 107.182 94.1076 107.027 93.5377 105.299C91.7467 104.898 92.0724 102.861 92.0724 102.861C92.0724 102.861 90.2814 102.306 90.3085 100.053C87.5678 97.6148 89.196 92.3375 96.6313 90.0229C95.6001 88.3564 95.7357 85.8874 95.7357 85.8874L115.355 85.8257Z" fill="#F6D628"/>
<path d="M105.613 115.175C104.175 115.175 102.872 114.156 102.167 112.521C100.674 113.323 99.2632 112.459 98.6662 110.144C96.9566 111.163 95.3555 107.367 95.4911 107.305C95.464 107.398 93.9716 107.182 93.3746 105.423C91.6922 105.114 91.855 103.17 91.8822 102.892C91.7465 102.984 90.0911 102.275 90.1183 100.083C87.3233 97.738 89.1142 92.3373 96.3323 89.9301C95.4369 88.2328 95.5455 86.0107 95.5455 85.9181L115.355 85.6713C115.517 85.949 115.708 88.5722 114.812 89.9918C120.673 91.3189 124.499 97.9232 120.782 100.269C121.243 100.824 120.456 103.262 119.181 103.17C119.561 104.25 118.502 105.608 117.77 105.515C117.851 105.608 117.254 107.367 115.68 107.367C115.219 110.083 112.614 110.113 112.505 110.113C112.75 110.36 110.579 114.125 108.896 112.706C108.191 114.249 106.997 115.175 105.613 115.175ZM102.275 112.212C103.876 115.576 107.35 115.576 108.761 112.212C110.362 113.724 112.37 110.237 112.315 109.836C112.722 109.712 114.92 109.65 115.355 107.12C116.549 107.027 117.688 105.577 117.553 105.268C118.34 105.052 119.045 104.281 118.937 102.984C120.266 102.768 120.755 100.824 120.483 100.176C123.984 97.7071 120.294 91.4114 114.432 90.3622C114.676 89.1894 115.517 86.381 115.165 85.8872L95.7354 86.1342C95.5455 86.2885 96.4953 89.066 96.631 90.2696C89.4671 92.4607 87.7575 97.6763 90.3626 99.8983C90.4168 102.151 92.045 102.676 92.0722 102.707C92.1807 103.015 91.9364 104.774 93.5374 105.145C94.1887 106.873 95.5727 107.027 95.627 107.027C95.7898 107.212 96.658 110.299 98.7746 109.897C100.24 113.477 101.027 112.243 102.275 112.212Z" fill="black"/>
<path fill-rule="evenodd" clip-rule="evenodd" d="M84.1485 51.2607C84.1485 51.2607 80.5938 55.6122 78.8299 52.3717C77.0661 49.1313 81.2993 48.2055 81.3535 48.1437C87.1335 44.749 82.3576 34.0709 77.1475 33.3302C71.1233 33.1451 59.482 30.2133 52.5623 26.9111C50.8528 25.4915 35.0325 22.1893 35.0325 22.1893C31.3962 21.5721 32.753 27.4049 35.0325 27.2814C32.5088 28.8554 33.3228 34.1018 37.8274 33.5772C37.5017 38.6076 43.6345 39.3791 43.6345 39.3791C43.6345 39.3791 44.2858 46.6007 49.9301 46.2303C51.2597 51.199 56.3341 51.3841 56.3341 51.3841C56.3341 51.3841 58.695 54.7481 62.1412 54.995C64.1222 60.6426 68.4368 59.0378 68.4368 59.0378C68.4368 59.0378 68.1111 62.5868 70.0921 62.5868C69.0609 66.6297 72.8871 67.1852 74.3524 66.3828C74.7323 67.2469 76.0077 69.8701 78.9656 68.2036C80.7565 71.1972 83.6329 69.8084 83.6329 69.8084C92.1807 79.0977 83.9585 51.2915 84.1485 51.2607Z" fill="#F6D628"/>
<path d="M85.7497 71.7219C84.3657 71.7219 83.7416 70.6109 83.5245 70.1171C82.8461 70.364 80.5666 71.1356 78.8842 68.5124C77.0118 69.3148 75.6823 69.3456 74.2441 66.6915C71.9104 67.6173 69.0068 65.92 69.8209 62.803C68.437 62.6796 68.1112 60.3033 68.1926 59.3466C65.9946 59.6552 63.6881 59.5008 61.9242 55.0877C58.6408 54.9951 56.2799 51.7238 56.1443 51.5386C56.1443 51.6004 51.1784 51.3534 49.7402 46.5082C44.8557 46.8477 43.4718 40.7988 43.4175 39.6261C42.4406 39.4409 37.502 38.3299 37.5834 33.855C33.513 34.0093 31.9934 29.627 34.5442 27.405C32.0476 26.973 31.5863 21.171 35.0326 21.9425C35.6838 22.0968 50.9342 25.2755 52.6709 26.6952C59.4549 29.9356 71.1233 32.8675 77.2018 33.0835C85.0712 35.9845 87.3235 45.7366 78.6942 50.3041C78.2601 51.4151 79.3999 53.4211 80.5396 53.2977C82.5205 53.452 84.1215 50.0573 84.3385 51.3535C87.215 63.2042 89.7387 72.2774 85.7497 71.7219ZM83.6602 69.5308C84.1215 69.6542 83.9858 71.1356 85.7497 71.1973C88.6804 71.5985 87.4864 66.7841 84.0401 51.7238C80.8923 56.9702 74.4069 49.9029 81.1909 47.9278C89.413 40.1816 77.5275 31.2626 71.042 33.1452C60.1605 30.6763 48.4377 24.6892 35.0054 22.4363C30.9893 22.4054 33.7571 27.0655 35.2767 27.2815C32.6717 29.3184 33.73 33.639 38.0446 33.4538C37.8004 38.6385 44.0146 38.9163 43.8789 39.41C43.7704 40.0273 45.1815 46.6316 50.0117 46.0144C51.3685 50.7053 56.4428 51.2608 56.3886 51.1682C56.7142 51.4768 58.9936 54.5321 62.1685 54.7481C63.9324 59.5317 66.5646 58.6985 68.6812 59.0688C68.5184 59.47 68.7626 62.587 70.3093 62.4327C69.4952 65.4262 71.9374 67.2162 74.2982 66.1669C75.6821 68.2963 76.9304 68.9444 79.2098 68.0803C79.9425 69.8085 82.5206 70.2405 83.606 69.5925C83.606 69.5616 83.633 69.5308 83.6602 69.5308Z" fill="black"/>
<path fill-rule="evenodd" clip-rule="evenodd" d="M73.1855 36.4475C73.1855 36.4475 77.1203 36.9413 76.6319 43.8542L73.1855 36.4475Z" fill="#F6D628"/>
<path d="M76.6324 44.1011C76.6596 37.4967 73.4303 36.8486 72.969 36.4165C72.969 35.429 77.9892 37.6819 76.6324 44.1011Z" fill="black"/>
<path fill-rule="evenodd" clip-rule="evenodd" d="M58.2066 29.2874C58.2066 29.2874 50.6629 35.151 64.7736 37.0027L58.2066 29.2874Z" fill="#F6D628"/>
<path d="M64.7738 37.2499C57.0672 36.9721 53.241 32.1269 58.3968 29.1333C53.6209 34.7809 58.1527 34.5958 64.7738 37.2499Z" fill="black"/>
<path fill-rule="evenodd" clip-rule="evenodd" d="M60.3778 36.2003C60.3235 36.3238 56.823 41.0455 63.2813 42.4343C60.215 45.7364 65.9679 46.8474 65.9679 46.8474C65.9679 46.8474 64.7738 50.3347 68.2201 51.2606C67.0804 54.8714 70.798 54.6862 70.798 54.6862C70.798 54.6862 70.9065 59.0994 75.3297 59.0377C75.2754 62.0313 78.3419 62.2164 78.3419 62.2164C78.3419 62.2164 79.2645 65.4569 82.2223 64.4693C82.548 66.7222 84.5831 66.2593 84.5831 66.2593L60.3778 36.2003Z" fill="#F6D628"/>
<path d="M84.1216 66.5371C83.2804 66.5988 82.2222 65.9199 82.0322 64.778C79.4543 65.4878 78.396 63.0807 78.179 62.4326C77.5548 62.34 75.194 61.8462 75.1126 59.2539C71.3407 59.1922 70.7165 55.8591 70.6079 54.9024C69.2783 55.0567 67.0803 53.6371 67.9487 51.3842C66.0491 51.0447 65.1536 48.5141 65.6963 47.0019C64.2581 46.8167 60.6491 44.9959 62.8471 42.5579C59.2651 41.9406 57.8812 38.515 60.4863 35.9535C58.6139 40.7061 60.052 40.4592 63.444 42.5887C60.7304 45.3662 65.235 45.9526 66.1847 46.9093C65.5335 48.0512 66.5104 50.8595 68.4371 51.1064C68.3285 52.0323 68.0842 52.9272 68.5184 53.4827C69.3053 54.6246 70.825 54.316 70.9879 54.5012C70.9336 55.211 71.6391 58.5749 75.5738 59.0378C75.601 62.0931 78.3688 61.6919 78.5859 62.1549C78.613 62.2783 79.4814 65.1484 82.195 64.2534C82.7106 64.3769 82.5477 65.5495 83.1176 65.7347C83.7417 66.2285 84.583 66.0125 84.583 66.0125C85.0986 66.136 84.6914 66.6606 84.1216 66.5371Z" fill="black"/>
<path fill-rule="evenodd" clip-rule="evenodd" d="M83.7143 69.8704C83.7143 69.8704 83.8771 66.7533 83.2258 66.1361L83.7143 69.8704Z" fill="#F3F52C"/>
<path d="M83.7147 70.1173C83.3077 69.0062 83.4705 66.6608 83.0635 65.951C84.1489 65.7041 84.2032 69.9321 83.7147 70.1173Z" fill="black"/>
<path fill-rule="evenodd" clip-rule="evenodd" d="M78.8301 68.142C78.8844 68.0802 80.1326 65.2719 79.6984 64.7781L78.8301 68.142Z" fill="#F3F52C"/>
<path d="M78.8304 68.3886C78.2334 68.0491 79.9972 65.3951 79.5359 64.9321C80.5671 63.2039 79.3188 68.8207 78.8304 68.3886Z" fill="black"/>
<path fill-rule="evenodd" clip-rule="evenodd" d="M74.2979 66.383L77.6357 62.6487L74.2979 66.383Z" fill="#F3F52C"/>
<path d="M74.2987 66.6298C73.2676 66.4755 77.528 62.7104 77.4738 62.4635C77.5552 62.3709 77.6908 62.3709 77.7994 62.4635C78.1793 62.8647 74.4344 66.4755 74.2987 66.6298Z" fill="black"/>
<path fill-rule="evenodd" clip-rule="evenodd" d="M70.1196 62.7104C70.1739 62.6487 75.1669 59.0996 75.1669 59.0996L70.1196 62.7104Z" fill="#F3F52C"/>
<path d="M70.092 62.9572C69.9021 62.9572 69.7936 62.6487 69.9564 62.5252C69.9021 62.8647 70.7704 61.3833 75.3564 58.9761C73.8911 60.7352 70.3363 62.6486 70.092 62.9572Z" fill="black"/>
<path fill-rule="evenodd" clip-rule="evenodd" d="M68.3289 59.0997C68.3831 59.0379 71.178 57.6801 71.2866 56.5382L68.3289 59.0997Z" fill="#F3F52C"/>
<path d="M68.4098 59.2845C68.0299 59.2228 68.1385 58.8216 68.437 58.729C70.9878 57.4328 70.7164 56.8156 71.3134 56.2601C72.0732 57.3094 69.5224 58.729 68.4098 59.2845Z" fill="black"/>
<path fill-rule="evenodd" clip-rule="evenodd" d="M62.1411 54.9951C62.1411 54.9951 68.9251 56.6615 70.1191 54.8716L62.1411 54.9951Z" fill="#F6D628"/>
<path d="M67.2972 55.9516C65.1535 55.7664 61.3002 55.6429 62.1956 54.748C64.3665 55.3961 69.0338 55.8281 70.2549 54.6863C70.4178 55.7664 68.5726 55.8899 67.2972 55.9516Z" fill="black"/>
<path fill-rule="evenodd" clip-rule="evenodd" d="M56.4973 51.3227C56.7687 51.3227 66.6733 52.5572 67.5688 51.1376L56.4973 51.3227Z" fill="#F6D628"/>
<path d="M63.8512 52.0632C62.7658 51.6929 57.23 52.5878 56.4973 51.0756C64.5838 51.9089 67.3517 51.4768 67.406 50.983C68.7085 51.3534 66.1035 52.2484 63.8512 52.0632Z" fill="black"/>
<path fill-rule="evenodd" clip-rule="evenodd" d="M49.9299 46.2306C50.0927 46.1689 61.6527 48.6686 64.9362 46.7861L49.9299 46.2306Z" fill="#F6D628"/>
<path d="M60.7305 47.7426C56.7958 47.3106 51.0702 47.5575 49.8491 45.9835C57.7185 47.9278 71.3407 46.3847 60.7305 47.7426Z" fill="black"/>
<path fill-rule="evenodd" clip-rule="evenodd" d="M44.3948 39.4409C44.6661 39.4409 59.7809 43.6072 62.0331 42.311L44.3948 39.4409Z" fill="#F6D628"/>
<path d="M60.486 42.8048C57.1212 42.6505 48.9261 41.2 44.1501 39.4409C51.7482 40.6136 61.8156 43.2986 61.9242 42.095C62.9553 42.4654 61.2458 42.9282 60.486 42.8048Z" fill="black"/>
<path fill-rule="evenodd" clip-rule="evenodd" d="M38.6416 33.4541C38.7501 33.4541 56.6598 38.2376 58.9392 36.2625L38.6416 33.4541Z" fill="#F6D628"/>
<path d="M56.524 36.9723C52.6164 36.818 44.2586 35.491 38.3972 33.4541C48.4104 35.1823 58.1251 37.5895 58.7763 36.0773C59.9432 36.4785 57.6637 37.1266 56.524 36.9723Z" fill="black"/>
<path fill-rule="evenodd" clip-rule="evenodd" d="M36.3076 27.6211C36.3619 27.6211 53.4848 33.9785 54.923 32.4046L36.3076 27.6211Z" fill="#F6D628"/>
<path d="M53.9192 32.8982C50.9885 32.8056 42.115 30.3367 36.0637 27.6517C46.891 30.707 55.0859 33.4229 54.7874 32.2501C55.71 32.1576 54.679 33.1142 53.9192 32.8982Z" fill="black"/>
<path fill-rule="evenodd" clip-rule="evenodd" d="M127.105 51.3842C127.105 51.3842 130.66 55.7357 132.424 52.4953C134.215 49.2548 129.955 48.329 129.9 48.2673C124.093 44.8725 128.896 34.1636 134.106 33.4538C140.13 33.2686 151.772 30.3059 158.691 27.0346C160.401 25.615 176.248 22.3129 176.248 22.3129C179.885 21.6956 178.528 27.5284 176.248 27.405C178.772 28.9789 177.958 34.2253 173.453 33.7007C173.779 38.7311 167.646 39.5026 167.646 39.5026C167.646 39.5026 166.995 46.7241 161.351 46.3538C159.994 51.3225 154.947 51.5077 154.947 51.5077C154.947 51.5077 152.586 54.8715 149.14 55.1184C147.159 60.7352 142.844 59.1613 142.844 59.1613C142.844 59.1613 143.17 62.7104 141.162 62.7104C142.193 66.7532 138.367 67.3086 136.901 66.5063C136.521 67.3704 135.219 69.9937 132.261 68.3272C130.497 71.3207 127.566 69.9319 127.566 69.9319C119.1 79.252 127.295 51.4151 127.105 51.3842Z" fill="#F6D628"/>
<path d="M125.504 71.8762C121.461 72.4008 124.174 63.3892 126.888 51.3842C127.187 50.3966 128.679 53.5754 130.687 53.4519C133.292 52.8347 133.455 49.2547 129.954 48.5758C121.054 40.7678 133.157 30.7379 140.212 32.8056C142.329 33.4537 189.219 13.3012 176.683 27.5592C179.261 29.7812 177.714 34.1944 173.643 34.0092C173.725 38.4841 168.786 39.5952 167.782 39.7803C167.701 40.9531 166.344 47.0018 161.459 46.6624C159.994 51.5693 154.947 51.7854 154.892 51.7854C154.947 51.8162 152.586 55.1493 149.085 55.3962C147.539 59.6551 145.151 59.8402 143.007 59.5007C143.088 60.4574 142.763 62.8337 141.379 62.9572C142.193 66.0742 139.289 67.7716 136.956 66.8457C135.517 69.4998 134.16 69.4998 132.288 68.6665C130.606 71.2898 128.326 70.5182 127.648 70.2713C127.512 70.7651 126.888 71.8762 125.504 71.8762ZM127.214 51.878C123.252 68.5122 121.977 74.777 127.675 69.6849C129.086 70.6108 131.311 69.4381 132.37 68.1111C134.242 69.1603 135.762 68.5431 136.711 66.3828C139.018 66.9075 141.867 66.0742 140.972 62.556C142.491 62.7411 142.763 59.5624 142.6 59.1921C144.608 58.8217 147.403 59.655 148.922 55.0258C152.423 54.6246 154.757 51.3842 154.757 51.3534C155.137 51.4151 159.967 50.5201 161.351 46.1069C166.561 46.6315 167.348 39.5026 167.619 39.2557C167.755 39.3174 173.671 38.2063 173.318 33.5154C177.307 33.7623 178.935 29.7195 176.14 27.5901C186.56 17.0355 157.959 27.3741 158.854 27.2197C152.315 30.3985 140.348 33.5155 134.188 33.7007C126.291 36.9411 124.799 45.4588 132.994 50.2732C133.889 54.6864 128.652 54.4703 127.214 51.878Z" fill="black"/>
<path fill-rule="evenodd" clip-rule="evenodd" d="M138.095 36.571C138.095 36.571 134.16 37.0648 134.648 43.9778L138.095 36.571Z" fill="#F6D628"/>
<path d="M134.648 44.2244C133.292 37.8361 138.312 35.5523 138.312 36.5399C137.769 36.972 134.594 37.7743 134.648 44.2244Z" fill="black"/>
<path fill-rule="evenodd" clip-rule="evenodd" d="M153.047 29.4109C153.047 29.4109 160.59 35.2745 146.48 37.1262L153.047 29.4109Z" fill="#F6D628"/>
<path d="M146.48 37.3731C153.128 34.719 157.605 34.9042 152.857 29.2566C158.012 32.281 154.186 37.0953 146.48 37.3731Z" fill="black"/>
<path fill-rule="evenodd" clip-rule="evenodd" d="M150.903 36.324C150.957 36.4474 154.458 41.1693 147.999 42.558C151.066 45.8602 145.313 46.9712 145.313 46.9712C145.313 46.9712 146.507 50.4585 143.061 51.3843C144.2 54.9951 140.483 54.81 140.483 54.81C140.483 54.81 140.374 59.2232 135.951 59.1615C136.005 62.155 132.939 62.3402 132.939 62.3402C132.939 62.3402 132.016 65.5806 129.058 64.593C128.733 66.8459 126.698 66.383 126.698 66.383L150.903 36.324Z" fill="#F6D628"/>
<path d="M127.132 66.6913C126.535 66.8147 126.155 66.2593 126.725 66.1667C127.295 66.4753 128.842 65.7038 128.923 64.4385C131.528 65.2717 132.722 62.5868 132.695 62.309C133.319 62.0004 135.545 61.7844 135.924 58.9451C140.375 59.0069 139.886 54.8097 140.456 54.5937C141.46 54.8714 143.821 53.5444 142.844 51.2915C143.767 50.8594 144.689 50.5199 145.015 49.6558C145.639 48.2362 144.988 47.2178 145.124 46.8783C146.887 46.3537 150.198 45.2118 147.783 42.5269C151.636 41.4467 152.369 39.7494 150.822 36.2003C153.373 38.7927 151.962 42.1256 148.407 42.7737C150.605 45.2118 146.996 47.0634 145.558 47.2178C146.073 48.73 145.205 51.2606 143.306 51.6001C144.174 53.8221 141.976 55.2726 140.646 55.1183C140.538 56.0441 139.913 59.3771 136.142 59.4697C136.033 62.0621 133.672 62.5559 133.075 62.6484C132.831 63.2965 131.773 65.6729 129.222 64.9939C129.032 66.0741 127.974 66.753 127.132 66.6913Z" fill="black"/>
<path fill-rule="evenodd" clip-rule="evenodd" d="M127.539 69.9934C127.539 69.9934 127.376 66.8764 128.028 66.2592L127.539 69.9934Z" fill="#F3F52C"/>
<path d="M127.539 70.2405C126.779 70.2713 127.648 64.6545 128.163 66.4445C127.512 66.8148 128.082 69.4689 127.539 70.2405Z" fill="black"/>
<path fill-rule="evenodd" clip-rule="evenodd" d="M132.424 68.2963C132.369 68.2345 131.121 65.4262 131.555 64.9324L132.424 68.2963Z" fill="#F3F52C"/>
<path d="M132.451 68.5432C131.962 69.0678 130.687 63.2659 131.718 65.0867C131.284 65.5496 133.048 68.1728 132.451 68.5432Z" fill="black"/>
<path fill-rule="evenodd" clip-rule="evenodd" d="M136.955 66.5064L133.617 62.7722L136.955 66.5064Z" fill="#F3F52C"/>
<path d="M136.955 66.7533C136.847 66.599 133.102 62.9882 133.455 62.587C133.536 62.4944 133.672 62.4944 133.753 62.587C133.726 62.8648 137.959 66.599 136.955 66.7533Z" fill="black"/>
<path fill-rule="evenodd" clip-rule="evenodd" d="M141.162 62.8339C141.107 62.7721 136.114 59.2231 136.114 59.2231L141.162 62.8339Z" fill="#F6D628"/>
<path d="M141.162 63.0808C140.972 62.7721 137.308 60.8587 135.924 59.0996C140.7 61.6611 141.894 63.1733 141.162 63.0808Z" fill="black"/>
<path fill-rule="evenodd" clip-rule="evenodd" d="M142.925 59.2229C142.871 59.1612 140.076 57.8032 139.968 56.6614L142.925 59.2229Z" fill="#F3F52C"/>
<path d="M142.925 59.4697C141.595 59.161 138.665 56.3219 140.184 56.6305C140.211 57.0317 140.7 57.7106 142.816 58.8833C143.115 58.9759 143.305 59.4079 142.925 59.4697Z" fill="black"/>
<path fill-rule="evenodd" clip-rule="evenodd" d="M149.112 55.1185C149.112 55.1185 142.328 56.7851 141.161 54.9951L149.112 55.1185Z" fill="#F6D628"/>
<path d="M143.956 56.0751C142.681 56.0134 140.836 55.89 140.998 54.8098C142.192 55.9825 146.887 55.5196 149.058 54.8715C149.953 55.7665 146.1 55.89 143.956 56.0751Z" fill="black"/>
<path fill-rule="evenodd" clip-rule="evenodd" d="M154.756 51.4459C154.485 51.4459 144.58 52.6802 143.685 51.2606L154.756 51.4459Z" fill="#F6D628"/>
<path d="M147.403 52.1867C145.15 52.3719 142.572 51.4769 143.848 51.1066C143.658 51.6621 146.86 51.9707 154.756 51.1991C154.024 52.7114 148.488 51.8164 147.403 52.1867Z" fill="black"/>
<path fill-rule="evenodd" clip-rule="evenodd" d="M161.323 46.3847C161.16 46.323 149.6 48.8227 146.317 46.9402L161.323 46.3847Z" fill="#F6D628"/>
<path d="M150.523 47.8971C139.94 46.5392 153.535 48.0823 161.405 46.1381C160.075 47.712 154.485 47.465 150.523 47.8971Z" fill="black"/>
<path fill-rule="evenodd" clip-rule="evenodd" d="M166.886 39.5645C166.614 39.5645 151.5 43.7307 149.22 42.4345L166.886 39.5645Z" fill="#F6D628"/>
<path d="M150.767 42.9594C149.98 43.0829 148.325 42.6199 149.302 42.2496C149.438 43.4532 159.478 40.7682 167.076 39.5955C162.3 41.3546 154.159 42.8051 150.767 42.9594Z" fill="black"/>
<path fill-rule="evenodd" clip-rule="evenodd" d="M172.639 33.5771C172.531 33.5771 154.621 38.3298 152.342 36.3855L172.639 33.5771Z" fill="#F6D628"/>
<path d="M154.756 37.1262C153.589 37.2805 151.337 36.6324 152.504 36.2004C153.182 37.7126 162.843 35.3362 172.883 33.5771C166.967 35.6757 158.664 36.941 154.756 37.1262Z" fill="black"/>
<path fill-rule="evenodd" clip-rule="evenodd" d="M174.946 27.7753C174.892 27.7753 157.769 34.1327 156.331 32.5587L174.946 27.7753Z" fill="#F6D628"/>
<path d="M157.362 33.0217C156.575 33.2378 155.544 32.281 156.493 32.3736C156.276 33.5463 164.254 30.8923 175.163 27.7753C169.084 30.5219 160.292 32.8983 157.362 33.0217Z" fill="black"/>
<path fill-rule="evenodd" clip-rule="evenodd" d="M147.674 58.791C147.674 58.791 146.616 75.8882 146.561 75.8573C146.507 75.8265 144.363 72.8638 144.363 72.8638L137.742 96.4419L139.289 101.596L135.436 115.946L132.261 111.379L127.132 113.724L131.257 98.6023L135.056 95.4852L141.921 72.2466L138.122 72.7712L147.674 58.791Z" fill="#5BCDDB"/>
<path d="M135.517 116.409L132.125 111.533L126.861 114.095L131.094 98.5715L134.974 95.3619L141.677 72.5245L137.715 73.0799L147.891 58.174C146.1 76.3822 148.488 79.1905 144.445 73.296L137.932 96.5346L139.479 101.565L135.517 116.409ZM132.206 111.225L135.381 115.576L139.126 101.565L137.579 96.5346L144.282 72.4628C144.499 72.7714 145.639 74.3144 146.426 75.3946C146.588 73.2651 147.158 63.945 147.457 59.4701L138.529 72.5554L142.192 72.0307L135.246 95.5779L131.365 98.7875L127.431 113.416L132.206 111.225Z" fill="black"/>
<path fill-rule="evenodd" clip-rule="evenodd" d="M162.3 65.8584C162.3 65.8584 154.295 80.3941 154.268 80.3324C154.241 80.2707 153.562 76.5364 153.562 76.5364C146.697 83.6345 133.02 98.3863 126.372 105.824L126.345 102.645L121.542 101.966C123.442 100.3 128.489 95.2693 131.148 95.8248L151.663 74.6848L148.081 73.1417L162.3 65.8584Z" fill="#5BCDDB"/>
<path d="M126.209 106.256L126.155 102.614L121.081 102.09C123.035 100.392 128.353 95.0532 131.121 95.6087L151.337 74.7155L147.647 73.1107L162.789 65.3954L162.49 65.9509C154.485 80.5174 154.458 80.5174 154.322 80.5174C154.16 80.394 154.132 80.3323 153.508 76.9067C146.588 84.0048 132.858 98.8491 126.209 106.256ZM121.976 101.812L126.345 102.429L126.508 105.361C133.156 97.9233 146.779 83.2642 153.644 76.1352C153.725 76.5055 154.078 78.5114 154.322 79.8385C155.354 78.0485 159.722 70.1171 161.812 66.3212L148.515 73.1107L151.961 74.6229L131.257 95.979C128.516 95.5161 123.903 100.053 121.976 101.812Z" fill="black"/>
<path d="M126.535 102.707L126.209 102.491C126.291 102.275 130.253 98.4171 133.563 95.2075L133.78 95.5162C130.985 98.2628 126.725 102.429 126.535 102.707Z" fill="black"/>
<path fill-rule="evenodd" clip-rule="evenodd" d="M158.013 53.5752C158.013 53.5752 154.105 70.1169 154.051 70.086C153.997 70.0243 152.396 66.6605 152.396 66.6605L136.548 97.6453L137.2 103.046L131.501 114.897L129.14 109.712L123.713 110.885L129.792 98.3242L134.052 96.1023L150.089 65.5186L146.263 65.21L158.013 53.5752Z" fill="#5BCDDB"/>
<path d="M131.501 115.329L129.004 109.805L123.387 111.194L129.655 98.2627L133.997 95.9481L149.817 65.704L145.855 65.3954L158.338 52.9891C154.756 68.2038 154.051 71.0121 154.105 70.2714C153.915 70.2097 153.888 70.148 152.395 67.0927L136.684 97.7689L137.362 103.015L131.501 115.329ZM129.14 109.527L131.528 114.496L137.063 102.954L136.385 97.6763L152.422 66.2595C152.585 66.599 153.426 68.3889 154.023 69.5925C154.512 67.6173 156.52 59.2539 157.714 54.1618L146.724 65.0558L150.414 65.3337L134.241 96.195L129.9 98.5097L124.065 110.607L129.14 109.527H129.085C129.085 109.465 129.086 109.373 134.594 98.4479L134.893 98.633C133.427 101.565 129.547 109.28 129.438 109.558L129.14 109.527Z" fill="black"/>
<path fill-rule="evenodd" clip-rule="evenodd" d="M21.573 50.4586L31.1249 50.5203L30.1752 53.1435L34.3541 71.9381L39.4013 53.2052L37.6104 50.4894H47.5693C45.4798 50.2425 37.9903 78.1412 37.2305 79.9312L39.347 83.4494H29.7953L31.9389 79.9312C30.9892 77.7092 24.0695 50.5203 21.573 50.4586Z" fill="#5BCDDB"/>
<path d="M39.6728 83.6344H29.4425L31.749 79.8076C30.6636 77.2152 24.0153 50.7054 21.1389 50.2733L31.3692 50.335L30.3109 53.236L34.3269 71.1973L39.1842 53.1434L37.2305 50.2733H47.9221C45.3713 50.5202 38.3159 77.6782 37.339 79.9928L39.6728 83.6344ZM30.1209 83.2332H39.0214L37.0949 80.0236C37.9089 78.2028 45.0728 50.7362 47.1894 50.6436H37.9902L39.5642 53.0508L34.3541 72.6478L30.0394 53.1743L30.9078 50.7053L22.0073 50.6436C23.9068 49.9955 31.4777 78.3263 32.1018 79.8385L30.1209 83.2332Z" fill="black"/>
<path fill-rule="evenodd" clip-rule="evenodd" d="M168.216 51.1066H177.306L175.841 53.4212L175.787 80.7644L177.822 83.3258H168.216L170.142 80.5483L170.088 53.4829L168.216 51.1066Z" fill="#5BCDDB"/>
<path d="M178.229 83.5108H167.863L170.007 80.4247L169.925 53.4519L167.836 50.8903H177.659L175.977 53.5445V80.7642L178.229 83.5108ZM168.596 83.1096H177.442L175.678 80.8876V53.421L176.981 51.2916H168.623L170.224 53.3284L170.305 80.5482L168.596 83.1096ZM99.2634 32.2193L99.182 31.818C103.524 30.3367 97.1197 28.4541 96.4956 26.5099L96.7669 26.263C97.7438 28.4233 104.256 30.3058 99.2634 32.2193ZM102.954 28.8862C101.271 28.8862 100.81 26.6642 100.81 26.6334L98.4222 24.0718L98.6664 23.7941L100.892 26.2013C103.958 25.8309 106.671 28.6084 102.954 28.8862ZM101.136 26.5408C100.946 27.837 103.605 29.2257 104.419 27.9295C104.528 27.806 102.682 26.2939 101.136 26.5408Z" fill="black"/>
<path fill-rule="evenodd" clip-rule="evenodd" d="M83.6876 107.398L86.944 104.312C86.944 104.312 86.2383 102.614 83.6333 102.676C77.9347 97.9542 76.3338 95.5161 74.9227 89.6833C77.6906 89.529 78.3961 80.7027 74.38 84.9616C73.8916 85.7948 73.1045 88.9118 71.9377 87.8625C70.7708 86.7824 72.1005 85.6096 72.1005 85.6096C73.9186 84.1591 72.6704 80.7027 71.5036 79.5299C71.178 80.4249 70.7709 85.6713 68.6272 84.4369C67.6503 80.5483 72.3177 83.3567 69.1156 75.7648C67.9759 78.2646 66.7548 80.7644 65.7508 79.4682C65.8593 75.2094 72.2363 75.3946 66.0764 69.0989C66.2392 70.0247 65.3166 75.9192 62.9829 73.9749C61.8703 71.0739 68.193 67.9569 66.0764 63.8215C66.0764 63.8215 63.9326 65.3337 63.6341 66.0744C63.3627 66.8459 62.4674 69.5309 61.3819 68.6976C60.595 66.1053 62.7387 65.8892 63.0372 63.8524C63.2814 63.1117 59.6451 59.3774 60.2149 57.4332C57.9355 58.2664 60.3779 68.5124 57.8 63.9141L58.0713 57.6492C58.0713 57.6492 55.9817 54.7483 53.431 53.699C56.0631 59.1923 50.0662 59.3774 56.7416 65.7349C53.3225 61.5377 49.0622 62.9265 47.814 62.0933C50.9617 67.494 50.3646 69.8704 56.9858 69.3766C56.9858 69.3766 58.804 70.8271 58.9668 71.7529C59.1296 72.7096 56.3346 69.9938 55.222 70.0556C54.1095 70.1173 51.206 69.6235 51.206 69.6235C54.0552 72.8948 53.1868 76.629 58.7768 76.1969C58.7768 76.1969 59.9979 75.3945 60.2149 76.2586C60.432 77.1536 58.614 77.8326 58.614 77.8326C56.009 78.2646 56.416 75.9809 52.6984 75.3945C52.427 77.956 54.1908 80.6101 54.1908 80.6101C54.1908 80.6101 61.6532 79.9311 61.5717 81.7519C61.5175 83.5728 55.3848 81.9371 55.1677 81.3816C55.5476 89.7142 61.409 84.3752 63.7156 86.6589C63.7156 87.5847 56.4431 88.3563 56.3345 88.1094C58.2883 94.1891 64.8009 88.5415 66.4833 90.3623C65.7507 92.3991 61.4632 91.4425 59.9165 91.4425C59.8894 93.541 65.3166 96.4111 67.2976 93.0781C72.8604 91.7202 79.9157 104.157 83.6876 107.398Z" fill="#3B8511"/>
<path d="M83.6873 107.614C81.3265 105.176 72.453 94.158 69.7394 93.1704C67.5685 92.5224 67.0802 94.4666 64.2309 94.9296C61.8972 94.9604 59.9162 92.9853 59.7806 91.3187C57.9353 91.1644 56.5242 89.3436 56.1443 88.1091C57.8538 87.8005 63.3083 87.461 63.5525 86.6587C60.1334 85.239 55.4387 89.2202 54.9503 81.3197C63.0639 84.4058 63.4982 79.6223 54.1906 80.8568C52.2639 78.9125 51.2056 71.9687 56.2258 77.1843C56.6871 77.6163 58.0981 77.7089 58.5866 77.7089C59.8348 77.462 60.8661 75.456 58.8309 76.4435C53.268 76.8447 53.865 73.6043 51.0157 69.5923C52.6167 69.3146 57.0128 70.2096 58.8309 71.8143C58.6409 71.1354 57.3383 69.9935 56.8498 69.5923C50.4729 70.3021 50.5273 67.2777 47.6509 62.2782C49.1976 61.9079 52.3182 62.4017 54.679 63.6979C52.481 60.7352 53.0779 59.0995 54.1362 56.7232C54.1091 56.7232 54.1362 55.3036 53.2679 53.8531C55.0588 53.1742 58.3694 57.9576 58.1795 57.5564L57.9353 63.9756C58.2881 64.5311 58.7494 65.1175 58.9122 65.1175C58.9122 62.6177 58.288 58.6057 60.2418 57.3096C60.0247 59.655 63.1997 62.7412 63.1726 63.883C63.1454 65.457 60.1333 67.4321 61.7614 68.6974C62.4941 68.6974 63.1455 66.8766 63.3897 66.1668C64.8008 64.6237 66.5917 61.5376 66.5374 66.0125C66.8088 69.0678 59.6992 74.7154 64.3937 73.7895C65.9405 73.4809 65.2891 70.1479 66.1574 68.9443C66.266 69.0368 68.8712 71.4749 68.8169 73.6969C68.3827 77.8015 65.5605 76.351 65.859 79.3754C66.9173 80.1469 67.7314 78.141 68.8982 75.7029C70.7435 76.8448 70.6621 81.69 69.0882 82.4307C67.5686 83.9737 69.1695 85.5168 70.3906 83.2331C70.7706 83.0788 70.9605 79.3445 71.4218 79.3445C72.8329 80.5173 74.027 84.2824 72.1817 85.7637C71.8832 85.8872 71.1505 87.245 71.9917 87.7388C73.5928 88.2943 74.1083 82.9553 76.5234 83.6343C78.043 84.1589 77.1205 89.8682 75.0853 89.8374L77.1205 96.1023C77.1476 96.1023 81.2994 100.639 83.6873 102.552C86.1296 102.46 87.0793 104.188 87.0522 104.25C86.9708 104.311 83.8773 107.644 83.6873 107.614ZM69.1153 92.7383C72.6159 93.0161 81.028 104.466 83.7145 107.151L86.835 104.219C86.7265 104.034 85.5869 102.892 83.5517 102.892C81.1366 100.947 76.9576 96.38 76.9033 96.3492L74.7597 89.8066C76.632 88.9425 77.6361 86.1958 76.6049 84.0355C74.2169 83.4491 73.7827 89.2202 71.8289 88.0783C69.9023 85.1157 75.438 84.591 71.4762 79.8383C71.7475 82.1838 69.441 87.0908 68.1385 83.7578C69.3596 81.1037 71.0692 79.9309 69.1425 76.2893C68.4098 78.2335 67.1887 79.4372 67.1345 79.4989C65.6963 81.7518 64.7193 77.8015 66.3746 77.1843C69.0339 75.9498 68.8983 71.5366 66.2389 69.6232C66.5917 71.9995 64.1766 76.9682 62.5213 73.4809C62.9012 70.5182 67.4058 68.3579 65.9676 64.2534C63.634 64.9323 63.3896 69.654 61.273 69.0059C60.2147 66.6296 62.7384 65.4569 62.8469 64.0373C63.1183 63.1732 59.7805 60.3648 60.079 58.1428C58.0981 59.3464 60.7304 68.8825 57.6369 64.1916L57.881 57.8034C57.8267 57.8034 56.063 55.427 53.865 54.2851C55.6831 59.8093 50.6357 59.7167 56.877 65.7655C54.9232 64.5311 51.0157 62.2165 48.3021 62.6485C50.7444 67.3703 50.9884 69.9627 56.9855 69.3146C61.7071 73.8203 57.7454 71.7218 55.2489 70.3947L54.9775 70.2096V70.4256C54.082 70.4256 52.5082 70.2096 51.6941 70.0553C54.3263 73.8204 53.5393 76.3818 58.7494 76.1658C61.4087 74.8079 60.1605 78.1409 58.6409 78.2027C56.1987 78.7582 55.873 76.2584 52.8338 75.7955C52.6981 78.0792 54.1634 80.4247 54.2991 80.6407C62.4941 78.6656 64.8821 85.3625 55.3031 81.9061C55.8458 89.6523 61.9243 84.0355 63.8781 86.813C63.8239 88.0783 57.067 88.5104 56.5514 88.5104C57.8268 92.8309 64.5022 90.0226 65.3706 89.8066C69.9023 91.5657 61.3002 92.4297 60.1062 91.8742C62.7112 96.8738 65.7233 93.1704 69.1153 92.7383ZM60.3233 91.3496C61.8701 91.3496 65.2349 91.8742 66.2661 90.6398C66.239 89.8065 64.7736 90.146 64.5837 90.146C64.6108 90.1769 63.2269 91.1953 60.3233 91.3496Z" fill="black"/>
<path d="M83.6328 107.583C82.1946 106.225 82.3032 102.491 83.85 102.707C82.1675 104.281 83.3615 105.515 83.6328 107.583ZM63.8236 93.4793C62.6296 93.5101 61.7885 92.7077 62.5483 92.7077C62.4669 93.0781 64.2035 93.2015 66.4016 92.5226C65.9131 93.4176 64.2849 93.4175 63.8236 93.4793ZM61.0557 89.7142C60.2145 89.6216 59.0206 89.4981 59.4276 88.8809C60.2688 89.1586 61.2187 89.961 64.2579 88.2019C64.8277 89.2203 61.1914 89.745 61.0557 89.7142ZM72.073 89.6524C71.8017 89.745 70.9062 89.4672 71.5303 89.1895C74.1625 89.7141 75.2208 86.3194 75.2479 86.1959C76.2248 85.6096 74.5967 89.7141 72.073 89.6524ZM70.0648 86.2577C69.8478 86.2577 69.8478 85.8565 70.0648 85.8565C71.6116 85.7022 71.6659 82.6469 72.1 82.7395C72.4799 82.8938 71.6387 86.1343 70.0648 86.2577ZM59.7532 85.1467C57.5552 85.1467 56.1442 83.5728 57.0668 83.6345C57.1211 83.6962 58.3693 85.4552 61.6799 84.4368C62.4397 85.0849 60.0246 85.1467 59.7532 85.1467ZM66.9715 81.9371C66.7544 81.9371 66.7272 81.5668 66.9443 81.5359C68.0298 81.3199 68.5724 79.5299 68.5724 79.283C69.4136 78.4498 68.4368 81.8445 66.9715 81.9371ZM57.8808 79.715C55.3572 79.6842 53.322 77.8634 54.2989 77.8016C54.326 77.8325 55.9271 79.7459 58.8307 79.2521C59.5091 79.6533 58.1793 79.7459 57.8808 79.715ZM64.502 76.9993C64.2035 77.0919 64.1765 76.5055 64.4207 76.5981C66.1845 76.9067 66.9171 74.4686 66.6729 73.3576L66.8357 73.2342L67.0256 73.3268C67.3241 74.5304 66.4287 77.3079 64.502 76.9993ZM58.3421 74.3761C56.6868 74.2835 52.4265 71.938 53.4848 71.6603C53.512 71.6911 56.9583 74.0983 58.5051 73.944C58.885 74.0057 58.6406 74.4687 58.3421 74.3761ZM61.9784 70.2098C61.7342 70.3024 61.4357 69.8703 61.8427 69.8086C63.8237 69.9011 64.692 67.6483 64.692 67.6174C65.6689 67.1236 64.2035 70.2406 61.9784 70.2098ZM56.1984 68.0803C53.8647 68.7593 50.2014 65.2719 51.8024 64.6856C51.8295 66.8767 54.2175 67.8643 56.7412 67.6791C57.311 67.9877 56.4969 68.1729 56.1984 68.0803ZM59.5633 67.0002C59.1019 66.4138 61.1915 66.0126 61.0287 65.1794C61.4629 63.698 60.4046 62.8339 60.6759 62.4327C61.8699 62.7105 61.7613 66.8459 59.5633 67.0002ZM57.7452 65.8892C54.9502 64.161 54.8145 57.7726 55.2216 57.6492C55.6829 57.7418 55.0858 63.6055 57.8537 65.5189C57.9894 65.6115 57.908 65.8892 57.7452 65.8892Z" fill="black"/>
<path fill-rule="evenodd" clip-rule="evenodd" d="M124.201 71.969C126.019 73.2034 126.481 76.1044 127.539 77.9869C128.109 78.3264 130.307 80.3633 130.605 81.1348C132.668 84.4061 132.966 87.1219 135.897 89.8686C140.537 89.6217 142.247 91.4734 141.758 96.0717C141.758 96.0717 140.944 96.9049 140.537 96.4111C140.13 95.9174 139.452 98.8801 138.23 98.0468C136.575 94.0348 132.261 94.6829 132.261 94.6829C132.478 89.7451 122.763 93.7571 121.542 85.548L118.123 82.1532L124.201 71.969Z" fill="#F6D628"/>
<path d="M138.665 98.386C138.502 98.386 138.312 98.3243 138.149 98.2008C136.548 94.8061 133.943 94.7135 131.935 94.9295C132.668 93.4482 131.718 92.8001 129.33 91.7199C124.635 93.3864 121.026 85.8562 121.406 85.6093L118.041 82.338L124.201 71.66C126.236 73.1722 126.671 75.8572 127.647 77.8014C131.582 79.9926 132.885 87.0598 135.978 89.6522C137.606 89.9916 140.727 89.467 141.433 91.4113C142.138 94.3431 142.708 97.2132 140.456 96.5343C139.994 97.1207 139.452 98.386 138.665 98.386ZM138.393 97.9539C139.316 98.3551 139.75 96.3183 140.428 96.164C140.835 96.5034 141.487 96.1022 141.622 95.917C141.948 91.5964 140.456 89.8065 135.843 90.0534C133.02 87.6771 132.423 84.3749 130.442 81.2271C130.171 80.4864 128 78.5112 127.43 78.1717C125.829 75.7954 126.752 74.4993 124.201 72.2773L118.231 82.3072L121.623 85.4242C121.705 85.6093 123.496 92.4606 129.276 91.3496C131.365 92.2137 132.532 92.8617 132.478 94.4665C133.427 94.4048 136.901 94.3431 138.393 97.9539Z" fill="black"/>
<path fill-rule="evenodd" clip-rule="evenodd" d="M120.728 82.122L123.414 83.5417L123.197 80.9185L120.728 82.122Z" fill="#F6D628"/>
<path d="M123.604 83.8811L120.646 82.3073L120.782 81.9368L123.197 83.2022L123.007 80.9493L123.36 80.9185L123.604 83.8811Z" fill="black"/>
<path fill-rule="evenodd" clip-rule="evenodd" d="M124.527 81.7212L126.997 83.1099L126.02 80.8262L124.527 81.7212Z" fill="#F6D628"/>
<path d="M127.404 83.5418L124.446 81.9061L124.609 81.5358L126.617 82.6468L125.857 80.9186L126.182 80.7643L127.404 83.5418Z" fill="black"/>
<path fill-rule="evenodd" clip-rule="evenodd" d="M124.391 78.0178L126.834 79.4992L125.721 76.6599L124.391 78.0178Z" fill="#F6D628"/>
<path d="M127.213 79.962L124.31 78.2029L124.5 77.8635L126.454 79.0361L125.558 76.7215L125.857 76.5673L127.213 79.962Z" fill="black"/>
<path fill-rule="evenodd" clip-rule="evenodd" d="M128.271 91.5967C124.527 86.2269 125.314 87.5231 130.252 88.4798L128.516 84.2517L132.803 85.5479L128.271 91.5967Z" fill="#F6D628"/>
<path d="M128.136 91.7199C125.314 87.5227 125.314 87.5227 125.395 87.3684C125.558 87.2758 125.612 87.245 129.981 88.2325L128.244 83.9736L132.885 85.3624L132.803 85.7328L128.869 84.56L130.578 88.788C130.307 88.7263 127.376 88.0782 125.938 87.7696C126.426 88.5411 127.593 90.2694 128.407 91.5038L128.136 91.7199Z" fill="black"/>
<path fill-rule="evenodd" clip-rule="evenodd" d="M136.25 92.2139C136.25 92.2139 138.99 92.8928 138.882 98.0775L136.25 92.2139Z" fill="#F6D628"/>
<path d="M139.044 98.0776H138.692C138.773 93.1398 136.304 92.43 136.195 92.3991L136.277 91.9979C136.385 92.0596 139.153 92.8312 139.044 98.0776Z" fill="black"/>
<path fill-rule="evenodd" clip-rule="evenodd" d="M137.661 91.4423C137.661 91.4423 140.618 91.2572 140.428 96.4728L137.661 91.4423Z" fill="#F6D628"/>
<path d="M140.618 96.4729H140.266C140.537 93.9732 139.289 91.566 137.688 91.6586L137.661 91.2573C139.424 91.0722 140.917 93.7571 140.618 96.4729Z" fill="black"/>
<path fill-rule="evenodd" clip-rule="evenodd" d="M86.8347 72.6168C85.3965 73.5427 84.3653 76.8448 83.1442 78.3262C81.2447 79.4372 79.0468 84.3133 78.1785 85.9181C78.1785 85.9181 76.0346 89.4363 74.8406 89.7757C73.3482 89.8992 70.5261 90.2387 69.8205 92.1212C68.708 95.3925 71.5301 98.1392 73.1582 97.6145C73.8095 97.8306 73.4567 98.4787 74.6507 97.6454C72.3712 94.0964 76.3602 94.3124 77.1743 95.8863C77.1743 95.8863 77.7172 92.9853 81.5705 91.504C90.6881 92.2138 87.6489 84.6219 93.266 83.048L86.8347 72.6168Z" fill="#F6D628"/>
<path d="M73.8096 98.2628C73.4297 98.2319 73.4568 97.9233 73.1041 97.8308C70.9332 98.3863 68.5453 94.7754 69.6579 92.0596C71.9916 88.5723 76.3061 90.7326 78.0428 85.8256C78.9383 84.1591 81.1636 79.2521 83.0631 78.172C84.447 76.382 84.9354 73.8514 86.862 72.3392L93.5104 83.1407C92.2621 84.1283 90.7153 84.5294 89.7656 85.9799C88.7344 93.757 77.6358 90.2389 77.2559 96.2877C76.1705 94.3743 72.6157 94.3434 74.8951 97.7073C74.5152 97.985 73.9996 98.2936 73.8096 98.2628ZM73.2127 97.4295C73.5655 97.553 73.6197 97.7072 73.8368 97.8615C73.9453 97.8615 74.1353 97.769 74.4067 97.5838C72.5615 94.7446 75.5464 93.4792 77.0931 95.5469C76.9575 94.7446 80.3766 90.4858 83.1987 91.4733C90.2812 90.7018 88.0018 84.4369 93.0219 82.9864L86.8079 72.8947C84.4199 75.055 85.0169 76.4438 83.2259 78.4806C81.3535 79.6225 79.2369 84.3134 78.3143 86.0108C78.2057 86.1651 76.1162 89.6216 74.868 89.961C73.5926 90.0845 70.6348 90.3622 69.9835 92.1831C69.088 94.7446 70.7704 97.1517 72.8328 97.5838L72.9143 97.4912L73.2127 97.4295Z" fill="black"/>
<path d="M72.9686 97.7381C71.4219 95.6704 73.647 91.3188 75.1666 92.1521C72.9686 93.1396 72.6972 94.7754 72.9686 97.7381ZM82.8733 91.751C82.412 90.9794 84.4471 89.0043 84.9898 87.8933C79.8611 89.1586 80.5395 89.4981 82.1406 84.7146C82.0049 84.622 78.3687 85.8255 78.423 85.3317C78.1787 84.9305 82.3035 84.375 82.3849 84.2516C83.0633 84.0664 81.1908 88.2019 81.2722 88.3562C85.3426 87.3995 85.3698 87.3995 85.3969 87.3995C85.5597 88.3562 83.1989 91.0411 82.8733 91.751ZM87.6221 84.0356C87.2693 84.2208 87.595 80.4557 88.002 81.5975L87.8121 83.48C87.9477 83.48 90.4714 81.6284 90.5528 82.0604C90.8242 82.4308 87.7035 83.9122 87.6221 84.0356ZM84.0673 83.2949C83.416 83.5109 85.5598 79.499 85.4241 80.8569L84.5014 82.6468C84.6642 82.6777 86.7808 81.1964 86.8622 81.6284C87.0793 81.9988 84.1758 83.1406 84.0673 83.2949ZM84.5014 79.3755C83.9587 79.499 85.4511 76.1659 85.4782 77.3695L84.8813 78.7891C85.0441 78.82 86.8623 77.5855 86.9437 77.9867C87.1336 78.3262 84.6371 79.2829 84.5014 79.3755Z" fill="black"/>
<path d="M71.0151 96.843C69.9297 94.0655 71.8292 91.1646 73.5387 91.3497V91.7509C71.9648 91.5966 70.3638 94.1889 71.3407 96.7196L71.0151 96.843Z" fill="black"/>
<path d="M120.619 100.269C120.348 99.7131 118.204 91.7818 111.827 91.9361C113.428 91.3497 113.835 88.9424 113.238 87.924L113.428 87.8314L113.401 87.5846C114.107 87.7698 114.08 91.3497 113.103 91.6583C119.045 92.1212 121.298 100.083 120.619 100.269Z" fill="black"/>
<path d="M102.303 112.706C101.977 112.181 101.353 97.7686 104.582 95.9169C104.501 95.8552 104.419 95.7626 104.338 95.6392C99.6161 94.0035 99.6433 110.36 98.8292 110.329C98.5307 109.774 99.806 95.9787 103.307 94.9911C103.089 94.7442 102.9 94.4973 102.764 94.2196C102.71 94.2504 102.628 94.2504 102.574 94.2196C102.167 94.3122 96.9296 100.916 95.7357 107.428C95.7628 101.503 101.19 95.2071 102.167 94.127C101.841 94.0344 101.597 93.8801 101.353 93.7258C100.322 94.2196 94.2432 99.7129 93.5377 105.422C93.1578 99.7438 99.9417 94.343 101.081 93.448C100.946 93.3246 100.864 93.1703 100.756 92.9851C100.457 93.1086 100.077 92.9234 99.8332 92.7691C99.4805 92.8 91.9095 98.4785 92.0181 103.015C90.7969 98.6328 98.7478 93.0469 99.5348 92.4913C99.4534 92.3679 99.3719 92.2753 99.3176 92.121C98.802 92.3062 98.205 91.9358 97.8793 91.5963C97.5266 91.4729 91.9094 93.5097 90.2542 100.268C90.7155 93.6949 97.1197 91.3186 97.6624 91.2569C97.1468 90.3619 97.0111 87.3067 97.7709 87.8005C97.5266 88.8806 97.391 91.8432 99.2091 91.7815C99.1549 91.7506 98.7207 88.8188 99.5348 89.2817C99.3177 91.4112 99.3447 92.337 100.647 92.6456C100.267 91.3803 100.783 89.3435 101.109 90.331C100.647 90.8865 100.892 93.9727 102.601 93.8184C102.086 92.4605 102.303 90.7323 102.737 91.5655C102.71 91.6581 102.248 93.8801 104.121 95.1454C103.687 93.9418 104.121 91.7507 104.473 92.7074C104.229 92.9852 104.066 95.8243 105.45 95.9169C107.377 95.2997 106.699 92.5531 106.943 92.3062C107.35 92.2753 107.594 94.3121 106.509 95.6392C109.901 97.0588 109.249 112.15 108.897 112.706C108.082 112.706 110.335 95.0837 105.478 96.1948C100.946 96.4725 103.117 112.613 102.303 112.706ZM112.533 110.175C112.37 109.681 110.606 95.454 107.296 94.7134C108.951 94.4356 108.137 91.9975 108.218 91.5038C108.598 91.4112 108.924 92.6456 108.68 93.8184C108.707 93.8492 108.734 93.8801 108.788 93.9109C110.389 93.6023 110.498 91.5655 110.253 90.331C110.959 89.5903 110.66 92.4296 110.525 92.6765C112.533 91.226 111.447 89.1275 111.854 88.8497C112.261 88.8189 112.587 91.2569 110.986 92.8C117.716 95.022 119.642 102.676 119.208 103.108C118.774 102.892 117.417 94.8677 110.389 92.9851C110.253 93.2938 110.063 93.5715 109.846 93.7876C113.917 94.4048 118.123 104.928 117.852 105.484C117.336 105.546 113.483 93.2937 109.059 94.2196C110.308 95.7935 116.305 102.737 115.491 107.397C115.246 102.46 109.439 94.9294 108.517 94.1887C108.381 94.4356 108.164 94.6517 107.893 94.8368C111.42 96.5034 112.994 109.712 112.533 110.175Z" fill="black"/>
<path d="M105.532 93.4175C88.626 84.6837 79.7796 63.4203 84.9897 44.0702C90.4712 48.7611 100.186 47.8044 105.45 44.3788C109.955 48.8846 122.465 46.8786 126.508 44.1011C130.334 65.2103 122.057 84.6837 105.532 93.4175ZM85.2069 44.6875C80.3224 63.6672 89.0059 84.3752 105.532 93.0164C121.705 84.3443 129.818 65.3954 126.264 44.6875C122.112 47.7119 108.924 48.9155 105.45 44.78C101.054 47.9279 90.4984 49.3475 85.2069 44.6875Z" fill="black"/>
<path fill-rule="evenodd" clip-rule="evenodd" d="M85.0985 44.3787C89.7387 48.8536 101.027 47.8969 105.532 44.5638C109.656 49.1004 122.682 47.0327 126.399 44.3787C130.144 65.6113 121.623 84.6528 105.532 93.2014C88.4633 84.3442 80.1869 63.0189 85.0985 44.3787Z" fill="#B30C40"/>
<path d="M105.532 93.4792C88.599 84.7763 79.6986 63.3894 84.9629 44.0084C90.5529 48.7611 100.078 47.7735 105.423 44.3479C110.172 48.8228 122.275 46.8785 126.535 44.0392C130.388 65.1793 122.112 84.7146 105.532 93.4792ZM85.2342 44.7491C80.3769 63.6671 89.0603 84.3442 105.532 92.9545C121.651 84.3133 129.764 65.4262 126.237 44.7491C121.949 47.8043 109.005 49.0079 105.423 44.8416C101.19 48.0204 90.3629 49.3474 85.2342 44.7491Z" fill="black"/>
<path fill-rule="evenodd" clip-rule="evenodd" d="M85.0983 44.3787C89.9285 49.2856 102.248 47.3105 105.532 44.5638C109.656 49.1004 122.681 47.0327 126.399 44.3787C127.295 50.5509 127.756 53.6988 126.969 59.8093L83.9584 59.5316C83.3886 53.4211 83.4158 50.9521 85.0983 44.3787Z" fill="#1C2A7D"/>
<path d="M127.132 60.0563C127.024 60.0563 83.8775 59.7785 83.7419 59.7785C83.1177 53.3594 83.2535 50.551 84.963 44.0084C90.9058 49.224 101.272 47.1562 105.423 44.3479C110.145 48.8228 122.302 46.8785 126.535 44.0392C127.485 50.3349 128.001 53.7606 127.132 60.0563ZM84.1488 59.2539L126.779 59.5317C127.539 53.668 127.105 50.5818 126.237 44.7182C121.949 47.7734 109.005 48.9771 105.451 44.78C102.004 47.5575 90.7701 49.656 85.2615 44.7182C83.6876 50.8287 83.6061 53.2977 84.1488 59.2539Z" fill="black"/>
<path fill-rule="evenodd" clip-rule="evenodd" d="M86.6448 59.7476L86.6177 71.3206L89.4398 77.0917L89.4126 59.7476H86.6448Z" fill="white"/>
<path fill-rule="evenodd" clip-rule="evenodd" d="M93.7549 59.7784L93.782 83.6343L96.577 86.5044L96.5498 59.7784H93.7549Z" fill="white"/>
<path fill-rule="evenodd" clip-rule="evenodd" d="M100.755 59.8711V90.2387L103.55 91.9669L103.523 59.8711H100.755Z" fill="white"/>
<path fill-rule="evenodd" clip-rule="evenodd" d="M124.798 59.9946L124.852 69.9011L122.22 75.9808L122.03 59.9946H124.798Z" fill="white"/>
<path fill-rule="evenodd" clip-rule="evenodd" d="M117.905 59.9329L117.824 82.9245L115.11 85.8255L115.138 59.9329H117.905Z" fill="white"/>
<path fill-rule="evenodd" clip-rule="evenodd" d="M110.661 59.9021L110.688 89.8685L107.865 91.8744L107.893 59.9021H110.661Z" fill="white"/>
<path d="M105.532 93.4175C88.626 84.6837 79.7796 63.4203 84.9897 44.0702C90.4712 48.7611 100.186 47.8044 105.45 44.3788C109.955 48.8846 122.465 46.8786 126.508 44.1011C130.334 65.2103 122.057 84.6837 105.532 93.4175ZM85.2069 44.6875C80.3224 63.6672 89.0059 84.3752 105.532 93.0164C121.705 84.3443 129.818 65.3954 126.264 44.6875C122.112 47.7119 108.924 48.9155 105.45 44.78C101.054 47.9279 90.4984 49.3475 85.2069 44.6875Z" fill="black"/>
</svg>
