<svg width="202" height="134" viewBox="0 0 202 134" fill="none" xmlns="http://www.w3.org/2000/svg">
<path d="M35.3901 0L94.3102 44.6563H202V0H35.3901Z" fill="#D03033"/>
<path d="M106.116 53.6061H202V44.6562H94.3101L106.116 53.6061Z" fill="white"/>
<path d="M94.3101 89.3438H202V80.394H106.116L94.3101 89.3438Z" fill="white"/>
<path d="M94.3102 89.3435L35.3901 134H202V89.3435H94.3102Z" fill="#1F189B"/>
<path d="M0 44.6562H23.5029L0 26.8492V44.6562Z" fill="black"/>
<path d="M0 44.6562V89.3435H23.5029L52.9765 66.9999L23.5029 44.6562H0Z" fill="black"/>
<path d="M0 89.3435V107.181L23.5029 89.3435H0Z" fill="black"/>
<path d="M0 26.8493L52.9765 67L0 107.181V117.89L67.1162 67L0 16.1095V26.8493Z" fill="#F2B126"/>
<path d="M0 0V16.1095L67.1162 67L0 117.89V134H21.2232L91.9489 80.3938H202V53.6062H91.9489L21.2232 0H0Z" fill="#32784C"/>
</svg>
