<svg
  width="118"
  height="40"
  viewBox="0 0 118 40"
  fill="none"
  xmlns="http://www.w3.org/2000/svg"
>
  <g clip-path="url(#clip0)">
    <path
      d="M49.6509 10.7686H57.3323C61.2938 10.7686 63.9629 12.9647 63.9629 16.4741C63.9629 20.4919 60.9173 22.3416 57.2536 22.3416H53.6686V29.2262H49.6509V10.7686ZM53.6686 19.1564H56.7423C58.6022 19.1564 59.9227 18.4355 59.9227 16.5579C59.9227 14.6579 58.5235 13.9314 56.8266 13.9314H53.6742V19.1564H53.6686Z"
      fill="black"
    ></path>
    <path
      d="M64.8562 19.1286C64.8562 17.7371 64.8562 16.5301 64.8281 15.351H68.6267C68.6773 15.6751 68.7335 17.0386 68.7335 17.7874C69.3516 16.206 70.835 15.0548 73.2063 15.0269V18.6983C70.4023 18.62 68.7335 19.3689 68.7335 23.1744V29.2319H64.8562V19.1286Z"
      fill="black"
    ></path>
    <path
      d="M85.9564 25.214C85.9564 26.5272 85.9564 28.0025 85.9845 29.2319H82.214C82.1578 28.8575 82.1354 28.1087 82.1073 27.6225C81.27 29.0139 80.0619 29.5504 78.2525 29.5504C75.4261 29.5504 73.6167 27.8348 73.6167 24.4037V15.3509H77.4715V23.6326C77.4715 25.1581 77.9547 26.421 79.6292 26.421C81.3824 26.421 82.1073 25.4822 82.1073 22.7496V15.3509H85.962V25.214H85.9564ZM75.6115 13.1268V9.72363H78.7077V13.1268H75.6115ZM80.916 13.1268V9.72363H84.0122V13.1268H80.916Z"
      fill="black"
    ></path>
    <path
      d="M90.4182 15.3511C91.7387 20.0675 92.8457 24.1692 93.1098 25.8289H93.1379C93.5425 23.5489 94.8911 19.369 96.1048 15.3511H99.9596L95.0259 29.232H90.9857L86.2432 15.3511H90.4182Z"
      fill="black"
    ></path>
    <path
      d="M100.224 13.1045V9.67334H104.101V13.1045H100.224ZM100.224 15.3509H104.101V29.2319H100.224V15.3509Z"
      fill="black"
    ></path>
    <path
      d="M104.5 15.3512H106.657V11.6016H110.512V15.3512H113.26V18.2459H110.512V25.1081C110.512 26.1531 110.838 26.5555 111.995 26.5555C112.209 26.5555 112.591 26.5555 112.855 26.5275V29.1539C112.102 29.4222 111.051 29.4222 110.27 29.4222C107.551 29.4222 106.657 27.9749 106.657 25.5384V18.2459H104.5V15.3512Z"
      fill="black"
    ></path>
    <path
      d="M117.143 13.3226C117.143 14.3117 116.485 14.9823 115.519 14.9823C114.603 14.9823 113.917 14.2726 113.917 13.3226C113.917 12.3726 114.575 11.6797 115.519 11.6797C116.502 11.6853 117.143 12.4229 117.143 13.3226ZM114.328 13.3226C114.328 14.0435 114.85 14.5967 115.519 14.5967C116.3 14.5967 116.733 14.1049 116.733 13.3338C116.733 12.5626 116.244 12.0541 115.519 12.0541C114.766 12.0541 114.328 12.6241 114.328 13.3226ZM114.845 14.0826V12.5067H115.62C115.946 12.5067 116.3 12.5906 116.3 12.965C116.3 13.1661 116.176 13.2947 116.042 13.3338C116.204 13.3897 116.249 13.5238 116.249 13.7417C116.249 13.82 116.261 13.9988 116.266 14.0826H115.761C115.732 14.0155 115.732 13.8255 115.732 13.7585C115.732 13.5797 115.665 13.5126 115.485 13.5126H115.345V14.0826H114.845ZM115.356 13.1717H115.558C115.693 13.1717 115.761 13.1214 115.761 12.9985C115.761 12.8644 115.682 12.8588 115.541 12.8588H115.362V13.1717H115.356Z"
      fill="black"
    ></path>
    <path
      d="M32.6135 11.6455H32.2876V12.0367H32.591C32.7371 12.0367 32.827 11.9584 32.827 11.8299C32.827 11.7182 32.7427 11.6455 32.6135 11.6455Z"
      fill="black"
    ></path>
    <path
      d="M32.5687 11.2207C32.3046 11.2207 32.0855 11.3157 31.9113 11.5057C31.7708 11.6622 31.6865 11.8689 31.6865 12.0757C31.6865 12.5619 32.0742 12.9474 32.5575 12.9474C33.0351 12.9474 33.4285 12.5619 33.4285 12.0813C33.4228 11.6119 33.0295 11.2207 32.5687 11.2207ZM32.8384 12.6736L32.6137 12.1763H32.2878V12.6736H32.1136V11.5001H32.6137C32.8497 11.5001 33.0126 11.6398 33.0126 11.8354C33.0126 11.9751 32.9284 12.0869 32.7879 12.1372L33.0295 12.6736H32.8384Z"
      fill="black"
    ></path>
    <path
      d="M37.9856 0H2.23643C1.00021 0 0 0.994691 0 2.22408V37.7759C0 39.0053 1.00021 40 2.23643 40H37.9856C39.2218 40 40.222 39.0053 40.222 37.7759V2.22408C40.222 0.994691 39.2218 0 37.9856 0ZM27.8261 19.9665C27.3316 19.9665 26.9046 19.6032 26.8428 19.1003C26.4551 16.0156 24.1343 13.5233 21.0719 12.903C19.8694 12.6572 18.6163 12.7186 17.4531 13.0763C16.9249 13.2383 16.3686 12.9478 16.2057 12.4281C16.0427 11.9084 16.3349 11.3551 16.8575 11.1931C18.341 10.7348 19.9368 10.6566 21.4708 10.9695C25.3706 11.7631 28.3206 14.9371 28.8151 18.86C28.8825 19.4021 28.4948 19.8938 27.9554 19.9609C27.9104 19.9609 27.8711 19.9665 27.8261 19.9665ZM27.7362 24.4482C26.4045 26.8511 24.0894 28.5331 21.3753 29.0584C21.3079 29.0696 21.2461 29.0752 21.1843 29.0752C20.7179 29.0752 20.3021 28.7455 20.2122 28.2761C20.1054 27.7396 20.4594 27.2199 20.9988 27.1193C23.1285 26.7058 24.9491 25.3814 25.9943 23.4926C26.2584 23.012 26.8596 22.8388 27.3429 23.1014C27.8261 23.3697 28.0003 23.9732 27.7362 24.4482ZM12.1992 29.3881C12.0025 29.5949 11.7384 29.7066 11.4687 29.7066C11.2271 29.7066 10.9855 29.6172 10.7944 29.444C8.13094 26.9796 6.61938 23.4982 6.6531 19.8826C6.72053 12.8248 12.5195 7.1249 19.5997 7.1249C19.6446 7.1249 19.684 7.1249 19.7233 7.1249C21.5327 7.14166 23.2746 7.52165 24.9098 8.2537C25.4099 8.47723 25.6347 9.06398 25.4099 9.56133C25.1851 10.0587 24.5951 10.2822 24.095 10.0587C22.7127 9.43839 21.2348 9.11987 19.7064 9.1031C19.6727 9.1031 19.6334 9.1031 19.5997 9.1031C13.604 9.1031 8.69848 13.9257 8.63667 19.8994C8.60857 22.9617 9.88412 25.9067 12.143 27.9911C12.5476 28.3599 12.5701 28.9858 12.1992 29.3881ZM12.6319 22.1347C12.7949 22.66 12.497 23.2076 11.9745 23.3697C11.8789 23.3976 11.7778 23.4144 11.6823 23.4144C11.2552 23.4144 10.8675 23.1405 10.7326 22.7158C10.2718 21.2406 10.1988 19.6591 10.5135 18.1391C10.7888 16.8092 11.3395 15.5798 12.1486 14.4957C12.4746 14.0598 13.0983 13.9648 13.5366 14.2945C13.9805 14.6186 14.0704 15.2389 13.7389 15.6748C13.1039 16.5298 12.6712 17.4909 12.4521 18.5359C12.2161 19.7374 12.2723 20.9779 12.6319 22.1347ZM18.9759 23.04C20.6617 23.3864 22.3137 22.3023 22.6565 20.6259C22.8251 19.8156 22.6677 18.9885 22.207 18.2956C21.7462 17.6027 21.0494 17.1277 20.229 16.9656C19.4142 16.798 18.5826 16.9545 17.8858 17.4127C17.189 17.8709 16.7114 18.5638 16.5485 19.3797C16.481 19.6982 16.4586 20.0447 16.481 20.4415V20.5085V31.059C16.481 31.7687 15.9079 32.3386 15.1942 32.3386C14.4862 32.3386 13.9074 31.7687 13.9074 31.059V20.5365C13.8794 19.9329 13.9187 19.3853 14.0254 18.86C14.3289 17.3792 15.1999 16.1051 16.4698 15.2724C17.7397 14.4398 19.2569 14.1492 20.746 14.4566C22.2351 14.7583 23.5162 15.6245 24.3535 16.8874C25.1907 18.1503 25.4829 19.6591 25.1739 21.14C24.5389 24.1967 21.527 26.1693 18.4534 25.5434C17.7566 25.4037 17.307 24.7276 17.4531 24.0346C17.5992 23.3417 18.2792 22.8947 18.9759 23.04ZM18.4084 19.7374C18.5376 19.1059 19.1614 18.698 19.7963 18.8265C20.4313 18.955 20.8415 19.5753 20.7123 20.2068C20.583 20.8382 19.9593 21.2462 19.3243 21.1176C18.6894 20.9891 18.2792 20.3688 18.4084 19.7374ZM28.6746 29.1702C26.2134 31.5619 22.9543 32.8751 19.4929 32.8751C19.2176 32.8751 18.8748 32.8583 18.4758 32.8248C17.9252 32.7801 17.5206 32.2995 17.5711 31.7575C17.6161 31.2154 18.0993 30.8131 18.6444 30.8578C18.9816 30.8857 19.2794 30.9025 19.4985 30.9025C25.5448 30.9025 30.5177 26.0576 30.5739 20.1062C30.5964 17.5189 29.6973 15.0042 28.034 13.026C27.68 12.6069 27.7362 11.981 28.1577 11.6345C28.5791 11.2825 29.2028 11.3384 29.5568 11.7575C31.5179 14.0989 32.5856 17.0718 32.5575 20.1229C32.5181 23.5541 31.1414 26.7673 28.6746 29.1702ZM32.5575 13.093C31.9899 13.093 31.5404 12.6404 31.5404 12.076C31.5404 11.5172 32.0012 11.0757 32.5687 11.0757C33.1138 11.0757 33.5689 11.5339 33.5689 12.0816C33.5689 12.6404 33.1138 13.093 32.5575 13.093Z"
      fill="black"
    ></path>
  </g>
  <defs>
    <clipPath id="clip0">
      <rect width="117.143" height="40" fill="white"></rect>
    </clipPath>
  </defs>
</svg>
