<svg
  width="100"
  height="34"
  viewBox="0 0 79 27"
  fill="none"
  xmlns="http://www.w3.org/2000/svg"
>
  <path
    d="M33.4927 7.26196H38.6727C41.3443 7.26196 43.1442 8.74297 43.1442 11.1096C43.1442 13.8191 41.0904 15.0664 38.6197 15.0664H36.2021V19.7092H33.4927V7.26196ZM36.2021 12.9184H38.2749C39.5291 12.9184 40.4196 12.4323 40.4196 11.1661C40.4196 9.88481 39.4761 9.39491 38.3317 9.39491H36.2059V12.9184H36.2021Z"
    fill="#131313"
  />
  <path
    d="M43.7523 12.8994C43.7523 11.961 43.7523 11.147 43.7334 10.3519H46.295C46.3291 10.5704 46.367 11.4899 46.367 11.9949C46.7838 10.9284 47.7842 10.1521 49.3834 10.1333V12.6092C47.4925 12.5564 46.367 13.0614 46.367 15.6277V19.7127H43.7523V12.8994Z"
    fill="#131313"
  />
  <path
    d="M57.9724 17.0031C57.9724 17.8886 57.9724 18.8835 57.9913 19.7126H55.4486C55.4107 19.4601 55.3956 18.9551 55.3766 18.6273C54.812 19.5656 53.9973 19.9274 52.7771 19.9274C50.8711 19.9274 49.6509 18.7705 49.6509 16.4566V10.3517H52.2504V15.9366C52.2504 16.9654 52.5763 17.817 53.7055 17.817C54.8878 17.817 55.3766 17.1839 55.3766 15.3412V10.3517H57.9761V17.0031H57.9724ZM50.9961 8.85188V6.55688H53.0841V8.85188H50.9961ZM54.5733 8.85188V6.55688H56.6612V8.85188H54.5733Z"
    fill="#131313"
  />
  <path
    d="M60.9903 10.3519C61.8808 13.5325 62.6273 16.2986 62.8054 17.4178H62.8244C63.0972 15.8803 64.0067 13.0615 64.8252 10.3519H67.4247L64.0976 19.7128H61.373L58.1748 10.3519H60.9903Z"
    fill="#131313"
  />
  <path
    d="M67.6035 8.8369V6.52307H70.2182V8.8369H67.6035ZM67.6035 10.3518H70.2182V19.7127H67.6035V10.3518Z"
    fill="#131313"
  />
  <path
    d="M70.4829 10.3521H71.938V7.82349H74.5375V10.3521H76.3906V12.3042H74.5375V16.9319C74.5375 17.6366 74.7573 17.9079 75.5379 17.9079C75.6819 17.9079 75.9396 17.9079 76.1177 17.889V19.6602C75.6099 19.8411 74.9013 19.8411 74.3746 19.8411C72.5405 19.8411 71.938 18.8651 71.938 17.222V12.3042H70.4829V10.3521Z"
    fill="#131313"
  />
  <path
    d="M79.0003 8.98415C79.0003 9.65116 78.5569 10.1034 77.9052 10.1034C77.2875 10.1034 76.8252 9.62479 76.8252 8.98415C76.8252 8.34351 77.2686 7.87622 77.9052 7.87622C78.5683 7.87999 79.0003 8.37743 79.0003 8.98415ZM77.1018 8.98415C77.1018 9.47028 77.4542 9.84336 77.9052 9.84336C78.4319 9.84336 78.7237 9.51173 78.7237 8.99168C78.7237 8.47164 78.394 8.12871 77.9052 8.12871C77.3974 8.12871 77.1018 8.51309 77.1018 8.98415ZM77.4504 9.49666V8.43395H77.9734C78.1932 8.43395 78.4319 8.49048 78.4319 8.74297C78.4319 8.87863 78.3485 8.96531 78.2576 8.99168C78.3675 9.02937 78.3978 9.11981 78.3978 9.26678C78.3978 9.31954 78.4054 9.44013 78.4092 9.49666H78.0681C78.0492 9.45144 78.0492 9.32331 78.0492 9.27809C78.0492 9.1575 78.0037 9.11228 77.8824 9.11228H77.7877V9.49666H77.4504ZM77.7953 8.8824H77.9317C78.0226 8.8824 78.0681 8.84848 78.0681 8.76558C78.0681 8.67513 78.0151 8.67137 77.9203 8.67137H77.7991V8.8824H77.7953Z"
    fill="#131313"
  />
  <path
    d="M21.9986 7.85358H21.7788V8.11737H21.9834C22.082 8.11737 22.1426 8.06461 22.1426 7.97793C22.1426 7.90257 22.0857 7.85358 21.9986 7.85358Z"
    fill="#131313"
  />
  <path
    d="M21.9597 7.56683C21.7816 7.56683 21.6338 7.6309 21.5163 7.75902C21.4216 7.86454 21.3647 8.00397 21.3647 8.14341C21.3647 8.47126 21.6262 8.73129 21.9521 8.73129C22.2742 8.73129 22.5394 8.47126 22.5394 8.14718C22.5357 7.83063 22.2704 7.56683 21.9597 7.56683ZM22.1416 8.54663L21.99 8.21124H21.7702V8.54663H21.6527V7.75526H21.99C22.1491 7.75526 22.259 7.84947 22.259 7.98136C22.259 8.07558 22.2022 8.15094 22.1075 8.18486L22.2704 8.54663H22.1416Z"
    fill="#131313"
  />
  <path
    d="M25.6162 0H1.50817C0.674509 0 0 0.670786 0 1.49985V25.4748C0 26.3038 0.674509 26.9746 1.50817 26.9746H25.6162C26.4499 26.9746 27.1244 26.3038 27.1244 25.4748V1.49985C27.1244 0.670786 26.4499 0 25.6162 0ZM18.765 13.4647C18.4315 13.4647 18.1435 13.2198 18.1019 12.8806C17.8404 10.8004 16.2754 9.11967 14.2102 8.70137C13.3992 8.53556 12.5542 8.57701 11.7698 8.8182C11.4136 8.92748 11.0385 8.73152 10.9286 8.38105C10.8187 8.03059 11.0157 7.65751 11.3681 7.54822C12.3685 7.23921 13.4447 7.18645 14.4792 7.39749C17.109 7.93261 19.0985 10.0731 19.4319 12.7186C19.4774 13.0841 19.2159 13.4157 18.8521 13.4609C18.8218 13.4609 18.7953 13.4647 18.765 13.4647ZM18.7044 16.487C17.8063 18.1074 16.2451 19.2418 14.4148 19.596C14.3693 19.6035 14.3276 19.6073 14.286 19.6073C13.9714 19.6073 13.691 19.385 13.6304 19.0684C13.5584 18.7066 13.7971 18.3562 14.1609 18.2883C15.5971 18.0095 16.8248 17.1163 17.5297 15.8426C17.7078 15.5185 18.1132 15.4017 18.4391 15.5788C18.765 15.7597 18.8825 16.1667 18.7044 16.487ZM8.22674 19.8183C8.09411 19.9578 7.91601 20.0331 7.73412 20.0331C7.57118 20.0331 7.40823 19.9728 7.27939 19.856C5.48323 18.1941 4.46389 15.8464 4.48662 13.4082C4.53209 8.64861 8.44273 4.80479 13.2173 4.80479C13.2477 4.80479 13.2742 4.80479 13.3007 4.80479C14.5209 4.81609 15.6956 5.07235 16.7983 5.56601C17.1356 5.71675 17.2871 6.11244 17.1356 6.44783C16.984 6.78323 16.5861 6.93397 16.2488 6.78323C15.3167 6.36493 14.3201 6.15013 13.2893 6.13882C13.2666 6.13882 13.2401 6.13882 13.2173 6.13882C9.17408 6.13882 5.86596 9.391 5.82427 13.4195C5.80533 15.4846 6.66551 17.4706 8.18884 18.8762C8.46168 19.1249 8.47684 19.547 8.22674 19.8183ZM8.51852 14.9269C8.62841 15.2811 8.42757 15.6504 8.07516 15.7597C8.01074 15.7785 7.94253 15.7898 7.87812 15.7898C7.59012 15.7898 7.32866 15.6052 7.23771 15.3188C6.92698 14.3239 6.87772 13.2574 7.08992 12.2324C7.2756 11.3355 7.64696 10.5065 8.19263 9.77538C8.41242 9.48144 8.83304 9.41738 9.12861 9.63972C9.42797 9.85829 9.4886 10.2766 9.26503 10.5705C8.83683 11.1471 8.54504 11.7953 8.39726 12.5C8.23811 13.3102 8.276 14.1468 8.51852 14.9269ZM12.7967 15.5374C13.9335 15.771 15.0476 15.0399 15.2788 13.9094C15.3924 13.363 15.2863 12.8052 14.9756 12.3379C14.6649 11.8706 14.195 11.5503 13.6418 11.441C13.0923 11.328 12.5315 11.4335 12.0616 11.7425C11.5917 12.0515 11.2696 12.5188 11.1597 13.069C11.1142 13.2838 11.0991 13.5175 11.1142 13.785V13.8302V20.9451C11.1142 21.4237 10.7277 21.8081 10.2465 21.8081C9.76901 21.8081 9.37871 21.4237 9.37871 20.9451V13.8491C9.35976 13.4421 9.38629 13.0728 9.45828 12.7186C9.66291 11.7199 10.2503 10.8607 11.1067 10.2992C11.9631 9.7377 12.9862 9.54174 13.9904 9.74901C14.9946 9.9525 15.8585 10.5366 16.4232 11.3883C16.9878 12.24 17.1848 13.2574 16.9764 14.2561C16.5482 16.3174 14.5171 17.6477 12.4443 17.2256C11.9744 17.1314 11.6713 16.6754 11.7698 16.2081C11.8683 15.7409 12.3268 15.4394 12.7967 15.5374ZM12.414 13.3102C12.5012 12.8844 12.9218 12.6093 13.35 12.6959C13.7782 12.7826 14.0548 13.2009 13.9676 13.6267C13.8805 14.0526 13.4599 14.3277 13.0317 14.241C12.6035 14.1543 12.3268 13.736 12.414 13.3102ZM19.3372 19.6714C17.6774 21.2843 15.4796 22.1698 13.1453 22.1698C12.9597 22.1698 12.7285 22.1585 12.4595 22.1359C12.0881 22.1058 11.8153 21.7817 11.8494 21.4162C11.8797 21.0506 12.2056 20.7793 12.5732 20.8094C12.8005 20.8283 13.0014 20.8396 13.1491 20.8396C17.2265 20.8396 20.5801 17.5723 20.618 13.5589C20.6332 11.8141 20.0269 10.1183 18.9052 8.78428C18.6665 8.50164 18.7044 8.07958 18.9886 7.84593C19.2728 7.60852 19.6934 7.6462 19.9321 7.92884C21.2546 9.50782 21.9746 11.5126 21.9556 13.5702C21.9291 15.8841 21.0007 18.0509 19.3372 19.6714ZM21.9556 8.8295C21.5729 8.8295 21.2698 8.52426 21.2698 8.14364C21.2698 7.7668 21.5805 7.46909 21.9632 7.46909C22.3308 7.46909 22.6377 7.7781 22.6377 8.14741C22.6377 8.52426 22.3308 8.8295 21.9556 8.8295Z"
    fill="#131313"
  />
</svg>
