<?xml version="1.0" encoding="UTF-8"?>
<svg width="206px" height="38px" viewBox="0 0 206 38" version="1.1" xmlns="http://www.w3.org/2000/svg" xmlns:xlink="http://www.w3.org/1999/xlink">
    <title>Arrows Down</title>
    <g id="Page-1" stroke="none" stroke-width="1" fill="none" fill-rule="evenodd">
        <g id="Artboard" transform="translate(-1661.000000, -926.000000)" fill="#FF0075" fill-rule="nonzero">
            <g id="Arrows-Down" transform="translate(1661.000000, 926.000000)">
                <circle id="Oval" cx="2.5" cy="2.5" r="2.5"></circle>
                <circle id="Oval" cx="8.5" cy="8.5" r="2.5"></circle>
                <circle id="Oval" cx="15.5" cy="15.5" r="2.5"></circle>
                <circle id="Oval" cx="21.5" cy="21.5" r="2.5"></circle>
                <circle id="Oval" cx="27.5" cy="15.5" r="2.5"></circle>
                <circle id="Oval" cx="33.5" cy="8.5" r="2.5"></circle>
                <circle id="Oval" cx="40.5" cy="2.5" r="2.5"></circle>
                <circle id="Oval" cx="40.5" cy="16.5" r="2.5"></circle>
                <circle id="Oval" cx="2.5" cy="16.5" r="2.5"></circle>
                <circle id="Oval" cx="8.5" cy="22.5" r="2.5"></circle>
                <circle id="Oval" cx="15.5" cy="29.5" r="2.5"></circle>
                <circle id="Oval" cx="21.5" cy="35.5" r="2.5"></circle>
                <circle id="Oval" cx="27.5" cy="29.5" r="2.5"></circle>
                <circle id="Oval" cx="33.5" cy="22.5" r="2.5"></circle>
                <circle id="Oval" cx="84.5" cy="2.5" r="2.5"></circle>
                <circle id="Oval" cx="90.5" cy="8.5" r="2.5"></circle>
                <circle id="Oval" cx="96.5" cy="15.5" r="2.5"></circle>
                <circle id="Oval" cx="103.5" cy="21.5" r="2.5"></circle>
                <circle id="Oval" cx="109.5" cy="15.5" r="2.5"></circle>
                <circle id="Oval" cx="115.5" cy="8.5" r="2.5"></circle>
                <circle id="Oval" cx="122.5" cy="2.5" r="2.5"></circle>
                <circle id="Oval" cx="122.5" cy="16.5" r="2.5"></circle>
                <circle id="Oval" cx="84.5" cy="16.5" r="2.5"></circle>
                <circle id="Oval" cx="90.5" cy="22.5" r="2.5"></circle>
                <circle id="Oval" cx="96.5" cy="29.5" r="2.5"></circle>
                <circle id="Oval" cx="103.5" cy="35.5" r="2.5"></circle>
                <circle id="Oval" cx="109.5" cy="29.5" r="2.5"></circle>
                <circle id="Oval" cx="115.5" cy="22.5" r="2.5"></circle>
                <circle id="Oval" cx="165.5" cy="2.5" r="2.5"></circle>
                <circle id="Oval" cx="172.5" cy="8.5" r="2.5"></circle>
                <circle id="Oval" cx="178.5" cy="15.5" r="2.5"></circle>
                <circle id="Oval" cx="184.5" cy="21.5" r="2.5"></circle>
                <circle id="Oval" cx="190.5" cy="15.5" r="2.5"></circle>
                <circle id="Oval" cx="197.5" cy="8.5" r="2.5"></circle>
                <circle id="Oval" cx="203.5" cy="2.5" r="2.5"></circle>
                <circle id="Oval" cx="203.5" cy="16.5" r="2.5"></circle>
                <circle id="Oval" cx="165.5" cy="16.5" r="2.5"></circle>
                <circle id="Oval" cx="172.5" cy="22.5" r="2.5"></circle>
                <circle id="Oval" cx="178.5" cy="29.5" r="2.5"></circle>
                <circle id="Oval" cx="184.5" cy="35.5" r="2.5"></circle>
                <circle id="Oval" cx="190.5" cy="29.5" r="2.5"></circle>
                <circle id="Oval" cx="197.5" cy="22.5" r="2.5"></circle>
            </g>
        </g>
    </g>
</svg>