<svg width="167" height="28" viewBox="0 0 167 28" fill="none" xmlns="http://www.w3.org/2000/svg">
<path d="M0 0.562837V21.0785L13.2899 7.72041L0 0.562837Z" fill="#F0006F"/>
<path d="M42.2798 0.561675L0.0114935 23.2438L42.2798 15.0978V0.561675Z" fill="#F0006F"/>
<path d="M21.4411 0.630285L0.00919477 22.2949L27.1786 7.69017L21.4411 0.630285Z" fill="#AAABAE"/>
<path d="M42.2798 15.8676L33.508 17.548L42.2798 22.2193V15.8676Z" fill="#AAABAE"/>
<path d="M45.5095 0.510508H49.4012V22.26H45.5095V0.510508Z" fill="#F0006F"/>
<path d="M63.5324 6.56799H67.4241V22.26H63.5324V20.6017C62.7727 21.332 62.0118 21.8588 61.2475 22.1809C60.4832 22.503 59.6557 22.6635 58.7626 22.6635C56.7593 22.6635 55.0272 21.8774 53.5653 20.3052C52.1033 18.733 51.3723 16.7781 51.3723 14.4419C51.3723 12.1057 52.0792 10.0334 53.494 8.48559C54.9089 6.93779 56.626 6.1633 58.6488 6.1633C59.5787 6.1633 60.4522 6.34122 61.2682 6.69707C62.0842 7.05291 62.8394 7.58668 63.5324 8.29836V6.56799ZM59.4419 9.79849C58.2385 9.79849 57.2397 10.2288 56.4432 11.0893C55.6479 11.9498 55.2502 13.0534 55.2502 14.3989C55.2502 15.7443 55.6548 16.87 56.4651 17.7445C57.2754 18.619 58.2719 19.0574 59.4557 19.0574C60.6395 19.0574 61.6912 18.6271 62.4957 17.7666C63.3002 16.9061 63.7037 15.7792 63.7037 14.3849C63.7037 12.9906 63.3014 11.9138 62.4957 11.0672C61.6912 10.2206 60.6728 9.79733 59.4419 9.79733V9.79849Z" fill="#F0006F"/>
<path d="M81.3921 0.510508H85.2838V22.26H81.3921V20.6017C80.6324 21.332 79.8715 21.8588 79.1072 22.1809C78.3429 22.503 77.5154 22.6635 76.6223 22.6635C74.619 22.6635 72.8869 21.8774 71.425 20.3052C69.963 18.733 69.232 16.7781 69.232 14.4419C69.232 12.1057 69.9389 10.0334 71.3537 8.48559C72.7686 6.93779 74.4857 6.1633 76.5085 6.1633C77.4383 6.1633 78.3119 6.34122 79.1279 6.69707C79.9439 7.05291 80.699 7.58668 81.3921 8.29836V0.510508ZM77.3016 9.79849C76.0982 9.79849 75.0994 10.2288 74.3029 11.0893C73.5076 11.9498 73.1099 13.0534 73.1099 14.3989C73.1099 15.7443 73.5145 16.87 74.3248 17.7445C75.1351 18.619 76.1315 19.0574 77.3154 19.0574C78.4992 19.0574 79.5508 18.6271 80.3554 17.7666C81.1599 16.9061 81.5634 15.7792 81.5634 14.3849C81.5634 12.9906 81.1611 11.9138 80.3554 11.0672C79.5508 10.2206 78.5325 9.79733 77.3016 9.79733V9.79849Z" fill="#F0006F"/>
<path d="M87.1963 6.56799H91.173L95.2015 16.4142L99.6472 6.56799H103.635L93.9223 28H89.903L93.0924 21.089L87.1963 6.56799Z" fill="#F0006F"/>
<path d="M114.638 23.1496C113.684 23.1496 112.782 22.974 111.956 22.6286C111.415 22.403 110.875 22.0821 110.341 21.6692V22.7449H105.493V0H110.341V7.18432C110.848 6.78894 111.38 6.46914 111.935 6.22842C112.811 5.847 113.758 5.65396 114.752 5.65396C116.909 5.65396 118.767 6.48891 120.273 8.13556C121.77 9.77174 122.528 11.8894 122.528 14.4303C122.528 16.9712 121.744 18.9748 120.199 20.6343C118.646 22.303 116.775 23.1484 114.637 23.1484L114.638 23.1496ZM109.357 19.4284L110.188 20.2273C110.9 20.9122 111.621 21.4099 112.331 21.7076C113.038 22.003 113.814 22.153 114.638 22.153C116.52 22.153 118.103 21.4332 119.483 19.9517C120.85 18.4818 121.545 16.6246 121.545 14.4303C121.545 12.2359 120.874 10.2578 119.552 8.81236C118.221 7.35759 116.651 6.65055 114.753 6.65055C113.893 6.65055 113.076 6.81685 112.324 7.14362C111.568 7.47271 110.853 7.97508 110.197 8.63909L109.357 9.48916V0.996594H106.478V21.7495H109.357V19.4284ZM113.94 19.5435C112.58 19.5435 111.434 19.0574 110.533 18.0969C109.638 17.1456 109.186 15.892 109.186 14.3721C109.186 12.8522 109.64 11.6475 110.536 10.709C111.436 9.76593 112.582 9.28798 113.94 9.28798C115.299 9.28798 116.43 9.77523 117.322 10.7358C118.205 11.6882 118.653 12.9162 118.653 14.3861C118.653 15.856 118.198 17.1072 117.3 18.0736C116.394 19.0493 115.264 19.5435 113.94 19.5435ZM113.94 10.2846C112.844 10.2846 111.961 10.6497 111.244 11.4021C110.521 12.1592 110.171 13.1313 110.171 14.3733C110.171 15.6153 110.522 16.6409 111.248 17.4119C111.965 18.1771 112.846 18.5481 113.942 18.5481C115.037 18.5481 115.861 18.1701 116.584 17.3921C117.315 16.606 117.669 15.6234 117.669 14.3872C117.669 13.1511 117.321 12.1905 116.605 11.4184C115.897 10.6555 115.025 10.2846 113.942 10.2846H113.94Z" fill="#F0006F"/>
<path d="M132.498 23.1496C130.149 23.1496 128.114 22.2925 126.453 20.6005C124.793 18.9109 123.951 16.8305 123.951 14.4163C123.951 11.8301 124.902 9.64266 126.779 7.9181C128.424 6.41565 130.343 5.65396 132.484 5.65396C134.028 5.65396 135.498 6.04934 136.854 6.82964C138.213 7.6111 139.289 8.68793 140.052 10.0287C140.814 11.3684 141.202 12.8348 141.202 14.3872C141.202 15.9397 140.813 17.4294 140.047 18.7876C139.279 20.1482 138.217 21.2273 136.892 21.9949C135.569 22.7612 134.091 23.1496 132.499 23.1496H132.498ZM132.483 6.64939C130.593 6.64939 128.897 7.32386 127.438 8.65537C125.755 10.2043 124.935 12.0894 124.935 14.4151C124.935 16.5863 125.66 18.3806 127.151 19.8982C128.641 21.4157 130.39 22.153 132.497 22.153C133.914 22.153 135.227 21.8088 136.4 21.1297C137.571 20.4517 138.51 19.4981 139.189 18.2934C139.87 17.0875 140.214 15.7722 140.214 14.3861C140.214 12.9999 139.872 11.7114 139.196 10.5241C138.521 9.33915 137.57 8.38674 136.365 7.69483C135.159 7.00058 133.852 6.64939 132.482 6.64939H132.483ZM132.533 19.4853C131.179 19.4853 130.044 19.0062 129.157 18.0608C128.276 17.1224 127.829 15.8909 127.829 14.4C127.829 12.9092 128.281 11.7312 129.173 10.7893C130.07 9.84035 131.206 9.35892 132.548 9.35892C133.891 9.35892 135.064 9.8357 135.953 10.7753C136.834 11.7091 137.281 12.929 137.281 14.4012C137.281 15.8734 136.827 17.1003 135.931 18.048C135.03 19.0016 133.886 19.4853 132.533 19.4853ZM132.547 10.3555C131.469 10.3555 130.597 10.723 129.883 11.4789C129.164 12.2406 128.813 13.1964 128.813 14.4012C128.813 15.6059 129.159 16.6177 129.87 17.3759C130.574 18.1248 131.445 18.4899 132.533 18.4899C133.622 18.4899 134.5 18.1201 135.219 17.3607C135.944 16.5944 136.296 15.6257 136.296 14.4024C136.296 13.179 135.952 12.2173 135.24 11.4649C134.536 10.7195 133.655 10.3567 132.547 10.3567V10.3555Z" fill="#F0006F"/>
<path d="M148.078 23.1496C145.666 23.1496 143.711 22.1809 142.271 20.2715L142.02 19.94L145.069 16.5793L145.43 17.0061C145.845 17.4956 146.337 17.8957 146.892 18.1957C147.43 18.4864 147.901 18.6341 148.292 18.6341C148.683 18.6341 149.005 18.5446 149.228 18.3666C149.482 18.1643 149.51 17.9992 149.51 17.8922C149.51 17.5038 149.004 17.0316 148.084 16.563L146.774 15.9002C144.096 14.5361 142.738 12.7697 142.738 10.652C142.738 9.27286 143.269 8.07974 144.315 7.10524C145.35 6.14237 146.683 5.65396 148.276 5.65396C149.355 5.65396 150.386 5.897 151.339 6.37727C152.293 6.85755 153.111 7.55412 153.773 8.4507L154.028 8.79608L150.971 11.8894L150.623 11.5405C149.744 10.6602 148.963 10.2136 148.304 10.2136C147.977 10.2136 147.731 10.2753 147.573 10.395C147.42 10.5113 147.399 10.6079 147.399 10.6962C147.399 10.7555 147.412 10.8381 147.509 10.9486C147.55 10.9939 147.742 11.173 148.521 11.5614L149.949 12.2836C151.537 13.0767 152.607 13.8767 153.22 14.7291C153.841 15.5908 154.156 16.6118 154.156 17.7619C154.156 19.2958 153.592 20.5947 152.477 21.6204C151.376 22.6344 149.895 23.1496 148.076 23.1496H148.078ZM143.311 19.99C144.537 21.4448 146.101 22.153 148.078 22.153C149.645 22.153 150.903 21.7262 151.817 20.8831C152.731 20.0424 153.175 19.0202 153.175 17.7608C153.175 16.8119 152.931 16.0118 152.427 15.3141C151.917 14.6047 150.937 13.8849 149.514 13.1732L148.086 12.451C147.191 12.0056 146.916 11.7673 146.777 11.6091C146.538 11.3382 146.418 11.03 146.418 10.6927C146.418 10.2555 146.614 9.87524 146.985 9.59498C147.317 9.34264 147.762 9.21472 148.306 9.21472C149.144 9.21472 150.016 9.6322 150.962 10.4904L152.722 8.71003C152.204 8.09951 151.594 7.61575 150.902 7.26805C150.087 6.85755 149.204 6.64939 148.277 6.64939C146.92 6.64939 145.842 7.03779 144.983 7.83786C144.136 8.6263 143.723 9.54614 143.723 10.6509C143.723 12.3859 144.866 13.8116 147.216 15.0094L148.527 15.6722C149.852 16.349 150.495 17.0747 150.495 17.8922C150.495 18.2259 150.382 18.7155 149.837 19.1493C149.437 19.4691 148.916 19.6307 148.292 19.6307C147.729 19.6307 147.12 19.4493 146.428 19.0748C145.926 18.8039 145.468 18.4643 145.06 18.0631L143.31 19.9924L143.311 19.99Z" fill="#F0006F"/>
<path d="M160.922 23.1496C158.51 23.1496 156.555 22.1809 155.113 20.2715L154.863 19.94L157.912 16.5793L158.273 17.0061C158.688 17.4956 159.18 17.8957 159.735 18.1957C160.273 18.4864 160.744 18.6341 161.135 18.6341C161.526 18.6341 161.847 18.5446 162.07 18.3666C162.324 18.1643 162.353 17.9992 162.353 17.8922C162.353 17.5038 161.846 17.0316 160.927 16.563L159.617 15.9002C156.939 14.5361 155.581 12.7697 155.581 10.652C155.581 9.27286 156.112 8.07974 157.159 7.10524C158.194 6.14237 159.527 5.65396 161.12 5.65396C162.199 5.65396 163.23 5.897 164.183 6.37727C165.137 6.85755 165.955 7.55412 166.617 8.4507L166.872 8.79608L163.815 11.8894L163.467 11.5405C162.588 10.6602 161.808 10.2136 161.148 10.2136C160.821 10.2136 160.575 10.2753 160.417 10.395C160.264 10.5113 160.243 10.6079 160.243 10.6962C160.243 10.7555 160.256 10.8381 160.353 10.9486C160.394 10.9939 160.585 11.173 161.365 11.5614L162.793 12.2836C164.381 13.0767 165.451 13.8767 166.064 14.7291C166.685 15.5908 167 16.6118 167 17.7619C167 19.2958 166.436 20.5947 165.321 21.6204C164.22 22.6344 162.739 23.1496 160.919 23.1496H160.922ZM156.155 19.99C157.381 21.4448 158.945 22.153 160.922 22.153C162.489 22.153 163.747 21.7262 164.661 20.8831C165.575 20.0424 166.018 19.0202 166.018 17.7608C166.018 16.8119 165.775 16.0118 165.271 15.3141C164.761 14.6047 163.781 13.8849 162.358 13.1732L160.93 12.451C160.035 12.0056 159.76 11.7673 159.621 11.6091C159.382 11.3382 159.261 11.03 159.261 10.6927C159.261 10.2555 159.458 9.87524 159.829 9.59498C160.161 9.34264 160.606 9.21472 161.15 9.21472C161.988 9.21472 162.86 9.6322 163.806 10.4904L165.566 8.71003C165.048 8.09951 164.438 7.61575 163.746 7.26805C162.931 6.85755 162.047 6.64939 161.121 6.64939C159.764 6.64939 158.686 7.03779 157.827 7.83786C156.98 8.6263 156.567 9.54614 156.567 10.6509C156.567 12.3859 157.71 13.8116 160.06 15.0094L161.37 15.6722C162.696 16.349 163.339 17.0747 163.339 17.8922C163.339 18.2259 163.226 18.7155 162.681 19.1493C162.281 19.4691 161.761 19.6307 161.136 19.6307C160.573 19.6307 159.964 19.4493 159.272 19.0748C158.77 18.8039 158.312 18.4643 157.904 18.0631L156.154 19.9924L156.155 19.99Z" fill="#F0006F"/>
</svg>
