<svg width="128" height="128" viewBox="0 0 128 128" fill="none" xmlns="http://www.w3.org/2000/svg">
<path d="M107.58 0H20.4203C9.14247 0 0 9.14247 0 20.4203V107.58C0 118.858 9.14247 128 20.4203 128H107.58C118.858 128 128 118.858 128 107.58V20.4203C128 9.14247 118.858 0 107.58 0Z" fill="url(#paint0_linear_6812_10059)"/>
<path fill-rule="evenodd" clip-rule="evenodd" d="M45.2324 23.3017H82.8558C94.9419 23.3017 104.883 33.243 104.883 45.3291V82.7563C104.883 94.8423 94.9419 104.784 82.8558 104.784H45.2324C33.1463 104.784 23.205 94.8423 23.205 82.7563V45.3291C23.205 33.243 33.1463 23.3017 45.2324 23.3017ZM85.9733 37.5324C88.5077 37.5324 90.6525 39.6772 90.6525 42.2116C90.6525 44.746 88.5077 46.8907 85.9733 46.8907C83.2455 46.8907 81.2942 44.746 81.2942 42.2116C81.2942 39.6772 83.2427 37.5324 85.9733 37.5324ZM63.946 41.8219H64.1422C76.2283 41.8219 86.3659 51.9595 86.3659 64.0455C86.3659 76.325 76.2283 86.2692 64.1422 86.2692H63.946C51.8599 86.2692 41.9186 76.3278 41.9186 64.0455C41.9186 51.9595 51.8599 41.8219 63.946 41.8219ZM63.946 49.4251H64.1422C72.1351 49.4251 78.7627 56.0526 78.7627 64.0455C78.7627 72.2318 72.1351 78.8594 64.1422 78.8594H63.946C55.9531 78.8594 49.3255 72.2318 49.3255 64.0455C49.3255 56.0526 55.9531 49.4251 63.946 49.4251ZM45.4286 30.3218H82.6596C91.0421 30.3218 97.8631 37.1456 97.8631 45.5253V82.5629C97.8631 90.9454 91.0393 97.7664 82.6596 97.7664H45.4286C37.0461 97.7664 30.2251 90.9426 30.2251 82.5629V45.5253C30.2251 37.1428 37.0489 30.3218 45.4286 30.3218Z" fill="white"/>
<defs>
<linearGradient id="paint0_linear_6812_10059" x1="1.51324" y1="11.1929" x2="126.487" y2="116.807" gradientUnits="userSpaceOnUse">
<stop stop-color="#0496FB"/>
<stop offset="0.14" stop-color="#3F72FF"/>
<stop offset="0.28" stop-color="#784AFF"/>
<stop offset="0.42" stop-color="#B038EE"/>
<stop offset="0.57" stop-color="#CD40BE"/>
<stop offset="0.72" stop-color="#FF415A"/>
<stop offset="0.86" stop-color="#F7941E"/>
<stop offset="0.94" stop-color="#FFE800"/>
</linearGradient>
</defs>
</svg>
