<svg width="128" height="128" viewBox="0 0 128 128" fill="none" xmlns="http://www.w3.org/2000/svg">
<path d="M107.58 0H20.4203C9.14247 0 0 9.14247 0 20.4203V107.58C0 118.858 9.14247 128 20.4203 128H107.58C118.858 128 128 118.858 128 107.58V20.4203C128 9.14247 118.858 0 107.58 0Z" fill="black"/>
<path fill-rule="evenodd" clip-rule="evenodd" d="M56.9771 55.0343H56.4423V66.1134C55.1908 65.755 54.1184 65.5787 52.8697 65.5787C46.08 65.5787 40.7182 70.9404 40.7182 77.5509C40.7182 82.0167 43.3977 86.1269 47.1524 88.0924C45.7216 86.1269 45.0076 83.6267 45.0076 81.1236C45.0076 74.5131 50.3694 69.1513 56.9799 69.1513C58.2315 69.1513 59.4802 69.3305 60.5525 69.6861V55.3899C59.4802 55.2107 58.2286 55.0315 56.9799 55.0315L56.9771 55.0343ZM37.8567 98.8132C42.6809 103.817 49.4706 107.034 56.9771 107.034C71.4496 107.034 83.2455 95.4197 83.2455 81.1236V51.8172C88.6073 56.6414 95.5762 58.9653 102.721 58.4277V44.3108C101.291 44.6692 99.8628 44.6692 98.6112 44.3108V54.8523C91.4631 55.387 84.315 53.066 78.9561 48.2418V77.5481C78.9561 91.8443 67.3422 103.458 52.8668 103.458C47.3287 103.458 42.1461 101.672 37.8567 98.8132ZM88.4252 38.4171C85.029 34.6652 83.0635 29.6619 83.2427 24.8377H79.3116C80.2048 30.1995 83.7803 35.5584 88.4252 38.4171Z" fill="#FF2E56"/>
<path fill-rule="evenodd" clip-rule="evenodd" d="M52.8668 51.4588C38.3943 51.4588 26.5984 63.0727 26.5984 77.5481C26.5984 86.3033 31.0642 94.1653 37.8567 98.8132C33.5673 94.1682 30.8878 87.9132 30.8878 81.1236C30.8878 67.0066 42.1461 55.3927 56.4395 55.0343V51.8172C55.1879 51.638 54.1156 51.4588 52.8668 51.4588ZM98.6112 44.3108V40.7381C95.0386 41.4521 91.4631 40.3797 88.4252 38.4142C91.2839 41.6313 94.6802 43.776 98.6112 44.3108ZM79.3116 24.8348C79.1324 23.5833 78.9532 22.5109 78.9532 21.2622H64.8363V77.5481C64.8363 84.1586 59.4745 89.5203 52.864 89.5203C50.7193 89.5203 48.933 88.9856 47.1467 88.0896C49.4706 91.1275 53.0432 93.093 56.9742 93.093C63.7639 93.093 69.1257 87.7312 69.1257 81.1207V24.8348H79.3116Z" fill="#23F1E7"/>
<path fill-rule="evenodd" clip-rule="evenodd" d="M37.8567 98.8103C42.1461 101.669 47.3259 103.455 52.8668 103.455C67.3394 103.455 78.9561 91.8414 78.9561 77.5452V48.2389C84.3179 53.0631 91.4631 55.387 98.6112 54.8494V44.3079C94.6802 43.7732 91.2839 41.6284 88.4252 38.4114C83.7803 35.5527 80.2048 30.1909 79.3116 24.832H69.1257V81.1179C69.1257 87.7284 63.7639 93.0901 56.9742 93.0901C53.0432 93.0901 49.4706 91.1246 47.1467 88.0868C43.3948 86.1212 40.7125 82.011 40.7125 77.5452C40.7125 70.9348 46.0743 65.573 52.864 65.573C54.1156 65.573 55.1879 65.7522 56.4366 66.1077V55.0286C42.1404 55.387 30.885 67.0009 30.885 81.1179C30.885 87.9076 33.5644 94.1625 37.8539 98.8075L37.8567 98.8103Z" fill="white"/>
</svg>
