<svg width="128" height="128" viewBox="0 0 128 128" fill="none" xmlns="http://www.w3.org/2000/svg">
<path d="M107.58 0H20.4203C9.14247 0 0 9.14247 0 20.4203V107.58C0 118.858 9.14247 128 20.4203 128H107.58C118.858 128 128 118.858 128 107.58V20.4203C128 9.14247 118.858 0 107.58 0Z" fill="#1AA2F8"/>
<path fill-rule="evenodd" clip-rule="evenodd" d="M64.6628 52.6763C61.5111 36.0789 81.4706 26.2059 93.2324 38.181C93.2324 38.181 98.4832 36.7104 103.105 33.7692C103.105 33.7692 101.424 39.4411 95.7525 43.0137C95.7525 43.0137 102.056 42.1746 104.786 40.4935C104.786 40.4935 102.056 46.1653 97.0126 48.2674C99.7433 86.2919 58.7776 109.4 25.5858 90.4932C25.5858 90.4932 41.9726 91.3323 48.9045 83.3508C48.9045 83.3508 38.821 84.1899 33.7778 72.0071C33.7778 72.0071 37.558 73.4777 41.3412 71.5861C41.3412 71.5861 29.5765 69.6946 28.5269 55.6203C28.5269 55.6203 32.3072 58.5614 36.5113 57.5118C36.5113 57.5118 23.4866 49.738 30.8395 35.6636C30.8395 35.6636 44.7061 53.3106 64.6628 52.6791V52.6763Z" fill="white"/>
</svg>
