<svg width="128" height="128" viewBox="0 0 128 128" fill="none" xmlns="http://www.w3.org/2000/svg">
<path d="M107.58 0H20.4203C9.14247 0 0 9.14247 0 20.4203V107.58C0 118.858 9.14247 128 20.4203 128H107.58C118.858 128 128 118.858 128 107.58V20.4203C128 9.14247 118.858 0 107.58 0Z" fill="#FE0000"/>
<path fill-rule="evenodd" clip-rule="evenodd" d="M40.5589 36.8981C48.2162 36.2866 57.253 35.9794 64.1451 35.9794C71.0372 35.9794 79.9203 36.2866 87.7312 36.8981C96.768 37.6633 101.362 39.1964 102.588 48.2332C103.199 52.3691 103.506 58.0352 103.506 63.8549C103.506 69.6747 103.199 75.4944 102.588 79.4766C101.362 88.667 96.768 90.0437 87.7312 90.8117C79.9203 91.5769 71.0372 91.7305 64.1451 91.7305C57.253 91.7305 48.2162 91.5769 40.5589 90.8117C31.5221 90.0466 26.7748 88.667 25.5488 79.4766C25.088 75.4944 24.7836 69.6747 24.7836 63.8549C24.7836 58.0352 25.0908 52.3691 25.5488 48.2332C26.7748 39.1964 31.5221 37.6661 40.5589 36.8981Z" fill="white"/>
<path fill-rule="evenodd" clip-rule="evenodd" d="M56.1806 52.0619L76.7061 63.8549L56.1806 75.8016V52.0619Z" fill="#FE0000"/>
</svg>
